<svg width="251" height="37" viewBox="0 0 251 37" fill="none" xmlns="http://www.w3.org/2000/svg">
<path d="M63.3577 28.0441V12.8306H49.6717V16.6186H59.5696V20.7734C58.4087 19.6125 56.9424 18.8793 54.3151 18.8793C49.6716 18.8793 47.5332 21.8121 47.5332 25.3558C47.5332 28.8384 49.6716 31.8322 54.3151 31.8322C56.9424 31.8322 58.4698 31.099 59.5696 29.9382V31.8322H65.6184V28.0441H63.3577ZM55.4149 28.0441C52.6655 28.0441 51.2602 27.4942 51.2602 25.4169C51.2602 23.3395 52.6044 22.7896 55.4149 22.7896C58.1644 22.7896 59.5696 23.3395 59.5696 25.4169C59.5696 27.4942 58.1644 28.0441 55.4149 28.0441Z" fill="#E9993E"/>
<path d="M74.7222 12.8311C79.6712 12.8311 82.6039 15.886 82.6039 20.0407H78.8158C78.6936 18.0855 77.8382 16.6191 74.9055 16.6191C71.3617 16.6191 70.0176 17.78 70.0176 22.3013C70.0176 26.8837 71.3617 27.9835 74.9055 27.9835C77.8382 27.9835 78.6936 26.5171 78.8158 24.562H82.6039C82.6039 28.7167 79.6712 31.7716 74.7222 31.7716C69.1622 31.7716 66.2295 27.8613 66.2295 22.3013C66.1684 16.7414 69.1011 12.8311 74.7222 12.8311Z" fill="#E9993E"/>
<path d="M94.0916 12.831C91.4643 12.831 89.5703 13.8696 88.4094 15.0916V7.75977H84.6824V31.8326H88.4705V29.572C89.6314 30.855 91.4643 31.8326 94.1527 31.8326C100.324 31.8326 102.462 27.9223 102.462 22.3623C102.401 16.7413 100.263 12.831 94.0916 12.831ZM93.5417 28.0445C89.8147 28.0445 88.4705 26.8836 88.4705 22.3623C88.4705 17.78 89.8147 16.6802 93.5417 16.6802C97.2687 16.6802 98.6128 17.841 98.6128 22.3623C98.6128 26.8836 97.2687 28.0445 93.5417 28.0445Z" fill="#E9993E"/>
<path d="M116.148 7.82031H107.594V11.6084H116.148V7.82031Z" fill="#E9993E"/>
<path d="M42.8287 21.4459L35.9857 19.7963C35.3747 19.613 35.1914 19.4908 35.1914 18.9409V17.2912C35.1914 16.497 35.7413 16.0693 36.78 16.0693H40.2015C41.6678 16.0693 41.79 16.8636 41.79 17.4134V18.9409H45.5782V17.6578C45.5782 14.5418 43.7452 12.8311 40.3848 12.8311H36.5967C33.1751 12.8311 31.2811 14.4807 31.2811 17.4134V19.2464C31.2811 21.1405 32.2587 22.3624 34.2138 22.8512L41.179 24.562C41.79 24.7453 41.9733 24.9896 41.9733 25.4784V27.3114C41.9733 27.9224 41.79 28.5945 40.3848 28.5945H36.5356C35.0692 28.5945 34.947 27.8002 34.947 27.2503V25.4173H31.0978V27.0059C31.0978 30.0608 32.9918 31.8327 36.3523 31.8327H40.5681C44.0507 31.8327 45.8836 30.2441 45.8836 27.2503V24.9897C45.9447 23.1567 44.845 21.9347 42.8287 21.4459Z" fill="#E9993E"/>
<path d="M119.202 23.5233V18.1466C119.202 14.7251 117.308 12.8311 113.948 12.8311H109.732C106.31 12.8311 104.416 14.7251 104.416 18.1466V26.5171C104.416 29.9386 106.31 31.8327 109.732 31.8327H113.948C117.308 31.8327 119.202 29.9997 119.202 26.6393V25.4173H115.353V26.8837C115.353 27.9835 114.864 28.4723 113.703 28.4723H109.915C108.815 28.4723 108.266 27.9224 108.266 26.8837V23.4622H119.202V23.5233ZM108.388 17.7189C108.388 16.6192 108.938 16.1304 110.037 16.1304H113.826C114.925 16.1304 115.475 16.6192 115.475 17.7189V20.2851H108.449V17.7189H108.388Z" fill="#E9993E"/>
<path d="M25.1726 26.9442C21.4456 26.3944 17.1687 25.4168 12.7085 23.8282C14.4804 27.2498 16.3744 30.488 18.3907 33.4818C17.0465 34.0928 15.6412 34.4594 14.1138 34.5816C12.1586 31.5877 10.3868 28.4717 8.67601 25.1113C7.75953 27.8607 7.20964 30.5491 6.84305 33.1763C5.37668 32.4431 4.09361 31.4655 3.05493 30.3047C3.60482 27.2497 4.46019 24.1337 5.74326 20.8955C3.78811 19.9179 1.89406 18.8181 0 17.5962C0.366592 16.1909 0.977574 14.9078 1.77186 13.747C2.62724 14.2969 3.48262 14.8467 4.338 15.3966C3.91031 14.2968 3.48262 13.1971 3.05493 12.0973C4.03251 10.9975 5.19339 10.081 6.53756 9.40895C7.20964 11.2419 7.88172 13.0749 8.6149 14.8467C9.83688 12.525 11.3032 10.1421 13.0751 7.75928C13.2584 7.75928 13.3806 7.75928 13.5639 7.75928C15.0303 7.82038 16.3744 8.1259 17.6575 8.55359C15.9467 10.8753 14.4193 13.136 13.1362 15.3355L21.9955 11.1197C23.0953 12.0973 24.0117 13.1971 24.6838 14.419L13.6861 19.6735C18.2685 21.3232 22.6676 22.3007 26.3946 22.8506C26.1502 24.317 25.7836 25.7223 25.1726 26.9442Z" fill="#E9993E"/>
<path d="M198.082 17.5964C198.082 17.5964 197.165 19.2461 194.966 19.2461C192.522 19.2461 190.933 17.7186 190.933 15.0303C190.933 12.3419 192.338 10.8145 194.721 10.8145C197.837 10.8145 198.143 13.3806 198.143 13.9305L196.127 14.236C196.127 14.236 196.127 12.7085 194.721 12.7085C193.744 12.7085 193.133 13.5028 193.133 15.0303C193.133 16.5577 194.049 17.352 195.027 17.352C196.065 17.352 196.799 16.3133 196.799 16.3133L198.082 17.5964Z" fill="#E9993E"/>
<path d="M203.826 19.1239V16.069H201.26V19.1239H199.121V10.8145H201.26V14.3582H203.826V10.8145H205.965V19.1239H203.826Z" fill="#E9993E"/>
<path d="M207.492 19.1239V10.8145H209.631V19.1239H207.492Z" fill="#E9993E"/>
<path d="M217.939 17.5964C217.939 17.5964 217.023 19.2461 214.823 19.2461C212.379 19.2461 210.791 17.7186 210.791 15.0303C210.791 12.3419 212.196 10.8145 214.579 10.8145C217.695 10.8145 218 13.3806 218 13.9305L215.984 14.236C215.984 14.236 215.984 12.7085 214.579 12.7085C213.601 12.7085 212.99 13.5028 212.99 15.0303C212.99 16.5577 213.907 17.352 214.884 17.352C215.923 17.352 216.717 16.3133 216.717 16.3133L217.939 17.5964Z" fill="#E9993E"/>
<path d="M223.683 17.2909H221.055L220.444 19.1239H218.184L221.239 10.8145H223.438L226.493 19.1239H224.232L223.683 17.2909ZM221.605 15.7023H223.194L222.399 13.2584L221.605 15.7023Z" fill="#E9993E"/>
<path d="M231.869 19.1239L229.425 14.9081V19.1239H227.287V10.8145H229.425L231.869 15.2747V10.8145H234.008V19.1239H231.869Z" fill="#E9993E"/>
<path d="M235.169 14.9697C235.169 12.2203 236.819 10.7539 239.018 10.7539C241.218 10.7539 242.868 12.2203 242.868 14.9697C242.868 17.7192 241.157 19.1855 239.018 19.1855C236.819 19.1855 235.169 17.7803 235.169 14.9697ZM240.607 14.9697C240.607 13.259 239.874 12.6479 239.018 12.6479C238.102 12.6479 237.43 13.259 237.43 14.9697C237.43 16.6805 238.102 17.3525 239.018 17.3525C239.935 17.3525 240.607 16.7416 240.607 14.9697Z" fill="#E9993E"/>
<path d="M248.612 13.3806C248.612 13.3806 248.123 12.5252 247.023 12.5252C246.473 12.5252 246.107 12.7696 246.107 13.1362C246.107 14.5415 250.139 13.625 250.139 16.741C250.139 17.9019 249.284 19.185 246.901 19.185C244.213 19.185 243.357 17.4131 243.357 17.4131L244.64 16.2522C244.64 16.2522 245.496 17.5353 246.901 17.5353C247.512 17.5353 247.818 17.2909 247.818 16.8632C247.818 15.2747 243.724 16.4355 243.724 13.1973C243.724 11.9142 244.824 10.8145 246.84 10.8145C249.467 10.8145 250.078 12.5252 250.078 12.5252L248.612 13.3806Z" fill="#E9993E"/>
<path d="M219.221 27.4949C219.221 27.4949 218.305 29.1445 216.105 29.1445C213.661 29.1445 212.073 27.617 212.073 24.9287C212.073 22.2404 213.478 20.7129 215.861 20.7129C218.977 20.7129 219.282 23.2791 219.282 23.8289L217.266 24.1344C217.266 24.1344 217.266 22.607 215.861 22.607C214.883 22.607 214.272 23.4012 214.272 24.9287C214.272 26.4562 215.189 27.2504 216.166 27.2504C217.205 27.2504 217.999 26.2118 217.999 26.2118L219.221 27.4949Z" fill="#E9993E"/>
<path d="M224.966 27.1894H222.339L221.728 29.0223H219.467L222.522 20.7129H224.721L227.776 29.0223H225.516L224.966 27.1894ZM222.888 25.6008H224.477L223.683 23.1568L222.888 25.6008Z" fill="#E9993E"/>
<path d="M232.603 20.7734H234.741V25.6002C234.741 28.2274 233.214 29.1439 231.442 29.1439C229.67 29.1439 228.081 28.2885 228.081 25.6002V20.7734H230.22V25.7835C230.22 26.4556 230.403 27.1888 231.381 27.1888C232.358 27.1888 232.542 26.4556 232.542 25.7835V20.7734H232.603Z" fill="#E9993E"/>
<path d="M240.85 23.3395C240.85 23.3395 240.362 22.4842 239.262 22.4842C238.712 22.4842 238.345 22.7286 238.345 23.0952C238.345 24.5004 242.378 23.5839 242.378 26.7C242.378 27.8608 241.523 29.1439 239.14 29.1439C236.451 29.1439 235.596 27.3721 235.596 27.3721L236.879 26.2112C236.879 26.2112 237.734 27.4943 239.14 27.4943C239.751 27.4943 240.056 27.2499 240.056 26.8222C240.056 25.2336 235.963 26.3945 235.963 23.1563C235.963 21.8732 237.062 20.7734 239.079 20.7734C241.706 20.7734 242.317 22.4842 242.317 22.4842L240.85 23.3395Z" fill="#E9993E"/>
<path d="M247.999 27.1894H245.372L244.761 29.0223H242.5L245.555 20.7129H247.755L250.81 29.0223H248.549L247.999 27.1894ZM245.922 25.6008H247.51L246.716 23.1568L245.922 25.6008Z" fill="#E9993E"/>
<path d="M192.645 25.3559V21.6899H193.989C194.905 21.6899 195.516 22.1176 195.516 22.973C195.516 23.8284 194.844 24.2561 194.111 24.2561H193.561V25.3559H192.645ZM193.928 23.5229C194.294 23.5229 194.539 23.3396 194.539 22.973C194.539 22.6675 194.355 22.4231 193.867 22.4231H193.561V23.5229H193.928Z" fill="#E9993E"/>
<path d="M195.7 23.5229C195.7 22.3009 196.433 21.6899 197.411 21.6899C198.388 21.6899 199.121 22.3009 199.121 23.5229C199.121 24.7449 198.388 25.3559 197.411 25.3559C196.433 25.3559 195.7 24.7449 195.7 23.5229ZM198.083 23.5229C198.083 22.7897 197.777 22.4842 197.349 22.4842C196.983 22.4842 196.616 22.7286 196.616 23.5229C196.616 24.3172 196.922 24.5615 197.349 24.5615C197.777 24.5615 198.083 24.3172 198.083 23.5229Z" fill="#E9993E"/>
<path d="M202.482 25.3558C202.482 25.3558 202.36 25.4169 201.993 25.4169C200.771 25.4169 201.199 24.1338 200.466 24.1338H200.282V25.4169H199.305V21.751H200.649C201.627 21.751 202.115 22.0565 202.115 22.9729C202.115 23.5228 201.749 23.7672 201.565 23.8894C201.871 24.256 201.81 24.6837 202.238 24.6837H202.421V25.3558H202.482ZM200.649 23.4006C201.016 23.4006 201.321 23.2174 201.321 22.9119C201.321 22.6064 201.077 22.423 200.71 22.423H200.343V23.3395H200.649V23.4006Z" fill="#E9993E"/>
<path d="M203.949 25.3559V21.6899H204.926V24.5615H206.392V25.2947H203.949V25.3559Z" fill="#E9993E"/>
<path d="M208.958 24.5001H207.797L207.552 25.2943H206.575L207.919 21.6284H208.897L210.241 25.2943H209.263L208.958 24.5001ZM208.041 23.828H208.713L208.347 22.7893L208.041 23.828Z" fill="#E9993E"/>
<path d="M210.302 26.5781H192.645V27.739H210.302V26.5781Z" fill="#E9993E"/>
<path d="M188.247 17.5353C188.247 15.2746 188.124 13.5028 187.819 12.0364C187.452 10.2645 186.78 8.79818 185.68 7.57621C185.436 7.33181 185.253 7.08741 185.008 6.84302C183.603 5.49885 182.076 4.70459 180.059 4.2769C178.837 4.03251 177.432 3.91031 175.844 3.84921C174.988 3.84921 174.072 3.78809 173.155 3.78809C172.85 3.78809 172.544 3.78809 172.239 3.78809C171.933 3.78809 171.628 3.78809 171.322 3.78809C170.345 3.78809 169.428 3.78811 168.634 3.84921C167.045 3.91031 165.64 3.97141 164.418 4.2769C162.402 4.70459 160.813 5.49885 159.469 6.84302C159.225 7.08741 158.98 7.33181 158.797 7.57621C157.697 8.79818 157.025 10.2645 156.659 12.0364C156.353 13.5028 156.231 15.3357 156.231 17.5353C156.231 18.3296 156.231 22.8509 156.231 23.584C156.292 25.2337 156.353 26.7001 156.659 27.922C157.086 29.9383 157.881 31.5269 159.225 32.9321C159.652 33.3598 160.141 33.7875 160.63 34.093C161.73 34.8873 162.952 35.4372 164.418 35.7427C165.762 36.0482 167.351 36.1703 169.184 36.1703C169.917 36.1703 170.711 36.1703 171.567 36.1703C171.811 36.1703 172.056 36.1703 172.361 36.1703C172.605 36.1703 172.911 36.1703 173.155 36.1703C174.011 36.1703 174.744 36.1703 175.538 36.1703C177.371 36.1092 178.96 36.0482 180.304 35.7427C181.77 35.4372 182.992 34.8873 184.092 34.093C184.581 33.7264 185.07 33.3598 185.497 32.9321C186.841 31.588 187.697 29.9994 188.063 27.922C188.308 26.7001 188.43 25.2337 188.491 23.584C188.247 22.8509 188.247 18.2685 188.247 17.5353ZM159.408 8.12611C159.469 8.06501 159.591 7.9428 159.653 7.8817L159.775 7.75949C159.836 7.6984 159.836 7.69843 159.897 7.63733C160.08 7.45403 160.202 7.3318 160.386 7.14851C160.447 7.08741 160.508 7.08741 160.569 7.14851L162.096 8.98147C162.158 9.04256 162.158 9.10367 162.096 9.10367C161.974 9.22587 161.852 9.34809 161.73 9.47028C161.669 9.47028 161.669 9.53137 161.608 9.53137L161.547 9.59245C161.485 9.65355 161.424 9.71468 161.363 9.77578C161.119 10.0202 160.936 10.2646 160.752 10.5701C160.752 10.6312 160.691 10.6312 160.63 10.5701L158.614 9.34808C158.553 9.34808 158.553 9.22589 158.614 9.16479C158.797 8.8593 159.103 8.4927 159.408 8.12611ZM164.418 7.75949C164.418 7.82059 164.418 7.8817 164.357 7.8817C163.685 8.06499 163.074 8.3705 162.524 8.73709C162.463 8.73709 162.402 8.73707 162.402 8.67597L161.058 6.78193C160.997 6.72083 161.058 6.65973 161.119 6.65973C161.485 6.41533 161.913 6.17093 162.341 5.92654C162.769 5.74324 163.196 5.55995 163.624 5.43776C163.685 5.43776 163.746 5.43778 163.746 5.49888L164.418 7.75949ZM164.357 5.19338C164.785 5.07119 165.212 5.01007 165.64 4.94897C166.068 4.88788 166.496 4.82677 166.923 4.82677C166.984 4.82677 167.045 4.88789 167.045 4.88789L167.229 7.27071C167.229 7.33181 167.168 7.39292 167.168 7.39292C166.801 7.45402 166.434 7.45402 166.068 7.51512C165.701 7.57622 165.335 7.63731 165.029 7.69841C164.968 7.69841 164.907 7.69843 164.907 7.63733L164.296 5.31555C164.296 5.25445 164.296 5.19338 164.357 5.19338ZM160.386 10.9977C160.447 10.9977 160.447 11.0588 160.447 11.1199C160.325 11.4254 160.202 11.7309 160.08 12.0364L160.019 12.2808L159.958 12.5252C159.897 12.7085 159.897 12.8918 159.836 13.0751C159.836 13.1362 159.775 13.1362 159.714 13.1362L157.392 12.7085C157.331 12.7085 157.331 12.6474 157.331 12.5863C157.392 12.3419 157.392 12.1586 157.453 11.9142L157.514 11.6087L157.636 11.3032C157.758 10.8756 157.942 10.4478 158.125 10.0201C158.125 9.95905 158.247 9.95907 158.247 9.95907L160.386 10.9977ZM159.591 13.6861C159.652 13.6861 159.714 13.7472 159.653 13.8083C159.653 13.9916 159.591 14.1749 159.591 14.3582C159.591 14.5415 159.53 14.7247 159.53 14.908C159.469 15.2746 159.469 15.7023 159.469 16.0689C159.469 16.13 159.408 16.1911 159.347 16.1911L156.964 16.13C156.903 16.13 156.842 16.0689 156.842 16.0078C156.842 15.5801 156.903 15.1524 156.903 14.7247C156.903 14.5415 156.964 14.2971 156.964 14.1138C156.964 13.8694 157.025 13.6861 157.025 13.4417C157.025 13.3806 157.086 13.3195 157.147 13.3195L159.591 13.6861ZM159.469 16.5577V23.4008H156.964V16.5577H159.469ZM157.147 26.4557C157.086 26.2113 157.086 26.028 157.086 25.7836C157.086 25.6003 157.025 25.3559 157.025 25.1726C156.964 24.7449 156.964 24.3172 156.964 23.8895C156.964 23.8284 157.025 23.7673 157.086 23.7673L159.469 23.7062C159.53 23.7062 159.591 23.7674 159.591 23.8285C159.591 24.195 159.653 24.6227 159.653 24.9893C159.653 25.1726 159.714 25.3559 159.714 25.5392C159.714 25.7225 159.775 25.9058 159.775 26.0891C159.775 26.1502 159.714 26.2113 159.714 26.2113L157.392 26.5779C157.209 26.5779 157.147 26.5168 157.147 26.4557ZM157.392 27.1278L159.714 26.7001C159.775 26.7001 159.836 26.7001 159.836 26.7612C159.897 26.9445 159.897 27.1277 159.958 27.311L160.019 27.5555L160.08 27.7999C160.202 28.1054 160.325 28.4108 160.447 28.7163C160.447 28.7774 160.447 28.8385 160.386 28.8385L158.247 29.9383C158.186 29.9383 158.125 29.9383 158.125 29.8772C157.942 29.4495 157.758 29.0218 157.636 28.5941L157.514 28.2886L157.453 27.9832C157.392 27.7388 157.331 27.5554 157.331 27.311C157.27 27.1888 157.331 27.1278 157.392 27.1278ZM158.553 30.4882L160.569 29.2662C160.63 29.2662 160.691 29.2662 160.691 29.2662C160.874 29.5717 161.058 29.8161 161.302 30.0605C161.363 30.1216 161.424 30.1827 161.485 30.2438L161.547 30.3049C161.547 30.3049 161.608 30.366 161.669 30.366C161.791 30.4882 161.913 30.6104 162.035 30.7326C162.096 30.7937 162.096 30.7937 162.035 30.8548L160.508 32.6877C160.447 32.7488 160.386 32.7488 160.325 32.6877C160.141 32.5656 159.958 32.3822 159.836 32.1989C159.775 32.1378 159.775 32.1379 159.714 32.0768L159.591 31.9546C159.53 31.8935 159.408 31.7712 159.347 31.7101C159.042 31.3436 158.736 30.977 158.492 30.5493L158.553 30.4882ZM162.402 31.1603C162.463 31.0992 162.463 31.0992 162.524 31.0992C163.074 31.4658 163.685 31.7713 164.357 31.9546C164.418 31.9546 164.418 32.0157 164.418 32.0768L163.746 34.3374C163.746 34.3985 163.685 34.3985 163.624 34.3985C163.196 34.2763 162.769 34.093 162.341 33.9097C161.913 33.7264 161.485 33.482 161.119 33.1765C161.058 33.1154 161.058 33.0543 161.058 33.0543L162.402 31.1603ZM164.357 34.704C164.296 34.704 164.235 34.6429 164.296 34.5818L164.907 32.2601C164.907 32.199 164.968 32.1989 165.029 32.1989C165.396 32.26 165.701 32.3823 166.068 32.3823C166.434 32.4434 166.801 32.5044 167.168 32.5044C167.229 32.5044 167.29 32.5655 167.229 32.6266L167.045 35.0095C167.045 35.0706 166.984 35.1317 166.923 35.0706C166.496 35.0095 166.068 35.0095 165.64 34.9484C165.212 34.8873 164.785 34.7651 164.357 34.704ZM166.373 27.0056C163.991 26.9445 161.974 24.9282 161.974 22.6065C161.913 20.1625 163.868 18.1463 166.312 18.0852C166.373 18.0852 166.434 18.1463 166.434 18.2074V19.7348C166.434 19.7959 166.373 19.857 166.312 19.857C164.846 19.9181 163.685 21.2012 163.746 22.6676C163.807 24.0728 164.907 25.1726 166.312 25.2337C167.84 25.2948 169.062 24.1339 169.123 22.6676C169.123 22.6065 169.184 22.5454 169.245 22.5454H170.834C170.895 22.5454 170.956 22.6065 170.956 22.6676C170.834 25.1115 168.817 27.0667 166.373 27.0056ZM172.728 12.2808C171.75 12.2808 170.895 13.0751 170.895 14.1138V21.7511C170.895 21.8122 170.834 21.9344 170.711 21.9344H169.245C169.184 21.9344 169.062 21.8733 169.062 21.7511V14.1138C169.062 12.0975 170.834 10.4479 172.85 10.5701C174.744 10.6922 176.271 12.2808 176.21 14.236C176.149 16.1911 174.561 17.7186 172.666 17.7186H171.628C171.506 17.7186 171.445 17.6575 171.445 17.5353V16.13C171.445 16.0689 171.506 15.9467 171.628 15.9467H172.728C173.766 15.9467 174.622 15.2746 174.622 14.1748C174.683 13.0751 173.827 12.2808 172.728 12.2808ZM172.117 32.6877C172.544 32.6877 172.911 32.6877 173.339 32.6877C173.4 32.6877 173.461 32.7488 173.461 32.8099V35.1928C173.461 35.2539 173.4 35.315 173.339 35.315C172.911 35.315 172.544 35.315 172.117 35.315H170.895C170.834 35.315 170.772 35.2539 170.772 35.1928V32.8099C170.772 32.7488 170.834 32.6877 170.895 32.6877H172.117ZM170.834 4.76569C170.834 4.70459 170.895 4.64348 170.956 4.64348C171.383 4.64348 171.75 4.64348 172.178 4.64348H173.4C173.461 4.64348 173.522 4.70459 173.522 4.76569V7.14851C173.522 7.20961 173.461 7.27071 173.4 7.27071H172.178C171.75 7.27071 171.383 7.27071 170.956 7.27071C170.895 7.27071 170.834 7.20961 170.834 7.14851V4.76569ZM174.072 7.20963C174.011 7.20963 173.95 7.14852 173.95 7.08742V4.70456C173.95 4.64347 174.011 4.5824 174.072 4.5824C174.866 4.5824 175.721 4.64348 176.577 4.64348C176.638 4.64348 176.699 4.70459 176.699 4.76569L176.516 7.14851C176.516 7.20961 176.455 7.27071 176.393 7.27071C175.599 7.27071 174.866 7.27073 174.072 7.20963ZM170.161 4.64348C170.223 4.64348 170.284 4.70459 170.284 4.76569V7.14851C170.284 7.20961 170.223 7.27071 170.161 7.27071C169.367 7.27071 168.573 7.33183 167.84 7.33183C167.779 7.33183 167.718 7.27073 167.718 7.20963L167.534 4.82677C167.534 4.76567 167.595 4.70456 167.656 4.70456C168.512 4.70456 169.367 4.64348 170.161 4.64348ZM167.779 32.6877C167.779 32.6267 167.84 32.5655 167.901 32.5655C168.695 32.6266 169.428 32.6266 170.223 32.6266C170.284 32.6266 170.345 32.6877 170.345 32.7488V35.1317C170.345 35.1928 170.284 35.2539 170.223 35.2539C169.428 35.2539 168.573 35.1928 167.718 35.1928C167.656 35.1928 167.595 35.1317 167.595 35.0706L167.779 32.6877ZM174.072 35.2539C174.011 35.2539 173.95 35.1928 173.95 35.1317V32.7488C173.95 32.6877 174.011 32.6266 174.072 32.6266C174.866 32.6266 175.66 32.5655 176.393 32.5655C176.455 32.5655 176.516 32.6267 176.516 32.6877L176.699 35.0706C176.699 35.1317 176.638 35.1928 176.577 35.1928C175.721 35.1928 174.927 35.1928 174.072 35.2539ZM171.689 27.4944C171.628 27.4944 171.506 27.4332 171.506 27.311V18.4517C171.506 18.3906 171.567 18.2685 171.689 18.2685H173.094C173.216 18.2685 173.277 18.3296 173.277 18.4517V25.5392C173.277 25.6614 173.339 25.7225 173.461 25.7225H176.638C176.76 25.7225 176.821 25.7836 176.821 25.9058V27.311C176.821 27.4332 176.76 27.4944 176.638 27.4944H171.689ZM173.888 20.7735C173.827 18.3296 175.721 16.3744 178.165 16.2522C178.288 16.2522 178.41 16.3133 178.41 16.4966V17.9019C178.41 18.0241 178.349 18.0852 178.226 18.0852C176.76 18.2074 175.66 19.4293 175.721 20.8957C175.783 22.301 176.882 23.4007 178.288 23.4618C179.815 23.5229 181.037 22.3621 181.098 20.8957C181.098 20.8346 181.159 20.7735 181.22 20.7735H182.748C182.809 20.7735 182.87 20.8346 182.87 20.8957C182.809 23.3396 180.793 25.2337 178.349 25.2337C175.905 25.1726 173.95 23.2175 173.888 20.7735ZM184.642 7.8817C184.703 7.9428 184.825 8.06501 184.886 8.12611C185.192 8.4927 185.497 8.85927 185.742 9.28696C185.803 9.34806 185.742 9.40919 185.742 9.47028L183.725 10.6923C183.664 10.6923 183.603 10.6923 183.603 10.6923C183.42 10.3868 183.237 10.1423 182.992 9.89795C182.931 9.83685 182.87 9.77576 182.809 9.71466L182.748 9.65357C182.748 9.65357 182.687 9.59245 182.626 9.59245C182.503 9.47025 182.381 9.34807 182.259 9.22588C182.198 9.22588 182.198 9.16477 182.259 9.10367L183.786 7.27071C183.848 7.20961 183.909 7.20961 183.97 7.27071C184.153 7.39291 184.336 7.5762 184.459 7.75949C184.52 7.82059 184.52 7.8206 184.581 7.8817H184.642ZM187.086 13.3806C187.147 13.625 187.147 13.8083 187.147 14.0527C187.147 14.236 187.208 14.4804 187.208 14.6637C187.269 15.0914 187.269 15.519 187.269 15.9467C187.269 16.0078 187.208 16.0689 187.147 16.0689L184.764 16.13C184.703 16.13 184.642 16.0689 184.642 16.0078C184.642 15.6412 184.581 15.2135 184.581 14.847C184.581 14.6637 184.52 14.4803 184.52 14.2971C184.52 14.1138 184.459 13.9305 184.459 13.7472C184.459 13.6861 184.459 13.625 184.52 13.625L186.841 13.2584C187.025 13.3195 187.086 13.3195 187.086 13.3806ZM187.269 16.5577V23.4008H184.764V16.5577H187.269ZM186.902 12.7696L184.581 13.1973C184.52 13.1973 184.459 13.1973 184.459 13.1362C184.397 12.9529 184.397 12.7696 184.336 12.5863L184.275 12.3419L184.214 12.0975C184.092 11.792 183.97 11.4865 183.848 11.181C183.848 11.1199 183.848 11.0588 183.909 11.0588L186.047 9.95907C186.108 9.95907 186.169 9.95905 186.169 10.0201C186.353 10.4478 186.536 10.8756 186.719 11.3032L186.841 11.6087L186.902 11.9142C186.964 12.1586 187.025 12.3419 187.025 12.5863C186.964 12.7085 186.964 12.7085 186.902 12.7696ZM183.237 6.78193L181.831 8.73709C181.77 8.79819 181.77 8.79818 181.709 8.79818C181.159 8.43159 180.548 8.12612 179.876 7.94282C179.815 7.94282 179.815 7.88171 179.815 7.82062L180.487 5.55996C180.487 5.49886 180.548 5.49888 180.609 5.49888C181.037 5.62107 181.465 5.80436 181.892 5.98766C182.32 6.17095 182.748 6.41536 183.114 6.72085C183.237 6.65975 183.237 6.72083 183.237 6.78193ZM179.998 5.31555L179.387 7.63733C179.387 7.69843 179.326 7.69841 179.265 7.69841C178.899 7.63731 178.593 7.51512 178.226 7.51512C177.86 7.45402 177.493 7.39292 177.127 7.39292C177.066 7.39292 177.005 7.33181 177.066 7.27071L177.249 4.88789C177.249 4.82679 177.31 4.76567 177.371 4.82677C177.799 4.88787 178.226 4.88788 178.654 4.94897C179.082 5.01007 179.51 5.07119 179.937 5.19338C179.937 5.19338 179.998 5.25445 179.998 5.31555ZM177.066 32.5044C177.432 32.4433 177.799 32.4434 178.165 32.3823C178.532 32.3212 178.899 32.26 179.204 32.1989C179.265 32.1989 179.326 32.199 179.326 32.2601L179.937 34.5818C179.937 34.6429 179.937 34.704 179.876 34.704C179.448 34.8262 179.021 34.8873 178.593 34.9484C178.165 35.0095 177.738 35.0706 177.31 35.0706C177.249 35.0706 177.188 35.0095 177.188 35.0095L177.004 32.6266C177.004 32.5655 177.066 32.5044 177.066 32.5044ZM179.815 32.1378C179.815 32.0767 179.815 32.0156 179.876 32.0156C180.548 31.8323 181.159 31.5269 181.709 31.1603C181.77 31.1603 181.831 31.1603 181.831 31.2214L183.237 33.1765C183.298 33.2376 183.237 33.2987 183.175 33.2987C182.809 33.5431 182.381 33.7875 181.953 34.0319C181.526 34.2152 181.098 34.3985 180.67 34.5207C180.609 34.5207 180.548 34.5207 180.548 34.4596L179.815 32.1378ZM182.198 30.9159C182.137 30.8548 182.137 30.7937 182.198 30.7937C182.32 30.6715 182.442 30.5493 182.564 30.4271C182.626 30.4271 182.626 30.366 182.687 30.366L182.748 30.3049C182.809 30.2438 182.87 30.1827 182.931 30.1216C183.175 29.8772 183.359 29.6328 183.542 29.3273C183.542 29.2662 183.603 29.2662 183.664 29.3273L185.68 30.5493C185.742 30.5493 185.742 30.6715 185.68 30.7326C185.436 31.1603 185.131 31.5268 184.825 31.8934C184.764 31.9545 184.642 32.0767 184.581 32.1378L184.459 32.2601C184.397 32.3212 184.397 32.3212 184.336 32.3823C184.153 32.5656 184.031 32.6877 183.848 32.871C183.786 32.9321 183.725 32.9321 183.664 32.871L182.198 30.9159ZM183.848 28.8385C183.786 28.8385 183.786 28.7774 183.786 28.7163C183.909 28.4108 184.031 28.1054 184.153 27.7999L184.214 27.5555L184.275 27.311C184.336 27.1277 184.336 26.9445 184.397 26.7612C184.397 26.7001 184.459 26.7001 184.52 26.7001L186.841 27.1278C186.902 27.1278 186.902 27.1889 186.902 27.25C186.841 27.4944 186.841 27.6776 186.78 27.922L186.719 28.2275L186.597 28.533C186.475 28.9607 186.291 29.3884 186.047 29.8161C186.047 29.8772 185.925 29.8772 185.925 29.8772L183.848 28.8385ZM184.642 26.2113C184.581 26.2113 184.52 26.1502 184.581 26.0891C184.581 25.9058 184.642 25.7225 184.642 25.5392C184.642 25.3559 184.703 25.1726 184.703 24.9893C184.764 24.6227 184.764 24.195 184.764 23.8285C184.764 23.7674 184.825 23.7062 184.886 23.7062L187.269 23.7673C187.33 23.7673 187.391 23.8284 187.391 23.8895C187.391 24.3172 187.33 24.7449 187.33 25.1726C187.33 25.3559 187.269 25.6003 187.269 25.7836C187.269 26.028 187.208 26.2113 187.208 26.4557C187.208 26.5168 187.147 26.5779 187.086 26.5779L184.642 26.2113Z" fill="#E9993E"/>
<path d="M159.287 28.8992C159.164 28.5937 159.042 28.2882 158.981 27.9828L158.676 28.0438C158.737 28.166 158.737 28.2882 158.798 28.3493L158.859 28.5326C158.859 28.5937 158.92 28.6548 158.92 28.7159L158.614 28.8381C158.492 28.5326 158.37 28.1661 158.309 27.7995L159.287 27.5551C159.409 27.9827 159.531 28.3493 159.653 28.7159L159.898 28.5937C159.714 28.166 159.592 27.6773 159.47 27.1885L157.942 27.5551C158.065 28.1049 158.248 28.6548 158.492 29.2047L159.287 28.8992Z" fill="#E9993E"/>
<path d="M178.837 33.1156L179.021 34.0932C178.837 34.1543 178.654 34.1543 178.532 34.1543C178.349 34.1543 178.165 34.2155 178.043 34.2155L177.982 33.8488C178.104 33.8488 178.226 33.8489 178.349 33.7878C178.471 33.7878 178.593 33.7266 178.715 33.7266L178.654 33.4211C178.471 33.4211 178.349 33.4823 178.165 33.4823C177.982 33.4823 177.86 33.5433 177.676 33.5433L177.799 34.4598C178.349 34.3987 178.898 34.3377 179.448 34.2155L179.143 32.688C178.654 32.8102 178.165 32.8713 177.615 32.9324L177.676 33.2379C177.982 33.2379 178.41 33.1767 178.837 33.1156Z" fill="#E9993E"/>
<path d="M182.075 32.9929C181.77 33.1762 181.464 33.2984 181.098 33.4817L180.975 33.1762C181.098 33.1151 181.22 33.1151 181.281 33.054L181.464 32.9929L181.648 32.9318L181.525 32.6874C181.22 32.8096 180.914 32.9929 180.609 33.054L180.914 33.9094L181.098 33.8483L181.281 33.7872C181.403 33.7261 181.525 33.665 181.709 33.6039C181.953 33.4817 182.259 33.3595 182.503 33.1762L181.648 31.832C181.464 31.9542 181.22 32.0764 181.037 32.1986C180.914 32.2597 180.792 32.3208 180.731 32.3208L180.548 32.3819L180.365 32.443L180.487 32.7485C180.853 32.6263 181.22 32.443 181.586 32.2597L182.075 32.9929Z" fill="#E9993E"/>
<path d="M159.163 14.0524L158.857 13.9913C158.796 14.4189 158.796 14.8467 158.735 15.2744L157.757 15.2132V14.9689V14.7245C157.757 14.5412 157.757 14.3579 157.818 14.2357L158.185 14.2968L158.124 14.6634V15.0299H158.429C158.429 14.7245 158.491 14.3579 158.552 14.0524L157.635 13.9302C157.574 14.4801 157.513 15.03 157.513 15.5798L159.101 15.6409C159.04 15.091 159.102 14.6023 159.163 14.0524Z" fill="#E9993E"/>
<path d="M160.936 9.53093L161.058 9.40873C161.119 9.34763 161.119 9.34762 161.18 9.28652C161.241 9.22542 161.241 9.22545 161.302 9.16435C161.363 9.10326 161.363 9.10325 161.425 9.04215L161.241 8.79774C161.18 8.85884 161.119 8.91995 160.997 9.04215C160.936 9.10325 160.875 9.16432 160.814 9.28652L160.691 9.40873L160.569 9.53093C160.508 9.59203 160.447 9.71424 160.386 9.77534L159.592 9.16435C159.836 8.85886 160.08 8.61444 160.325 8.37004L160.569 8.61445C160.386 8.79775 160.264 8.91994 160.08 9.10323L160.325 9.28652C160.508 9.04213 160.753 8.79775 160.997 8.61445L160.386 7.94238C160.325 8.00348 160.264 8.06455 160.203 8.06455C160.141 8.12565 160.08 8.18678 160.019 8.24788C159.958 8.30897 159.897 8.37007 159.836 8.43116L159.714 8.61445C159.531 8.85885 159.347 9.04213 159.164 9.28652L160.447 10.203C160.63 9.89751 160.814 9.71423 160.936 9.53093Z" fill="#E9993E"/>
<path d="M162.156 6.90378C162.462 6.72049 162.767 6.5983 163.134 6.415L163.256 6.7205C163.134 6.78159 163.012 6.78156 162.951 6.84266L162.767 6.90378L162.584 6.96487L162.706 7.20928C163.012 7.08708 163.317 6.90376 163.623 6.84266L163.317 5.9873L163.134 6.04839L162.889 6.17059C162.767 6.23169 162.645 6.29278 162.462 6.35388C162.217 6.47608 161.912 6.59828 161.667 6.78158L162.523 8.12576C162.706 8.00356 162.951 7.88134 163.134 7.75914C163.256 7.69804 163.378 7.63697 163.439 7.63697L163.623 7.57585L163.806 7.51477L163.684 7.20928C163.317 7.33147 162.951 7.51476 162.584 7.69806L162.156 6.90378Z" fill="#E9993E"/>
<path d="M174.438 33.1154V33.4209C174.866 33.4209 175.293 33.4209 175.721 33.3598L175.782 34.3374H175.293H174.805V33.9708C175.049 33.9708 175.232 33.9708 175.477 33.9708V33.6653C175.293 33.6653 175.171 33.6653 174.988 33.6653C174.805 33.6653 174.682 33.6653 174.499 33.6653V34.5818C175.049 34.5818 175.599 34.5818 176.149 34.5207L176.088 32.9321C175.538 33.1154 174.988 33.1154 174.438 33.1154Z" fill="#E9993E"/>
<path d="M159.406 12.6472C159.528 12.1584 159.651 11.6696 159.834 11.2419L159.589 11.1197C159.406 11.4863 159.284 11.914 159.223 12.2806L158.245 12.0362C158.306 11.6696 158.429 11.3641 158.551 10.9975L158.856 11.1197C158.856 11.1808 158.795 11.2419 158.795 11.303L158.734 11.4863C158.673 11.6085 158.673 11.7307 158.612 11.7918L158.917 11.8529C158.978 11.5474 159.101 11.2419 159.223 10.9364L158.367 10.5698C158.123 11.1197 157.94 11.6696 157.818 12.2195L159.406 12.6472Z" fill="#E9993E"/>
<path d="M158.552 25.9054C158.491 25.5999 158.491 25.2333 158.43 24.9278H158.125V25.2944L158.186 25.661L157.819 25.7221C157.819 25.5388 157.758 25.3555 157.758 25.2333V24.9889V24.7445L158.736 24.6834C158.736 25.1111 158.797 25.5388 158.858 25.9665L159.163 25.9054C159.102 25.4166 159.041 24.8667 159.041 24.3779L157.453 24.4391C157.453 24.9889 157.514 25.5388 157.575 26.0887L158.552 25.9054Z" fill="#E9993E"/>
<path d="M159.897 31.5876C159.958 31.6487 160.019 31.7098 160.08 31.7709C160.142 31.832 160.203 31.8931 160.264 31.9542C160.325 32.0153 160.386 32.0764 160.447 32.0764L161.058 31.4043C160.814 31.1599 160.569 30.9767 160.386 30.7323L160.142 30.9156C160.264 31.0988 160.447 31.2821 160.63 31.4043L160.386 31.6487C160.142 31.4043 159.897 31.16 159.653 30.8545L160.447 30.2435C160.508 30.3046 160.569 30.4268 160.63 30.4879L160.753 30.6101L160.875 30.7323C160.936 30.7934 160.997 30.8544 161.058 30.9766C161.119 31.0377 161.18 31.0988 161.302 31.221L161.486 30.9766C161.425 30.9155 161.425 30.9156 161.363 30.8545C161.302 30.7934 161.302 30.7934 161.241 30.7323C161.18 30.6712 161.18 30.6712 161.119 30.6101L160.997 30.4879C160.814 30.3046 160.691 30.1213 160.569 29.938L159.286 30.8545C159.469 31.0989 159.653 31.3432 159.836 31.5265L159.897 31.5876Z" fill="#E9993E"/>
<path d="M162.889 33.6653L163.073 33.7263L163.256 33.7875L163.562 32.9321C163.256 32.8099 162.951 32.6877 162.645 32.5655L162.523 32.8099L162.706 32.871L162.889 32.9321C163.012 32.9932 163.073 33.0543 163.195 33.0543L163.073 33.3598C162.767 33.2376 162.401 33.0543 162.095 32.871L162.584 32.0156C162.951 32.1989 163.317 32.3822 163.684 32.5044L163.806 32.1989L163.623 32.1378L163.439 32.0767C163.317 32.0156 163.195 31.9545 163.134 31.9545C162.889 31.8323 162.706 31.7101 162.523 31.5879L161.667 32.9321C161.912 33.1154 162.156 33.2376 162.462 33.3598C162.645 33.5431 162.767 33.6042 162.889 33.6653Z" fill="#E9993E"/>
<path d="M166.678 33.6039C166.494 33.6039 166.372 33.5428 166.189 33.5428C166.006 33.5428 165.883 33.4817 165.7 33.4817L165.639 33.7872C165.761 33.7872 165.883 33.8483 166.006 33.8483C166.128 33.8483 166.25 33.9094 166.372 33.9094L166.311 34.276C166.128 34.276 165.945 34.2149 165.822 34.2149C165.639 34.2149 165.456 34.1537 165.334 34.1537L165.517 33.1762C165.945 33.2373 166.372 33.2984 166.8 33.3595L166.861 33.054C166.372 32.9929 165.822 32.9318 165.334 32.8096L165.028 34.337C165.578 34.4592 166.128 34.5203 166.678 34.5814V33.6039Z" fill="#E9993E"/>
<path d="M172.91 33.1768C172.36 33.1768 171.871 33.1768 171.321 33.1768V33.4823H172.604V34.4598H171.566V34.0932H172.238V33.7877H171.26V34.7042C171.81 34.7042 172.36 34.7042 172.849 34.7042L172.91 33.1768Z" fill="#E9993E"/>
<path d="M169.793 33.7877C169.61 33.7877 169.488 33.7877 169.305 33.7877C169.121 33.7877 168.999 33.7877 168.816 33.7877V34.0932C169.06 34.0932 169.243 34.0932 169.488 34.0932V34.4598H168.999H168.51L168.571 33.4823C168.999 33.4823 169.427 33.5433 169.855 33.5433V33.2378C169.305 33.2378 168.816 33.2379 168.266 33.1768L168.205 34.7653C168.755 34.7653 169.305 34.8264 169.855 34.8264L169.793 33.7877Z" fill="#E9993E"/>
<path d="M185.069 25.7834L185.375 25.8445C185.436 25.4168 185.436 24.9891 185.497 24.5614L186.475 24.6225V24.8669V25.1113C186.475 25.2946 186.475 25.4779 186.414 25.6001L186.047 25.539L186.108 25.1724V24.8058H185.803C185.803 25.1113 185.741 25.4779 185.741 25.7834L186.658 25.9056C186.719 25.3557 186.78 24.8058 186.78 24.2559L185.192 24.1948C185.192 24.8058 185.13 25.2946 185.069 25.7834Z" fill="#E9993E"/>
<path d="M166.738 6.90437L166.677 6.59888C166.249 6.65998 165.822 6.72107 165.394 6.78216L165.211 5.8046C165.394 5.7435 165.577 5.74348 165.7 5.74348C165.883 5.74348 166.066 5.6824 166.188 5.6824L166.249 6.04897C166.127 6.04897 166.005 6.049 165.883 6.1101C165.761 6.1101 165.638 6.17118 165.516 6.17118L165.577 6.47667C165.761 6.47667 165.883 6.41559 166.066 6.41559C166.249 6.41559 166.372 6.35447 166.555 6.35447L166.433 5.43799C165.883 5.49909 165.333 5.5602 164.783 5.6824L165.089 7.20986C165.7 7.02657 166.249 6.96547 166.738 6.90437Z" fill="#E9993E"/>
<path d="M177.614 6.29303C177.797 6.29303 177.92 6.35411 178.103 6.35411C178.286 6.35411 178.408 6.41523 178.592 6.41523L178.653 6.10974C178.531 6.10974 178.408 6.04862 178.286 6.04862C178.164 6.04862 178.042 5.98754 177.92 5.98754L177.981 5.62092C178.164 5.62092 178.347 5.68204 178.469 5.68204C178.653 5.68204 178.836 5.74313 178.958 5.74313L178.775 6.72073C178.347 6.65963 177.92 6.5985 177.492 6.5374L177.431 6.84289C177.92 6.90399 178.469 6.96511 178.958 7.0873L179.264 5.55984C178.714 5.43764 178.164 5.37653 177.614 5.31543V6.29303Z" fill="#E9993E"/>
<path d="M181.342 6.17103L181.159 6.10995L180.975 6.04883L180.67 6.90422C180.975 7.02642 181.281 7.1486 181.586 7.2708L181.709 7.02643L181.525 6.96531L181.342 6.90422C181.22 6.84312 181.159 6.78202 181.037 6.78202L181.159 6.47653C181.464 6.59872 181.831 6.78201 182.136 6.96531L181.648 7.8207C181.281 7.63741 180.914 7.45412 180.548 7.33192L180.426 7.63741L180.609 7.6985L180.792 7.75958C180.914 7.82068 181.037 7.88179 181.098 7.88179C181.342 8.00398 181.525 8.1262 181.709 8.2484L182.564 6.90422C182.32 6.72093 182.075 6.59872 181.77 6.47653C181.648 6.29323 181.464 6.23213 181.342 6.17103Z" fill="#E9993E"/>
<path d="M184.214 8.12629C184.153 8.0652 184.092 8.0041 184.031 7.94301C183.97 7.88191 183.909 7.8208 183.848 7.8208L183.237 8.49287C183.481 8.73726 183.725 8.92058 183.909 9.16498L184.153 8.98165C184.031 8.79836 183.848 8.61507 183.664 8.49287L183.909 8.2485C184.153 8.49289 184.397 8.73728 184.642 9.04277L183.848 9.65376C183.786 9.59266 183.725 9.47045 183.664 9.40935L183.542 9.28714L183.42 9.16498C183.359 9.10388 183.298 9.04277 183.237 8.92057C183.175 8.85947 183.114 8.79836 182.992 8.67616L182.809 8.92057C182.87 8.98167 182.87 8.98167 182.931 9.04277C182.992 9.10387 182.992 9.10388 183.053 9.16498C183.114 9.22608 183.114 9.22605 183.175 9.28714L183.298 9.40935C183.481 9.59265 183.603 9.77596 183.725 9.95925L185.008 9.04277C184.825 8.79838 184.642 8.55396 184.459 8.37067L184.336 8.18738C184.275 8.24848 184.214 8.18739 184.214 8.12629Z" fill="#E9993E"/>
<path d="M185.009 10.9974C185.131 11.3029 185.253 11.6084 185.314 11.9139L185.62 11.8527C185.558 11.7305 185.558 11.6084 185.497 11.5473L185.436 11.364C185.436 11.3029 185.375 11.2418 185.375 11.1807L185.681 11.0585C185.803 11.364 185.925 11.7306 185.986 12.0972L185.009 12.3415C184.886 11.9138 184.764 11.5473 184.642 11.1807L184.398 11.3029C184.581 11.7306 184.703 12.2194 184.825 12.7081L186.353 12.3415C186.231 11.7916 186.047 11.2418 185.803 10.6919L185.009 10.9974Z" fill="#E9993E"/>
<path d="M185.741 13.9913C185.803 14.2968 185.803 14.6634 185.803 14.9689H186.108V14.6022L186.047 14.2357L186.414 14.1745C186.414 14.3578 186.475 14.5412 186.475 14.6634V14.9077V15.1521L185.497 15.3354C185.497 14.9077 185.436 14.4801 185.375 14.0524L185.069 14.1135C185.13 14.6023 185.192 15.1521 185.192 15.6409L186.78 15.5798C186.78 15.03 186.719 14.4801 186.658 13.9302L185.741 13.9913Z" fill="#E9993E"/>
<path d="M183.908 30.6718C183.725 30.9162 183.48 31.1607 183.236 31.344L183.847 32.016C183.908 31.9549 183.969 31.8938 184.03 31.8938C184.091 31.8327 184.152 31.7716 184.213 31.7105C184.275 31.6494 184.336 31.5883 184.397 31.5272L184.519 31.344C184.702 31.0996 184.886 30.9162 185.069 30.6718L183.786 29.7554C183.664 29.9387 183.48 30.122 183.358 30.3053L183.236 30.4275C183.175 30.4886 183.175 30.4886 183.114 30.5497C183.053 30.6108 183.053 30.6108 182.991 30.6718C182.93 30.7329 182.93 30.733 182.869 30.7941L183.053 31.0385C183.114 30.9774 183.175 30.9163 183.297 30.7941C183.358 30.733 183.419 30.6719 183.48 30.5497L183.602 30.4275L183.725 30.3053C183.786 30.2442 183.847 30.122 183.908 30.0609L184.702 30.6718C184.458 30.9773 184.213 31.2218 183.969 31.4662L183.725 31.2218C183.908 31.0385 184.03 30.9163 184.213 30.733L183.908 30.6718Z" fill="#E9993E"/>
<path d="M169.794 6.72029V6.41479C169.366 6.41479 168.939 6.41478 168.511 6.47588L168.45 5.49832H168.939H169.427V5.86489C169.183 5.86489 169 5.86489 168.755 5.86489V6.17039C168.939 6.17039 169.061 6.17039 169.244 6.17039C169.427 6.17039 169.55 6.17039 169.733 6.17039V5.25391C169.183 5.25391 168.633 5.25389 168.083 5.31499L168.144 6.90358C168.755 6.78138 169.305 6.78139 169.794 6.72029Z" fill="#E9993E"/>
<path d="M174.437 6.10997C174.62 6.10997 174.742 6.10997 174.926 6.10997C175.109 6.10997 175.231 6.10997 175.414 6.10997V5.80448C175.17 5.80448 174.987 5.80448 174.742 5.80448V5.43787H175.231H175.72L175.659 6.41547C175.231 6.41547 174.803 6.35434 174.376 6.35434V6.65984C174.925 6.65984 175.414 6.65986 175.964 6.72096L176.025 5.13237C175.475 5.13237 174.925 5.07129 174.376 5.07129L174.437 6.10997Z" fill="#E9993E"/>
<path d="M184.886 27.25C184.764 27.7388 184.641 28.2276 184.458 28.6553L184.702 28.7775C184.886 28.4109 185.008 27.9832 185.069 27.6166L186.047 27.861C185.985 28.2276 185.863 28.5331 185.741 28.8997L185.436 28.7775C185.436 28.7164 185.497 28.6553 185.497 28.5942L185.558 28.4109C185.619 28.2887 185.619 28.1665 185.68 28.1054L185.374 28.0443C185.313 28.3498 185.191 28.6553 185.069 28.9608L185.924 29.3274C186.169 28.7775 186.352 28.2276 186.474 27.6777L184.886 27.25Z" fill="#E9993E"/>
<path d="M172.91 6.72082V6.41533H171.627V5.43773H172.666V5.80435H171.994V6.10984H172.971V5.19336C172.421 5.19336 171.872 5.19336 171.383 5.19336V6.78191C171.872 6.72081 172.421 6.72082 172.91 6.72082Z" fill="#E9993E"/>
<path d="M136.92 35.8038C136.798 35.8038 136.676 35.6815 136.676 35.5594V0.244372C136.676 0.122175 136.798 0 136.92 0C137.042 0 137.165 0.122175 137.165 0.244372V35.4983C137.165 35.6816 137.042 35.8038 136.92 35.8038Z" fill="#E9993E"/>
</svg>
