<svg width="188" height="13" viewBox="0 0 188 13" fill="none" xmlns="http://www.w3.org/2000/svg">
<path d="M8.35168 1.05H11.2017L11.4867 12H9.47668L9.31168 3.57L6.86668 10.695H5.09668L2.89168 3.81L2.74168 12H0.73168L1.00168 1.05H3.86668L6.01168 7.965L8.35168 1.05ZM19.7382 1.05H22.3932L25.7532 12H23.7882L22.8582 8.97H19.2582L18.3432 12H16.3632L19.7382 1.05ZM21.0582 2.985L19.7232 7.425H22.3932L21.0582 2.985ZM30.7772 1.05H34.4222C36.1922 1.05 37.3922 1.59 38.0222 2.67C38.3322 3.19 38.5472 3.755 38.6672 4.365C38.7872 4.975 38.8472 5.655 38.8472 6.405C38.8472 7.145 38.8122 7.77 38.7422 8.28C38.6722 8.79 38.5372 9.29 38.3372 9.78C38.1472 10.26 37.8922 10.655 37.5722 10.965C36.8622 11.655 35.8122 12 34.4222 12H30.7772V1.05ZM34.1522 2.625H32.8172V10.425H34.1522C35.2222 10.425 35.9472 10.04 36.3272 9.27C36.6472 8.6 36.8072 7.685 36.8072 6.525C36.8072 5.365 36.6472 4.45 36.3272 3.78C35.9472 3.01 35.2222 2.625 34.1522 2.625ZM44.7508 1.05H50.9308V2.625H46.7908V5.655H50.5558V7.215H46.7908V10.425H51.2308V12H44.7508V1.05ZM68.0552 8.115H66.3152V12H64.2752V1.05H68.0552C69.3752 1.05 70.3052 1.41 70.8452 2.13C71.3152 2.78 71.5502 3.6 71.5502 4.59C71.5502 5.57 71.3152 6.38 70.8452 7.02C70.3052 7.75 69.3752 8.115 68.0552 8.115ZM66.3152 6.54H67.7402C68.9202 6.54 69.5102 5.89 69.5102 4.59C69.5102 3.28 68.9202 2.625 67.7402 2.625H66.3152V6.54ZM84.2404 10.545C83.9204 11.085 83.4554 11.5 82.8454 11.79C82.2454 12.07 81.5454 12.21 80.7454 12.21C79.9554 12.21 79.2954 12.115 78.7654 11.925C78.2354 11.725 77.8054 11.465 77.4754 11.145C77.1454 10.815 76.8804 10.4 76.6804 9.9C76.3304 9.02 76.1554 7.895 76.1554 6.525C76.1554 5.675 76.2204 4.93 76.3504 4.29C76.4804 3.65 76.7054 3.06 77.0254 2.52C77.6654 1.4 78.8654 0.84 80.6254 0.84C82.6254 0.84 83.9454 1.615 84.5854 3.165C84.9354 4.035 85.1104 5.155 85.1104 6.525C85.1104 7.385 85.0454 8.135 84.9154 8.775C84.7854 9.415 84.5604 10.005 84.2404 10.545ZM80.6254 10.56C81.5354 10.56 82.1704 10.205 82.5304 9.495C82.8904 8.785 83.0704 7.795 83.0704 6.525C83.0704 5.255 82.8904 4.265 82.5304 3.555C82.1704 2.845 81.5354 2.49 80.6254 2.49C79.6654 2.49 79.0104 2.88 78.6604 3.66C78.3504 4.37 78.1954 5.325 78.1954 6.525C78.1954 8.525 78.6004 9.77 79.4104 10.26C79.7404 10.46 80.1454 10.56 80.6254 10.56ZM94.9852 5.775C96.0052 6.035 96.7352 6.405 97.1752 6.885C97.6152 7.365 97.8352 8.085 97.8352 9.045C97.8352 10.005 97.5052 10.775 96.8452 11.355C96.1852 11.925 95.2152 12.21 93.9352 12.21C92.6552 12.21 91.7302 11.94 91.1602 11.4C90.5902 10.85 90.2402 10.055 90.1102 9.015L91.7452 8.76C91.8052 9.35 92.0052 9.81 92.3452 10.14C92.6952 10.46 93.1802 10.62 93.8002 10.62C95.1302 10.62 95.7952 10.115 95.7952 9.105C95.7952 8.675 95.6702 8.35 95.4202 8.13C95.1702 7.91 94.6902 7.71 93.9802 7.53L93.1252 7.32C92.1252 7.07 91.4102 6.7 90.9802 6.21C90.5502 5.72 90.3352 4.99 90.3352 4.02C90.3352 3.04 90.6502 2.265 91.2802 1.695C91.9102 1.125 92.8402 0.84 94.0702 0.84C95.3102 0.84 96.2002 1.115 96.7402 1.665C97.2902 2.205 97.6302 2.995 97.7602 4.035L96.1402 4.29C96.0102 3.05 95.3702 2.43 94.2202 2.43C93.5902 2.43 93.1252 2.57 92.8252 2.85C92.5252 3.12 92.3752 3.48 92.3752 3.93C92.3752 4.38 92.4902 4.715 92.7202 4.935C92.9502 5.155 93.3902 5.35 94.0402 5.52L94.9852 5.775ZM107.523 5.775C108.543 6.035 109.273 6.405 109.713 6.885C110.153 7.365 110.373 8.085 110.373 9.045C110.373 10.005 110.043 10.775 109.383 11.355C108.723 11.925 107.753 12.21 106.473 12.21C105.193 12.21 104.268 11.94 103.698 11.4C103.128 10.85 102.778 10.055 102.648 9.015L104.283 8.76C104.343 9.35 104.543 9.81 104.883 10.14C105.233 10.46 105.718 10.62 106.338 10.62C107.668 10.62 108.333 10.115 108.333 9.105C108.333 8.675 108.208 8.35 107.958 8.13C107.708 7.91 107.228 7.71 106.518 7.53L105.663 7.32C104.663 7.07 103.948 6.7 103.518 6.21C103.088 5.72 102.873 4.99 102.873 4.02C102.873 3.04 103.188 2.265 103.818 1.695C104.448 1.125 105.378 0.84 106.608 0.84C107.848 0.84 108.738 1.115 109.278 1.665C109.828 2.205 110.168 2.995 110.298 4.035L108.678 4.29C108.548 3.05 107.908 2.43 106.758 2.43C106.128 2.43 105.663 2.57 105.363 2.85C105.063 3.12 104.913 3.48 104.913 3.93C104.913 4.38 105.028 4.715 105.258 4.935C105.488 5.155 105.928 5.35 106.578 5.52L107.523 5.775ZM115.936 1.05H117.976V12H115.936V1.05ZM128.26 12H124.3V1.05H127.75C129.1 1.05 130.04 1.35 130.57 1.95C131.04 2.49 131.275 3.125 131.275 3.855C131.275 5.105 130.74 5.935 129.67 6.345C130.39 6.545 130.915 6.895 131.245 7.395C131.585 7.895 131.755 8.455 131.755 9.075C131.755 9.845 131.52 10.505 131.05 11.055C130.81 11.345 130.45 11.575 129.97 11.745C129.49 11.915 128.92 12 128.26 12ZM126.34 10.425H128.14C128.66 10.425 129.05 10.28 129.31 9.99C129.58 9.7 129.715 9.305 129.715 8.805C129.715 8.305 129.58 7.91 129.31 7.62C129.05 7.33 128.66 7.185 128.14 7.185H126.34V10.425ZM126.34 5.625H127.72C128.2 5.625 128.57 5.495 128.83 5.235C129.1 4.965 129.235 4.6 129.235 4.14C129.235 3.67 129.1 3.3 128.83 3.03C128.57 2.76 128.2 2.625 127.72 2.625H126.34V5.625ZM137.175 12V1.05H139.215V10.425H142.95V12H137.175ZM147.926 1.05H154.106V2.625H149.966V5.655H153.731V7.215H149.966V10.425H154.406V12H147.926V1.05ZM171.41 12H167.45V1.05H170.9C172.25 1.05 173.19 1.35 173.72 1.95C174.19 2.49 174.425 3.125 174.425 3.855C174.425 5.105 173.89 5.935 172.82 6.345C173.54 6.545 174.065 6.895 174.395 7.395C174.735 7.895 174.905 8.455 174.905 9.075C174.905 9.845 174.67 10.505 174.2 11.055C173.96 11.345 173.6 11.575 173.12 11.745C172.64 11.915 172.07 12 171.41 12ZM169.49 10.425H171.29C171.81 10.425 172.2 10.28 172.46 9.99C172.73 9.7 172.865 9.305 172.865 8.805C172.865 8.305 172.73 7.91 172.46 7.62C172.2 7.33 171.81 7.185 171.29 7.185H169.49V10.425ZM169.49 5.625H170.87C171.35 5.625 171.72 5.495 171.98 5.235C172.25 4.965 172.385 4.6 172.385 4.14C172.385 3.67 172.25 3.3 171.98 3.03C171.72 2.76 171.35 2.625 170.87 2.625H169.49V5.625ZM184.24 12H182.2V8.19L178.825 1.05H180.865L183.22 6.285L185.575 1.05H187.615L184.24 8.19V12Z" fill="#E9993E"/>
</svg>
