<svg width="20" height="16" viewBox="0 0 20 16" fill="none" xmlns="http://www.w3.org/2000/svg">
<path d="M1.58315 0.000244762C0.717928 0.000244762 0 0.738772 0 1.62873V14.3715C0 15.2615 0.717968 16 1.58315 16H13.9712C14.8364 16 15.5544 15.2615 15.5544 14.3715V10.35L19.8041 5.98556C19.9295 5.8569 20 5.68215 20 5.49993C20 5.31771 19.9295 5.14295 19.8041 5.0143L17.7903 2.94288C17.6632 2.81262 17.4906 2.7404 17.3111 2.74279C17.1365 2.74423 16.9696 2.81613 16.8459 2.94288L15.5543 4.27132V1.62848C15.5543 0.738486 14.8363 0 13.9711 0L1.58315 0.000244762ZM1.58315 1.37175H13.9712C14.1225 1.37175 14.2211 1.47315 14.2211 1.62876V5.65025L10.4159 9.57162C10.2909 9.70061 10.221 9.87535 10.2215 10.0573V12.1145C10.2215 12.2962 10.2917 12.4706 10.4166 12.5993C10.5417 12.7278 10.7113 12.8001 10.888 12.8002H12.8879C13.0649 12.8005 13.2347 12.7286 13.36 12.6001L14.2211 11.7144V14.3717C14.2211 14.5273 14.1225 14.6287 13.9712 14.6287H1.58313C1.43185 14.6287 1.33327 14.5273 1.33327 14.3717V1.62887C1.33327 1.47326 1.43185 1.37185 1.58313 1.37185L1.58315 1.37175ZM3.26367 3.20019C3.08682 3.20975 2.92097 3.29107 2.80239 3.42627C2.68382 3.56163 2.62244 3.73973 2.63158 3.92166C2.64088 4.10357 2.71993 4.27417 2.85153 4.39614C2.98312 4.51812 3.15626 4.58125 3.33312 4.57169H12.2214C12.3998 4.57424 12.5719 4.50313 12.699 4.3743C12.8259 4.24548 12.8975 4.06946 12.8975 3.88594C12.8975 3.70243 12.8259 3.52657 12.699 3.39757C12.5719 3.26875 12.3998 3.19764 12.2214 3.20019H3.33312C3.31003 3.19908 3.28677 3.19907 3.26367 3.20019ZM17.3183 4.40026L18.3876 5.50022L17.6725 6.23585L16.6031 5.13589L17.3183 4.40026ZM3.26367 5.94315C3.08682 5.95256 2.92097 6.03388 2.80239 6.16908C2.68382 6.30444 2.62244 6.48269 2.63158 6.66446C2.64088 6.84638 2.71993 7.01714 2.85153 7.13895C2.98312 7.26092 3.15626 7.32406 3.33312 7.31449H11.1104C11.2888 7.31704 11.4608 7.24609 11.5879 7.11711C11.7149 6.98829 11.7865 6.81243 11.7865 6.62875C11.7865 6.44523 11.7149 6.26937 11.5879 6.14054C11.4608 6.01156 11.2888 5.94045 11.1104 5.94316H3.33312C3.31003 5.94189 3.28677 5.94188 3.26367 5.94315ZM15.6589 6.10737L16.7282 7.20733L12.6106 11.4289H11.5551V10.3431L15.6589 6.10737ZM3.26367 8.68597C3.08682 8.69538 2.92097 8.77669 2.80239 8.91206C2.68382 9.04726 2.62244 9.22551 2.63158 9.40744C2.64088 9.5892 2.71993 9.75996 2.85153 9.88177C2.98312 10.0037 3.15626 10.0669 3.33312 10.0573H8.6661C8.84466 10.06 9.01655 9.98891 9.14365 9.85992C9.27075 9.7311 9.3422 9.55524 9.3422 9.37172C9.3422 9.18805 9.27075 9.01219 9.14365 8.88336C9.01655 8.75437 8.84465 8.68342 8.6661 8.68598H3.33312C3.31003 8.6847 3.28677 8.6847 3.26367 8.68597ZM3.26367 11.4288C3.08682 11.4382 2.92097 11.5195 2.80239 11.6549C2.68382 11.7901 2.62244 11.9683 2.63158 12.1502C2.64088 12.3322 2.71993 12.5028 2.85153 12.6247C2.98312 12.7465 3.15626 12.8097 3.33312 12.8003H8.6661C8.84466 12.8028 9.01655 12.7317 9.14365 12.6029C9.27075 12.4739 9.3422 12.298 9.3422 12.1145C9.3422 11.931 9.27075 11.755 9.14365 11.6262C9.01655 11.4973 8.84465 11.4262 8.6661 11.4288H3.33312C3.31003 11.4275 3.28677 11.4275 3.26367 11.4288Z" fill="#FFF6D2"/>
</svg>
