<?xml version="1.0" encoding="UTF-8" ?>
<!DOCTYPE svg PUBLIC "-//W3C//DTD SVG 1.1//EN" "http://www.w3.org/Graphics/SVG/1.1/DTD/svg11.dtd">
<svg width="512pt" height="512pt" viewBox="0 0 512 512" version="1.1" xmlns="http://www.w3.org/2000/svg">
<g id="#000000ff">
<path fill="#000000" opacity="1.00" d=" M 241.62 0.00 L 270.34 0.00 C 310.24 3.18 349.77 14.14 384.35 34.62 C 449.43 72.12 496.48 139.44 508.44 213.69 C 510.17 222.93 510.59 232.34 512.00 241.63 L 512.00 270.34 C 508.82 310.25 497.86 349.77 477.38 384.35 C 439.88 449.43 372.57 496.48 298.32 508.44 C 289.07 510.17 279.66 510.59 270.37 512.00 L 241.66 512.00 C 201.75 508.82 162.23 497.86 127.65 477.38 C 62.57 439.88 15.52 372.57 3.56 298.32 C 1.83 289.07 1.41 279.66 0.00 270.37 L 0.00 241.66 C 1.41 232.36 1.82 222.93 3.56 213.67 C 15.52 139.43 62.57 72.12 127.65 34.62 C 162.22 14.15 201.73 3.19 241.62 0.00 M 146.43 149.61 C 134.99 150.87 126.21 162.64 128.32 173.97 C 129.72 184.34 139.58 192.35 149.98 191.98 C 220.66 192.01 291.34 192.01 362.02 191.98 C 374.28 192.57 385.24 181.14 383.87 168.89 C 383.21 157.92 372.97 148.90 362.04 149.36 C 290.17 149.50 218.28 149.00 146.43 149.61 M 144.24 235.35 C 134.21 237.60 126.91 247.88 128.17 258.11 C 128.94 268.99 139.19 277.78 150.02 277.32 C 220.67 277.35 291.33 277.35 361.98 277.32 C 373.57 277.86 384.31 267.69 383.92 256.00 C 384.31 244.32 373.58 234.13 361.98 234.68 C 293.65 234.62 225.32 234.69 157.00 234.65 C 152.74 234.67 148.42 234.42 144.24 235.35 M 145.33 320.46 C 134.55 322.24 126.60 333.31 128.23 344.10 C 129.39 354.67 139.38 363.06 149.97 362.64 C 220.66 362.67 291.35 362.67 362.03 362.64 C 371.54 362.96 380.74 356.32 383.15 347.07 C 387.23 334.26 376.47 319.87 363.06 320.07 C 294.37 319.91 225.69 320.06 157.00 319.99 C 153.11 320.01 149.18 319.80 145.33 320.46 Z" />
</g>
</svg>
