<svg xmlns="http://www.w3.org/2000/svg" viewBox="0 0 512 512"><defs><style>.cls-1{fill:#10454f;}</style></defs><g id="Capa_2" data-name="Capa 2"><g id="Capa_1-2" data-name="Capa 1"><g id="_000000ff" data-name="#000000ff"><path class="cls-1" d="M241.62,0h28.72c39.9,3.18,79.43,14.14,114,34.62,65.08,37.5,112.13,104.82,124.09,179.07,1.73,9.24,2.15,18.65,3.56,27.94v28.71c-3.18,39.91-14.14,79.43-34.62,114-37.5,65.08-104.81,112.13-179.06,124.09-9.25,1.73-18.66,2.15-27.95,3.56H241.66c-39.91-3.18-79.43-14.14-114-34.62C62.57,439.88,15.52,372.57,3.56,298.32,1.83,289.07,1.41,279.66,0,270.37V241.66c1.41-9.3,1.82-18.73,3.56-28,12-74.24,59-141.55,124.09-179C162.22,14.15,201.73,3.19,241.62,0M146.43,149.61c-11.44,1.26-20.22,13-18.11,24.36,1.4,10.37,11.26,18.38,21.66,18q106,0,212,0c12.26.59,23.22-10.84,21.85-23.09-.66-11-10.9-20-21.83-19.53-71.87.14-143.76-.36-215.61.25m-2.19,85.74c-10,2.25-17.33,12.53-16.07,22.76.77,10.88,11,19.67,21.85,19.21q106,0,212,0c11.59.54,22.33-9.63,21.94-21.32.39-11.68-10.34-21.87-21.94-21.32q-102.5-.09-205,0c-4.26,0-8.58-.23-12.76.7m1.09,85.11c-10.78,1.78-18.73,12.85-17.1,23.64,1.16,10.57,11.15,19,21.74,18.54q106,0,212.06,0c9.51.32,18.71-6.32,21.12-15.57,4.08-12.81-6.68-27.2-20.09-27-68.69-.16-137.37,0-206.06-.08C153.11,320,149.18,319.8,145.33,320.46Z"/></g></g></g></svg>