<svg width="19" height="19" viewBox="0 0 19 19" fill="none" xmlns="http://www.w3.org/2000/svg">
<g clip-path="url(#clip0_201_2465)">
<path d="M0 19.0002C0.238894 18.1279 0.469824 17.2834 0.704736 16.4389C0.899832 15.7212 1.10289 15.0036 1.29003 14.2859C1.31391 14.1947 1.29799 14.0758 1.25419 13.9925C-1.10289 9.68262 0.167225 4.38546 4.24434 1.62982C6.19929 0.309499 8.3772 -0.241628 10.7144 0.0993568C14.6442 0.674273 17.272 2.89068 18.5461 6.62169C19.7207 10.0593 18.558 14.0718 15.8148 16.4627C14.3495 17.7394 12.6614 18.5284 10.7303 18.7742C8.79924 19.0201 6.95976 18.6949 5.22381 17.8108C5.07251 17.7315 4.93713 17.7156 4.77389 17.7592C3.24895 18.1636 1.72003 18.5641 0.191115 18.9646C0.139355 18.9764 0.0875943 18.9844 0 19.0002ZM2.26949 16.768C2.32921 16.7561 2.36106 16.7481 2.39292 16.7402C3.24895 16.5182 4.10897 16.2961 4.96102 16.0662C5.15214 16.0146 5.30344 16.0305 5.47863 16.1336C7.78793 17.4579 10.1928 17.6561 12.6375 16.6054C16.0298 15.1463 17.8613 11.7087 17.2601 8.057C16.6827 4.52027 13.5174 1.74084 9.91408 1.60603C7.9233 1.5307 6.1316 2.09372 4.58676 3.35457C2.80302 4.80971 1.83152 6.70099 1.68818 8.99272C1.58068 10.6937 2.01865 12.2717 2.95034 13.707C3.03395 13.8339 3.04987 13.9449 3.01006 14.0916C2.75922 14.9679 2.52033 15.8521 2.26949 16.768Z" fill="#FFF6D2"/>
<path d="M6.34255 5.07908C6.4182 5.08701 6.49385 5.08305 6.5695 5.07115C6.92386 5.0315 7.09109 5.27337 7.2185 5.60246C7.42952 6.14962 7.66045 6.68885 7.89536 7.22412C7.97898 7.41443 7.97499 7.58096 7.85157 7.74352C7.66045 7.99728 7.4773 8.255 7.27822 8.50083C7.15081 8.65943 7.14683 8.7982 7.24637 8.96869C8.01481 10.2613 9.08983 11.197 10.4953 11.7521C10.6864 11.8274 10.8417 11.7997 10.9731 11.6371C11.208 11.3437 11.4549 11.0582 11.6818 10.7569C11.8132 10.5824 11.9645 10.5111 12.1596 10.6022C12.8365 10.9155 13.5094 11.2366 14.1783 11.5657C14.2499 11.6014 14.3136 11.7204 14.3176 11.8036C14.3375 12.5015 14.1345 13.0883 13.5054 13.4967C12.7369 13.9923 11.9287 14.0438 11.0726 13.8059C8.91862 13.2072 7.28618 11.8988 5.97227 10.1423C5.50245 9.51189 5.04855 8.86957 4.84549 8.09244C4.59863 7.15275 4.74993 6.29236 5.39494 5.53902C5.64578 5.24165 5.93644 5.03943 6.34255 5.07908Z" fill="#FFF6D2"/>
</g>
<defs>
<clipPath id="clip0_201_2465">
<rect width="19" height="19" fill="white"/>
</clipPath>
</defs>
</svg>
