<svg width="21" height="21" viewBox="0 0 21 21" fill="none" xmlns="http://www.w3.org/2000/svg">
<path d="M8.80957 12.1978L12.3334 10.1648L8.80957 8.13184V12.1978Z" fill="#FFF6D2"/>
<path d="M10.165 0C4.5479 0 0 4.5479 0 10.165C0 15.7821 4.5479 20.33 10.165 20.33C15.7821 20.33 20.33 15.7821 20.33 10.165C20.33 4.5479 15.7821 0 10.165 0ZM16.6555 13.4329C16.5049 14.0202 16.0381 14.4719 15.4508 14.6376C14.3967 14.9087 10.165 14.9087 10.165 14.9087C10.165 14.9087 5.93335 14.9087 4.86414 14.6225C4.27683 14.4719 3.82505 14.0051 3.6594 13.4178C3.37327 12.3637 3.37327 10.1499 3.37327 10.1499C3.37327 10.1499 3.37327 7.95129 3.6594 6.88208C3.80999 6.29477 4.27683 5.84299 4.86414 5.67734C5.91829 5.39122 10.165 5.39122 10.165 5.39122C10.165 5.39122 14.3967 5.39122 15.4659 5.67734C16.0532 5.82793 16.5049 6.29477 16.6706 6.88208C16.9567 7.93623 16.9567 10.1499 16.9567 10.1499C16.9567 10.1499 16.9417 12.3637 16.6555 13.4329Z" fill="#FFF6D2"/>
</svg>
