<svg width="65" height="64" viewBox="0 0 65 64" fill="none" xmlns="http://www.w3.org/2000/svg">
<g clip-path="url(#clip0_201_1540)" filter="url(#filter0_d_201_1540)">
<path d="M17.0178 4.64836C16.8075 4.38257 16.5421 4.16379 16.2391 4.00655C15.9361 3.8493 15.6025 3.75719 15.2605 3.73634C14.9185 3.71548 14.5759 3.76636 14.2555 3.88559C13.935 4.00481 13.644 4.18967 13.4019 4.42786L9.71827 8.05036C7.99758 9.74436 7.36346 12.1419 8.11514 14.2454C11.235 22.9519 16.3099 30.8567 22.9636 37.3734C29.5968 43.9102 37.6427 48.8962 46.5046 51.9614C48.6457 52.6999 51.086 52.0769 52.8103 50.3864L56.4939 46.7674C56.7363 46.5295 56.9245 46.2436 57.0459 45.9288C57.1672 45.6139 57.219 45.2773 57.1978 44.9413C57.1765 44.6053 57.0828 44.2776 56.9227 43.9799C56.7627 43.6823 56.54 43.4215 56.2695 43.2149L48.0508 36.9359C47.7617 36.7156 47.4256 36.5628 47.0676 36.4888C46.7097 36.4148 46.3394 36.4217 45.9845 36.5089L38.1826 38.4234C37.1413 38.6791 36.0502 38.6655 35.0157 38.384C33.9813 38.1025 33.0386 37.5626 32.2796 36.8169L23.5301 28.2174C22.7704 27.472 22.2202 26.546 21.9331 25.5297C21.6459 24.5134 21.6315 23.4413 21.8913 22.4179L23.8436 14.7529C23.9323 14.4042 23.9393 14.0404 23.864 13.6887C23.7887 13.3371 23.6331 13.0068 23.409 12.7229L17.0178 4.64836ZM10.7122 1.78886C11.3356 1.17618 12.0846 0.700817 12.9093 0.394325C13.7341 0.0878334 14.6158 -0.0427703 15.4959 0.0111867C16.3759 0.0651437 17.2343 0.302427 18.0138 0.70728C18.7934 1.11213 19.4764 1.67529 20.0175 2.35936L26.4086 10.4304C27.5806 11.9109 27.9939 13.8394 27.5308 15.6594L25.5821 23.3244C25.4813 23.7214 25.4868 24.1372 25.5979 24.5315C25.709 24.9259 25.922 25.2853 26.2162 25.5749L34.9693 34.1744C35.2644 34.464 35.6308 34.6736 36.0329 34.7828C36.4349 34.892 36.8589 34.897 37.2635 34.7974L45.0618 32.8829C45.976 32.6583 46.9302 32.6409 47.8523 32.8319C48.7743 33.0229 49.6401 33.4173 50.3842 33.9854L58.5993 40.2644C61.5526 42.5219 61.8234 46.8094 59.18 49.4029L55.4964 53.0219C52.8601 55.6119 48.92 56.7494 45.2471 55.4789C35.8463 52.2292 27.3109 46.9418 20.274 40.0089C13.2177 33.0964 7.83587 24.712 4.52771 15.4774C3.23808 11.8724 4.39589 7.99786 7.03214 5.40786L10.7158 1.78886H10.7122Z" fill="#FFF6D2"/>
</g>
<defs>
<filter id="filter0_d_201_1540" x="0" y="0" width="65" height="64" filterUnits="userSpaceOnUse" color-interpolation-filters="sRGB">
<feFlood flood-opacity="0" result="BackgroundImageFix"/>
<feColorMatrix in="SourceAlpha" type="matrix" values="0 0 0 0 0 0 0 0 0 0 0 0 0 0 0 0 0 0 127 0" result="hardAlpha"/>
<feOffset dy="4"/>
<feGaussianBlur stdDeviation="2"/>
<feComposite in2="hardAlpha" operator="out"/>
<feColorMatrix type="matrix" values="0 0 0 0 0 0 0 0 0 0 0 0 0 0 0 0 0 0 0.25 0"/>
<feBlend mode="normal" in2="BackgroundImageFix" result="effect1_dropShadow_201_1540"/>
<feBlend mode="normal" in="SourceGraphic" in2="effect1_dropShadow_201_1540" result="shape"/>
</filter>
<clipPath id="clip0_201_1540">
<rect width="57" height="56" fill="white" transform="translate(4)"/>
</clipPath>
</defs>
</svg>
