<svg xmlns="http://www.w3.org/2000/svg" viewBox="0 0 153.85 46.04"><defs><style>.cls-1{fill:#10454f;}</style></defs><g id="Capa_2" data-name="Capa 2"><g id="Capa_1-2" data-name="Capa 1"><path class="cls-1" d="M147.9,1a4.84,4.84,0,0,1,4.89,4.81V40.19A4.84,4.84,0,0,1,147.9,45H6A4.89,4.89,0,0,1,1,40.19V5.85A4.84,4.84,0,0,1,5.89,1Zm0-1H6A5.89,5.89,0,0,0,0,5.85V40.19A5.89,5.89,0,0,0,6,46h142a5.89,5.89,0,0,0,5.95-5.85V5.85A5.89,5.89,0,0,0,147.9,0Z"/><path class="cls-1" d="M16.19,18.82c-2.47,4.29-.88,10.71,1.83,14.65,1.35,2,2.76,3.71,4.71,3.71h.11A6,6,0,0,0,25,36.6,6.12,6.12,0,0,1,27.61,36a6,6,0,0,1,2.48.58,5.34,5.34,0,0,0,2.35.58c2.18-.06,3.48-1.91,4.65-3.59a16.49,16.49,0,0,0,2.06-4.11.21.21,0,0,0-.11-.29,6,6,0,0,1-.71-10.78c.06-.05.12-.11.12-.17a.19.19,0,0,0-.06-.17,7.22,7.22,0,0,0-5.48-3h-.47A9.69,9.69,0,0,0,29,16a4.56,4.56,0,0,1-1.65.47A6,6,0,0,1,25.61,16a8.39,8.39,0,0,0-3-.75h-.06A7.06,7.06,0,0,0,16.19,18.82Z"/><path class="cls-1" d="M32.74,8.17a6.78,6.78,0,0,0-4.48,2.26,6.14,6.14,0,0,0-1.59,4.63c0,.11.12.17.24.23h.29a5.61,5.61,0,0,0,4.18-2.14A6.39,6.39,0,0,0,33,8.4C33,8.22,32.91,8.17,32.74,8.17Z"/><path class="cls-1" d="M58.05,31.1H51.81l-1.24,2.84H48.16l5.65-12.28h2.3l5.65,12.28H59.29Zm-.76-1.79-2.36-5.39-2.35,5.39Z"/><path class="cls-1" d="M70.89,25.08a4.72,4.72,0,0,1,1.7,1.68,5.07,5.07,0,0,1,.65,2.49,5.34,5.34,0,0,1-.65,2.55,4.36,4.36,0,0,1-1.7,1.68,5.1,5.1,0,0,1-2.48.58,3.84,3.84,0,0,1-3.06-1.28v4.58H63.11V24.56h2.12v1.21a3.33,3.33,0,0,1,1.36-1,4.39,4.39,0,0,1,1.76-.35A6,6,0,0,1,70.89,25.08Zm-.71,6.31a2.9,2.9,0,0,0,.76-2.14,3.28,3.28,0,0,0-.76-2.14,2.74,2.74,0,0,0-2-.81,3.31,3.31,0,0,0-1.48.34,2.48,2.48,0,0,0-1,1.05,3.65,3.65,0,0,0,0,3.12,2.54,2.54,0,0,0,1,1.05,3,3,0,0,0,1.48.34A2.84,2.84,0,0,0,70.18,31.39Z"/><path class="cls-1" d="M83.14,25.08a4.72,4.72,0,0,1,1.7,1.68,5.07,5.07,0,0,1,.65,2.49,5.34,5.34,0,0,1-.65,2.55,4.36,4.36,0,0,1-1.7,1.68,5.1,5.1,0,0,1-2.48.58,3.84,3.84,0,0,1-3.06-1.28v4.58H75.36V24.56h2.12v1.21a3.33,3.33,0,0,1,1.36-1,4.39,4.39,0,0,1,1.76-.35A6,6,0,0,1,83.14,25.08Zm-.71,6.31a2.9,2.9,0,0,0,.76-2.14,3.28,3.28,0,0,0-.76-2.14,2.74,2.74,0,0,0-2-.81,3.31,3.31,0,0,0-1.48.34,2.48,2.48,0,0,0-1,1.05,3.65,3.65,0,0,0,0,3.12,2.54,2.54,0,0,0,1,1.05,3,3,0,0,0,1.48.34A2.84,2.84,0,0,0,82.43,31.39Z"/><path class="cls-1" d="M93.79,33.71a7.34,7.34,0,0,1-2.12-1l.82-1.8a7,7,0,0,0,1.89,1,7.61,7.61,0,0,0,2.24.4,3.73,3.73,0,0,0,2.06-.46,1.34,1.34,0,0,0,.7-1.16,1,1,0,0,0-.41-.87,2.26,2.26,0,0,0-1-.52c-.41-.12-.94-.29-1.59-.46a20.65,20.65,0,0,1-2.3-.7,4.12,4.12,0,0,1-1.53-1,2.78,2.78,0,0,1-.64-1.91,3,3,0,0,1,.58-1.86A3.73,3.73,0,0,1,94.2,22,6.74,6.74,0,0,1,97,21.49a9.17,9.17,0,0,1,2.24.29,5.48,5.48,0,0,1,1.88.81l-.7,1.79a6.46,6.46,0,0,0-1.71-.69A6.21,6.21,0,0,0,97,23.46a3.85,3.85,0,0,0-2.06.46,1.32,1.32,0,0,0-.65,1.22,1.07,1.07,0,0,0,.41.87,2.43,2.43,0,0,0,1,.52c.42.11,1,.29,1.59.46a19.47,19.47,0,0,1,2.3.64,4,4,0,0,1,1.53,1,2.79,2.79,0,0,1,.65,1.91,3,3,0,0,1-.59,1.85,3.64,3.64,0,0,1-1.71,1.34,6.83,6.83,0,0,1-2.76.46A16,16,0,0,1,93.79,33.71Z"/><path class="cls-1" d="M109.46,33.48a2.34,2.34,0,0,1-.95.46,3.68,3.68,0,0,1-1.17.17,3.33,3.33,0,0,1-2.42-.81,3,3,0,0,1-.88-2.37V26.41h-1.59V24.68H104V22.53h2.24v2.15h2.53v1.73h-2.53v4.46a1.38,1.38,0,0,0,.35,1,1.27,1.27,0,0,0,1,.35,1.78,1.78,0,0,0,1.24-.4Z"/><path class="cls-1" d="M112.69,33.48a4.78,4.78,0,0,1-1.83-1.74,5.09,5.09,0,0,1,0-5,4.31,4.31,0,0,1,1.83-1.68,5.46,5.46,0,0,1,2.59-.64,5.73,5.73,0,0,1,2.65.64,5.07,5.07,0,0,1,1.82,1.68,5.09,5.09,0,0,1,0,5,4.84,4.84,0,0,1-1.82,1.74,5.67,5.67,0,0,1-2.65.63A6.26,6.26,0,0,1,112.69,33.48Zm4.65-2.09a2.93,2.93,0,0,0,.82-2.14,3,3,0,0,0-.82-2.14,2.88,2.88,0,0,0-2.06-.81,2.72,2.72,0,0,0-2,.81,2.9,2.9,0,0,0-.77,2.14,3,3,0,0,0,.77,2.14,2.72,2.72,0,0,0,2,.81A2.88,2.88,0,0,0,117.34,31.39Z"/><path class="cls-1" d="M128.06,24.5v2.08a1.91,1.91,0,0,0-.53,0,2.73,2.73,0,0,0-2.06.75,3.05,3.05,0,0,0-.71,2.14V34h-2.24V24.56h2.12V26C125.29,25,126.41,24.5,128.06,24.5Z"/><path class="cls-1" d="M138.77,30h-7.48a2.48,2.48,0,0,0,1,1.62,3.32,3.32,0,0,0,2.07.58,3.47,3.47,0,0,0,2.59-1l1.17,1.33a3.85,3.85,0,0,1-1.64,1.16,6.77,6.77,0,0,1-2.24.41,6,6,0,0,1-2.77-.64,4,4,0,0,1-1.82-1.74,5.09,5.09,0,0,1,0-5A4.67,4.67,0,0,1,131.41,25a5.36,5.36,0,0,1,2.53-.63,4.84,4.84,0,0,1,2.48.58,4.64,4.64,0,0,1,1.7,1.68,5,5,0,0,1,.59,2.54A4.55,4.55,0,0,1,138.77,30Zm-6.59-3.12a2.76,2.76,0,0,0-.89,1.68h5.42a2.92,2.92,0,0,0-.88-1.68,2.77,2.77,0,0,0-1.83-.64A2.65,2.65,0,0,0,132.18,26.88Z"/><path class="cls-1" d="M52.46,8.17a4.25,4.25,0,0,1,2,.4A3.47,3.47,0,0,1,55.7,9.73a3.8,3.8,0,0,1,.41,1.85,3.81,3.81,0,0,1-.41,1.86,2.73,2.73,0,0,1-1.24,1.16,4.38,4.38,0,0,1-2,.4H50.22V8.17Zm0,6.37a3.08,3.08,0,0,0,2.29-.76,2.81,2.81,0,0,0,.77-2.14,2.81,2.81,0,0,0-.77-2.14,3.12,3.12,0,0,0-2.29-.75H50.87v5.79Z"/><path class="cls-1" d="M57.82,9a.45.45,0,0,1-.3-.11.41.41,0,0,1,0-.58.46.46,0,0,1,.3-.12.45.45,0,0,1,.29.12.41.41,0,0,1,0,.58A.62.62,0,0,1,57.82,9Zm-.3,1.11h.53v4.92h-.53Z"/><path class="cls-1" d="M60.05,13.61a1.05,1.05,0,0,0,.24.52,1.33,1.33,0,0,0,.47.35,2,2,0,0,0,.64.12,1.56,1.56,0,0,0,1-.23.72.72,0,0,0,.11-1A1.29,1.29,0,0,0,62,13l-.64-.17c-.18-.06-.36-.06-.53-.12a2,2,0,0,1-.59-.23,2.3,2.3,0,0,1-.47-.35,1,1,0,0,1-.18-.63,1,1,0,0,1,.23-.7,1.41,1.41,0,0,1,.65-.46,2.42,2.42,0,0,1,.94-.17,2.36,2.36,0,0,1,1.12.29,1.42,1.42,0,0,1,.65.86l-.53.18a1,1,0,0,0-.29-.47,1.38,1.38,0,0,0-.47-.23,1.49,1.49,0,0,0-.48-.06,1.13,1.13,0,0,0-.82.24.56.56,0,0,0-.29.58.45.45,0,0,0,.11.34.53.53,0,0,0,.3.23,2.75,2.75,0,0,0,.41.18c.18.06.35.06.47.11l.59.18a4.64,4.64,0,0,1,.53.23,1.34,1.34,0,0,1,.41.41,1,1,0,0,1,.18.63,1.17,1.17,0,0,1-.24.76,1.33,1.33,0,0,1-.64.46,2.63,2.63,0,0,1-.95.17,1.88,1.88,0,0,1-1.23-.35,1.71,1.71,0,0,1-.65-1Z"/><path class="cls-1" d="M65,13.9,65.06,17h-.59V10.13H65l.06,1.11a1.59,1.59,0,0,1,.71-.82A1.94,1.94,0,0,1,67,10.08a2.45,2.45,0,0,1,1.18.29,2.84,2.84,0,0,1,.82.87,2.9,2.9,0,0,1,.3,1.33A3.13,3.13,0,0,1,69,13.9a2,2,0,0,1-.82.87,2.2,2.2,0,0,1-1.24.29,1.94,1.94,0,0,1-1.23-.35A1.35,1.35,0,0,1,65,13.9Zm3.65-1.33a2.17,2.17,0,0,0-.47-1.45,1.74,1.74,0,0,0-1.3-.52,1.8,1.8,0,0,0-.94.23,2,2,0,0,0-.65.69,2,2,0,0,0-.23,1.05,2,2,0,0,0,.23,1,1.88,1.88,0,0,0,.65.69,1.71,1.71,0,0,0,.94.24,1.69,1.69,0,0,0,1.3-.52A2.19,2.19,0,0,0,68.65,12.57Z"/><path class="cls-1" d="M72.59,15.12a2.79,2.79,0,0,1-1.23-.29,2.06,2.06,0,0,1-.89-.87,2.41,2.41,0,0,1-.29-1.33,3,3,0,0,1,.29-1.33,2.06,2.06,0,0,1,.89-.87,2.66,2.66,0,0,1,1.23-.29,2.7,2.7,0,0,1,1.24.29,2,2,0,0,1,.88.87,2.31,2.31,0,0,1,.3,1.33,2.94,2.94,0,0,1-.3,1.33,2,2,0,0,1-.88.87A2.83,2.83,0,0,1,72.59,15.12Zm0-.52a1.6,1.6,0,0,0,.89-.23,1.49,1.49,0,0,0,.7-.64,2.15,2.15,0,0,0,.24-1.1,2,2,0,0,0-.24-1.1,1.49,1.49,0,0,0-.7-.64,2.66,2.66,0,0,0-.89-.23,1.71,1.71,0,0,0-.88.23,1.2,1.2,0,0,0-.65.64,2.23,2.23,0,0,0-.23,1.1,2.11,2.11,0,0,0,.23,1.1,1.72,1.72,0,0,0,.65.64A2.61,2.61,0,0,0,72.59,14.6Z"/><path class="cls-1" d="M76.36,10.13h.53L77,11a1.44,1.44,0,0,1,.65-.69,1.77,1.77,0,0,1,1-.23,1.89,1.89,0,0,1,1,.23,1.49,1.49,0,0,1,.65.69,3.18,3.18,0,0,1,.23,1.22v2.84h-.59V12.34a1.94,1.94,0,0,0-.35-1.28,1.29,1.29,0,0,0-1.06-.46,1.53,1.53,0,0,0-1.12.46A1.9,1.9,0,0,0,77,12.45v2.61h-.59Z"/><path class="cls-1" d="M82.37,9a.45.45,0,0,1-.3-.11.44.44,0,0,1,0-.58.46.46,0,0,1,.3-.12.41.41,0,0,1,.29.7A.43.43,0,0,1,82.37,9Zm-.3,1.11h.53v4.92h-.53Z"/><path class="cls-1" d="M84.9,11.3a1.65,1.65,0,0,1,.71-.87,2.12,2.12,0,0,1,1.23-.35,2.29,2.29,0,0,1,1.18.29,3,3,0,0,1,.83.87,3,3,0,0,1,.29,1.33,3.25,3.25,0,0,1-.29,1.33,1.72,1.72,0,0,1-.83.87,2.1,2.1,0,0,1-1.18.29,1.87,1.87,0,0,1-1.17-.35A3,3,0,0,1,85,13.9L84.9,15h-.53V8H85Zm3.65,1.27a2.17,2.17,0,0,0-.47-1.45,1.74,1.74,0,0,0-1.3-.52,1.8,1.8,0,0,0-.94.23A1.93,1.93,0,0,0,85,12.57a2,2,0,0,0,.23,1,2,2,0,0,0,.65.7,1.8,1.8,0,0,0,.94.23,1.69,1.69,0,0,0,1.3-.52A2.17,2.17,0,0,0,88.55,12.57Z"/><path class="cls-1" d="M90.38,8H91v7.07h-.59Z"/><path class="cls-1" d="M94.56,15.12a2.22,2.22,0,0,1-1.24-.35,2.06,2.06,0,0,1-.82-.93,3.1,3.1,0,0,1-.3-1.33,2.83,2.83,0,0,1,.3-1.27,2.27,2.27,0,0,1,.82-.87,2,2,0,0,1,1.18-.29,2.48,2.48,0,0,1,1.18.29,1.84,1.84,0,0,1,.82.81,2.34,2.34,0,0,1,.29,1.16v.46H92.85a1.63,1.63,0,0,0,.23.93,2.11,2.11,0,0,0,.59.63,1.41,1.41,0,0,0,.89.23,2,2,0,0,0,1.06-.23,1.42,1.42,0,0,0,.64-.69l.48.17a2.37,2.37,0,0,1-.83,1A3.14,3.14,0,0,1,94.56,15.12Zm1.7-2.84a1.88,1.88,0,0,0-.17-.87,1.5,1.5,0,0,0-.59-.58,1.94,1.94,0,0,0-.88-.23,1.41,1.41,0,0,0-.83.23,1.5,1.5,0,0,0-.59.58,2,2,0,0,0-.29.87Z"/><path class="cls-1" d="M103,15.12a2.2,2.2,0,0,1-1.24-.35,2.06,2.06,0,0,1-.82-.93,3.1,3.1,0,0,1-.3-1.33,2.83,2.83,0,0,1,.3-1.27,2.27,2.27,0,0,1,.82-.87,2,2,0,0,1,1.18-.29,2.48,2.48,0,0,1,1.18.29,1.84,1.84,0,0,1,.82.81,2.34,2.34,0,0,1,.29,1.16v.46h-4a1.56,1.56,0,0,0,.24.93,2,2,0,0,0,.58.63,1.41,1.41,0,0,0,.89.23,2,2,0,0,0,1.06-.23,1.42,1.42,0,0,0,.64-.69l.48.17a2.37,2.37,0,0,1-.83,1A3.06,3.06,0,0,1,103,15.12Zm1.64-2.84a1.88,1.88,0,0,0-.17-.87,1.43,1.43,0,0,0-.59-.58,1.94,1.94,0,0,0-.88-.23,1.41,1.41,0,0,0-.83.23,1.5,1.5,0,0,0-.59.58,2,2,0,0,0-.29.87Z"/><path class="cls-1" d="M106.51,10.13H107l.06.87a1.44,1.44,0,0,1,.65-.69,1.75,1.75,0,0,1,1-.23,1.92,1.92,0,0,1,1,.23,1.49,1.49,0,0,1,.65.69,3.39,3.39,0,0,1,.23,1.22v2.84H110V12.34a1.94,1.94,0,0,0-.35-1.28,1.31,1.31,0,0,0-1.06-.46,1.53,1.53,0,0,0-1.12.46,1.9,1.9,0,0,0-.41,1.39v2.61h-.59Z"/></g></g></svg>