<svg width="603" height="84" viewBox="0 0 603 84" fill="none" xmlns="http://www.w3.org/2000/svg">
<path d="M37.8262 83H23.9262L22.8262 72.8H14.0262L13.0262 83H0.326172L9.52617 13H28.6262L37.8262 83ZM18.4262 30.1L15.3262 60.6H21.5262L18.4262 30.1ZM57.7988 83H43.7988V25.5H35.2988V13H66.2988V25.5H57.7988V83ZM69.8066 13H95.8066V25.5H83.8066V41.2H95.3066V53.7H83.8066V70.5H96.0066V83H69.8066V13ZM134.671 83H121.071L112.171 44.9L112.371 62.7L112.571 83H100.471V13H114.771L122.871 47.7L122.671 27.5L122.571 13H134.671V83ZM160.231 52.1H174.031V70.6C174.031 79.3 169.731 83.6 161.031 83.6H152.431C143.731 83.6 139.431 79.3 139.431 70.6V25.4C139.431 16.7 143.731 12.4 152.431 12.4H160.831C169.531 12.4 173.831 16.7 173.831 25.4V41.8H160.031V26.9C160.031 25.2 159.231 24.4 157.531 24.4H155.931C154.231 24.4 153.431 25.2 153.431 26.9V69.1C153.431 70.8 154.231 71.6 155.931 71.6H157.731C159.431 71.6 160.231 70.8 160.231 69.1V52.1ZM192.793 13V83H178.793V13H192.793ZM232.732 70.6C232.732 79.3 228.432 83.6 219.732 83.6H210.732C202.032 83.6 197.732 79.3 197.732 70.6V25.4C197.732 16.7 202.032 12.4 210.732 12.4H219.732C228.432 12.4 232.732 16.7 232.732 25.4V70.6ZM218.732 26.9C218.732 25.2 217.932 24.4 216.232 24.4H214.232C212.532 24.4 211.732 25.2 211.732 26.9V69.1C211.732 70.8 212.532 71.6 214.232 71.6H216.232C217.932 71.6 218.732 70.8 218.732 69.1V26.9ZM210.332 9.5L214.832 -4.29153e-06H227.732L219.832 9.5H210.332ZM271.78 83H258.18L249.28 44.9L249.48 62.7L249.68 83H237.58V13H251.88L259.98 47.7L259.78 27.5L259.68 13H271.78V83ZM325.814 83H311.914L310.814 72.8H302.014L301.014 83H288.314L297.514 13H316.614L325.814 83ZM306.414 30.1L303.314 60.6H309.514L306.414 30.1ZM328.791 13H342.791V70.5H352.891V83H328.791V13ZM390.797 52.1H404.597V70.6C404.597 79.3 400.297 83.6 391.597 83.6H382.997C374.297 83.6 369.997 79.3 369.997 70.6V25.4C369.997 16.7 374.297 12.4 382.997 12.4H391.397C400.097 12.4 404.397 16.7 404.397 25.4V41.8H390.597V26.9C390.597 25.2 389.797 24.4 388.097 24.4H386.497C384.797 24.4 383.997 25.2 383.997 26.9V69.1C383.997 70.8 384.797 71.6 386.497 71.6H388.297C389.997 71.6 390.797 70.8 390.797 69.1V52.1ZM409.26 13H423.26V70.5H433.36V83H409.26V13ZM451.192 13V83H437.192V13H451.192ZM456.33 13H482.33V25.5H470.33V41.2H481.83V53.7H470.33V70.5H482.53V83H456.33V13ZM521.194 83H507.594L498.694 44.9L498.894 62.7L499.094 83H486.994V13H501.294L509.394 47.7L509.194 27.5L509.094 13H521.194V83ZM547.154 83H533.154V25.5H524.654V13H555.654V25.5H547.154V83ZM559.162 13H585.162V25.5H573.162V41.2H584.662V53.7H573.162V70.5H585.362V83H559.162V13ZM602.126 67.6V83H589.126V67.6H602.126Z" fill="#114550"/>
</svg>
