<svg width="256" height="95" viewBox="0 0 256 95" fill="none" xmlns="http://www.w3.org/2000/svg">
<path d="M27.2073 21.28C29.7273 22 30.8073 23.62 30.8073 26.68V35.2C30.8073 40.42 28.2273 43 23.0073 43H10.5273V0.999997H22.8873C28.1073 0.999997 30.6873 3.58 30.6873 8.8V15.04C30.6873 18.64 29.4273 20.44 27.2073 21.28ZM22.3473 9.7C22.3473 8.68 21.8673 8.2 20.8473 8.2H18.8673V18.16H20.8473C21.8673 18.16 22.3473 17.68 22.3473 16.66V9.7ZM18.8673 25.18V35.8H20.9673C21.9873 35.8 22.4673 35.32 22.4673 34.3V26.68C22.4673 25.66 21.9873 25.18 20.9673 25.18H18.8673ZM42.4561 0.999997V43H34.0561V0.999997H42.4561ZM46.0391 0.999997H61.6391V8.5H54.4391V17.92H61.3391V25.42H54.4391V35.5H61.7591V43H46.0391V0.999997ZM85.4575 43H77.2975L71.9575 20.14L72.0775 30.82L72.1975 43H64.9375V0.999997H73.5175L78.3775 21.82L78.2575 9.7L78.1975 0.999997H85.4575V43ZM104.414 43H93.3736L87.7336 0.999997H96.2536L99.1936 30.82L102.254 0.999997H110.054L104.414 43ZM112.344 0.999997H127.944V8.5H120.744V17.92H127.644V25.42H120.744V35.5H128.064V43H112.344V0.999997ZM151.762 43H143.602L138.262 20.14L138.382 30.82L138.502 43H131.242V0.999997H139.822L144.682 21.82L144.562 9.7L144.502 0.999997H151.762V43ZM163.698 0.999997V43H155.298V0.999997H163.698ZM167.281 43V0.999997H179.101C185.161 0.999997 188.101 3.94 188.101 10V34C188.101 40.06 185.161 43 179.101 43H167.281ZM175.681 8.2V35.8H177.361C178.981 35.8 179.701 35.08 179.701 33.46V10.54C179.701 8.92 178.981 8.2 177.361 8.2H175.681ZM212.333 35.56C212.333 40.78 209.753 43.36 204.533 43.36H199.133C193.913 43.36 191.333 40.78 191.333 35.56V8.44C191.333 3.22 193.913 0.639998 199.133 0.639998H204.533C209.753 0.639998 212.333 3.22 212.333 8.44V35.56ZM203.933 9.34C203.933 8.32 203.453 7.84 202.433 7.84H201.233C200.213 7.84 199.733 8.32 199.733 9.34V34.66C199.733 35.68 200.213 36.16 201.233 36.16H202.433C203.453 36.16 203.933 35.68 203.933 34.66V9.34ZM245.687 43H237.347L236.687 36.88H231.407L230.807 43H223.187L228.707 0.999997H240.167L245.687 43ZM234.047 11.26L232.187 29.56H235.907L234.047 11.26Z" fill="#114550"/>
<path d="M0.388672 52H8.78867V86.5H14.8487V94H0.388672V52ZM38.8879 94H30.5479L29.8879 87.88H24.6079L24.0079 94H16.3879L21.9079 52H33.3679L38.8879 94ZM27.2479 62.26L25.3879 80.56H29.1079L27.2479 62.26ZM62.1784 75.46H70.4584V86.56C70.4584 91.78 67.8784 94.36 62.6584 94.36H57.4984C52.2784 94.36 49.6984 91.78 49.6984 86.56V59.44C49.6984 54.22 52.2784 51.64 57.4984 51.64H62.5384C67.7584 51.64 70.3384 54.22 70.3384 59.44V69.28H62.0584V60.34C62.0584 59.32 61.5784 58.84 60.5584 58.84H59.5984C58.5784 58.84 58.0984 59.32 58.0984 60.34V85.66C58.0984 86.68 58.5784 87.16 59.5984 87.16H60.6784C61.6984 87.16 62.1784 86.68 62.1784 85.66V75.46ZM94.7629 94H86.4229L85.7629 87.88H80.4829L79.8829 94H72.2629L77.7829 52H89.2429L94.7629 94ZM83.1229 62.26L81.2629 80.56H84.9829L83.1229 62.26ZM117.396 52V86.56C117.396 91.78 114.816 94.36 109.596 94.36H104.496C99.2759 94.36 96.6959 91.78 96.6959 86.56V52H105.096V85.66C105.096 86.68 105.576 87.16 106.596 87.16H107.496C108.516 87.16 108.996 86.68 108.996 85.66V52H117.396ZM137.491 72.22C140.071 74.08 140.851 75.7 140.851 78.82V86.56C140.851 91.78 138.271 94.36 133.051 94.36H128.371C123.151 94.36 120.571 91.78 120.571 86.56V77.62H128.791V85.78C128.791 86.8 129.271 87.28 130.291 87.28H131.071C132.091 87.28 132.571 86.8 132.571 85.78V80.74C132.571 79.42 132.151 78.76 131.131 78.04L123.931 72.7C121.351 70.84 120.571 69.1 120.571 66.1V59.44C120.571 54.22 123.151 51.64 128.371 51.64H132.931C138.151 51.64 140.731 54.22 140.731 59.44V67.12H132.511V60.22C132.511 59.2 132.031 58.72 131.011 58.72H130.351C129.331 58.72 128.851 59.2 128.851 60.22V64.18C128.851 65.5 129.271 66.16 130.291 66.88L137.491 72.22ZM164.876 94H156.536L155.876 87.88H150.596L149.996 94H142.376L147.896 52H159.356L164.876 94ZM153.236 62.26L151.376 80.56H155.096L153.236 62.26ZM191.287 94H180.247L174.607 52H183.127L186.067 81.82L189.127 52H196.927L191.287 94ZM207.677 52V94H199.277V52H207.677ZM227.94 72.22C230.52 74.08 231.3 75.7 231.3 78.82V86.56C231.3 91.78 228.72 94.36 223.5 94.36H218.82C213.6 94.36 211.02 91.78 211.02 86.56V77.62H219.24V85.78C219.24 86.8 219.72 87.28 220.74 87.28H221.52C222.54 87.28 223.02 86.8 223.02 85.78V80.74C223.02 79.42 222.6 78.76 221.58 78.04L214.38 72.7C211.8 70.84 211.02 69.1 211.02 66.1V59.44C211.02 54.22 213.6 51.64 218.82 51.64H223.38C228.6 51.64 231.18 54.22 231.18 59.44V67.12H222.96V60.22C222.96 59.2 222.48 58.72 221.46 58.72H220.8C219.78 58.72 219.3 59.2 219.3 60.22V64.18C219.3 65.5 219.72 66.16 220.74 66.88L227.94 72.22ZM255.325 94H246.985L246.325 87.88H241.045L240.445 94H232.825L238.345 52H249.805L255.325 94ZM243.685 62.26L241.825 80.56H245.545L243.685 62.26Z" fill="#E9993E"/>
</svg>
