<svg width="569" height="192" viewBox="0 0 569 192" fill="none" xmlns="http://www.w3.org/2000/svg">
<path d="M38.481 44.026C43.815 45.55 46.101 48.979 46.101 55.456V73.49C46.101 84.539 40.64 90 29.591 90H3.175V1.09999H29.337C40.386 1.09999 45.847 6.561 45.847 17.61V30.818C45.847 38.438 43.18 42.248 38.481 44.026ZM28.194 19.515C28.194 17.356 27.178 16.34 25.019 16.34H20.828V37.422H25.019C27.178 37.422 28.194 36.406 28.194 34.247V19.515ZM20.828 52.281V74.76H25.273C27.432 74.76 28.448 73.744 28.448 71.585V55.456C28.448 53.297 27.432 52.281 25.273 52.281H20.828ZM70.1992 1.09999V90H52.4192V1.09999H70.1992ZM77.2248 1.09999H110.245V16.975H95.0048V36.914H109.61V52.789H95.0048V74.125H110.499V90H77.2248V1.09999ZM160.102 90H142.83L131.527 41.613L131.781 64.219L132.035 90H116.668V1.09999H134.829L145.116 45.169L144.862 19.515L144.735 1.09999H160.102V90ZM199.668 90H176.3L164.362 1.09999H182.396L188.619 64.219L195.096 1.09999H211.606L199.668 90ZM215.895 1.09999H248.915V16.975H233.675V36.914H248.28V52.789H233.675V74.125H249.169V90H215.895V1.09999ZM298.772 90H281.5L270.197 41.613L270.451 64.219L270.705 90H255.338V1.09999H273.499L283.786 45.169L283.532 19.515L283.405 1.09999H298.772V90ZM323.478 1.09999V90H305.698V1.09999H323.478ZM330.504 90V1.09999H355.523C368.35 1.09999 374.573 7.323 374.573 20.15V70.95C374.573 83.777 368.35 90 355.523 90H330.504ZM348.284 16.34V74.76H351.84C355.269 74.76 356.793 73.236 356.793 69.807V21.293C356.793 17.864 355.269 16.34 351.84 16.34H348.284ZM425.306 74.252C425.306 85.301 419.845 90.762 408.796 90.762H397.366C386.317 90.762 380.856 85.301 380.856 74.252V16.848C380.856 5.79899 386.317 0.337996 397.366 0.337996H408.796C419.845 0.337996 425.306 5.79899 425.306 16.848V74.252ZM407.526 18.753C407.526 16.594 406.51 15.578 404.351 15.578H401.811C399.652 15.578 398.636 16.594 398.636 18.753V72.347C398.636 74.506 399.652 75.522 401.811 75.522H404.351C406.51 75.522 407.526 74.506 407.526 72.347V18.753ZM494.787 90H477.134L475.737 77.046H464.561L463.291 90H447.162L458.846 1.09999H483.103L494.787 90ZM470.149 22.817L466.212 61.552H474.086L470.149 22.817Z" fill="#114550"/>
<path d="M3.175 102.1H20.955V175.125H33.782V191H3.175V102.1ZM84.1067 191H66.4537L65.0567 178.046H53.8807L52.6107 191H36.4817L48.1657 102.1H72.4227L84.1067 191ZM59.4687 123.817L55.5317 162.552H63.4057L59.4687 123.817ZM132.288 151.757H149.814V175.252C149.814 186.301 144.353 191.762 133.304 191.762H122.382C111.333 191.762 105.872 186.301 105.872 175.252V117.848C105.872 106.799 111.333 101.338 122.382 101.338H133.05C144.099 101.338 149.56 106.799 149.56 117.848V138.676H132.034V119.753C132.034 117.594 131.018 116.578 128.859 116.578H126.827C124.668 116.578 123.652 117.594 123.652 119.753V173.347C123.652 175.506 124.668 176.522 126.827 176.522H129.113C131.272 176.522 132.288 175.506 132.288 173.347V151.757ZM200.7 191H183.047L181.65 178.046H170.474L169.204 191H153.075L164.759 102.1H189.016L200.7 191ZM176.062 123.817L172.125 162.552H179.999L176.062 123.817ZM248.049 102.1V175.252C248.049 186.301 242.588 191.762 231.539 191.762H220.744C209.695 191.762 204.234 186.301 204.234 175.252V102.1H222.014V173.347C222.014 175.506 223.03 176.522 225.189 176.522H227.094C229.253 176.522 230.269 175.506 230.269 173.347V102.1H248.049ZM290.024 144.899C295.485 148.836 297.136 152.265 297.136 158.869V175.252C297.136 186.301 291.675 191.762 280.626 191.762H270.72C259.671 191.762 254.21 186.301 254.21 175.252V156.329H271.609V173.601C271.609 175.76 272.625 176.776 274.784 176.776H276.435C278.594 176.776 279.61 175.76 279.61 173.601V162.933C279.61 160.139 278.721 158.742 276.562 157.218L261.322 145.915C255.861 141.978 254.21 138.295 254.21 131.945V117.848C254.21 106.799 259.671 101.338 270.72 101.338H280.372C291.421 101.338 296.882 106.799 296.882 117.848V134.104H279.483V119.499C279.483 117.34 278.467 116.324 276.308 116.324H274.911C272.752 116.324 271.736 117.34 271.736 119.499V127.881C271.736 130.675 272.625 132.072 274.784 133.596L290.024 144.899ZM347.432 191H329.779L328.382 178.046H317.206L315.936 191H299.807L311.491 102.1H335.748L347.432 191ZM322.794 123.817L318.857 162.552H326.731L322.794 123.817ZM402.217 191H378.849L366.911 102.1H384.945L391.168 165.219L397.645 102.1H414.155L402.217 191ZM436.352 102.1V191H418.572V102.1H436.352ZM478.683 144.899C484.144 148.836 485.795 152.265 485.795 158.869V175.252C485.795 186.301 480.334 191.762 469.285 191.762H459.379C448.33 191.762 442.869 186.301 442.869 175.252V156.329H460.268V173.601C460.268 175.76 461.284 176.776 463.443 176.776H465.094C467.253 176.776 468.269 175.76 468.269 173.601V162.933C468.269 160.139 467.38 158.742 465.221 157.218L449.981 145.915C444.52 141.978 442.869 138.295 442.869 131.945V117.848C442.869 106.799 448.33 101.338 459.379 101.338H469.031C480.08 101.338 485.541 106.799 485.541 117.848V134.104H468.142V119.499C468.142 117.34 467.126 116.324 464.967 116.324H463.57C461.411 116.324 460.395 117.34 460.395 119.499V127.881C460.395 130.675 461.284 132.072 463.443 133.596L478.683 144.899ZM536.091 191H518.438L517.041 178.046H505.865L504.595 191H488.466L500.15 102.1H524.407L536.091 191ZM511.453 123.817L507.516 162.552H515.39L511.453 123.817Z" fill="#E9993E"/>
<path d="M551.05 118.062H548.2L546.85 107.512V118.062H544.25V102.812H548.8L549.95 112.862L551 102.812H555.65V118.062H552.4V107.762L551.05 118.062ZM541.05 118.062H537.75V105.712H535.45V102.812H543.35V105.712H541.05V118.062Z" fill="#E9993E"/>
</svg>
