<svg xmlns="http://www.w3.org/2000/svg" viewBox="0 0 215.58 215.64"><defs><style>.cls-1{fill:#e9993e;}</style></defs><g id="Capa_2" data-name="Capa 2"><g id="Capa_1-2" data-name="Capa 1"><path class="cls-1" d="M91.42,107.15a30.81,30.81,0,0,1-3.92-2.79Q46,63,4.61,21.58C1.81,18.79-.1,15.7.05,11.72A11.32,11.32,0,0,1,6.77,1.28,11.55,11.55,0,0,1,19.43,2.66a31.9,31.9,0,0,1,3,2.84l82.07,82c1,1,2,1.86,3.07,2.91,1.13-1.07,2.13-2,3.08-2.93q41.43-41.41,82.83-82.85c3.2-3.2,6.72-5.11,11.33-4.42a11.86,11.86,0,0,1,7.64,19.18,38,38,0,0,1-3.09,3.26l-81.78,81.77c-1,1-1.85,1.95-2.92,3.08,1.06,1.12,2,2.12,2.92,3.07q41.67,41.69,83.38,83.35c2.66,2.66,4.63,5.53,4.64,9.44,0,5-2.11,8.74-6.53,10.91a11.53,11.53,0,0,1-13-1.44,34.56,34.56,0,0,1-3-2.85q-41-41-82.05-82a41.81,41.81,0,0,0-4.56-4.34c-.62,1.25-1,2.77-1.91,3.7Q63.23,168.8,21.8,210.2c-2.87,2.87-6,4.94-10.15,4.76-4.89-.22-8.59-2.53-10.55-7.1a11.55,11.55,0,0,1,1.82-12.61c.79-1,1.73-1.79,2.61-2.67q40.89-40.89,81.79-81.77C88.29,109.84,89.37,109,91.42,107.15Z"/></g></g></svg>