<svg xmlns="http://www.w3.org/2000/svg" viewBox="0 0 113 113"><defs><style>.cls-1{fill:none;stroke:#fff6d2;stroke-width:5px;}.cls-2{fill:#fff6d2;fill-rule:evenodd;}</style></defs><g id="Capa_2" data-name="Capa 2"><g id="Capa_1-2" data-name="Capa 1"><path class="cls-1" d="M56.5,2.5h0a54,54,0,0,1,54,54h0a54,54,0,0,1-54,54h0a54,54,0,0,1-54-54h0A54,54,0,0,1,56.5,2.5Z"/><path class="cls-2" d="M32.88,38.84A5.91,5.91,0,0,0,27,44.75v31.5a5.91,5.91,0,0,0,5.91,5.91H80.13A5.91,5.91,0,0,0,86,76.25V44.75a5.91,5.91,0,0,0-5.9-5.91Zm-2,6.45v31a2,2,0,0,0,2,2H80.13a2,2,0,0,0,2-2v-31l-18.89,15-.08.06a11.39,11.39,0,0,1-13.24,0l-.08-.06Zm48-2.51H34.07l18.15,14.4a7.46,7.46,0,0,0,8.56,0Z"/></g></g></svg>