<svg width="505" height="229" viewBox="0 0 505 229" fill="none" xmlns="http://www.w3.org/2000/svg">
<path d="M23.1 40.1H36.9V58.6C36.9 67.3 32.6 71.6 23.9 71.6H15.3C6.6 71.6 2.3 67.3 2.3 58.6V13.4C2.3 4.7 6.6 0.399997 15.3 0.399997H23.7C32.4 0.399997 36.7 4.7 36.7 13.4V29.8H22.9V14.9C22.9 13.2 22.1 12.4 20.4 12.4H18.8C17.1 12.4 16.3 13.2 16.3 14.9V57.1C16.3 58.8 17.1 59.6 18.8 59.6H20.6C22.3 59.6 23.1 58.8 23.1 57.1V40.1ZM69.4625 37.9C73.7625 39.1 75.5625 41.8 75.5625 46.9V71H61.5625V47C61.5625 45.3 60.7625 44.5 59.0625 44.5H55.5625V71H41.5625V0.999995H62.4625C71.1625 0.999995 75.4625 5.3 75.4625 14V27.5C75.4625 33.5 73.2625 36.5 69.4625 37.9ZM61.4625 15.7C61.4625 14 60.6625 13.2 58.9625 13.2H55.5625V32.6H58.9625C60.6625 32.6 61.4625 31.8 61.4625 30.1V15.7ZM80.2344 0.999995H106.234V13.5H94.2344V29.2H105.734V41.7H94.2344V58.5H106.434V71H80.2344V0.999995ZM146.398 71H132.498L131.398 60.8H122.598L121.598 71H108.898L118.098 0.999995H137.198L146.398 71ZM126.998 18.1L123.898 48.6H130.098L126.998 18.1ZM166.371 71H152.371V13.5H143.871V0.999995H174.871V13.5H166.371V71ZM178.379 0.999995H204.379V13.5H192.379V29.2H203.879V41.7H192.379V58.5H204.579V71H178.379V0.999995ZM209.043 71V0.999995H228.743C238.843 0.999995 243.743 5.9 243.743 16V56C243.743 66.1 238.843 71 228.743 71H209.043ZM223.043 13V59H225.843C228.543 59 229.743 57.8 229.743 55.1V16.9C229.743 14.2 228.543 13 225.843 13H223.043ZM283.07 71H269.07V13.5H260.57V0.999995H291.57V13.5H283.07V71ZM329.39 58.6C329.39 67.3 325.09 71.6 316.39 71.6H307.39C298.69 71.6 294.39 67.3 294.39 58.6V13.4C294.39 4.7 298.69 0.399997 307.39 0.399997H316.39C325.09 0.399997 329.39 4.7 329.39 13.4V58.6ZM315.39 14.9C315.39 13.2 314.59 12.4 312.89 12.4H310.89C309.19 12.4 308.39 13.2 308.39 14.9V57.1C308.39 58.8 309.19 59.6 310.89 59.6H312.89C314.59 59.6 315.39 58.8 315.39 57.1V14.9ZM364.313 71L359.013 24.7V71H347.813V0.999995H368.013L372.013 43.4L376.313 0.999995H396.613V71H382.813V25.2L377.513 71H364.313ZM437.121 71H423.221L422.121 60.8H413.321L412.321 71H399.621L408.821 0.999995H427.921L437.121 71ZM417.721 18.1L414.621 48.6H420.821L417.721 18.1ZM475.998 71H461.198L454.098 37.9V71H440.098V0.999995H454.098V33.9L461.898 0.999995H476.398L467.198 35.4L475.998 71ZM478.672 0.999995H504.672V13.5H492.672V29.2H504.172V41.7H492.672V58.5H504.872V71H478.672V0.999995ZM23.5 150H9.5V92.5H1V80H32V92.5H23.5V150ZM49.5078 108.2H56.5078V80H70.5078V150H56.5078V120.7H49.5078V150H35.5078V80H49.5078V108.2ZM89.6469 80V150H75.6469V80H89.6469ZM128.985 150H115.385L106.485 111.9L106.685 129.7L106.885 150H94.7852V80H109.085L117.185 114.7L116.985 94.5L116.885 80H128.985V150ZM155.045 122.2H150.645V110.5H168.745V137.6C168.745 146.3 164.445 150.6 155.745 150.6H146.745C138.045 150.6 133.745 146.3 133.745 137.6V92.4C133.745 83.7 138.045 79.4 146.745 79.4H155.545C164.245 79.4 168.545 83.7 168.545 92.4V105.8H154.745V93.9C154.745 92.2 153.945 91.4 152.245 91.4H150.245C148.545 91.4 147.745 92.2 147.745 93.9V136.1C147.745 137.8 148.545 138.6 150.245 138.6H152.545C154.245 138.6 155.045 137.8 155.045 136.1V122.2ZM201.394 113.7C205.694 116.8 206.994 119.5 206.994 124.7V137.6C206.994 146.3 202.694 150.6 193.994 150.6H186.194C177.494 150.6 173.194 146.3 173.194 137.6V122.7H186.894V136.3C186.894 138 187.694 138.8 189.394 138.8H190.694C192.394 138.8 193.194 138 193.194 136.3V127.9C193.194 125.7 192.494 124.6 190.794 123.4L178.794 114.5C174.494 111.4 173.194 108.5 173.194 103.5V92.4C173.194 83.7 177.494 79.4 186.194 79.4H193.794C202.494 79.4 206.794 83.7 206.794 92.4V105.2H193.094V93.7C193.094 92 192.294 91.2 190.594 91.2H189.494C187.794 91.2 186.994 92 186.994 93.7V100.3C186.994 102.5 187.694 103.6 189.394 104.8L201.394 113.7ZM224.766 80H250.766V92.5H238.766V108.2H250.266V120.7H238.766V137.5H250.966V150H224.766V80ZM290.93 150H277.03L275.93 139.8H267.13L266.13 150H253.43L262.63 80H281.73L290.93 150ZM271.53 97.1L268.43 127.6H274.63L271.53 97.1ZM321.218 113.7C325.518 116.8 326.818 119.5 326.818 124.7V137.6C326.818 146.3 322.518 150.6 313.818 150.6H306.018C297.318 150.6 293.018 146.3 293.018 137.6V122.7H306.718V136.3C306.718 138 307.518 138.8 309.218 138.8H310.518C312.218 138.8 313.018 138 313.018 136.3V127.9C313.018 125.7 312.318 124.6 310.618 123.4L298.618 114.5C294.318 111.4 293.018 108.5 293.018 103.5V92.4C293.018 83.7 297.318 79.4 306.018 79.4H313.618C322.318 79.4 326.618 83.7 326.618 92.4V105.2H312.918V93.7C312.918 92 312.118 91.2 310.418 91.2H309.318C307.618 91.2 306.818 92 306.818 93.7V100.3C306.818 102.5 307.518 103.6 309.218 104.8L321.218 113.7ZM345.116 80V150H331.116V80H345.116ZM350.254 80H376.254V92.5H364.254V108.2H375.754V120.7H364.254V137.5H376.454V150H350.254V80ZM408.818 116.9C413.118 118.1 414.918 120.8 414.918 125.9V150H400.918V126C400.918 124.3 400.118 123.5 398.418 123.5H394.918V150H380.918V80H401.818C410.518 80 414.818 84.3 414.818 93V106.5C414.818 112.5 412.618 115.5 408.818 116.9ZM400.818 94.7C400.818 93 400.018 92.2 398.318 92.2H394.918V111.6H398.318C400.018 111.6 400.818 110.8 400.818 109.1V94.7Z" fill="#FFF7D2"/>
<path d="M22.5 158H35.7L39.7 195.2L43.3 158H55.7L47.2 228H31.8L28.1 196.1L24.6 228H9.2L0.7 158H14.9L18.5 195.5L22.5 158ZM72.9453 186.2H79.9453V158H93.9453V228H79.9453V198.7H72.9453V228H58.9453V158H72.9453V186.2ZM133.784 215.6C133.784 224.3 129.484 228.6 120.784 228.6H111.784C103.084 228.6 98.7844 224.3 98.7844 215.6V170.4C98.7844 161.7 103.084 157.4 111.784 157.4H120.784C129.484 157.4 133.784 161.7 133.784 170.4V215.6ZM119.784 171.9C119.784 170.2 118.984 169.4 117.284 169.4H115.284C113.584 169.4 112.784 170.2 112.784 171.9V214.1C112.784 215.8 113.584 216.6 115.284 216.6H117.284C118.984 216.6 119.784 215.8 119.784 214.1V171.9ZM172.207 158H185.407L189.407 195.2L193.007 158H205.407L196.907 228H181.507L177.807 196.1L174.307 228H158.907L150.407 158H164.607L168.207 195.5L172.207 158ZM208.652 158H234.652V170.5H222.652V186.2H234.152V198.7H222.652V215.5H234.852V228H208.652V158ZM288.391 228H274.491L273.391 217.8H264.591L263.591 228H250.891L260.091 158H279.191L288.391 228ZM268.991 175.1L265.891 205.6H272.091L268.991 175.1ZM319.267 194.9C323.567 196.1 325.367 198.8 325.367 203.9V228H311.367V204C311.367 202.3 310.567 201.5 308.867 201.5H305.367V228H291.367V158H312.267C320.967 158 325.267 162.3 325.267 171V184.5C325.267 190.5 323.067 193.5 319.267 194.9ZM311.267 172.7C311.267 171 310.467 170.2 308.767 170.2H305.367V189.6H308.767C310.467 189.6 311.267 188.8 311.267 187.1V172.7ZM330.039 158H356.039V170.5H344.039V186.2H355.539V198.7H344.039V215.5H356.239V228H330.039V158ZM373.703 187.2L375.603 185.1C377.303 183.2 378.003 181.9 378.003 179.7V171.9C378.003 170.2 377.203 169.4 375.503 169.4H374.603C372.903 169.4 372.103 170.2 372.103 171.9V183.1H359.503V170.4C359.503 161.7 363.803 157.4 372.503 157.4H378.803C387.503 157.4 391.803 161.7 391.803 170.4V179.7C391.803 184.7 390.503 188.1 386.203 192.9L381.603 198.1C380.003 200 379.503 201.3 379.503 204.1V209H369.503V198.7C369.503 193.4 370.103 191.3 373.703 187.2ZM380.803 212.6V228H368.203V212.6H380.803Z" fill="#E9993E"/>
</svg>
