<svg width="793" height="152" viewBox="0 0 793 152" fill="none" xmlns="http://www.w3.org/2000/svg">
<path d="M50.8672 71V0.999995H70.5672C80.6672 0.999995 85.5672 5.9 85.5672 16V56C85.5672 66.1 80.6672 71 70.5672 71H50.8672ZM64.8672 13V59H67.6672C70.3672 59 71.5672 57.8 71.5672 55.1V16.9C71.5672 14.2 70.3672 13 67.6672 13H64.8672ZM90.3203 0.999995H116.32V13.5H104.32V29.2H115.82V41.7H104.32V58.5H116.52V71H90.3203V0.999995ZM148.491 34.7C152.791 37.8 154.091 40.5 154.091 45.7V58.6C154.091 67.3 149.791 71.6 141.091 71.6H133.291C124.591 71.6 120.291 67.3 120.291 58.6V43.7H133.991V57.3C133.991 59 134.791 59.8 136.491 59.8H137.791C139.491 59.8 140.291 59 140.291 57.3V48.9C140.291 46.7 139.591 45.6 137.891 44.4L125.891 35.5C121.591 32.4 120.291 29.5 120.291 24.5V13.4C120.291 4.7 124.591 0.399997 133.291 0.399997H140.891C149.591 0.399997 153.891 4.7 153.891 13.4V26.2H140.191V14.7C140.191 13 139.391 12.2 137.691 12.2H136.591C134.891 12.2 134.091 13 134.091 14.7V21.3C134.091 23.5 134.791 24.6 136.491 25.8L148.491 34.7ZM178.889 40.1H192.689V58.6C192.689 67.3 188.389 71.6 179.689 71.6H171.089C162.389 71.6 158.089 67.3 158.089 58.6V13.4C158.089 4.7 162.389 0.399997 171.089 0.399997H179.489C188.189 0.399997 192.489 4.7 192.489 13.4V29.8H178.689V14.9C178.689 13.2 177.889 12.4 176.189 12.4H174.589C172.889 12.4 172.089 13.2 172.089 14.9V57.1C172.089 58.8 172.889 59.6 174.589 59.6H176.389C178.089 59.6 178.889 58.8 178.889 57.1V40.1ZM232.363 71H218.463L217.363 60.8H208.563L207.563 71H194.863L204.063 0.999995H223.163L232.363 71ZM212.963 18.1L209.863 48.6H216.063L212.963 18.1ZM263.24 37.9C267.54 39.1 269.34 41.8 269.34 46.9V71H255.34V47C255.34 45.3 254.54 44.5 252.84 44.5H249.34V71H235.34V0.999995H256.24C264.94 0.999995 269.24 5.3 269.24 14V27.5C269.24 33.5 267.04 36.5 263.24 37.9ZM255.24 15.7C255.24 14 254.44 13.2 252.74 13.2H249.34V32.6H252.74C254.44 32.6 255.24 31.8 255.24 30.1V15.7ZM295.112 43.2H290.712V31.5H308.812V58.6C308.812 67.3 304.512 71.6 295.812 71.6H286.812C278.112 71.6 273.812 67.3 273.812 58.6V13.4C273.812 4.7 278.112 0.399997 286.812 0.399997H295.612C304.312 0.399997 308.612 4.7 308.612 13.4V26.8H294.812V14.9C294.812 13.2 294.012 12.4 292.312 12.4H290.312C288.612 12.4 287.812 13.2 287.812 14.9V57.1C287.812 58.8 288.612 59.6 290.312 59.6H292.612C294.312 59.6 295.112 58.8 295.112 57.1V43.2ZM348.672 71H334.772L333.672 60.8H324.872L323.872 71H311.172L320.372 0.999995H339.472L348.672 71ZM329.272 18.1L326.172 48.6H332.372L329.272 18.1ZM399.423 71H385.823L376.923 32.9L377.123 50.7L377.323 71H365.223V0.999995H379.523L387.623 35.7L387.423 15.5L387.323 0.999995H399.423V71ZM438.783 0.999995V58.6C438.783 67.3 434.483 71.6 425.783 71.6H417.283C408.583 71.6 404.283 67.3 404.283 58.6V0.999995H418.283V57.1C418.283 58.8 419.083 59.6 420.783 59.6H422.283C423.983 59.6 424.783 58.8 424.783 57.1V0.999995H438.783ZM443.641 0.999995H469.641V13.5H457.641V29.2H469.141V41.7H457.641V58.5H469.841V71H443.641V0.999995ZM501.812 34.7C506.112 37.8 507.412 40.5 507.412 45.7V58.6C507.412 67.3 503.112 71.6 494.412 71.6H486.612C477.912 71.6 473.612 67.3 473.612 58.6V43.7H487.312V57.3C487.312 59 488.112 59.8 489.812 59.8H491.112C492.812 59.8 493.612 59 493.612 57.3V48.9C493.612 46.7 492.912 45.6 491.212 44.4L479.212 35.5C474.912 32.4 473.612 29.5 473.612 24.5V13.4C473.612 4.7 477.912 0.399997 486.612 0.399997H494.212C502.912 0.399997 507.212 4.7 507.212 13.4V26.2H493.512V14.7C493.512 13 492.712 12.2 491.012 12.2H489.912C488.212 12.2 487.412 13 487.412 14.7V21.3C487.412 23.5 488.112 24.6 489.812 25.8L501.812 34.7ZM532.121 71H518.121V13.5H509.621V0.999995H540.621V13.5H532.121V71ZM572.029 37.9C576.329 39.1 578.129 41.8 578.129 46.9V71H564.129V47C564.129 45.3 563.329 44.5 561.629 44.5H558.129V71H544.129V0.999995H565.029C573.729 0.999995 578.029 5.3 578.029 14V27.5C578.029 33.5 575.829 36.5 572.029 37.9ZM564.029 15.7C564.029 14 563.229 13.2 561.529 13.2H558.129V32.6H561.529C563.229 32.6 564.029 31.8 564.029 30.1V15.7ZM618.301 71H604.401L603.301 60.8H594.501L593.501 71H580.801L590.001 0.999995H609.101L618.301 71ZM598.901 18.1L595.801 48.6H602.001L598.901 18.1ZM670.352 71H656.452L655.352 60.8H646.552L645.552 71H632.852L642.052 0.999995H661.152L670.352 71ZM650.952 18.1L647.852 48.6H654.052L650.952 18.1ZM687.328 46.7V71H673.328V0.999995H693.828C702.528 0.999995 706.828 5.3 706.828 14V33.7C706.828 42.4 702.528 46.7 693.828 46.7H687.328ZM692.828 15.5C692.828 13.8 692.028 13 690.328 13H687.328V34.7H690.328C692.028 34.7 692.828 33.9 692.828 32.2V15.5ZM724.73 46.7V71H710.73V0.999995H731.23C739.93 0.999995 744.23 5.3 744.23 14V33.7C744.23 42.4 739.93 46.7 731.23 46.7H724.73ZM730.23 15.5C730.23 13.8 729.43 13 727.73 13H724.73V34.7H727.73C729.43 34.7 730.23 33.9 730.23 32.2V15.5Z" fill="#E9993E"/>
<path d="M28.6184 114.8C32.8184 116 34.6184 118.7 34.6184 123.8V138C34.6184 146.7 30.3184 151 21.6184 151H0.818359V81H21.4184C30.1184 81 34.4184 85.3 34.4184 94V104.4C34.4184 110.4 32.3184 113.4 28.6184 114.8ZM20.5184 95.5C20.5184 93.8 19.7184 93 18.0184 93H14.7184V109.6H18.0184C19.7184 109.6 20.5184 108.8 20.5184 107.1V95.5ZM14.7184 121.3V139H18.2184C19.9184 139 20.7184 138.2 20.7184 136.5V123.8C20.7184 122.1 19.9184 121.3 18.2184 121.3H14.7184ZM39.0996 81H65.0996V93.5H53.0996V109.2H64.5996V121.7H53.0996V138.5H65.2996V151H39.0996V81ZM103.964 151H90.3637L81.4637 112.9L81.6637 130.7L81.8637 151H69.7637V81H84.0637L92.1637 115.7L91.9637 95.5L91.8637 81H103.964V151ZM108.924 81H134.924V93.5H122.924V109.2H134.424V121.7H122.924V138.5H135.124V151H108.924V81ZM139.588 81H165.088V93.5H153.588V109.9H164.588V122.4H153.588V151H139.588V81ZM183.082 81V151H169.082V81H183.082ZM208.821 120.1H222.621V138.6C222.621 147.3 218.321 151.6 209.621 151.6H201.021C192.321 151.6 188.021 147.3 188.021 138.6V93.4C188.021 84.7 192.321 80.4 201.021 80.4H209.421C218.121 80.4 222.421 84.7 222.421 93.4V109.8H208.621V94.9C208.621 93.2 207.821 92.4 206.121 92.4H204.521C202.821 92.4 202.021 93.2 202.021 94.9V137.1C202.021 138.8 202.821 139.6 204.521 139.6H206.321C208.021 139.6 208.821 138.8 208.821 137.1V120.1ZM241.383 81V151H227.383V81H241.383ZM281.321 138.6C281.321 147.3 277.021 151.6 268.321 151.6H259.321C250.621 151.6 246.321 147.3 246.321 138.6V93.4C246.321 84.7 250.621 80.4 259.321 80.4H268.321C277.021 80.4 281.321 84.7 281.321 93.4V138.6ZM267.321 94.9C267.321 93.2 266.521 92.4 264.821 92.4H262.821C261.121 92.4 260.321 93.2 260.321 94.9V137.1C260.321 138.8 261.121 139.6 262.821 139.6H264.821C266.521 139.6 267.321 138.8 267.321 137.1V94.9ZM313.97 114.7C318.27 117.8 319.57 120.5 319.57 125.7V138.6C319.57 147.3 315.27 151.6 306.57 151.6H298.77C290.07 151.6 285.77 147.3 285.77 138.6V123.7H299.47V137.3C299.47 139 300.27 139.8 301.97 139.8H303.27C304.97 139.8 305.77 139 305.77 137.3V128.9C305.77 126.7 305.07 125.6 303.37 124.4L291.37 115.5C287.07 112.4 285.77 109.5 285.77 104.5V93.4C285.77 84.7 290.07 80.4 298.77 80.4H306.37C315.07 80.4 319.37 84.7 319.37 93.4V106.2H305.67V94.7C305.67 93 304.87 92.2 303.17 92.2H302.07C300.37 92.2 299.57 93 299.57 94.7V101.3C299.57 103.5 300.27 104.6 301.97 105.8L313.97 114.7ZM337.342 81H351.342V138.5H361.442V151H337.342V81ZM400.674 151H386.774L385.674 140.8H376.874L375.874 151H363.174L372.374 81H391.474L400.674 151ZM381.274 98.1L378.174 128.6H384.374L381.274 98.1ZM437.825 120.1H451.625V138.6C451.625 147.3 447.325 151.6 438.625 151.6H430.025C421.325 151.6 417.025 147.3 417.025 138.6V93.4C417.025 84.7 421.325 80.4 430.025 80.4H438.425C447.125 80.4 451.425 84.7 451.425 93.4V109.8H437.625V94.9C437.625 93.2 436.825 92.4 435.125 92.4H433.525C431.825 92.4 431.025 93.2 431.025 94.9V137.1C431.025 138.8 431.825 139.6 433.525 139.6H435.325C437.025 139.6 437.825 138.8 437.825 137.1V120.1ZM491.299 151H477.399L476.299 140.8H467.499L466.499 151H453.799L462.999 81H482.099L491.299 151ZM471.899 98.1L468.799 128.6H474.999L471.899 98.1ZM528.187 81V138.6C528.187 147.3 523.887 151.6 515.187 151.6H506.687C497.987 151.6 493.687 147.3 493.687 138.6V81H507.687V137.1C507.687 138.8 508.487 139.6 510.187 139.6H511.687C513.387 139.6 514.187 138.8 514.187 137.1V81H528.187ZM560.845 114.7C565.145 117.8 566.445 120.5 566.445 125.7V138.6C566.445 147.3 562.145 151.6 553.445 151.6H545.645C536.945 151.6 532.645 147.3 532.645 138.6V123.7H546.345V137.3C546.345 139 547.145 139.8 548.845 139.8H550.145C551.845 139.8 552.645 139 552.645 137.3V128.9C552.645 126.7 551.945 125.6 550.245 124.4L538.245 115.5C533.945 112.4 532.645 109.5 532.645 104.5V93.4C532.645 84.7 536.945 80.4 545.645 80.4H553.245C561.945 80.4 566.245 84.7 566.245 93.4V106.2H552.545V94.7C552.545 93 551.745 92.2 550.045 92.2H548.945C547.245 92.2 546.445 93 546.445 94.7V101.3C546.445 103.5 547.145 104.6 548.845 105.8L560.845 114.7ZM605.654 151H591.754L590.654 140.8H581.854L580.854 151H568.154L577.354 81H596.454L605.654 151ZM586.254 98.1L583.154 128.6H589.354L586.254 98.1ZM648.005 151H629.605L620.205 81H634.405L639.305 130.7L644.405 81H657.405L648.005 151ZM674.489 81V151H660.489V81H674.489ZM707.427 114.7C711.727 117.8 713.027 120.5 713.027 125.7V138.6C713.027 147.3 708.727 151.6 700.027 151.6H692.227C683.527 151.6 679.227 147.3 679.227 138.6V123.7H692.927V137.3C692.927 139 693.727 139.8 695.427 139.8H696.727C698.427 139.8 699.227 139 699.227 137.3V128.9C699.227 126.7 698.527 125.6 696.827 124.4L684.827 115.5C680.527 112.4 679.227 109.5 679.227 104.5V93.4C679.227 84.7 683.527 80.4 692.227 80.4H699.827C708.527 80.4 712.827 84.7 712.827 93.4V106.2H699.127V94.7C699.127 93 698.327 92.2 696.627 92.2H695.527C693.827 92.2 693.027 93 693.027 94.7V101.3C693.027 103.5 693.727 104.6 695.427 105.8L707.427 114.7ZM752.236 151H738.336L737.236 140.8H728.436L727.436 151H714.736L723.936 81H743.036L752.236 151ZM732.836 98.1L729.736 128.6H735.936L732.836 98.1ZM782.809 111.5H777.109L774.409 90.4V111.5H769.209V81H778.309L780.609 101.1L782.709 81H792.009V111.5H785.509V90.9L782.809 111.5ZM762.809 111.5H756.209V86.8H751.609V81H767.409V86.8H762.809V111.5Z" fill="#FFF6D2"/>
</svg>
