<svg width="325" height="47" viewBox="0 0 325 47" fill="none" xmlns="http://www.w3.org/2000/svg">
<path d="M147.905 1.04243C150.613 1.04243 152.792 3.18521 152.792 5.84917V40.1914C152.792 42.8554 150.613 44.9981 147.905 44.9981H5.94679C3.23835 44.9981 1.00095 42.8554 1.00095 40.1914V5.84917C1.00095 3.18521 3.17949 1.04243 5.88791 1.04243H147.905ZM147.905 0H5.94679C2.64957 0 0 2.60607 0 5.84917V40.1914C0 43.4346 2.64957 46.0405 5.94679 46.0405H147.905C151.202 46.0405 153.852 43.4346 153.852 40.1914V5.84917C153.852 2.60607 151.202 0 147.905 0Z" fill="#10454F"/>
<path d="M16.1915 18.8199C13.7185 23.1054 15.3083 29.5338 18.0167 33.4719C19.3709 35.4409 20.784 37.1783 22.7271 37.1783C22.786 37.1783 22.786 37.1783 22.8449 37.1783C23.7281 37.1203 24.3756 36.8887 25.0233 36.5992C25.73 36.3096 26.4364 36.02 27.614 36.02C28.6738 36.02 29.3804 36.3096 30.0869 36.5992C30.7346 36.8887 31.4412 37.1783 32.4421 37.1783C34.6207 37.1203 35.916 35.2672 37.0936 33.5876C38.3301 31.8504 38.9189 30.113 39.1544 29.4759C39.2133 29.36 39.1544 29.2443 39.0365 29.1863C38.6834 29.0126 35.3272 27.5648 35.3272 23.6268C35.2682 20.4415 37.8002 18.7041 38.3301 18.4145C38.389 18.3566 38.4477 18.2987 38.4477 18.2408C38.4477 18.1829 38.4477 18.125 38.389 18.0671C36.6226 15.5768 33.973 15.1714 32.9132 15.1135C32.7365 15.1135 32.6188 15.1135 32.4421 15.1135C31.2058 15.1135 29.9692 15.5768 28.9682 15.9822C28.3207 16.2718 27.7319 16.4455 27.3196 16.4455C26.8487 16.4455 26.2599 16.2139 25.6121 15.9822C24.7289 15.6347 23.6692 15.2294 22.6092 15.2294H22.5505C19.842 15.1714 17.4868 16.5613 16.1915 18.8199Z" fill="#10454F"/>
<path d="M32.7374 8.16675C31.2067 8.22466 29.3813 9.15126 28.2626 10.4253C27.3205 11.4678 26.4373 13.2631 26.6728 15.0584C26.6728 15.1742 26.7906 15.2321 26.9085 15.29C27.0261 15.29 27.144 15.29 27.2029 15.29C28.6749 15.29 30.3234 14.4792 31.3832 13.1472C32.5608 11.7573 33.1496 10.02 32.9731 8.3984C32.9731 8.22466 32.9141 8.16675 32.7374 8.16675Z" fill="#10454F"/>
<path d="M58.0512 31.1012H51.8101L50.5736 33.9389H48.1597L53.812 21.6614H56.1083L61.7606 33.9389H59.2878L58.0512 31.1012ZM57.2859 29.3058L54.9307 23.92L52.5755 29.3058H57.2859Z" fill="#10454F"/>
<path d="M70.8851 25.0795C71.5915 25.485 72.1803 26.0641 72.5926 26.759C73.0046 27.512 73.2401 28.3227 73.2401 29.2494C73.2401 30.1758 73.0046 31.0445 72.5926 31.7975C72.1803 32.5503 71.5915 33.0715 70.8851 33.477C70.1784 33.8823 69.2952 34.0561 68.412 34.0561C67.1168 34.0561 66.1158 33.6506 65.3504 32.7819V37.3571H63.113V24.5583H65.2326V25.7746C65.5859 25.3113 66.0568 25.0218 66.5869 24.7899C67.1168 24.5583 67.7056 24.4426 68.3531 24.4426C69.2952 24.5004 70.1195 24.6742 70.8851 25.0795ZM70.1784 31.392C70.7083 30.8709 70.9438 30.1181 70.9438 29.2494C70.9438 28.3807 70.6496 27.6856 70.1784 27.1065C69.6486 26.5853 69.0008 26.2957 68.1766 26.2957C67.6467 26.2957 67.1757 26.4116 66.7046 26.6433C66.2925 26.8749 65.9392 27.2224 65.7037 27.6856C65.4682 28.1491 65.3504 28.6702 65.3504 29.2494C65.3504 29.8285 65.4682 30.3497 65.7037 30.8129C65.9392 31.2763 66.2925 31.6237 66.7046 31.8553C67.1168 32.0871 67.5878 32.2028 68.1766 32.2028C68.9419 32.2028 69.6486 31.9132 70.1784 31.392Z" fill="#10454F"/>
<path d="M83.1351 25.0795C83.8415 25.485 84.4303 26.0641 84.8426 26.759C85.2546 27.512 85.4901 28.3227 85.4901 29.2494C85.4901 30.1758 85.2546 31.0445 84.8426 31.7975C84.4303 32.5503 83.8415 33.0715 83.1351 33.477C82.4284 33.8823 81.5452 34.0561 80.662 34.0561C79.3668 34.0561 78.3658 33.6506 77.6004 32.7819V37.3571H75.363V24.5583H77.4826V25.7746C77.8359 25.3113 78.3068 25.0218 78.8367 24.7899C79.3668 24.5583 79.9556 24.4426 80.6031 24.4426C81.5452 24.5004 82.3695 24.6742 83.1351 25.0795ZM82.4284 31.392C82.9583 30.8709 83.1938 30.1181 83.1938 29.2494C83.1938 28.3807 82.8994 27.6856 82.4284 27.1065C81.8986 26.5853 81.2508 26.2957 80.4266 26.2957C79.8967 26.2957 79.4255 26.4116 78.9546 26.6433C78.5423 26.8749 78.1892 27.2224 77.9537 27.6856C77.718 28.1491 77.6004 28.6702 77.6004 29.2494C77.6004 29.8285 77.718 30.3497 77.9537 30.8129C78.1892 31.2763 78.5423 31.6237 78.9546 31.8553C79.3668 32.0871 79.8378 32.2028 80.4266 32.2028C81.1919 32.2028 81.8986 31.9132 82.4284 31.392Z" fill="#10454F"/>
<path d="M93.7901 33.7084C92.9069 33.4188 92.2003 33.0713 91.6704 32.6658L92.4947 30.8706C93.0246 31.2759 93.6134 31.5655 94.3789 31.8551C95.1443 32.0869 95.8507 32.2605 96.6163 32.2605C97.5582 32.2605 98.2649 32.0869 98.6771 31.7973C99.1481 31.5077 99.3835 31.1023 99.3835 30.639C99.3835 30.2915 99.2659 30.0019 98.9715 29.7703C98.7358 29.5387 98.3827 29.3649 97.9705 29.2492C97.5582 29.1332 97.0283 28.9596 96.3808 28.7857C95.4387 28.5541 94.6733 28.3225 94.0845 28.0909C93.4957 27.8591 92.9656 27.5117 92.5536 27.0483C92.1414 26.5851 91.9059 25.948 91.9059 25.1372C91.9059 24.4424 92.0824 23.8633 92.4947 23.2841C92.848 22.705 93.4368 22.2995 94.2022 21.952C94.9675 21.6047 95.9097 21.4888 96.9696 21.4888C97.735 21.4888 98.5003 21.6047 99.207 21.7783C99.9724 21.952 100.561 22.2416 101.091 22.5891L100.385 24.3844C99.8547 24.0949 99.2659 23.8053 98.6771 23.6894C98.0883 23.5157 97.4995 23.4578 96.9696 23.4578C96.0275 23.4578 95.3798 23.6314 94.9088 23.921C94.4377 24.2106 94.2611 24.6161 94.2611 25.1372C94.2611 25.4848 94.3789 25.7743 94.6733 26.0059C94.9088 26.2376 95.2619 26.4114 95.6742 26.5271C96.0864 26.643 96.6163 26.8167 97.264 26.9906C98.2059 27.2222 98.9715 27.3958 99.5603 27.6274C100.149 27.8591 100.679 28.2066 101.091 28.67C101.503 29.1332 101.739 29.7703 101.739 30.5811C101.739 31.2759 101.562 31.8551 101.15 32.4342C100.797 33.0133 100.208 33.4188 99.4425 33.7663C98.6771 34.1136 97.735 34.2296 96.6752 34.2296C95.6742 34.1136 94.7321 33.9979 93.7901 33.7084Z" fill="#10454F"/>
<path d="M109.456 33.4779C109.22 33.7095 108.867 33.8252 108.514 33.9411C108.161 34.0568 107.748 34.1147 107.336 34.1147C106.276 34.1147 105.452 33.8252 104.922 33.304C104.334 32.7828 104.039 31.9721 104.039 30.9297V26.4123H102.449V24.6751H104.039V22.5322H106.276V24.6751H108.808V26.4123H106.276V30.8717C106.276 31.335 106.394 31.6825 106.63 31.9141C106.865 32.1457 107.16 32.2616 107.631 32.2616C108.102 32.2616 108.573 32.1457 108.867 31.8561L109.456 33.4779Z" fill="#10454F"/>
<path d="M112.688 33.477C111.922 33.0715 111.334 32.4924 110.863 31.7396C110.45 30.9868 110.215 30.1758 110.215 29.2494C110.215 28.3227 110.45 27.512 110.863 26.759C111.275 26.0062 111.922 25.485 112.688 25.0795C113.453 24.6742 114.336 24.4426 115.278 24.4426C116.279 24.4426 117.104 24.6742 117.928 25.0795C118.693 25.485 119.282 26.0641 119.753 26.759C120.165 27.512 120.401 28.3227 120.401 29.2494C120.401 30.1758 120.165 30.9868 119.753 31.7396C119.341 32.4924 118.693 33.0135 117.928 33.477C117.163 33.8823 116.279 34.1141 115.278 34.1141C114.336 34.0561 113.453 33.8823 112.688 33.477ZM117.339 31.392C117.869 30.8709 118.163 30.1181 118.163 29.2494C118.163 28.3807 117.869 27.6856 117.339 27.1065C116.809 26.5853 116.103 26.2957 115.278 26.2957C114.454 26.2957 113.806 26.5853 113.276 27.1065C112.747 27.6277 112.511 28.3807 112.511 29.2494C112.511 30.1181 112.747 30.8129 113.276 31.392C113.806 31.9132 114.454 32.2028 115.278 32.2028C116.103 32.2028 116.809 31.9132 117.339 31.392Z" fill="#10454F"/>
<path d="M128.058 24.5V26.5849C127.881 26.527 127.705 26.527 127.528 26.527C126.645 26.527 125.997 26.7586 125.467 27.2798C124.996 27.8009 124.761 28.496 124.761 29.4227V33.9976H122.523V24.558H124.643V25.9478C125.291 24.9632 126.409 24.5 128.058 24.5Z" fill="#10454F"/>
<path d="M138.772 30.0028H131.294C131.412 30.6977 131.765 31.2189 132.295 31.6243C132.825 32.0296 133.531 32.2035 134.356 32.2035C135.416 32.2035 136.24 31.856 136.946 31.1611L138.124 32.493C137.712 33.0142 137.182 33.3617 136.475 33.6513C135.828 33.8829 135.062 34.0566 134.238 34.0566C133.178 34.0566 132.295 33.825 131.471 33.4197C130.646 33.0142 130.058 32.4351 129.646 31.6823C129.233 30.9293 128.998 30.1185 128.998 29.1919C128.998 28.2654 129.233 27.4547 129.646 26.7017C130.058 25.9489 130.646 25.4277 131.412 24.9643C132.177 24.559 133.002 24.3274 133.944 24.3274C134.886 24.3274 135.71 24.501 136.417 24.9065C137.123 25.3118 137.712 25.8909 138.124 26.586C138.536 27.3388 138.713 28.1495 138.713 29.1341C138.772 29.4815 138.772 29.7133 138.772 30.0028ZM132.177 26.8756C131.706 27.2808 131.412 27.86 131.294 28.555H136.711C136.593 27.86 136.299 27.3388 135.828 26.8756C135.357 26.4701 134.709 26.2385 134.002 26.2385C133.237 26.2385 132.648 26.4701 132.177 26.8756Z" fill="#10454F"/>
<path d="M52.4578 8.16675C53.2232 8.16675 53.9298 8.28255 54.4597 8.57212C54.9896 8.86169 55.4018 9.26709 55.6962 9.73037C55.9906 10.2516 56.1083 10.8886 56.1083 11.5836C56.1083 12.2785 55.9906 12.9156 55.6962 13.4368C55.4018 13.958 54.9896 14.3634 54.4597 14.5951C53.9298 14.8846 53.2232 15.0004 52.4578 15.0004H50.2205V8.16675H52.4578ZM52.4578 14.5371C53.4589 14.5371 54.2242 14.3055 54.7541 13.7843C55.284 13.2631 55.5195 12.5681 55.5195 11.6415C55.5195 10.7149 55.284 10.0199 54.7541 9.49874C54.2242 8.97752 53.4589 8.74586 52.4578 8.74586H50.8682V14.5371H52.4578Z" fill="#10454F"/>
<path d="M57.8168 9.03491C57.6989 9.03491 57.5811 8.977 57.5224 8.91908C57.4635 8.86117 57.4045 8.74534 57.4045 8.62952C57.4045 8.51369 57.4635 8.39786 57.5224 8.33995C57.5811 8.28203 57.6989 8.22412 57.8168 8.22412C57.9344 8.22412 58.0523 8.28203 58.1112 8.33995C58.1699 8.39786 58.2288 8.51369 58.2288 8.62952C58.2288 8.74534 58.1699 8.86117 58.1112 8.91908C57.9933 8.977 57.9344 9.03491 57.8168 9.03491ZM57.5224 10.1352H58.0523V15.0578H57.5224V10.1352Z" fill="#10454F"/>
<path d="M60.0503 13.6126C60.1092 13.8443 60.1679 14.018 60.2857 14.1339C60.4036 14.2497 60.5212 14.3655 60.7567 14.4813C60.9335 14.5393 61.1689 14.5972 61.4044 14.5972C61.8167 14.5972 62.1111 14.5393 62.3466 14.3655C62.582 14.1918 62.641 14.018 62.641 13.7864C62.641 13.6126 62.582 13.4389 62.4642 13.3231C62.3466 13.2073 62.1698 13.0914 61.9932 13.0335C61.8167 12.9756 61.5812 12.9177 61.3455 12.8598C61.169 12.8019 60.9924 12.8019 60.8156 12.744C60.6391 12.686 60.4036 12.6281 60.2268 12.5123C60.0503 12.3965 59.8735 12.2806 59.7559 12.1648C59.638 11.9911 59.5791 11.8174 59.5791 11.5278C59.5791 11.2382 59.638 11.0066 59.8148 10.8329C59.9913 10.6012 60.1679 10.4854 60.4623 10.3695C60.7567 10.2537 61.0511 10.1958 61.4044 10.1958C61.8167 10.1958 62.1698 10.3116 62.5231 10.4854C62.8175 10.6591 63.053 10.9487 63.1708 11.3541L62.641 11.5278C62.582 11.2961 62.4642 11.1803 62.3466 11.0645C62.2287 10.9487 62.0522 10.8907 61.8756 10.8329C61.6988 10.7749 61.5223 10.7749 61.4044 10.7749C61.0511 10.7749 60.7567 10.8328 60.5802 11.0066C60.3447 11.1224 60.2857 11.3541 60.2857 11.5857C60.2857 11.7594 60.3447 11.8753 60.4036 11.9332C60.4623 12.049 60.5801 12.1069 60.698 12.1648C60.8156 12.2227 60.9335 12.2806 61.11 12.3386C61.2868 12.3965 61.4634 12.3965 61.5812 12.4544C61.7578 12.5123 61.9932 12.5702 62.17 12.6281C62.3466 12.686 62.582 12.8019 62.6999 12.8598C62.8764 12.9756 62.9943 13.0914 63.1119 13.2652C63.2298 13.4389 63.2887 13.6126 63.2887 13.9022C63.2887 14.1918 63.2298 14.4234 63.053 14.6551C62.8764 14.8867 62.6999 15.0025 62.4055 15.1184C62.1111 15.2342 61.8167 15.2921 61.4633 15.2921C60.9335 15.2921 60.5212 15.1763 60.2268 14.9446C59.9324 14.713 59.6969 14.4234 59.5791 13.9601L60.0503 13.6126Z" fill="#10454F"/>
<path d="M65.0003 13.8991L65.0593 16.9685H64.4705V10.1348H65.0003L65.0593 11.2352C65.1769 10.8877 65.4124 10.656 65.7657 10.4244C66.0601 10.1927 66.4723 10.0769 67.0022 10.0769C67.4732 10.0769 67.8265 10.1927 68.1798 10.3665C68.5329 10.5981 68.7686 10.8877 69.0041 11.2352C69.1807 11.5826 69.2985 12.0459 69.2985 12.5671C69.2985 13.0884 69.1807 13.4937 69.0041 13.8991C68.8273 14.2466 68.5329 14.5941 68.1798 14.7678C67.8265 14.9995 67.4143 15.0574 66.9433 15.0574C66.4134 15.0574 66.0012 14.9416 65.7068 14.7099C65.3537 14.5362 65.118 14.2466 65.0003 13.8991ZM68.6508 12.5671C68.6508 11.9301 68.4742 11.4668 68.1798 11.1193C67.8265 10.7719 67.4143 10.5981 66.8844 10.5981C66.5311 10.5981 66.2366 10.656 65.9425 10.8298C65.6481 11.0035 65.4713 11.2352 65.2947 11.5247C65.118 11.8143 65.0593 12.1618 65.0593 12.5671C65.0593 12.9725 65.118 13.32 65.2947 13.6096C65.4713 13.8991 65.6481 14.1308 65.9425 14.3045C66.2366 14.4783 66.5311 14.5362 66.8844 14.5362C67.4143 14.5362 67.8854 14.3624 68.1798 14.015C68.4742 13.6675 68.6508 13.2042 68.6508 12.5671Z" fill="#10454F"/>
<path d="M72.5928 15.1189C72.1219 15.1189 71.7096 15.0031 71.3563 14.8293C71.003 14.6556 70.7086 14.366 70.4731 13.9607C70.2376 13.6132 70.1787 13.1499 70.1787 12.6287C70.1787 12.1074 70.2966 11.6441 70.4731 11.2967C70.7086 10.8913 71.003 10.6017 71.3563 10.428C71.7096 10.2542 72.1219 10.1384 72.5928 10.1384C73.0638 10.1384 73.476 10.2542 73.8294 10.428C74.1825 10.6017 74.4769 10.8913 74.7124 11.2967C74.948 11.6441 75.0068 12.1074 75.0068 12.6287C75.0068 13.1499 74.8891 13.6132 74.7124 13.9607C74.4769 14.366 74.1825 14.6556 73.8294 14.8293C73.476 15.0031 73.0638 15.1189 72.5928 15.1189ZM72.5928 14.5977C72.8872 14.5977 73.2406 14.5398 73.476 14.366C73.7704 14.2502 74.0059 14.0186 74.1825 13.729C74.3592 13.4394 74.4182 13.034 74.4182 12.6287C74.4182 12.1654 74.3592 11.8179 74.1825 11.5283C74.0059 11.2388 73.7704 11.0071 73.476 10.8913C73.1816 10.7755 72.8872 10.6596 72.5928 10.6596C72.2984 10.6596 72.004 10.7175 71.7096 10.8913C71.4152 11.0071 71.1798 11.2388 71.0619 11.5283C70.8854 11.8179 70.8264 12.2233 70.8264 12.6287C70.8264 13.092 70.8854 13.4394 71.0619 13.729C71.2387 14.0186 71.4742 14.2502 71.7096 14.366C72.004 14.4819 72.2984 14.5977 72.5928 14.5977Z" fill="#10454F"/>
<path d="M76.3623 10.1348H76.8922L76.9511 11.0035C77.0687 10.714 77.3042 10.4823 77.5986 10.3086C77.893 10.1348 78.1874 10.0769 78.5997 10.0769C78.953 10.0769 79.3061 10.1348 79.6005 10.3086C79.8949 10.4823 80.1306 10.714 80.2482 11.0035C80.3661 11.2931 80.4837 11.6985 80.4837 12.2197V15.0574H79.8949V12.3355C79.8949 11.7564 79.7773 11.351 79.5418 11.0614C79.3061 10.7719 78.953 10.5981 78.4818 10.5981C78.0109 10.5981 77.6575 10.7719 77.3631 11.0614C77.0687 11.351 76.9511 11.8143 76.9511 12.4513V15.0574H76.3623V10.1348Z" fill="#10454F"/>
<path d="M82.3673 9.03491C82.2495 9.03491 82.1318 8.977 82.0729 8.91908C82.014 8.86117 81.9551 8.74534 81.9551 8.62952C81.9551 8.51369 82.014 8.39786 82.0729 8.33995C82.1318 8.28203 82.2495 8.22412 82.3673 8.22412C82.485 8.22412 82.6028 8.28203 82.6617 8.33995C82.7207 8.39786 82.7794 8.51369 82.7794 8.62952C82.7794 8.74534 82.7207 8.86117 82.6617 8.91908C82.6028 8.977 82.485 9.03491 82.3673 9.03491ZM82.0729 10.1352H82.6028V15.0578H82.0729V10.1352Z" fill="#10454F"/>
<path d="M84.9005 11.2952C85.0181 10.9477 85.2538 10.6581 85.6069 10.4265C85.9602 10.1948 86.3725 10.079 86.8434 10.079C87.3144 10.079 87.7267 10.1948 88.0211 10.3686C88.3744 10.6002 88.6099 10.8898 88.8453 11.2373C89.0219 11.5847 89.1397 12.048 89.1397 12.5693C89.1397 13.0905 89.0219 13.4958 88.8453 13.9012C88.6688 14.3066 88.3744 14.5962 88.0211 14.7699C87.6677 15.0016 87.2557 15.0595 86.8434 15.0595C86.3725 15.0595 85.9602 14.9437 85.6658 14.712C85.3714 14.4804 85.136 14.1908 84.9594 13.9012L84.9005 15.0016H84.3706V7.99414H84.9594L84.9005 11.2952ZM88.5509 12.5693C88.5509 11.9322 88.3744 11.4689 88.08 11.1214C87.7267 10.774 87.3144 10.6002 86.7845 10.6002C86.4312 10.6002 86.1368 10.6581 85.8426 10.8319C85.5482 11.0056 85.3714 11.2373 85.1949 11.5268C85.0181 11.8164 84.9594 12.1639 84.9594 12.5693C84.9594 12.9746 85.0181 13.3221 85.1949 13.6117C85.3714 13.9012 85.5482 14.1329 85.8426 14.3066C86.1368 14.4804 86.4312 14.5383 86.7845 14.5383C87.3144 14.5383 87.7856 14.3645 88.08 14.0171C88.3744 13.6696 88.5509 13.2063 88.5509 12.5693Z" fill="#10454F"/>
<path d="M90.3796 7.99414H90.9684V15.0595H90.3796V7.99414Z" fill="#10454F"/>
<path d="M94.5564 15.1153C94.0854 15.1153 93.6732 14.9995 93.3201 14.7678C92.9667 14.5362 92.6723 14.2466 92.4956 13.8412C92.319 13.4358 92.2012 13.0305 92.2012 12.5092C92.2012 12.0459 92.319 11.5826 92.4956 11.2352C92.6723 10.8877 92.9667 10.5981 93.3201 10.3665C93.6732 10.1348 94.0854 10.0769 94.4977 10.0769C94.9686 10.0769 95.3219 10.1927 95.6751 10.3665C96.0284 10.5402 96.3228 10.8298 96.4995 11.1772C96.6761 11.5247 96.794 11.8722 96.794 12.3355C96.794 12.3934 96.794 12.4513 96.794 12.5671C96.794 12.6251 96.794 12.7409 96.794 12.7988H92.8489C92.8489 13.1463 92.9078 13.4937 93.0844 13.7254C93.2611 14.015 93.4377 14.1887 93.6732 14.3624C93.9089 14.5362 94.2033 14.5941 94.5564 14.5941C94.9686 14.5941 95.3219 14.5362 95.6164 14.3624C95.9108 14.1887 96.1462 13.9571 96.2639 13.6675L96.735 13.8412C96.5583 14.2466 96.2639 14.5941 95.9108 14.8257C95.5574 14.9995 95.0863 15.1153 94.5564 15.1153ZM96.2639 12.2776C96.2639 11.9301 96.2052 11.6406 96.0873 11.4089C95.9695 11.1772 95.734 10.9456 95.4985 10.8298C95.263 10.714 94.9686 10.5981 94.6153 10.5981C94.3209 10.5981 94.0265 10.656 93.791 10.8298C93.5555 10.9456 93.3201 11.1772 93.2022 11.4089C93.0257 11.6406 92.9667 11.9301 92.9078 12.2776H96.2639Z" fill="#10454F"/>
<path d="M102.976 15.1153C102.505 15.1153 102.093 14.9995 101.74 14.7678C101.387 14.5362 101.092 14.2466 100.915 13.8412C100.739 13.4358 100.621 13.0305 100.621 12.5092C100.621 12.0459 100.739 11.5826 100.915 11.2352C101.092 10.8877 101.387 10.5981 101.74 10.3665C102.093 10.1348 102.505 10.0769 102.917 10.0769C103.389 10.0769 103.742 10.1927 104.095 10.3665C104.448 10.5402 104.743 10.8298 104.919 11.1772C105.096 11.5247 105.214 11.8722 105.214 12.3355C105.214 12.3934 105.214 12.4513 105.214 12.5671C105.214 12.6251 105.214 12.7409 105.214 12.7988H101.21C101.21 13.1463 101.269 13.4937 101.446 13.7254C101.622 14.015 101.799 14.1887 102.034 14.3624C102.27 14.5362 102.564 14.5941 102.917 14.5941C103.33 14.5941 103.683 14.5362 103.977 14.3624C104.272 14.1887 104.507 13.9571 104.625 13.6675L105.096 13.8412C104.919 14.2466 104.625 14.5941 104.272 14.8257C103.918 14.9995 103.447 15.1153 102.976 15.1153ZM104.625 12.2776C104.625 11.9301 104.566 11.6406 104.448 11.4089C104.33 11.1772 104.095 10.9456 103.86 10.8298C103.624 10.714 103.33 10.5981 102.976 10.5981C102.682 10.5981 102.387 10.656 102.152 10.8298C101.917 10.9456 101.681 11.1772 101.563 11.4089C101.387 11.6406 101.328 11.9301 101.269 12.2776H104.625Z" fill="#10454F"/>
<path d="M106.51 10.1348H107.04L107.099 11.0035C107.217 10.714 107.452 10.4823 107.747 10.3086C108.041 10.1348 108.335 10.0769 108.748 10.0769C109.101 10.0769 109.454 10.1348 109.749 10.3086C110.043 10.4823 110.279 10.714 110.396 11.0035C110.514 11.2931 110.632 11.6985 110.632 12.2197V15.0574H110.043V12.3355C110.043 11.7564 109.925 11.351 109.69 11.0614C109.454 10.7719 109.101 10.5981 108.63 10.5981C108.159 10.5981 107.805 10.7719 107.511 11.0614C107.217 11.351 107.099 11.8143 107.099 12.4513V15.0574H106.51V10.1348Z" fill="#10454F"/>
<path d="M319.033 1.04243C321.741 1.04243 323.92 3.18521 323.92 5.84917V40.1914C323.92 42.8554 321.741 44.9981 319.033 44.9981H177.075C174.366 44.9981 172.188 42.8554 172.188 40.1914V5.84917C172.188 3.18521 174.366 1.04243 177.075 1.04243H319.033ZM319.033 0H177.075C173.778 0 171.128 2.60607 171.128 5.84917V40.1914C171.128 43.4346 173.778 46.0405 177.075 46.0405H319.033C322.33 46.0405 324.979 43.4346 324.979 40.1914V5.84917C324.979 2.60607 322.33 0 319.033 0Z" fill="#10454F"/>
<path d="M221.521 27.7996H223.64V32.6063C222.993 33.0696 222.286 33.475 221.463 33.7646C220.638 34.0542 219.755 34.1699 218.873 34.1699C217.636 34.1699 216.516 33.8805 215.515 33.3591C214.514 32.8379 213.749 32.0852 213.161 31.1585C212.572 30.2318 212.277 29.1895 212.277 27.9732C212.277 26.815 212.572 25.7147 213.161 24.7882C213.749 23.8615 214.514 23.1088 215.515 22.5874C216.516 22.0662 217.636 21.7766 218.931 21.7766C219.931 21.7766 220.874 21.9505 221.699 22.2978C222.522 22.6453 223.229 23.1088 223.818 23.7456L222.404 25.1355C221.463 24.2091 220.345 23.7456 219.048 23.7456C218.166 23.7456 217.401 23.9195 216.751 24.2668C216.104 24.6143 215.575 25.1355 215.162 25.7726C214.808 26.4097 214.574 27.1625 214.574 27.9732C214.574 28.7842 214.75 29.479 215.162 30.1161C215.515 30.7532 216.046 31.2744 216.751 31.6217C217.401 31.9692 218.166 32.1431 219.048 32.1431C219.991 32.1431 220.814 31.9113 221.581 31.506V27.7996H221.521Z" fill="#10454F"/>
<path d="M228.114 33.4715C227.346 33.0662 226.759 32.4871 226.346 31.792C225.934 31.0972 225.699 30.2864 225.699 29.3598C225.699 28.4331 225.934 27.6224 226.346 26.9275C226.759 26.2325 227.346 25.6534 228.114 25.2481C228.878 24.8426 229.703 24.6689 230.644 24.6689C231.587 24.6689 232.47 24.8426 233.234 25.2481C234.002 25.6534 234.589 26.1745 235.002 26.9275C235.414 27.6224 235.649 28.4331 235.649 29.3598C235.649 30.2864 235.414 31.0972 235.002 31.792C234.589 32.4871 234.002 33.0662 233.234 33.4715C232.47 33.877 231.645 34.0506 230.644 34.0506C229.703 34.0506 228.878 33.877 228.114 33.4715ZM232.647 31.4447C233.177 30.9233 233.412 30.2285 233.412 29.3598C233.412 28.4911 233.177 27.7962 232.647 27.2748C232.116 26.7537 231.469 26.4641 230.644 26.4641C229.821 26.4641 229.172 26.7537 228.643 27.2748C228.114 27.7962 227.878 28.4911 227.878 29.3598C227.878 30.2285 228.114 30.9233 228.643 31.4447C229.172 31.9659 229.821 32.2555 230.644 32.2555C231.469 32.2555 232.116 31.9659 232.647 31.4447Z" fill="#10454F"/>
<path d="M239.365 33.4715C238.6 33.0662 238.011 32.4871 237.599 31.792C237.186 31.0972 236.952 30.2864 236.952 29.3598C236.952 28.4331 237.186 27.6224 237.599 26.9275C238.011 26.2325 238.6 25.6534 239.365 25.2481C240.13 24.8426 240.955 24.6689 241.898 24.6689C242.838 24.6689 243.723 24.8426 244.488 25.2481C245.253 25.6534 245.842 26.1745 246.254 26.9275C246.667 27.6224 246.903 28.4331 246.903 29.3598C246.903 30.2864 246.667 31.0972 246.254 31.792C245.842 32.4871 245.253 33.0662 244.488 33.4715C243.723 33.877 242.898 34.0506 241.898 34.0506C240.955 34.0506 240.13 33.877 239.365 33.4715ZM243.899 31.4447C244.428 30.9233 244.664 30.2285 244.664 29.3598C244.664 28.4911 244.428 27.7962 243.899 27.2748C243.37 26.7537 242.72 26.4641 241.898 26.4641C241.073 26.4641 240.426 26.7537 239.894 27.2748C239.365 27.7962 239.129 28.4911 239.129 29.3598C239.129 30.2285 239.365 30.9233 239.894 31.4447C240.426 31.9659 241.073 32.2555 241.898 32.2555C242.72 32.2555 243.37 31.9659 243.899 31.4447Z" fill="#10454F"/>
<path d="M258.198 24.7846V32.545C258.198 35.788 256.551 37.4097 253.195 37.4097C252.313 37.4097 251.428 37.2938 250.663 37.0622C249.838 36.8306 249.191 36.541 248.662 36.0776L249.662 34.4561C250.073 34.8036 250.605 35.0352 251.192 35.2668C251.841 35.4407 252.428 35.5564 253.078 35.5564C254.078 35.5564 254.843 35.3248 255.314 34.8616C255.786 34.3981 256.022 33.7033 256.022 32.7766V32.3134C255.668 32.7187 255.197 33.0083 254.667 33.2399C254.136 33.4715 253.549 33.5294 252.9 33.5294C252.017 33.5294 251.192 33.3558 250.487 32.9503C249.78 32.603 249.191 32.0816 248.779 31.3868C248.366 30.6917 248.13 29.9389 248.13 29.0702C248.13 28.2015 248.366 27.4487 248.779 26.7537C249.191 26.0588 249.78 25.5954 250.487 25.1901C251.192 24.8426 252.017 24.6689 252.9 24.6689C253.549 24.6689 254.196 24.7846 254.725 25.0163C255.254 25.2481 255.726 25.5374 256.139 26.0009V24.7846H258.198ZM255.254 30.9813C255.786 30.5181 256.022 29.881 256.022 29.0702C256.022 28.3174 255.786 27.6803 255.254 27.2171C254.725 26.7537 254.078 26.5221 253.195 26.5221C252.37 26.5221 251.663 26.7537 251.134 27.2171C250.605 27.6803 250.369 28.3174 250.369 29.0702C250.369 29.823 250.605 30.4601 251.134 30.9813C251.663 31.4447 252.37 31.7343 253.195 31.7343C254.078 31.7343 254.725 31.5025 255.254 30.9813Z" fill="#10454F"/>
<path d="M261.091 21.2549H263.27V33.9957H261.091V21.2549Z" fill="#10454F"/>
<path d="M274.871 30.0582H267.571C267.689 30.7532 268.042 31.2744 268.572 31.6796C269.101 32.0851 269.808 32.2588 270.573 32.2588C271.573 32.2588 272.458 31.9113 273.105 31.2744L274.282 32.6063C273.87 33.0695 273.341 33.475 272.694 33.7066C272.045 33.9382 271.34 34.1121 270.515 34.1121C269.514 34.1121 268.572 33.9382 267.807 33.533C267.04 33.1275 266.452 32.5484 265.981 31.8535C265.57 31.1585 265.334 30.3477 265.334 29.4211C265.334 28.5524 265.57 27.7416 265.981 26.9888C266.392 26.2938 266.982 25.7146 267.689 25.3094C268.396 24.9039 269.219 24.7302 270.161 24.7302C271.044 24.7302 271.869 24.9039 272.576 25.3094C273.281 25.7146 273.87 26.236 274.224 26.9888C274.635 27.6837 274.813 28.5524 274.813 29.479C274.871 29.5949 274.871 29.7686 274.871 30.0582ZM268.396 27.0468C267.924 27.452 267.629 27.9732 267.511 28.6683H272.81C272.694 28.0312 272.458 27.452 271.927 27.0468C271.456 26.6413 270.868 26.4097 270.161 26.4097C269.454 26.4097 268.865 26.6413 268.396 27.0468Z" fill="#10454F"/>
<path d="M289.762 22.4706C290.527 22.8179 291.176 23.2814 291.588 23.9182C291.999 24.5553 292.235 25.3083 292.235 26.177C292.235 27.0455 291.999 27.7985 291.588 28.4356C291.176 29.0725 290.587 29.5937 289.762 29.9412C288.997 30.2887 288.055 30.4624 286.996 30.4624H284.228V33.9372H281.931V21.9492H286.936C288.055 21.9492 288.997 22.1231 289.762 22.4706ZM289.173 27.9722C289.704 27.5669 289.94 26.9878 289.94 26.177C289.94 25.424 289.704 24.8449 289.173 24.3817C288.644 23.9762 287.937 23.7446 286.936 23.7446H284.288V28.4934H286.936C287.879 28.6093 288.644 28.3777 289.173 27.9722Z" fill="#10454F"/>
<path d="M294.474 21.2549H296.651V33.9957H294.474V21.2549Z" fill="#10454F"/>
<path d="M306.19 25.6554C306.897 26.2925 307.309 27.2771 307.309 28.609V33.9949H305.247V32.8946C304.954 33.2998 304.6 33.5894 304.129 33.821C303.658 34.0528 303.01 34.1106 302.363 34.1106C301.656 34.1106 301.067 33.9949 300.538 33.7633C300.009 33.5317 299.595 33.1841 299.302 32.7787C299.006 32.3734 298.89 31.91 298.89 31.3888C298.89 30.578 299.184 29.883 299.831 29.4198C300.478 28.8986 301.421 28.667 302.775 28.667H305.19V28.5511C305.19 27.914 305.012 27.3928 304.6 27.1032C304.189 26.7557 303.658 26.582 302.893 26.582C302.363 26.582 301.834 26.64 301.363 26.8137C300.831 26.9875 300.42 27.2191 300.066 27.5087L299.184 25.9449C299.655 25.5976 300.244 25.3081 300.949 25.0762C301.656 24.9026 302.363 24.7867 303.128 24.7867C304.425 24.671 305.483 25.0185 306.19 25.6554ZM304.189 32.1416C304.6 31.91 304.894 31.5624 305.072 31.0992V30.0569H302.835C301.598 30.0569 300.949 30.4621 300.949 31.2729C300.949 31.6784 301.127 31.9679 301.421 32.1995C301.716 32.4311 302.186 32.5471 302.717 32.5471C303.304 32.4891 303.775 32.3734 304.189 32.1416Z" fill="#10454F"/>
<path d="M318.609 24.7878L314.253 34.6909C313.839 35.6755 313.37 36.3704 312.781 36.7758C312.192 37.1813 311.485 37.4129 310.662 37.4129C310.19 37.4129 309.719 37.355 309.305 37.1813C308.836 37.0074 308.483 36.8338 308.187 36.5442L309.072 34.9805C309.305 35.1543 309.541 35.328 309.837 35.4439C310.13 35.5596 310.426 35.6176 310.72 35.6176C311.131 35.6176 311.427 35.5016 311.662 35.328C311.898 35.1543 312.132 34.8068 312.367 34.3436L312.545 33.9961L308.483 24.7878H310.778L313.722 31.5636L316.666 24.7878H318.609Z" fill="#10454F"/>
<path d="M208.155 22.4116L202.267 19.1106L197.439 23.6856L201.855 27.8555L208.155 24.3227C208.508 24.149 208.685 23.8015 208.685 23.3962C208.685 22.9908 208.508 22.6432 208.155 22.4116Z" fill="#10454F"/>
<path d="M201.265 18.5357L194.847 14.8872L180.716 7.76392L196.672 22.937L201.265 18.5357Z" fill="#10454F"/>
<path d="M180.961 39.442L194.856 31.8555L200.862 28.4386L196.682 24.4426L180.961 39.442Z" fill="#10454F"/>
<path d="M179.717 8.39673V39.0324L195.85 23.6857L179.717 8.39673Z" fill="#10454F"/>
<path d="M215.401 8.51587C216.166 8.51587 216.873 8.6317 217.403 8.92126C217.934 9.21083 218.345 9.61621 218.641 10.0795C218.935 10.6007 219.053 11.2378 219.053 11.9327C219.053 12.6277 218.935 13.2647 218.641 13.7859C218.345 14.3071 217.934 14.7125 217.403 14.9442C216.873 15.2337 216.166 15.3496 215.401 15.3496H213.164V8.51587H215.401ZM215.401 14.8283C216.402 14.8283 217.169 14.5967 217.698 14.0755C218.228 13.5543 218.463 12.8593 218.463 11.9327C218.463 11.0061 218.228 10.3112 217.698 9.78995C217.169 9.26872 216.402 9.03709 215.401 9.03709H213.812V14.8283H215.401Z" fill="#10454F"/>
<path d="M220.76 9.38403C220.642 9.38403 220.524 9.32612 220.466 9.26821C220.409 9.21029 220.349 9.09446 220.349 8.97864C220.349 8.86281 220.409 8.74698 220.466 8.68907C220.524 8.63116 220.642 8.57324 220.76 8.57324C220.878 8.57324 220.996 8.63116 221.056 8.68907C221.114 8.74698 221.174 8.86281 221.174 8.97864C221.174 9.09446 221.114 9.21029 221.056 9.26821C220.996 9.32612 220.878 9.38403 220.76 9.38403ZM220.524 10.4265H221.056V15.349H220.524V10.4265Z" fill="#10454F"/>
<path d="M222.995 13.9041C223.053 14.1358 223.113 14.3095 223.23 14.4254C223.348 14.5412 223.466 14.657 223.7 14.7728C223.878 14.8307 224.113 14.8887 224.349 14.8887C224.76 14.8887 225.056 14.8307 225.29 14.657C225.525 14.4833 225.585 14.3095 225.585 14.0779C225.585 13.9041 225.525 13.7304 225.407 13.6146C225.29 13.4987 225.114 13.3829 224.938 13.325C224.76 13.2671 224.525 13.2092 224.289 13.1513C224.113 13.0934 223.935 13.0934 223.76 13.0355C223.584 12.9775 223.348 12.9196 223.171 12.8038C222.995 12.688 222.817 12.5722 222.699 12.4563C222.581 12.2826 222.523 12.1088 222.523 11.8193C222.523 11.5297 222.581 11.2981 222.759 11.1243C222.935 10.8927 223.113 10.7769 223.406 10.661C223.7 10.5452 223.995 10.4873 224.349 10.4873C224.76 10.4873 225.114 10.6031 225.467 10.7769C225.761 10.9506 225.997 11.2402 226.115 11.6456L225.585 11.8193C225.525 11.5876 225.407 11.4718 225.29 11.356C225.172 11.2402 224.996 11.1822 224.82 11.1243C224.643 11.0664 224.467 11.0664 224.349 11.0664C223.995 11.0664 223.702 11.1243 223.524 11.2981C223.288 11.4139 223.23 11.6456 223.23 11.8772C223.23 12.0509 223.288 12.1668 223.348 12.2247C223.406 12.3405 223.524 12.3984 223.642 12.4563C223.76 12.5142 223.878 12.5722 224.053 12.6301C224.231 12.688 224.407 12.688 224.525 12.7459C224.703 12.8038 224.938 12.8617 225.114 12.9196C225.29 12.9775 225.525 13.0934 225.643 13.1513C225.821 13.2671 225.939 13.3829 226.057 13.5567C226.175 13.7304 226.232 13.9041 226.232 14.1937C226.232 14.4833 226.175 14.7149 225.997 14.9466C225.821 15.1782 225.643 15.2941 225.35 15.4099C225.056 15.5257 224.76 15.5836 224.407 15.5836C223.878 15.5836 223.466 15.4678 223.171 15.2361C222.877 15.0045 222.641 14.7149 222.523 14.2516L222.995 13.9041Z" fill="#10454F"/>
<path d="M228.002 14.1906L228.06 17.26H227.471V10.4263H228.002L228.06 11.5267C228.178 11.1792 228.414 10.9475 228.767 10.7159C229.061 10.4842 229.474 10.3684 230.004 10.3684C230.475 10.3684 230.828 10.4842 231.18 10.658C231.533 10.8896 231.769 11.1792 232.005 11.5267C232.183 11.8741 232.301 12.3374 232.301 12.8587C232.301 13.3799 232.183 13.7852 232.005 14.1906C231.829 14.5381 231.533 14.8856 231.18 15.0593C230.828 15.2331 230.415 15.3489 229.944 15.3489C229.414 15.3489 229.003 15.2331 228.707 15.0014C228.354 14.8277 228.12 14.5381 228.002 14.1906ZM231.593 12.9166C231.593 12.2795 231.416 11.8162 231.122 11.4687C230.769 11.1213 230.357 10.9475 229.826 10.9475C229.474 10.9475 229.179 11.0054 228.885 11.1792C228.589 11.3529 228.414 11.5846 228.238 11.8741C228.06 12.1637 228.002 12.5112 228.002 12.9166C228.002 13.3219 228.06 13.6694 228.238 13.959C228.414 14.2486 228.589 14.4802 228.885 14.6539C229.179 14.8277 229.474 14.8856 229.826 14.8856C230.357 14.8856 230.828 14.7118 231.122 14.3644C231.416 14.0169 231.593 13.4957 231.593 12.9166Z" fill="#10454F"/>
<path d="M235.596 15.4104C235.125 15.4104 234.713 15.2946 234.36 15.1209C234.006 14.9471 233.71 14.6576 233.477 14.2522C233.241 13.9047 233.181 13.4414 233.181 12.9202C233.181 12.399 233.299 11.9357 233.477 11.5882C233.71 11.1828 234.006 10.8932 234.36 10.7195C234.713 10.5458 235.125 10.4299 235.596 10.4299C236.067 10.4299 236.479 10.5458 236.832 10.7195C237.186 10.8932 237.479 11.1828 237.715 11.5882C237.951 11.9357 238.009 12.399 238.009 12.9202C238.009 13.4414 237.891 13.9047 237.715 14.2522C237.479 14.6576 237.186 14.9471 236.832 15.1209C236.479 15.2946 236.067 15.4104 235.596 15.4104ZM235.596 14.8892C235.889 14.8892 236.243 14.8313 236.479 14.6576C236.772 14.5417 237.008 14.3101 237.186 14.0205C237.361 13.731 237.421 13.3256 237.421 12.9202C237.421 12.4569 237.361 12.1094 237.186 11.8198C237.008 11.5303 236.772 11.2986 236.479 11.1828C236.185 11.067 235.889 10.9512 235.596 10.9512C235.3 10.9512 235.007 11.0091 234.713 11.1828C234.417 11.2986 234.182 11.5303 234.064 11.8198C233.888 12.1094 233.828 12.5148 233.828 12.9202C233.828 13.3835 233.888 13.731 234.064 14.0205C234.242 14.3101 234.477 14.5417 234.713 14.6576C234.949 14.8313 235.242 14.8892 235.596 14.8892Z" fill="#10454F"/>
<path d="M239.307 10.4263H239.836L239.896 11.295C240.012 11.0054 240.248 10.7738 240.543 10.6001C240.837 10.4263 241.133 10.3684 241.544 10.3684C241.898 10.3684 242.251 10.4263 242.545 10.6001C242.838 10.7738 243.074 11.0054 243.192 11.295C243.37 11.5846 243.427 11.99 243.427 12.5112V15.291H242.838V12.5691C242.838 11.99 242.723 11.5846 242.487 11.295C242.251 11.0054 241.898 10.8317 241.426 10.8317C240.955 10.8317 240.601 11.0054 240.308 11.295C240.012 11.5846 239.896 12.0479 239.896 12.6849V15.291H239.307V10.4263Z" fill="#10454F"/>
<path d="M245.371 9.38403C245.253 9.38403 245.135 9.32612 245.077 9.26821C245.017 9.21029 244.959 9.09446 244.959 8.97864C244.959 8.86281 245.017 8.74698 245.077 8.68907C245.135 8.63116 245.253 8.57324 245.371 8.57324C245.488 8.57324 245.606 8.63116 245.666 8.68907C245.724 8.74698 245.784 8.86281 245.784 8.97864C245.784 9.09446 245.724 9.21029 245.666 9.26821C245.548 9.32612 245.488 9.38403 245.371 9.38403ZM245.077 10.4265H245.606V15.349H245.077V10.4265Z" fill="#10454F"/>
<path d="M247.905 11.5867C248.023 11.2392 248.259 10.9496 248.612 10.718C248.966 10.4863 249.377 10.3705 249.849 10.3705C250.32 10.3705 250.731 10.4863 251.027 10.6601C251.381 10.8917 251.616 11.1813 251.852 11.5287C252.028 11.8762 252.146 12.3395 252.146 12.8607C252.146 13.382 252.028 13.7874 251.852 14.1927C251.674 14.5981 251.381 14.8877 251.027 15.0614C250.674 15.2931 250.262 15.351 249.849 15.351C249.377 15.351 248.966 15.2352 248.672 15.0035C248.377 14.7719 248.141 14.4823 247.965 14.1927L247.905 15.2931H247.376V8.28564H247.965L247.905 11.5867ZM251.498 12.9186C251.498 12.2816 251.321 11.8183 251.027 11.4709C250.674 11.1234 250.262 10.9496 249.731 10.9496C249.377 10.9496 249.084 11.0075 248.79 11.1813C248.494 11.355 248.319 11.5867 248.141 11.8762C247.965 12.1658 247.905 12.5133 247.905 12.9186C247.905 13.324 247.965 13.6715 248.141 13.9611C248.319 14.2506 248.494 14.4823 248.79 14.656C249.084 14.8298 249.377 14.8877 249.731 14.8877C250.262 14.8877 250.731 14.7139 251.027 14.3665C251.321 14.019 251.498 13.4978 251.498 12.9186Z" fill="#10454F"/>
<path d="M253.378 8.34302H253.967V15.3505H253.378V8.34302Z" fill="#10454F"/>
<path d="M257.558 15.4068C257.089 15.4068 256.675 15.291 256.322 15.0593C255.968 14.8277 255.674 14.5381 255.499 14.1327C255.321 13.7273 255.203 13.3219 255.203 12.8007C255.203 12.3374 255.321 11.8741 255.499 11.5267C255.674 11.1792 255.968 10.8896 256.322 10.658C256.675 10.4263 257.089 10.3684 257.5 10.3684C257.971 10.3684 258.325 10.4842 258.679 10.658C259.03 10.8317 259.326 11.1213 259.501 11.4687C259.679 11.8162 259.797 12.1637 259.797 12.627C259.797 12.6849 259.797 12.7428 259.797 12.8587C259.797 12.9166 259.797 13.0324 259.797 13.0903H255.792C255.792 13.4378 255.852 13.7852 256.028 14.0169C256.204 14.3065 256.382 14.4802 256.617 14.6539C256.853 14.8277 257.147 14.8856 257.5 14.8856C257.911 14.8856 258.265 14.8277 258.561 14.6539C258.854 14.4802 259.09 14.2486 259.208 13.959L259.679 14.1327C259.501 14.5381 259.208 14.8856 258.854 15.1172C258.501 15.291 258.089 15.4068 257.558 15.4068ZM259.208 12.5691C259.208 12.2216 259.148 11.9321 259.03 11.7004C258.912 11.4687 258.679 11.2371 258.443 11.1213C258.207 11.0054 257.911 10.8896 257.558 10.8896C257.264 10.8896 256.971 10.9475 256.735 11.1213C256.499 11.2371 256.264 11.4687 256.146 11.7004C255.968 11.9321 255.91 12.2216 255.852 12.5691H259.208Z" fill="#10454F"/>
<path d="M265.921 15.4068C265.449 15.4068 265.038 15.291 264.684 15.0593C264.331 14.8277 264.035 14.5381 263.859 14.1327C263.684 13.7273 263.566 13.3219 263.566 12.8007C263.566 12.3374 263.684 11.8741 263.859 11.5267C264.035 11.1792 264.331 10.8896 264.684 10.658C265.038 10.4263 265.449 10.3684 265.861 10.3684C266.332 10.3684 266.686 10.4842 267.039 10.658C267.393 10.8317 267.686 11.1213 267.864 11.4687C268.04 11.8162 268.158 12.1637 268.158 12.627C268.158 12.6849 268.158 12.7428 268.158 12.8587C268.158 12.9166 268.158 13.0324 268.158 13.0903H264.153C264.153 13.4378 264.213 13.7852 264.389 14.0169C264.567 14.3065 264.742 14.4802 264.978 14.6539C265.214 14.8277 265.507 14.8856 265.861 14.8856C266.274 14.8856 266.628 14.8277 266.921 14.6539C267.215 14.4802 267.451 14.2486 267.568 13.959L268.04 14.1327C267.864 14.5381 267.568 14.8856 267.215 15.1172C266.861 15.291 266.45 15.4068 265.921 15.4068ZM267.568 12.5691C267.568 12.2216 267.511 11.9321 267.393 11.7004C267.275 11.4687 267.039 11.2371 266.803 11.1213C266.568 11.0054 266.274 10.8896 265.921 10.8896C265.625 10.8896 265.331 10.9475 265.096 11.1213C264.86 11.2371 264.624 11.4687 264.507 11.7004C264.331 11.9321 264.271 12.2216 264.213 12.5691H267.568Z" fill="#10454F"/>
<path d="M269.454 10.4263H269.983L270.043 11.295C270.161 11.0054 270.397 10.7738 270.69 10.6001C270.986 10.4263 271.28 10.3684 271.691 10.3684C272.045 10.3684 272.398 10.4263 272.692 10.6001C272.987 10.7738 273.223 11.0054 273.341 11.295C273.517 11.5846 273.577 11.99 273.577 12.5112V15.291H272.987V12.5691C272.987 11.99 272.87 11.5846 272.634 11.295C272.398 11.0054 272.045 10.8317 271.573 10.8317C271.102 10.8317 270.75 11.0054 270.455 11.295C270.161 11.5846 270.043 12.0479 270.043 12.6849V15.291H269.454V10.4263Z" fill="#10454F"/>
</svg>
