<svg width="913" height="152" viewBox="0 0 913 152" fill="none" xmlns="http://www.w3.org/2000/svg">
<path d="M149.223 71V0.999995H168.923C179.023 0.999995 183.923 5.9 183.923 16V56C183.923 66.1 179.023 71 168.923 71H149.223ZM163.223 13V59H166.023C168.723 59 169.923 57.8 169.923 55.1V16.9C169.923 14.2 168.723 13 166.023 13H163.223ZM223.476 58.6C223.476 67.3 219.176 71.6 210.476 71.6H201.476C192.776 71.6 188.476 67.3 188.476 58.6V13.4C188.476 4.7 192.776 0.399997 201.476 0.399997H210.476C219.176 0.399997 223.476 4.7 223.476 13.4V58.6ZM209.476 14.9C209.476 13.2 208.676 12.4 206.976 12.4H204.976C203.276 12.4 202.476 13.2 202.476 14.9V57.1C202.476 58.8 203.276 59.6 204.976 59.6H206.976C208.676 59.6 209.476 58.8 209.476 57.1V14.9ZM247.836 0.999995H261.036L265.036 38.2L268.636 0.999995H281.036L272.536 71H257.136L253.436 39.1L249.936 71H234.536L226.036 0.999995H240.236L243.836 38.5L247.836 0.999995ZM318.481 71H304.881L295.981 32.9L296.181 50.7L296.381 71H284.281V0.999995H298.581L306.681 35.7L306.481 15.5L306.381 0.999995H318.481V71ZM323.441 0.999995H337.441V58.5H347.541V71H323.441V0.999995ZM385.585 58.6C385.585 67.3 381.285 71.6 372.585 71.6H363.585C354.885 71.6 350.585 67.3 350.585 58.6V13.4C350.585 4.7 354.885 0.399997 363.585 0.399997H372.585C381.285 0.399997 385.585 4.7 385.585 13.4V58.6ZM371.585 14.9C371.585 13.2 370.785 12.4 369.085 12.4H367.085C365.385 12.4 364.585 13.2 364.585 14.9V57.1C364.585 58.8 365.385 59.6 367.085 59.6H369.085C370.785 59.6 371.585 58.8 371.585 57.1V14.9ZM425.445 71H411.545L410.445 60.8H401.645L400.645 71H387.945L397.145 0.999995H416.245L425.445 71ZM406.045 18.1L402.945 48.6H409.145L406.045 18.1ZM428.422 71V0.999995H448.122C458.222 0.999995 463.122 5.9 463.122 16V56C463.122 66.1 458.222 71 448.122 71H428.422ZM442.422 13V59H445.222C447.922 59 449.122 57.8 449.122 55.1V16.9C449.122 14.2 447.922 13 445.222 13H442.422ZM495.549 0.999995V71H481.549V0.999995H495.549ZM521.688 71H507.688V13.5H499.188V0.999995H530.188V13.5H521.688V71ZM581.47 71H567.87L558.97 32.9L559.17 50.7L559.37 71H547.27V0.999995H561.57L569.67 35.7L569.47 15.5L569.37 0.999995H581.47V71ZM621.23 58.6C621.23 67.3 616.93 71.6 608.23 71.6H599.23C590.53 71.6 586.23 67.3 586.23 58.6V13.4C586.23 4.7 590.53 0.399997 599.23 0.399997H608.23C616.93 0.399997 621.23 4.7 621.23 13.4V58.6ZM607.23 14.9C607.23 13.2 606.43 12.4 604.73 12.4H602.73C601.03 12.4 600.23 13.2 600.23 14.9V57.1C600.23 58.8 601.03 59.6 602.73 59.6H604.73C606.43 59.6 607.23 58.8 607.23 57.1V14.9ZM645.59 0.999995H658.79L662.79 38.2L666.39 0.999995H678.79L670.29 71H654.89L651.19 39.1L647.69 71H632.29L623.79 0.999995H637.99L641.59 38.5L645.59 0.999995ZM716.609 71H702.609V13.5H694.109V0.999995H725.109V13.5H716.609V71ZM762.929 58.6C762.929 67.3 758.629 71.6 749.929 71.6H740.929C732.229 71.6 727.929 67.3 727.929 58.6V13.4C727.929 4.7 732.229 0.399997 740.929 0.399997H749.929C758.629 0.399997 762.929 4.7 762.929 13.4V58.6ZM748.929 14.9C748.929 13.2 748.129 12.4 746.429 12.4H744.429C742.729 12.4 741.929 13.2 741.929 14.9V57.1C741.929 58.8 742.729 59.6 744.429 59.6H746.429C748.129 59.6 748.929 58.8 748.929 57.1V14.9Z" fill="#E9993E"/>
<path d="M0.0527344 81H26.0527V93.5H14.0527V109.2H25.5527V121.7H14.0527V138.5H26.2527V151H0.0527344V81ZM64.9168 151H51.3168L42.4168 112.9L42.6168 130.7L42.8168 151H30.7168V81H45.0168L53.1168 115.7L52.9168 95.5L52.8168 81H64.9168V151ZM90.277 81V138C90.277 146.7 85.977 151 77.277 151H68.677V138.5H73.777C75.477 138.5 76.277 137.7 76.277 136V81H90.277ZM129.97 138.6C129.97 147.3 125.67 151.6 116.97 151.6H107.97C99.2699 151.6 94.9699 147.3 94.9699 138.6V93.4C94.9699 84.7 99.2699 80.4 107.97 80.4H116.97C125.67 80.4 129.97 84.7 129.97 93.4V138.6ZM115.97 94.9C115.97 93.2 115.17 92.4 113.47 92.4H111.47C109.77 92.4 108.97 93.2 108.97 94.9V137.1C108.97 138.8 109.77 139.6 111.47 139.6H113.47C115.17 139.6 115.97 138.8 115.97 137.1V94.9ZM157.53 126.1V151H143.53V127.1L131.73 81H146.33L151.03 104.8L156.03 81H169.33L157.53 126.1ZM185.014 81H199.014V138.5H209.114V151H185.014V81ZM248.346 151H234.446L233.346 140.8H224.546L223.546 151H210.846L220.046 81H239.146L248.346 151ZM228.946 98.1L225.846 128.6H232.046L228.946 98.1ZM285.496 120.1H299.296V138.6C299.296 147.3 294.996 151.6 286.296 151.6H277.696C268.996 151.6 264.696 147.3 264.696 138.6V93.4C264.696 84.7 268.996 80.4 277.696 80.4H286.096C294.796 80.4 299.096 84.7 299.096 93.4V109.8H285.296V94.9C285.296 93.2 284.496 92.4 282.796 92.4H281.196C279.496 92.4 278.696 93.2 278.696 94.9V137.1C278.696 138.8 279.496 139.6 281.196 139.6H282.996C284.696 139.6 285.496 138.8 285.496 137.1V120.1ZM338.971 151H325.071L323.971 140.8H315.171L314.171 151H301.471L310.671 81H329.771L338.971 151ZM319.571 98.1L316.471 128.6H322.671L319.571 98.1ZM375.859 81V138.6C375.859 147.3 371.559 151.6 362.859 151.6H354.359C345.659 151.6 341.359 147.3 341.359 138.6V81H355.359V137.1C355.359 138.8 356.159 139.6 357.859 139.6H359.359C361.059 139.6 361.859 138.8 361.859 137.1V81H375.859ZM408.517 114.7C412.817 117.8 414.117 120.5 414.117 125.7V138.6C414.117 147.3 409.817 151.6 401.117 151.6H393.317C384.617 151.6 380.317 147.3 380.317 138.6V123.7H394.017V137.3C394.017 139 394.817 139.8 396.517 139.8H397.817C399.517 139.8 400.317 139 400.317 137.3V128.9C400.317 126.7 399.617 125.6 397.917 124.4L385.917 115.5C381.617 112.4 380.317 109.5 380.317 104.5V93.4C380.317 84.7 384.617 80.4 393.317 80.4H400.917C409.617 80.4 413.917 84.7 413.917 93.4V106.2H400.217V94.7C400.217 93 399.417 92.2 397.717 92.2H396.617C394.917 92.2 394.117 93 394.117 94.7V101.3C394.117 103.5 394.817 104.6 396.517 105.8L408.517 114.7ZM453.326 151H439.426L438.326 140.8H429.526L428.526 151H415.826L425.026 81H444.126L453.326 151ZM433.926 98.1L430.826 128.6H437.026L433.926 98.1ZM495.677 151H477.277L467.877 81H482.077L486.977 130.7L492.077 81H505.077L495.677 151ZM522.161 81V151H508.161V81H522.161ZM555.099 114.7C559.399 117.8 560.699 120.5 560.699 125.7V138.6C560.699 147.3 556.399 151.6 547.699 151.6H539.899C531.199 151.6 526.899 147.3 526.899 138.6V123.7H540.599V137.3C540.599 139 541.399 139.8 543.099 139.8H544.399C546.099 139.8 546.899 139 546.899 137.3V128.9C546.899 126.7 546.199 125.6 544.499 124.4L532.499 115.5C528.199 112.4 526.899 109.5 526.899 104.5V93.4C526.899 84.7 531.199 80.4 539.899 80.4H547.499C556.199 80.4 560.499 84.7 560.499 93.4V106.2H546.799V94.7C546.799 93 545.999 92.2 544.299 92.2H543.199C541.499 92.2 540.699 93 540.699 94.7V101.3C540.699 103.5 541.399 104.6 543.099 105.8L555.099 114.7ZM599.908 151H586.008L584.908 140.8H576.108L575.108 151H562.408L571.608 81H590.708L599.908 151ZM580.508 98.1L577.408 128.6H583.608L580.508 98.1ZM630.481 111.5H624.781L622.081 90.4V111.5H616.881V81H625.981L628.281 101.1L630.381 81H639.681V111.5H633.181V90.9L630.481 111.5ZM610.481 111.5H603.881V86.8H599.281V81H615.081V86.8H610.481V111.5ZM687.228 114.8C691.428 116 693.228 118.7 693.228 123.8V138C693.228 146.7 688.928 151 680.228 151H659.428V81H680.028C688.728 81 693.028 85.3 693.028 94V104.4C693.028 110.4 690.928 113.4 687.228 114.8ZM679.128 95.5C679.128 93.8 678.328 93 676.628 93H673.328V109.6H676.628C678.328 109.6 679.128 108.8 679.128 107.1V95.5ZM673.328 121.3V139H676.828C678.528 139 679.328 138.2 679.328 136.5V123.8C679.328 122.1 678.528 121.3 676.828 121.3H673.328ZM697.709 81H723.709V93.5H711.709V109.2H723.209V121.7H711.709V138.5H723.909V151H697.709V81ZM762.573 151H748.973L740.073 112.9L740.273 130.7L740.473 151H728.373V81H742.673L750.773 115.7L750.573 95.5L750.473 81H762.573V151ZM767.533 81H793.533V93.5H781.533V109.2H793.033V121.7H781.533V138.5H793.733V151H767.533V81ZM798.197 81H823.697V93.5H812.197V109.9H823.197V122.4H812.197V151H798.197V81ZM841.692 81V151H827.692V81H841.692ZM867.83 151H853.83V93.5H845.33V81H876.33V93.5H867.83V151ZM907.15 114.7C911.45 117.8 912.75 120.5 912.75 125.7V138.6C912.75 147.3 908.45 151.6 899.75 151.6H891.95C883.25 151.6 878.95 147.3 878.95 138.6V123.7H892.65V137.3C892.65 139 893.45 139.8 895.15 139.8H896.45C898.15 139.8 898.95 139 898.95 137.3V128.9C898.95 126.7 898.25 125.6 896.55 124.4L884.55 115.5C880.25 112.4 878.95 109.5 878.95 104.5V93.4C878.95 84.7 883.25 80.4 891.95 80.4H899.55C908.25 80.4 912.55 84.7 912.55 93.4V106.2H898.85V94.7C898.85 93 898.05 92.2 896.35 92.2H895.25C893.55 92.2 892.75 93 892.75 94.7V101.3C892.75 103.5 893.45 104.6 895.15 105.8L907.15 114.7Z" fill="#FFF6D2"/>
</svg>
