<svg width="63" height="63" viewBox="0 0 63 63" fill="none" xmlns="http://www.w3.org/2000/svg">
<path fill-rule="evenodd" clip-rule="evenodd" d="M7.875 9.84375C4.61307 9.84375 1.96875 12.4881 1.96875 15.75V47.25C1.96875 50.5119 4.61307 53.1562 7.875 53.1562H55.125C58.3869 53.1562 61.0312 50.5119 61.0312 47.25V15.75C61.0312 12.4881 58.3869 9.84375 55.125 9.84375H7.875ZM5.90625 16.2947V47.25C5.90625 48.3373 6.78769 49.2188 7.875 49.2188H55.125C56.2123 49.2188 57.0938 48.3373 57.0938 47.25V16.2948L38.1952 31.2931C38.1722 31.3114 38.1487 31.3292 38.1249 31.3464C34.2109 34.1763 28.7893 34.1763 24.8753 31.3464C24.8514 31.3292 24.828 31.3114 24.8049 31.2931L5.90625 16.2947ZM53.9269 13.7812H9.07323L27.216 28.1798C29.7396 29.9818 33.2606 29.9818 35.7842 28.1798L53.9269 13.7812Z" fill="#FFF6D2"/>
</svg>
