<svg width="435" height="249" viewBox="0 0 435 249" fill="none" xmlns="http://www.w3.org/2000/svg">
<path d="M2.5 13H28.5V25.5H16.5V41.2H28V53.7H16.5V70.5H28.7V83H2.5V13ZM67.8641 83H54.2641L45.3641 44.9L45.5641 62.7L45.7641 83H33.6641V13H47.9641L56.0641 47.7L55.8641 27.5L55.7641 13H67.8641V83ZM99.1242 83H80.7242L71.3242 13H85.5242L90.4242 62.7L95.5242 13H108.524L99.1242 83ZM126.108 13V83H112.108V13H126.108ZM114.208 9.5L118.708 -4.29153e-06H131.608L123.708 9.5H114.208ZM167.246 83H153.346L152.246 72.8H143.446L142.446 83H129.746L138.946 13H158.046L167.246 83ZM147.846 30.1L144.746 60.6H150.946L147.846 30.1ZM184.797 83V13H204.497C214.597 13 219.497 17.9 219.497 28V68C219.497 78.1 214.597 83 204.497 83H184.797ZM198.797 25V71H201.597C204.297 71 205.497 69.8 205.497 67.1V28.9C205.497 26.2 204.297 25 201.597 25H198.797ZM238.85 13V83H224.85V13H238.85ZM278.688 83H265.088L256.188 44.9L256.388 62.7L256.588 83H244.488V13H258.788L266.888 47.7L266.688 27.5L266.588 13H278.688V83ZM284.148 13H310.148V25.5H298.148V41.2H309.648V53.7H298.148V70.5H310.348V83H284.148V13ZM343.213 49.9C347.513 51.1 349.313 53.8 349.313 58.9V83H335.313V59C335.313 57.3 334.513 56.5 332.813 56.5H329.313V83H315.313V13H336.213C344.913 13 349.213 17.3 349.213 26V39.5C349.213 45.5 347.013 48.5 343.213 49.9ZM335.213 27.7C335.213 26 334.413 25.2 332.713 25.2H329.313V44.6H332.713C334.413 44.6 335.213 43.8 335.213 42.1V27.7ZM389.284 70.6C389.284 79.3 384.984 83.6 376.284 83.6H367.284C358.584 83.6 354.284 79.3 354.284 70.6V25.4C354.284 16.7 358.584 12.4 367.284 12.4H376.284C384.984 12.4 389.284 16.7 389.284 25.4V70.6ZM375.284 26.9C375.284 25.2 374.484 24.4 372.784 24.4H370.784C369.084 24.4 368.284 25.2 368.284 26.9V69.1C368.284 70.8 369.084 71.6 370.784 71.6H372.784C374.484 71.6 375.284 70.8 375.284 69.1V26.9Z" fill="#114550"/>
<path d="M38 166H24.1L23 155.8H14.2L13.2 166H0.5L9.7 96H28.8L38 166ZM18.6 113.1L15.5 143.6H21.7L18.6 113.1ZM72.0508 166L66.7508 119.7V166H55.5508V96H75.7508L79.7508 138.4L84.0508 96H104.351V166H90.5508V120.2L85.2508 166H72.0508ZM109.859 96H135.859V108.5H123.859V124.2H135.359V136.7H123.859V153.5H136.059V166H109.859V96ZM117.959 92.5L122.459 83H135.359L127.459 92.5H117.959ZM175.723 96L167.123 129.8L175.923 166H161.323L157.123 144.4L152.423 166H139.123L147.823 132.2L139.323 96H153.923L157.823 117.4L162.423 96H175.723ZM193.612 96V166H179.612V96H193.612ZM219.85 135.1H233.65V153.6C233.65 162.3 229.35 166.6 220.65 166.6H212.05C203.35 166.6 199.05 162.3 199.05 153.6V108.4C199.05 99.7 203.35 95.4 212.05 95.4H220.45C229.15 95.4 233.45 99.7 233.45 108.4V124.8H219.65V109.9C219.65 108.2 218.85 107.4 217.15 107.4H215.55C213.85 107.4 213.05 108.2 213.05 109.9V152.1C213.05 153.8 213.85 154.6 215.55 154.6H217.35C219.05 154.6 219.85 153.8 219.85 152.1V135.1ZM273.613 153.6C273.613 162.3 269.313 166.6 260.613 166.6H251.613C242.912 166.6 238.613 162.3 238.613 153.6V108.4C238.613 99.7 242.912 95.4 251.613 95.4H260.613C269.313 95.4 273.613 99.7 273.613 108.4V153.6ZM259.613 109.9C259.613 108.2 258.813 107.4 257.113 107.4H255.113C253.413 107.4 252.613 108.2 252.613 109.9V152.1C252.613 153.8 253.413 154.6 255.113 154.6H257.113C258.813 154.6 259.613 153.8 259.613 152.1V109.9ZM292.961 95.8L292.661 105L301.461 99.9H301.761V106.6L294.861 110.1L301.761 113.6V120.3H301.461L292.761 115.3L292.961 124.4H286.661L286.861 115.3L278.161 120.3H277.861V113.6L284.661 110.1L277.861 106.6V99.9H278.161L286.861 105L286.661 95.8H292.961ZM340.795 135.1H354.595V153.6C354.595 162.3 350.295 166.6 341.595 166.6H332.995C324.295 166.6 319.995 162.3 319.995 153.6V108.4C319.995 99.7 324.295 95.4 332.995 95.4H341.395C350.095 95.4 354.395 99.7 354.395 108.4V124.8H340.595V109.9C340.595 108.2 339.795 107.4 338.095 107.4H336.495C334.795 107.4 333.995 108.2 333.995 109.9V152.1C333.995 153.8 334.795 154.6 336.495 154.6H338.295C339.995 154.6 340.795 153.8 340.795 152.1V135.1ZM394.558 153.6C394.558 162.3 390.258 166.6 381.558 166.6H372.558C363.858 166.6 359.558 162.3 359.558 153.6V108.4C359.558 99.7 363.858 95.4 372.558 95.4H381.558C390.258 95.4 394.558 99.7 394.558 108.4V153.6ZM380.558 109.9C380.558 108.2 379.758 107.4 378.058 107.4H376.058C374.358 107.4 373.558 108.2 373.558 109.9V152.1C373.558 153.8 374.358 154.6 376.058 154.6H378.058C379.758 154.6 380.558 153.8 380.558 152.1V109.9ZM434.106 166H420.506L411.606 127.9L411.806 145.7L412.006 166H399.906V96H414.206L422.306 130.7L422.106 110.5L422.006 96H434.106V166ZM2.5 178H16.5V235.5H26.6V248H2.5V178ZM66.332 248H52.432L51.332 237.8H42.532L41.532 248H28.832L38.032 178H57.132L66.332 248ZM46.932 195.1L43.832 225.6H50.032L46.932 195.1ZM104.483 217.1H118.283V235.6C118.283 244.3 113.983 248.6 105.283 248.6H96.6828C87.9828 248.6 83.6828 244.3 83.6828 235.6V190.4C83.6828 181.7 87.9828 177.4 96.6828 177.4H105.083C113.783 177.4 118.083 181.7 118.083 190.4V206.8H104.283V191.9C104.283 190.2 103.483 189.4 101.783 189.4H100.183C98.4828 189.4 97.6828 190.2 97.6828 191.9V234.1C97.6828 235.8 98.4828 236.6 100.183 236.6H101.983C103.683 236.6 104.483 235.8 104.483 234.1V217.1ZM158.457 248H144.557L143.457 237.8H134.657L133.657 248H120.957L130.157 178H149.257L158.457 248ZM139.057 195.1L135.957 225.6H142.157L139.057 195.1ZM195.845 178V235.6C195.845 244.3 191.545 248.6 182.845 248.6H174.345C165.645 248.6 161.345 244.3 161.345 235.6V178H175.345V234.1C175.345 235.8 176.145 236.6 177.845 236.6H179.345C181.045 236.6 181.845 235.8 181.845 234.1V178H195.845ZM229.003 211.7C233.303 214.8 234.603 217.5 234.603 222.7V235.6C234.603 244.3 230.303 248.6 221.603 248.6H213.803C205.103 248.6 200.803 244.3 200.803 235.6V220.7H214.503V234.3C214.503 236 215.303 236.8 217.003 236.8H218.303C220.003 236.8 220.803 236 220.803 234.3V225.9C220.803 223.7 220.103 222.6 218.403 221.4L206.403 212.5C202.103 209.4 200.803 206.5 200.803 201.5V190.4C200.803 181.7 205.103 177.4 213.803 177.4H221.403C230.103 177.4 234.403 181.7 234.403 190.4V203.2H220.703V191.7C220.703 190 219.903 189.2 218.203 189.2H217.103C215.403 189.2 214.603 190 214.603 191.7V198.3C214.603 200.5 215.303 201.6 217.003 202.8L229.003 211.7ZM274.313 248H260.413L259.313 237.8H250.513L249.512 248H236.813L246.013 178H265.113L274.313 248ZM254.913 195.1L251.813 225.6H258.013L254.913 195.1ZM317.663 248H299.263L289.863 178H304.063L308.963 227.7L314.063 178H327.063L317.663 248ZM344.647 178V248H330.647V178H344.647ZM378.085 211.7C382.385 214.8 383.685 217.5 383.685 222.7V235.6C383.685 244.3 379.385 248.6 370.685 248.6H362.885C354.185 248.6 349.885 244.3 349.885 235.6V220.7H363.585V234.3C363.585 236 364.385 236.8 366.085 236.8H367.385C369.085 236.8 369.885 236 369.885 234.3V225.9C369.885 223.7 369.185 222.6 367.485 221.4L355.485 212.5C351.185 209.4 349.885 206.5 349.885 201.5V190.4C349.885 181.7 354.185 177.4 362.885 177.4H370.485C379.185 177.4 383.485 181.7 383.485 190.4V203.2H369.785V191.7C369.785 190 368.985 189.2 367.285 189.2H366.185C364.485 189.2 363.685 190 363.685 191.7V198.3C363.685 200.5 364.385 201.6 366.085 202.8L378.085 211.7ZM423.395 248H409.495L408.395 237.8H399.595L398.595 248H385.895L395.095 178H414.195L423.395 248ZM403.995 195.1L400.895 225.6H407.095L403.995 195.1Z" fill="#E9993E"/>
</svg>
