<svg width="731" height="72" viewBox="0 0 731 72" fill="none" xmlns="http://www.w3.org/2000/svg">
<path d="M0.326172 0.999995H26.3262V13.5H14.3262V29.2H25.8262V41.7H14.3262V58.5H26.5262V71H0.326172V0.999995ZM58.4973 34.7C62.7973 37.8 64.0973 40.5 64.0973 45.7V58.6C64.0973 67.3 59.7973 71.6 51.0973 71.6H43.2973C34.5973 71.6 30.2973 67.3 30.2973 58.6V43.7H43.9973V57.3C43.9973 59 44.7973 59.8 46.4973 59.8H47.7973C49.4973 59.8 50.2973 59 50.2973 57.3V48.9C50.2973 46.7 49.5973 45.6 47.8973 44.4L35.8973 35.5C31.5973 32.4 30.2973 29.5 30.2973 24.5V13.4C30.2973 4.7 34.5973 0.399997 43.2973 0.399997H50.8973C59.5973 0.399997 63.8973 4.7 63.8973 13.4V26.2H50.1973V14.7C50.1973 13 49.3973 12.2 47.6973 12.2H46.5973C44.8973 12.2 44.0973 13 44.0973 14.7V21.3C44.0973 23.5 44.7973 24.6 46.4973 25.8L58.4973 34.7ZM88.8066 71H74.8066V13.5H66.3066V0.999995H97.3066V13.5H88.8066V71ZM132.311 71H118.411L117.311 60.8H108.511L107.511 71H94.8105L104.011 0.999995H123.111L132.311 71ZM112.911 18.1L109.811 48.6H116.011L112.911 18.1ZM151.787 71L146.487 24.7V71H135.287V0.999995H155.487L159.487 43.4L163.787 0.999995H184.087V71H170.287V25.2L164.987 71H151.787ZM223.896 58.6C223.896 67.3 219.596 71.6 210.896 71.6H201.896C193.196 71.6 188.896 67.3 188.896 58.6V13.4C188.896 4.7 193.196 0.399997 201.896 0.399997H210.896C219.596 0.399997 223.896 4.7 223.896 13.4V58.6ZM209.896 14.9C209.896 13.2 209.096 12.4 207.396 12.4H205.396C203.696 12.4 202.896 13.2 202.896 14.9V57.1C202.896 58.8 203.696 59.6 205.396 59.6H207.396C209.096 59.6 209.896 58.8 209.896 57.1V14.9ZM256.544 34.7C260.844 37.8 262.144 40.5 262.144 45.7V58.6C262.144 67.3 257.844 71.6 249.144 71.6H241.344C232.644 71.6 228.344 67.3 228.344 58.6V43.7H242.044V57.3C242.044 59 242.844 59.8 244.544 59.8H245.844C247.544 59.8 248.344 59 248.344 57.3V48.9C248.344 46.7 247.644 45.6 245.944 44.4L233.944 35.5C229.644 32.4 228.344 29.5 228.344 24.5V13.4C228.344 4.7 232.644 0.399997 241.344 0.399997H248.944C257.644 0.399997 261.944 4.7 261.944 13.4V26.2H248.244V14.7C248.244 13 247.444 12.2 245.744 12.2H244.644C242.944 12.2 242.144 13 242.144 14.7V21.3C242.144 23.5 242.844 24.6 244.544 25.8L256.544 34.7ZM293.916 46.7V71H279.916V0.999995H300.416C309.116 0.999995 313.416 5.3 313.416 14V33.7C313.416 42.4 309.116 46.7 300.416 46.7H293.916ZM299.416 15.5C299.416 13.8 298.616 13 296.916 13H293.916V34.7H296.916C298.616 34.7 299.416 33.9 299.416 32.2V15.5ZM350.279 71H336.379L335.279 60.8H326.479L325.479 71H312.779L321.979 0.999995H341.079L350.279 71ZM330.879 18.1L327.779 48.6H333.979L330.879 18.1ZM381.156 37.9C385.456 39.1 387.256 41.8 387.256 46.9V71H373.256V47C373.256 45.3 372.456 44.5 370.756 44.5H367.256V71H353.256V0.999995H374.156C382.856 0.999995 387.156 5.3 387.156 14V27.5C387.156 33.5 384.956 36.5 381.156 37.9ZM373.156 15.7C373.156 14 372.356 13.2 370.656 13.2H367.256V32.6H370.656C372.356 32.6 373.156 31.8 373.156 30.1V15.7ZM427.428 71H413.528L412.428 60.8H403.628L402.628 71H389.928L399.128 0.999995H418.228L427.428 71ZM408.028 18.1L404.928 48.6H411.128L408.028 18.1ZM479.479 71H465.579L464.479 60.8H455.679L454.679 71H441.979L451.179 0.999995H470.279L479.479 71ZM460.079 18.1L456.979 48.6H463.179L460.079 18.1ZM502.139 46.1V71H488.139V47.1L476.339 0.999995H490.939L495.639 24.8L500.639 0.999995H513.939L502.139 46.1ZM550.449 0.999995V58.6C550.449 67.3 546.149 71.6 537.449 71.6H528.949C520.249 71.6 515.949 67.3 515.949 58.6V0.999995H529.949V57.1C529.949 58.8 530.749 59.6 532.449 59.6H533.949C535.649 59.6 536.449 58.8 536.449 57.1V0.999995H550.449ZM555.307 71V0.999995H575.007C585.107 0.999995 590.007 5.9 590.007 16V56C590.007 66.1 585.107 71 575.007 71H555.307ZM569.307 13V59H572.107C574.807 59 576.007 57.8 576.007 55.1V16.9C576.007 14.2 574.807 13 572.107 13H569.307ZM629.771 71H615.871L614.771 60.8H605.971L604.971 71H592.271L601.471 0.999995H620.571L629.771 71ZM610.371 18.1L607.271 48.6H613.471L610.371 18.1ZM660.648 37.9C664.948 39.1 666.748 41.8 666.748 46.9V71H652.748V47C652.748 45.3 651.948 44.5 650.248 44.5H646.748V71H632.748V0.999995H653.648C662.348 0.999995 666.648 5.3 666.648 14V27.5C666.648 33.5 664.448 36.5 660.648 37.9ZM652.648 15.7C652.648 14 651.848 13.2 650.148 13.2H646.748V32.6H650.148C651.848 32.6 652.648 31.8 652.648 30.1V15.7ZM691.932 71H677.932V13.5H669.432V0.999995H700.432V13.5H691.932V71ZM703.939 0.999995H729.939V13.5H717.939V29.2H729.439V41.7H717.939V58.5H730.139V71H703.939V0.999995Z" fill="#E9993E"/>
</svg>
