<svg width="737" height="123" viewBox="0 0 737 123" fill="none" xmlns="http://www.w3.org/2000/svg">
<path d="M2 0.999996H22.4V11H13.2V24.12H22V34.12H13.2V57H2V0.999996ZM47.8356 30.52C51.2756 31.48 52.7156 33.64 52.7156 37.72V57H41.5156V37.8C41.5156 36.44 40.8756 35.8 39.5156 35.8H36.7156V57H25.5156V0.999996H42.2356C49.1956 0.999996 52.6356 4.44 52.6356 11.4V22.2C52.6356 27 50.8756 29.4 47.8356 30.52ZM41.4356 12.76C41.4356 11.4 40.7956 10.76 39.4356 10.76H36.7156V26.28H39.4356C40.7956 26.28 41.4356 25.64 41.4356 24.28V12.76ZM56.4531 0.999996H77.2531V11H67.6531V23.56H76.8531V33.56H67.6531V47H77.4131V57H56.4531V0.999996ZM108.824 10.92V46.28C108.824 50.36 107.624 52.92 105.304 54.36L110.264 56.44L104.984 64.68L93.1444 57.48H91.2244C84.2644 57.48 80.8244 54.04 80.8244 47.08V10.92C80.8244 3.96 84.2644 0.519998 91.2244 0.519998H98.4244C105.384 0.519998 108.824 3.96 108.824 10.92ZM97.6244 45.88V12.12C97.6244 10.76 96.9844 10.12 95.6244 10.12H94.0244C92.6644 10.12 92.0244 10.76 92.0244 12.12V45.88C92.0244 47.24 92.6644 47.88 94.0244 47.88H95.6244C96.9844 47.88 97.6244 47.24 97.6244 45.88ZM140.223 0.999996V47.08C140.223 54.04 136.783 57.48 129.823 57.48H123.023C116.063 57.48 112.623 54.04 112.623 47.08V0.999996H123.823V45.88C123.823 47.24 124.463 47.88 125.823 47.88H127.023C128.383 47.88 129.023 47.24 129.023 45.88V0.999996H140.223ZM144.109 0.999996H164.909V11H155.309V23.56H164.509V33.56H155.309V47H165.069V57H144.109V0.999996ZM196.001 57H185.121L178.001 26.52L178.161 40.76L178.321 57H168.641V0.999996H180.081L186.561 28.76L186.401 12.6L186.321 0.999996H196.001V57ZM216.769 57H205.569V11H198.769V0.999996H223.569V11H216.769V57ZM265.074 10.92V46.28C265.074 50.36 263.874 52.92 261.554 54.36L266.514 56.44L261.234 64.68L249.394 57.48H247.474C240.514 57.48 237.074 54.04 237.074 47.08V10.92C237.074 3.96 240.514 0.519998 247.474 0.519998H254.674C261.634 0.519998 265.074 3.96 265.074 10.92ZM253.874 45.88V12.12C253.874 10.76 253.234 10.12 251.874 10.12H250.274C248.914 10.12 248.274 10.76 248.274 12.12V45.88C248.274 47.24 248.914 47.88 250.274 47.88H251.874C253.234 47.88 253.874 47.24 253.874 45.88ZM296.473 0.999996V47.08C296.473 54.04 293.033 57.48 286.073 57.48H279.273C272.313 57.48 268.873 54.04 268.873 47.08V0.999996H280.073V45.88C280.073 47.24 280.713 47.88 282.073 47.88H283.273C284.633 47.88 285.273 47.24 285.273 45.88V0.999996H296.473ZM300.359 0.999996H321.159V11H311.559V23.56H320.759V33.56H311.559V47H321.319V57H300.359V0.999996ZM346.896 27.96C350.336 30.44 351.376 32.6 351.376 36.76V47.08C351.376 54.04 347.936 57.48 340.976 57.48H334.736C327.776 57.48 324.336 54.04 324.336 47.08V35.16H335.296V46.04C335.296 47.4 335.936 48.04 337.296 48.04H338.336C339.696 48.04 340.336 47.4 340.336 46.04V39.32C340.336 37.56 339.776 36.68 338.416 35.72L328.816 28.6C325.376 26.12 324.336 23.8 324.336 19.8V10.92C324.336 3.96 327.776 0.519998 334.736 0.519998H340.816C347.776 0.519998 351.216 3.96 351.216 10.92V21.16H340.256V11.96C340.256 10.6 339.616 9.96 338.256 9.96H337.376C336.016 9.96 335.376 10.6 335.376 11.96V17.24C335.376 19 335.936 19.88 337.296 20.84L346.896 27.96ZM371.144 57H359.944V11H353.144V0.999996H377.944V11H371.144V57ZM392.03 0.999996V57H380.83V0.999996H392.03ZM423.981 47.08C423.981 54.04 420.541 57.48 413.581 57.48H406.381C399.421 57.48 395.981 54.04 395.981 47.08V10.92C395.981 3.96 399.421 0.519998 406.381 0.519998H413.581C420.541 0.519998 423.981 3.96 423.981 10.92V47.08ZM412.781 12.12C412.781 10.76 412.141 10.12 410.781 10.12H409.181C407.821 10.12 407.181 10.76 407.181 12.12V45.88C407.181 47.24 407.821 47.88 409.181 47.88H410.781C412.141 47.88 412.781 47.24 412.781 45.88V12.12ZM455.219 57H444.339L437.219 26.52L437.379 40.76L437.539 57H427.859V0.999996H439.299L445.779 28.76L445.619 12.6L445.539 0.999996H455.219V57ZM481.428 27.96C484.868 30.44 485.908 32.6 485.908 36.76V47.08C485.908 54.04 482.468 57.48 475.508 57.48H469.268C462.308 57.48 458.868 54.04 458.868 47.08V35.16H469.828V46.04C469.828 47.4 470.468 48.04 471.828 48.04H472.868C474.228 48.04 474.868 47.4 474.868 46.04V39.32C474.868 37.56 474.308 36.68 472.948 35.72L463.348 28.6C459.908 26.12 458.868 23.8 458.868 19.8V10.92C458.868 3.96 462.308 0.519998 469.268 0.519998H475.348C482.308 0.519998 485.748 3.96 485.748 10.92V21.16H474.788V11.96C474.788 10.6 474.148 9.96 472.788 9.96H471.908C470.548 9.96 469.908 10.6 469.908 11.96V17.24C469.908 19 470.468 19.88 471.828 20.84L481.428 27.96Z" fill="#114550"/>
<path d="M30.4 122H19.28L18.4 113.84H11.36L10.56 122H0.4L7.76 66H23.04L30.4 122ZM14.88 79.68L12.4 104.08H17.36L14.88 79.68ZM55.0213 93.04C58.3813 94 59.8213 96.16 59.8213 100.24V111.6C59.8213 118.56 56.3813 122 49.4213 122H32.7813V66H49.2613C56.2213 66 59.6613 69.44 59.6613 76.4V84.72C59.6613 89.52 57.9813 91.92 55.0213 93.04ZM48.5413 77.6C48.5413 76.24 47.9013 75.6 46.5413 75.6H43.9013V88.88H46.5413C47.9013 88.88 48.5413 88.24 48.5413 86.88V77.6ZM43.9013 98.24V112.4H46.7013C48.0613 112.4 48.7013 111.76 48.7013 110.4V100.24C48.7013 98.88 48.0613 98.24 46.7013 98.24H43.9013ZM91.2463 112.08C91.2463 119.04 87.8063 122.48 80.8463 122.48H73.6463C66.6862 122.48 63.2463 119.04 63.2463 112.08V75.92C63.2463 68.96 66.6862 65.52 73.6463 65.52H80.8463C87.8063 65.52 91.2463 68.96 91.2463 75.92V112.08ZM80.0463 77.12C80.0463 75.76 79.4063 75.12 78.0463 75.12H76.4463C75.0863 75.12 74.4463 75.76 74.4463 77.12V110.88C74.4463 112.24 75.0863 112.88 76.4463 112.88H78.0463C79.4063 112.88 80.0463 112.24 80.0463 110.88V77.12ZM122.645 66V112.08C122.645 119.04 119.205 122.48 112.245 122.48H105.445C98.485 122.48 95.045 119.04 95.045 112.08V66H106.245V110.88C106.245 112.24 106.885 112.88 108.245 112.88H109.445C110.805 112.88 111.445 112.24 111.445 110.88V66H122.645ZM143.331 122H132.131V76H125.331V66H150.131V76H143.331V122ZM182.357 102.08V122H171.157V102.88L161.717 66H173.397L177.157 85.04L181.157 66H191.797L182.357 102.08ZM220.934 112.08C220.934 119.04 217.494 122.48 210.534 122.48H203.334C196.374 122.48 192.934 119.04 192.934 112.08V75.92C192.934 68.96 196.374 65.52 203.334 65.52H210.534C217.494 65.52 220.934 68.96 220.934 75.92V112.08ZM209.734 77.12C209.734 75.76 209.094 75.12 207.734 75.12H206.134C204.774 75.12 204.134 75.76 204.134 77.12V110.88C204.134 112.24 204.774 112.88 206.134 112.88H207.734C209.094 112.88 209.734 112.24 209.734 110.88V77.12ZM252.333 66V112.08C252.333 119.04 248.893 122.48 241.933 122.48H235.133C228.173 122.48 224.733 119.04 224.733 112.08V66H235.933V110.88C235.933 112.24 236.573 112.88 237.933 112.88H239.133C240.493 112.88 241.133 112.24 241.133 110.88V66H252.333ZM278.539 95.52C281.979 96.48 283.419 98.64 283.419 102.72V122H272.219V102.8C272.219 101.44 271.579 100.8 270.219 100.8H267.419V122H256.219V66H272.939C279.899 66 283.339 69.44 283.339 76.4V87.2C283.339 92 281.579 94.4 278.539 95.52ZM272.139 77.76C272.139 76.4 271.499 75.76 270.139 75.76H267.419V91.28H270.139C271.499 91.28 272.139 90.64 272.139 89.28V77.76ZM298.016 66H309.216V112H317.296V122H298.016V66ZM348.681 122H337.561L336.681 113.84H329.641L328.841 122H318.681L326.041 66H341.321L348.681 122ZM333.161 79.68L330.681 104.08H335.641L333.161 79.68ZM378.402 97.28H389.442V112.08C389.442 119.04 386.002 122.48 379.042 122.48H372.162C365.202 122.48 361.762 119.04 361.762 112.08V75.92C361.762 68.96 365.202 65.52 372.162 65.52H378.882C385.842 65.52 389.282 68.96 389.282 75.92V89.04H378.242V77.12C378.242 75.76 377.602 75.12 376.242 75.12H374.962C373.602 75.12 372.962 75.76 372.962 77.12V110.88C372.962 112.24 373.602 112.88 374.962 112.88H376.402C377.762 112.88 378.402 112.24 378.402 110.88V97.28ZM421.181 122H410.061L409.181 113.84H402.141L401.341 122H391.181L398.541 66H413.821L421.181 122ZM405.661 79.68L403.181 104.08H408.141L405.661 79.68ZM450.692 66V112.08C450.692 119.04 447.252 122.48 440.292 122.48H433.492C426.532 122.48 423.092 119.04 423.092 112.08V66H434.292V110.88C434.292 112.24 434.932 112.88 436.292 112.88H437.492C438.852 112.88 439.492 112.24 439.492 110.88V66H450.692ZM476.818 92.96C480.258 95.44 481.298 97.6 481.298 101.76V112.08C481.298 119.04 477.858 122.48 470.898 122.48H464.658C457.698 122.48 454.258 119.04 454.258 112.08V100.16H465.218V111.04C465.218 112.4 465.858 113.04 467.218 113.04H468.258C469.618 113.04 470.258 112.4 470.258 111.04V104.32C470.258 102.56 469.698 101.68 468.338 100.72L458.738 93.6C455.298 91.12 454.258 88.8 454.258 84.8V75.92C454.258 68.96 457.698 65.52 464.658 65.52H470.738C477.698 65.52 481.138 68.96 481.138 75.92V86.16H470.178V76.96C470.178 75.6 469.538 74.96 468.178 74.96H467.298C465.938 74.96 465.298 75.6 465.298 76.96V82.24C465.298 84 465.858 84.88 467.218 85.84L476.818 92.96ZM512.666 122H501.546L500.666 113.84H493.626L492.826 122H482.666L490.026 66H505.306L512.666 122ZM497.146 79.68L494.666 104.08H499.626L497.146 79.68ZM554.306 122H543.186L542.306 113.84H535.266L534.466 122H524.306L531.666 66H546.946L554.306 122ZM538.786 79.68L536.306 104.08H541.266L538.786 79.68ZM572.777 97.28H583.817V112.08C583.817 119.04 580.377 122.48 573.417 122.48H566.537C559.577 122.48 556.137 119.04 556.137 112.08V75.92C556.137 68.96 559.577 65.52 566.537 65.52H573.257C580.217 65.52 583.657 68.96 583.657 75.92V89.04H572.617V77.12C572.617 75.76 571.977 75.12 570.617 75.12H569.337C567.977 75.12 567.337 75.76 567.337 77.12V110.88C567.337 112.24 567.977 112.88 569.337 112.88H570.777C572.137 112.88 572.777 112.24 572.777 110.88V97.28ZM604.027 97.28H615.067V112.08C615.067 119.04 611.627 122.48 604.667 122.48H597.787C590.827 122.48 587.387 119.04 587.387 112.08V75.92C587.387 68.96 590.827 65.52 597.787 65.52H604.507C611.467 65.52 614.907 68.96 614.907 75.92V89.04H603.867V77.12C603.867 75.76 603.227 75.12 601.867 75.12H600.587C599.227 75.12 598.587 75.76 598.587 77.12V110.88C598.587 112.24 599.227 112.88 600.587 112.88H602.027C603.387 112.88 604.027 112.24 604.027 110.88V97.28ZM646.637 112.08C646.637 119.04 643.197 122.48 636.237 122.48H629.037C622.077 122.48 618.637 119.04 618.637 112.08V75.92C618.637 68.96 622.077 65.52 629.037 65.52H636.237C643.197 65.52 646.637 68.96 646.637 75.92V112.08ZM635.437 77.12C635.437 75.76 634.797 75.12 633.437 75.12H631.837C630.477 75.12 629.837 75.76 629.837 77.12V110.88C629.837 112.24 630.477 112.88 631.837 112.88H633.437C634.797 112.88 635.437 112.24 635.437 110.88V77.12ZM678.036 66V112.08C678.036 119.04 674.596 122.48 667.636 122.48H660.836C653.876 122.48 650.436 119.04 650.436 112.08V66H661.636V110.88C661.636 112.24 662.276 112.88 663.636 112.88H664.836C666.196 112.88 666.836 112.24 666.836 110.88V66H678.036ZM709.282 122H698.402L691.282 91.52L691.442 105.76L691.602 122H681.922V66H693.362L699.842 93.76L699.682 77.6L699.602 66H709.282V122ZM730.05 122H718.85V76H712.05V66H736.85V76H730.05V122Z" fill="#CA8923"/>
</svg>
