<svg width="114" height="113" viewBox="0 0 114 113" fill="none" xmlns="http://www.w3.org/2000/svg">
<path d="M0.735354 108.172L0.735613 108.171L7.37641 83.4279L7.44089 83.1877L7.32267 82.9688C2.94529 74.8657 0.651462 65.722 0.651462 56.4737C0.651462 25.6684 25.7732 0.625 56.6834 0.625C87.5938 0.625 112.716 25.6684 112.716 56.4737C112.716 87.2791 87.5938 112.322 56.6834 112.322C47.2475 112.322 38.0217 109.984 29.7864 105.516L29.5646 105.396L29.3214 105.463L4.86652 112.24L4.86223 112.241C4.5376 112.334 4.27956 112.375 3.97929 112.375C3.09216 112.375 2.24884 112.021 1.62702 111.402C0.777776 110.555 0.427245 109.313 0.735354 108.172ZM13.9268 81.1106L13.9291 81.1144C14.3725 81.8656 14.5049 82.7967 14.2852 83.6302C14.2851 83.6307 14.285 83.6312 14.2848 83.6317L9.01505 103.277L8.73196 104.332L9.78514 104.041L29.1803 98.6828L29.1957 98.6786L29.2109 98.6735C29.4572 98.5917 29.7589 98.5478 30.0152 98.5478C30.569 98.5478 31.1508 98.7174 31.7207 98.9988C39.2443 103.409 47.8844 105.745 56.6834 105.745C83.9059 105.745 106.06 83.6655 106.06 56.5262C106.06 29.3871 83.9059 7.30765 56.6834 7.30765C29.4612 7.30765 7.30711 29.3871 7.30711 56.5262C7.30711 65.1999 9.60273 73.6609 13.9268 81.1106Z" fill="#FFF6D2" stroke="#114550" stroke-width="1.25"/>
<g clip-path="url(#clip0_267_344)">
<path d="M41.1347 34.8514C40.9235 34.5859 40.6569 34.3674 40.3527 34.2103C40.0484 34.0532 39.7134 33.9612 39.3699 33.9404C39.0264 33.9195 38.6823 33.9704 38.3605 34.0895C38.0387 34.2086 37.7465 34.3932 37.5033 34.6312L33.8039 38.2498C32.0758 39.942 31.4389 42.337 32.1938 44.4383C35.3271 53.1356 40.4238 61.032 47.1061 67.5417C53.7677 74.0717 61.8481 79.0523 70.7481 82.1142C72.8984 82.852 75.3492 82.2296 77.0808 80.5409L80.7803 76.9258C81.0237 76.6881 81.2127 76.4026 81.3346 76.0881C81.4565 75.7736 81.5085 75.4373 81.4871 75.1017C81.4658 74.766 81.3717 74.4387 81.2109 74.1413C81.0502 73.844 80.8265 73.5834 80.5549 73.377L72.3009 67.1047C72.0106 66.8847 71.673 66.732 71.3135 66.6581C70.9541 66.5842 70.5821 66.5911 70.2258 66.6781L62.3904 68.5906C61.3445 68.8461 60.2488 68.8325 59.2099 68.5513C58.171 68.27 57.2243 67.7307 56.462 66.9858L47.675 58.3954C46.9121 57.6509 46.3595 56.7259 46.0711 55.7106C45.7827 54.6954 45.7682 53.6244 46.0292 52.6021L47.9898 44.9452C48.0789 44.597 48.0859 44.2335 48.0103 43.8822C47.9347 43.5309 47.7784 43.201 47.5533 42.9174L41.1347 34.8514ZM34.8021 31.995C35.4282 31.3829 36.1803 30.9081 37.0086 30.6019C37.8369 30.2957 38.7224 30.1653 39.6062 30.2192C40.4901 30.2731 41.3521 30.5101 42.135 30.9145C42.918 31.319 43.6039 31.8815 44.1472 32.5649L50.5658 40.6273C51.7429 42.1062 52.1579 44.0327 51.6928 45.8508L49.7358 53.5076C49.6346 53.9042 49.64 54.3196 49.7516 54.7135C49.8632 55.1074 50.0771 55.4665 50.3726 55.7557L59.1632 64.3461C59.4596 64.6354 59.8276 64.8448 60.2314 64.9539C60.6352 65.063 61.061 65.068 61.4673 64.9685L69.2991 63.056C70.2172 62.8317 71.1755 62.8142 72.1015 63.005C73.0276 63.1958 73.8971 63.5899 74.6443 64.1573L82.8947 70.4297C85.8607 72.6848 86.1326 76.9677 83.4779 79.5585L79.7785 83.1736C77.1309 85.7609 73.1739 86.8972 69.4852 85.628C60.044 82.3818 51.472 77.1 44.4049 70.1744C37.3183 63.2693 31.9134 54.8938 28.591 45.669C27.2959 42.0678 28.4586 38.1974 31.1062 35.6101L34.8056 31.995H34.8021Z" fill="#FFF6D2"/>
</g>
<defs>
<clipPath id="clip0_267_344">
<rect width="57.2447" height="55.9406" fill="white" transform="translate(28.061 30.208)"/>
</clipPath>
</defs>
</svg>
