<svg width="152" height="19" viewBox="0 0 152 19" fill="none" xmlns="http://www.w3.org/2000/svg">
<path d="M25.4292 18.5V1H30.483V14.125H39.4292V18.5H25.4292Z" fill="#E9993E"/>
<path d="M53.5968 18.5L52.5253 15.1596H46.4539L45.3825 18.5H40.7671L46.9209 1H52.1132L58.2671 18.5H53.5968ZM51.1242 10.9324L49.4759 5.75929L47.8 10.9324H51.1242Z" fill="#E9993E"/>
<path d="M80.5589 4.43374L76.3734 6.75156C75.5182 5.28886 74.2581 4.54626 72.5478 4.54626C70.1175 4.54626 68.3623 6.39151 68.3623 9.04687C68.3623 12.0173 70.4325 13.5475 72.5703 13.5475C74.2356 13.5475 75.5407 12.8049 76.4859 11.3647L80.3564 14.0651C78.7137 16.5179 76.0583 18.0706 72.6153 18.0706C67.2371 18.0706 63.4341 14.3576 63.4341 9.04687C63.4341 3.73614 67.2371 0.0231323 72.6153 0.0231323C76.0358 0.0231323 79.0287 1.66586 80.5589 4.43374Z" fill="#E9993E"/>
<path d="M94.3311 17.733L93.1835 14.425H86.6801L85.5324 17.733H80.6042L87.1751 0.360596H92.7334L99.3043 17.733H94.3311ZM91.7208 10.217L89.943 5.08625L88.1653 10.217H91.7208Z" fill="#E9993E"/>
<path d="M108.215 18.0696C103.22 18.0696 100.519 15.3918 100.519 10.6661V0.382202H105.245V10.5311C105.245 12.5339 106.37 13.569 108.215 13.569C110.061 13.569 111.186 12.5339 111.186 10.5311V0.382202H115.911V10.6661C115.911 15.3693 113.211 18.0696 108.215 18.0696Z" fill="#E9993E"/>
<path d="M125.835 4.27559C124.575 4.27559 123.608 4.61313 123.608 5.40074C123.608 6.36838 125.385 6.50339 127.163 6.81844L127.726 6.93095C131.349 7.62855 133.149 9.33878 133.149 12.0167C133.149 16.4273 129.436 18.0475 125.745 18.0475C122.617 18.0475 119.805 17.3049 117.802 15.8872L120.12 12.0392C121.515 12.8493 123.157 13.8169 125.813 13.8169C127.073 13.8169 128.018 13.4794 128.018 12.6017C128.018 11.7016 126.916 11.5216 124.778 11.1615L124.125 11.049C120.12 10.3514 118.454 8.66369 118.544 5.55826C118.634 2.2278 121.402 0 125.588 0C127.861 0 129.908 0.225026 132.924 1.82275L130.899 5.69328C129.683 5.1082 127.996 4.27559 125.835 4.27559Z" fill="#E9993E"/>
<path d="M146.853 17.733L145.705 14.425H139.202L138.054 17.733H133.126L139.697 0.360596H145.255L151.826 17.733H146.853ZM144.22 10.217L142.442 5.08625L140.665 10.217H144.22Z" fill="#E9993E"/>
<path d="M9.65173 16.0653L9.64624 16.2821L9.82736 16.2876H9.83011L10.0112 16.2821L9.99476 15.6125L9.85481 15.6152C9.84657 15.6152 9.83834 15.6152 9.83011 15.6152L9.66545 15.6097L9.65996 15.8265L9.83011 15.832V16.068L9.65173 16.0653Z" fill="#E9993E"/>
<path d="M9.52605 1.50115L9.7703 1.49567L9.82793 1.49292L9.88556 1.49567L10.1298 1.50115L10.138 1.28436L9.8883 1.27612H9.83067H9.76755L9.51782 1.28436L9.52605 1.50115Z" fill="#E9993E"/>
<path d="M8.35608 16.7881L8.32178 16.9827L8.51636 17.017L8.55066 16.8224L8.35608 16.7881Z" fill="#E9993E"/>
<path d="M8.28469 17.1893L8.16797 17.8514L8.36255 17.8857L8.47927 17.2236L8.28469 17.1893Z" fill="#E9993E"/>
<path d="M7.02583 16.4165L6.95825 16.6022L7.14393 16.6697L7.2115 16.4841L7.02583 16.4165Z" fill="#E9993E"/>
<path d="M6.88595 16.7942L6.65601 17.426L6.84168 17.4936L7.07162 16.8618L6.88595 16.7942Z" fill="#E9993E"/>
<path d="M5.77897 15.8167L5.68018 15.9878L5.85129 16.0866L5.95008 15.9155L5.77897 15.8167Z" fill="#E9993E"/>
<path d="M5.57787 16.1669L5.2417 16.7491L5.41281 16.8479L5.74899 16.2657L5.57787 16.1669Z" fill="#E9993E"/>
<path d="M4.65826 15.01L4.53125 15.1614L4.6826 15.2884L4.80961 15.137L4.65826 15.01Z" fill="#E9993E"/>
<path d="M4.39923 15.3188L3.96704 15.8339L4.11841 15.9609L4.5506 15.4458L4.39923 15.3188Z" fill="#E9993E"/>
<path d="M3.69629 14.0211L3.54492 14.1481L3.67193 14.2994L3.8233 14.1724L3.69629 14.0211Z" fill="#E9993E"/>
<path d="M3.38489 14.2792L2.86987 14.7114L2.99688 14.8628L3.5119 14.4306L3.38489 14.2792Z" fill="#E9993E"/>
<path d="M2.9155 12.8781L2.74438 12.9769L2.84318 13.148L3.01429 13.0492L2.9155 12.8781Z" fill="#E9993E"/>
<path d="M2.56516 13.0805L1.98291 13.4167L2.0817 13.5878L2.66396 13.2516L2.56516 13.0805Z" fill="#E9993E"/>
<path d="M2.34778 11.619L2.16211 11.6866L2.22968 11.8723L2.41536 11.8047L2.34778 11.619Z" fill="#E9993E"/>
<path d="M1.96799 11.7574L1.33618 11.9873L1.40376 12.173L2.03556 11.943L1.96799 11.7574Z" fill="#E9993E"/>
<path d="M2.00611 10.2812L1.81152 10.3155L1.84582 10.5101L2.04041 10.4758L2.00611 10.2812Z" fill="#E9993E"/>
<path d="M1.60866 10.3496L0.946533 10.4664L0.980854 10.661L1.64298 10.5442L1.60866 10.3496Z" fill="#E9993E"/>
<path d="M1.90438 8.90283H1.70679V9.10042H1.90438V8.90283Z" fill="#E9993E"/>
<path d="M1.49852 8.90283H0.826172V9.10042H1.49852V8.90283Z" fill="#E9993E"/>
<path d="M1.84584 7.49432L1.81152 7.6889L2.00611 7.72322L2.04043 7.52864L1.84584 7.49432Z" fill="#E9993E"/>
<path d="M0.979858 7.34039L0.945557 7.53497L1.60769 7.65169L1.64199 7.45711L0.979858 7.34039Z" fill="#E9993E"/>
<path d="M2.22895 6.13098L2.16138 6.31665L2.34705 6.38423L2.41463 6.19855L2.22895 6.13098Z" fill="#E9993E"/>
<path d="M1.40449 5.83117L1.33691 6.01685L1.96872 6.24679L2.0363 6.06112L1.40449 5.83117Z" fill="#E9993E"/>
<path d="M2.8422 4.85495L2.74341 5.02606L2.91452 5.12486L3.01331 4.95374L2.8422 4.85495Z" fill="#E9993E"/>
<path d="M2.08268 4.41592L1.98389 4.58704L2.56614 4.92321L2.66494 4.7521L2.08268 4.41592Z" fill="#E9993E"/>
<path d="M3.67096 3.70471L3.54395 3.85608L3.69532 3.98309L3.82233 3.83172L3.67096 3.70471Z" fill="#E9993E"/>
<path d="M2.99761 3.13885L2.87061 3.29022L3.38569 3.72241L3.5127 3.57104L2.99761 3.13885Z" fill="#E9993E"/>
<path d="M4.68262 2.71485L4.53125 2.84186L4.65826 2.99323L4.80963 2.86622L4.68262 2.71485Z" fill="#E9993E"/>
<path d="M4.11839 2.04236L3.96704 2.16937L4.39923 2.68439L4.55058 2.55738L4.11839 2.04236Z" fill="#E9993E"/>
<path d="M5.85129 1.91756L5.68018 2.01636L5.77897 2.18747L5.95008 2.08867L5.85129 1.91756Z" fill="#E9993E"/>
<path d="M5.4133 1.15646L5.24219 1.25525L5.57836 1.8375L5.74947 1.73871L5.4133 1.15646Z" fill="#E9993E"/>
<path d="M7.14222 1.33629L6.95654 1.40387L7.02412 1.58954L7.20979 1.52197L7.14222 1.33629Z" fill="#E9993E"/>
<path d="M6.84168 0.509207L6.65601 0.576782L6.88595 1.20859L7.07162 1.14101L6.84168 0.509207Z" fill="#E9993E"/>
<path d="M8.51636 0.986451L8.32178 1.02075L8.35608 1.21534L8.55066 1.18104L8.51636 0.986451Z" fill="#E9993E"/>
<path d="M8.36255 0.119366L8.16797 0.153687L8.28476 0.815815L8.47934 0.781494L8.36255 0.119366Z" fill="#E9993E"/>
<path d="M9.729 1.07576H9.8278H9.83054H9.92659V0.878174H9.83054H9.8278H9.729V1.07576Z" fill="#E9993E"/>
<path d="M9.729 0V0.672349H9.8278H9.92659V0H9.83054H9.729Z" fill="#E9993E"/>
<path d="M10.0031 1.94006L10.0085 1.72326L9.82742 1.71777H9.82468L9.64355 1.72326L9.66276 2.39287L9.80272 2.39012C9.81096 2.39012 9.81919 2.39012 9.82742 2.39012L9.99208 2.39561L9.99757 2.17881L9.82742 2.17332V1.93732L10.0031 1.94006Z" fill="#E9993E"/>
<path d="M10.1298 16.504L9.88556 16.5095H9.83067H9.7703L9.52605 16.504L9.51782 16.7208L9.76755 16.7263L9.82793 16.729L9.8883 16.7263L10.138 16.7208L10.1298 16.504Z" fill="#E9993E"/>
<path d="M10.3873 16.7072C10.4696 16.7017 10.5547 16.6962 10.637 16.6879L10.8785 16.6578L11.002 16.6413L11.1255 16.6193L11.3725 16.5754L11.3286 16.3614L11.0898 16.4053L10.9691 16.4272L10.8483 16.4437L10.8181 16.2214C10.9389 16.2077 11.0569 16.183 11.1749 16.1638L11.0514 15.5052L10.9142 15.5299L10.8483 15.5408C10.8099 15.5463 10.7687 15.5518 10.7276 15.5573L10.6974 15.335L10.7989 15.3213L10.9005 15.3021L11.1035 15.2664C11.1721 15.2527 11.238 15.2362 11.3066 15.2198L11.4081 15.1978C11.4411 15.1896 11.474 15.1786 11.5069 15.1704L11.5646 15.3872L11.485 15.4091C11.4575 15.4173 11.4328 15.4228 11.4054 15.4283L11.2462 15.464L11.2929 15.6781L11.4575 15.6396C11.485 15.6341 11.5124 15.6287 11.5399 15.6204L11.6222 15.5985L11.828 15.5408C11.8692 15.5299 11.9076 15.5161 11.946 15.5024L12.0201 15.7275L11.9378 15.7549C11.9104 15.7631 11.8829 15.7714 11.8527 15.7796L11.6826 15.8262L11.5975 15.8509C11.5701 15.8592 11.5399 15.8647 11.5124 15.8702L11.3423 15.9086L11.3889 16.1226L11.5646 16.0815C11.5948 16.0732 11.6222 16.0677 11.6524 16.0595L11.7402 16.0348L11.7978 16.2516C11.7594 16.2626 11.721 16.2736 11.6798 16.2845L11.5618 16.312C11.4822 16.3312 11.4027 16.3477 11.3231 16.3669L11.367 16.5809C11.4493 16.5645 11.5289 16.5452 11.6112 16.526L11.732 16.4986C11.7731 16.4876 11.8116 16.4766 11.8527 16.4657L12.086 16.3998C12.1656 16.3751 12.2452 16.3477 12.3247 16.3202C12.4043 16.2928 12.4839 16.2681 12.5607 16.2351L12.4839 16.0321C12.4098 16.0623 12.3302 16.087 12.2534 16.1144C12.1765 16.1391 12.0997 16.1665 12.0229 16.1912L11.957 15.9772C12.0723 15.9415 12.1848 15.9003 12.3 15.8619L12.0723 15.2307L11.9405 15.2746L11.8774 15.2966C11.839 15.3076 11.8006 15.324 11.7622 15.335L11.6963 15.121C11.7622 15.1018 11.828 15.0771 11.8939 15.0551C11.9597 15.0331 12.0256 15.0112 12.0887 14.9865L12.2808 14.9097C12.3138 14.8987 12.3439 14.8822 12.3769 14.8685L12.4702 14.8246L12.5635 15.0277L12.4126 15.0963C12.3632 15.1182 12.311 15.1374 12.2589 15.1566L12.3385 15.3597C12.3906 15.3378 12.4427 15.3186 12.4949 15.2966L12.6486 15.228C12.7144 15.1978 12.7803 15.1704 12.8434 15.1374L12.9532 15.0798L13.0602 15.2884L12.9038 15.3679C12.8516 15.3954 12.7968 15.4173 12.7446 15.442L12.5854 15.5134C12.5306 15.5353 12.4757 15.5573 12.4235 15.5793L12.5031 15.7823C12.558 15.7604 12.6156 15.7384 12.6705 15.7137L12.8352 15.6396L12.9285 15.8427L12.8187 15.8921C12.7803 15.9086 12.7446 15.9278 12.7062 15.9415L12.4784 16.0321L12.5553 16.2351L12.7885 16.1418C12.8269 16.1281 12.8654 16.1089 12.9038 16.0924L13.019 16.0403C13.0931 16.0074 13.1672 15.9744 13.2386 15.936L13.4609 15.8208C13.4993 15.8015 13.535 15.7796 13.5706 15.7604L13.6804 15.6973L13.5706 15.5079L13.4664 15.5683C13.4307 15.5875 13.395 15.6094 13.3593 15.6259L13.1425 15.7357L13.0437 15.5354L13.2057 15.453L13.2852 15.4119L13.3648 15.3679L13.0383 14.7807L12.9779 14.8163C12.9587 14.8273 12.9367 14.8383 12.9148 14.8493L12.8544 14.8795L12.7474 14.9344L12.6486 14.734L12.8324 14.6407C12.8626 14.627 12.8928 14.6078 12.923 14.5913L13.0136 14.5392C13.1343 14.4733 13.2496 14.3937 13.3648 14.3224L13.4883 14.509L13.3511 14.5968L13.2825 14.6407L13.2468 14.6627L13.2111 14.6819L13.3237 14.8685L13.3593 14.8465L13.395 14.8246L13.4664 14.7779L13.6091 14.6874C13.6392 14.6682 13.6694 14.6462 13.6969 14.627L13.7847 14.5639L13.8862 14.4925L14.0262 14.6819L13.8835 14.7834L13.8121 14.8356C13.7874 14.852 13.7655 14.8685 13.7408 14.885L13.5926 14.981L13.5185 15.0277L13.4828 15.0524L13.4444 15.0743L13.5569 15.2609L13.5953 15.239L13.6338 15.2143L13.7106 15.1649L13.8615 15.0661L13.985 15.2527C13.8478 15.3405 13.7133 15.4311 13.5706 15.5079L13.6804 15.6973C13.8259 15.6177 13.9658 15.5244 14.1058 15.4338C14.1415 15.4119 14.1716 15.3872 14.2046 15.3652L14.3034 15.2939C14.4406 15.2005 14.5696 15.0935 14.7013 14.992L14.5641 14.8246C14.4351 14.9234 14.3116 15.0277 14.1771 15.1182L14.0454 14.9371C14.0948 14.9014 14.1442 14.8685 14.1908 14.8301L14.3336 14.7176L13.9164 14.1907L13.8067 14.2785C13.7902 14.2922 13.771 14.3059 13.7518 14.3196L13.653 14.3882L13.5212 14.2071C13.6365 14.1303 13.7408 14.0397 13.8506 13.9574C13.878 13.9354 13.9027 13.9135 13.9301 13.8915L14.0097 13.8229C14.0619 13.779 14.114 13.7324 14.1634 13.6857L14.3171 13.8504L14.2567 13.908L14.1936 13.9629L14.0701 14.0699L14.2101 14.2373L14.339 14.1275L14.4022 14.0726L14.4625 14.015L14.619 13.8668C14.6491 13.8394 14.6766 13.8065 14.7068 13.7763L14.8742 13.9409C14.7123 14.1083 14.5394 14.2675 14.361 14.4184L14.501 14.5858L14.6382 14.4678L14.7068 14.4075L14.7726 14.3443L14.9263 14.509C14.8687 14.5666 14.8056 14.6188 14.7452 14.6709L14.6519 14.7505C14.6217 14.7779 14.5915 14.8054 14.5586 14.8301L14.6958 14.9975C14.7287 14.9728 14.7589 14.9426 14.7918 14.9179L14.8852 14.8356C14.9483 14.7807 15.0114 14.7258 15.0718 14.6682L15.2474 14.5008C15.3078 14.4431 15.3627 14.38 15.4203 14.3196L15.5054 14.2291C15.5355 14.1989 15.5602 14.166 15.5877 14.1358L15.4258 13.9903C15.3983 14.0205 15.3736 14.0534 15.3462 14.0809L15.2611 14.1687C15.2035 14.2263 15.1513 14.2867 15.091 14.3443L14.9318 14.1852C15.0169 14.1001 15.0992 14.0123 15.1815 13.9245L14.6848 13.4717L14.5888 13.5732L14.5421 13.6226C14.5147 13.65 14.4872 13.683 14.457 13.7077L14.2979 13.5485C14.3473 13.4991 14.3939 13.4497 14.4406 13.4003L14.5119 13.3262C14.5366 13.3015 14.5586 13.2741 14.5805 13.2494L14.715 13.0929C14.7589 13.0408 14.8001 12.9859 14.844 12.931L15.0224 13.0682L14.9208 13.1972C14.9044 13.2192 14.8852 13.2384 14.8687 13.2603L14.8138 13.3235L14.9785 13.4662L15.0333 13.403C15.0526 13.3811 15.0718 13.3619 15.0882 13.3372L15.1925 13.2027L15.2584 13.1176C15.2803 13.0902 15.2995 13.06 15.3215 13.0298L15.3928 12.9283L15.5849 13.0628L15.4834 13.2055L15.4587 13.2411L15.4313 13.2768L15.3764 13.3454L15.2666 13.4826C15.2501 13.5073 15.2282 13.5265 15.209 13.5512L15.1513 13.6171L15.316 13.7598L15.3764 13.6912C15.3956 13.6692 15.4175 13.6445 15.434 13.6226L15.5465 13.4799L15.7249 13.6171C15.6755 13.6802 15.6261 13.7461 15.574 13.8065L15.4148 13.9903L15.5767 14.1358L15.7414 13.9464C15.7935 13.8833 15.8457 13.8147 15.8978 13.7516L15.9719 13.6555C15.9966 13.6226 16.0185 13.5897 16.0432 13.5567L16.1887 13.3536C16.2353 13.285 16.2792 13.2137 16.3259 13.1423L16.142 13.0271C16.0981 13.0957 16.0542 13.1643 16.0103 13.2302L15.8703 13.4277L15.6892 13.296L15.7935 13.1478C15.81 13.1231 15.8292 13.0984 15.8456 13.0737L15.895 12.9969L15.3325 12.6292C15.3078 12.6676 15.2831 12.7087 15.2556 12.7472L15.2172 12.802L15.1486 12.9008L14.9675 12.7691L15.0882 12.599C15.1266 12.5413 15.1623 12.4837 15.2007 12.4261L15.2556 12.3383C15.2748 12.3081 15.2913 12.2779 15.3078 12.2477L15.4121 12.0693L15.6096 12.1764C15.5548 12.2697 15.5026 12.3657 15.445 12.4618L15.6316 12.5743C15.6892 12.4782 15.7441 12.3794 15.8017 12.2806C15.8347 12.2175 15.8676 12.1544 15.9005 12.0885L15.9582 11.9788L16.1695 12.0803C16.1146 12.1846 16.0624 12.2889 16.0076 12.3931C15.9499 12.4947 15.8923 12.5962 15.8319 12.6978L16.0185 12.8103C16.0817 12.706 16.1393 12.6017 16.1997 12.4974L16.3973 12.6045L16.2765 12.8158C16.2573 12.8514 16.2381 12.8871 16.2161 12.9201L16.1503 13.0216L16.3341 13.1368L16.4027 13.0326C16.4247 12.9969 16.4439 12.9612 16.4659 12.9255L16.5894 12.7087C16.6278 12.6374 16.6634 12.566 16.7019 12.4919L16.7595 12.3794C16.7787 12.341 16.7952 12.3026 16.8116 12.2669L16.9159 12.0391L16.7156 11.9541L16.614 12.1764C16.5976 12.212 16.5811 12.2504 16.5619 12.2861L16.507 12.3959L16.3067 12.2944L16.3479 12.2148C16.3616 12.1873 16.3753 12.1599 16.3863 12.1324L16.4604 11.9678L15.8484 11.6961L15.7908 11.8251C15.7825 11.8443 15.7716 11.8662 15.7633 11.8855L15.7084 11.9925L15.5081 11.8909L15.5548 11.7976C15.5712 11.7675 15.5849 11.7345 15.5987 11.7043L15.6837 11.515C15.7112 11.4519 15.7359 11.386 15.7606 11.3229L15.799 11.2268C15.8127 11.1939 15.821 11.161 15.8319 11.128L16.0432 11.2021L16.0158 11.279L15.9856 11.3558L15.9252 11.5095L16.1283 11.5918L16.1914 11.4327L16.2216 11.3531L16.2491 11.2735L16.3177 11.0704L16.3286 11.0402L16.3369 11.01L16.3533 10.9497L16.5784 11.0155C16.5125 11.2406 16.4329 11.4601 16.3451 11.6769L16.5454 11.7592L16.6113 11.5918L16.6442 11.5067L16.6744 11.4217L16.8857 11.4958C16.872 11.5342 16.861 11.5726 16.8446 11.611L16.8007 11.7235C16.7705 11.7976 16.743 11.8745 16.7101 11.9486L16.9104 12.0336C16.9434 11.9568 16.9735 11.8772 17.0037 11.8004L17.0504 11.6824C17.0669 11.644 17.0778 11.6028 17.0916 11.5644L17.1684 11.3339C17.1821 11.2954 17.1931 11.2543 17.2041 11.2131L17.237 11.0924C17.259 11.0128 17.2837 10.9332 17.3001 10.8509L17.0888 10.7987C17.0723 10.8783 17.0476 10.9551 17.0257 11.0347L16.9928 11.1527C16.9818 11.1912 16.9708 11.2323 16.9571 11.268L16.743 11.1994C16.754 11.1719 16.7622 11.1418 16.7705 11.1116L16.7952 11.0238L16.8446 10.8509L16.1942 10.6807L16.1558 10.8152L16.1365 10.8811L16.1201 10.9387L16.1118 10.9689L16.1009 10.9963L15.8868 10.9277C15.8978 10.8948 15.906 10.8618 15.917 10.8289L15.9444 10.7301C15.9637 10.6643 15.9829 10.5984 15.9966 10.5298L16.0432 10.3295C16.0515 10.2965 16.057 10.2608 16.0624 10.2279L16.0817 10.1264L16.3012 10.1648L16.2738 10.3267C16.2628 10.3788 16.2491 10.4337 16.2381 10.4859L16.4494 10.5353C16.4631 10.4804 16.4741 10.4255 16.4878 10.3706L16.518 10.2032L16.5372 10.0962L16.5454 10.044L16.5537 9.99191L16.5701 9.86841L16.8034 9.8986L16.7815 10.0715L16.7513 10.2444L16.7211 10.4173C16.7101 10.4749 16.6964 10.5325 16.6827 10.5874L16.894 10.6368C16.9077 10.5792 16.9214 10.5188 16.9351 10.4612L16.9681 10.2828L17.1876 10.3212L17.1656 10.442C17.1574 10.4831 17.1519 10.5216 17.141 10.56L17.0861 10.796L17.2974 10.8481L17.355 10.6039C17.366 10.5627 17.3715 10.5216 17.3797 10.4804L17.4017 10.3569L17.4236 10.2361L17.4346 10.1758L17.4428 10.1154C17.462 9.95074 17.4895 9.78334 17.4977 9.61868L17.2809 9.60222C17.2727 9.76413 17.248 9.92604 17.2288 10.0852L17.0065 10.0523L17.0284 9.8739L17.0394 9.78334L17.0449 9.73943L17.0476 9.69552L16.3808 9.6324C16.378 9.67906 16.3698 9.72571 16.3643 9.77236L16.3561 9.83822L16.3396 9.95897L16.1173 9.92604C16.1338 9.78883 16.1558 9.65161 16.1612 9.5144C16.1667 9.44579 16.1722 9.37719 16.175 9.30858L16.1805 9.10001L16.4055 9.10276L16.4 9.26741C16.4 9.29486 16.4 9.3223 16.3973 9.34974L16.3918 9.43207L16.6086 9.44579L16.614 9.36072C16.6168 9.33328 16.6168 9.30309 16.6168 9.27565L16.6223 9.1055L16.625 8.99848L16.6223 8.89145L16.6195 8.76795L16.8555 8.75972C16.8583 8.87773 16.8638 8.99299 16.8583 9.11099L16.8528 9.28662C16.8528 9.31681 16.8528 9.34425 16.8501 9.37444L16.8446 9.46226L17.0614 9.47598L17.0669 9.38542C17.0696 9.35523 17.0696 9.32504 17.0696 9.29486L17.0751 9.11374L17.3001 9.11648L17.2946 9.36072C17.2919 9.4403 17.2837 9.52263 17.2782 9.60222L17.495 9.61868C17.5005 9.53635 17.5087 9.45128 17.5114 9.36895L17.5169 9.11922L17.5197 8.99848L17.5169 8.87773L17.5114 8.628C17.5087 8.54567 17.5005 8.4606 17.495 8.37827L17.2782 8.39473C17.2837 8.47432 17.2919 8.55665 17.2946 8.63623L17.3001 8.88047L17.0751 8.88321L17.0696 8.70209C17.0696 8.67191 17.0696 8.64172 17.0669 8.61153L17.0614 8.52097L16.3918 8.56488C16.3945 8.61153 16.4 8.65818 16.4 8.70484L16.4027 8.77344L16.4055 8.89419L16.1805 8.89694L16.175 8.68837C16.1722 8.61976 16.164 8.55116 16.1612 8.48255C16.153 8.34534 16.1338 8.20812 16.1173 8.07091L16.3396 8.03798L16.3616 8.19989L16.3726 8.28222L16.378 8.32338L16.3808 8.36455L16.5976 8.34534L16.5948 8.30417L16.5894 8.26301L16.5784 8.17794L16.5564 8.01053L16.5482 7.95839L16.54 7.90625L16.5509 7.79922L16.529 7.67573L16.7595 7.62908L16.7897 7.80197C16.8007 7.8596 16.8116 7.91723 16.8171 7.97486L16.8391 8.14775L16.8501 8.23557L16.8555 8.27947L16.8583 8.32338L17.0751 8.30417L17.0723 8.26026L17.0669 8.21636L17.0559 8.12579L17.0339 7.94742L17.2562 7.91448C17.2754 8.0764 17.3001 8.23556 17.3084 8.39748L17.5251 8.38101C17.5169 8.21361 17.4922 8.04895 17.4703 7.8843L17.462 7.82392L17.4511 7.76355L17.4291 7.6428L17.4071 7.51931C17.3989 7.47814 17.3934 7.43698 17.3824 7.39582L17.3248 7.15157L17.1135 7.20372L17.1684 7.43972C17.1794 7.47814 17.1849 7.51931 17.1931 7.56047L17.215 7.68122L16.9955 7.71964L16.9626 7.54126C16.9489 7.48363 16.9351 7.42326 16.9214 7.36563L16.2683 7.51656L16.3012 7.65378C16.3067 7.67573 16.3094 7.69769 16.3149 7.71964L16.3369 7.83764L16.1173 7.87606L16.0981 7.77453C16.0926 7.7416 16.0871 7.70592 16.0789 7.67299L16.0323 7.47266C16.0185 7.40405 15.9966 7.33819 15.9801 7.27232L15.9527 7.17353C15.9417 7.1406 15.9362 7.10767 15.9225 7.07474L16.1365 7.00613C16.1448 7.03083 16.153 7.05827 16.1612 7.08571L16.1832 7.1653L16.2271 7.32446L16.4384 7.26958L16.3918 7.10767L16.3698 7.02534C16.3616 6.99789 16.3561 6.97045 16.3451 6.94301L16.2765 6.73993C16.2628 6.70151 16.2518 6.66035 16.2353 6.62193L16.4549 6.5396C16.4659 6.56704 16.4768 6.59449 16.4851 6.62193L16.5125 6.70426L16.5674 6.87166C16.5784 6.8991 16.5839 6.92654 16.5921 6.95673L16.6168 7.0418L16.6634 7.21195L16.8748 7.15706L16.8254 6.98417L16.8007 6.89636C16.7924 6.86617 16.7842 6.83873 16.7732 6.80854L16.9873 6.73993C17.001 6.77835 17.012 6.81677 17.0229 6.85519L17.0559 6.9732C17.0778 7.05278 17.1025 7.12962 17.119 7.2092L17.3303 7.15706C17.3138 7.07474 17.2891 6.99515 17.2672 6.91557L17.2343 6.79482C17.2233 6.75365 17.2123 6.71523 17.1986 6.67407L17.1217 6.44355C17.108 6.40513 17.097 6.36397 17.0806 6.32555L17.0339 6.20754C17.0037 6.1307 16.9735 6.05112 16.9406 5.97428L16.7403 6.05935C16.7732 6.13345 16.8007 6.21029 16.8308 6.28438L16.8748 6.3969C16.8912 6.43532 16.9022 6.47374 16.9159 6.51216L16.7046 6.58625L16.6744 6.50118L16.6415 6.41611L16.5756 6.24871L15.9554 6.50392L16.0076 6.63565L16.0323 6.69877C16.0487 6.73719 16.0597 6.77561 16.0734 6.81128L15.8621 6.88538C15.8511 6.85245 15.8402 6.81952 15.8292 6.78659L15.7908 6.69054C15.7661 6.62742 15.7414 6.56155 15.7139 6.49844L15.6289 6.30908C15.6151 6.27889 15.6014 6.24596 15.5849 6.21578L15.5383 6.12247L15.7386 6.02093L15.777 6.09503C15.7908 6.11973 15.8017 6.14442 15.8127 6.16912L15.8813 6.32006L16.0817 6.23224L16.0131 6.07856C16.0021 6.05386 15.9884 6.02642 15.9774 6.00172L15.939 5.92488C15.906 5.86176 15.8731 5.7959 15.8402 5.73278L15.777 5.62575L15.9801 5.5105C16.0076 5.56264 16.0405 5.61203 16.0652 5.66418L16.1448 5.8206L16.1859 5.89744C16.1997 5.92214 16.2134 5.94958 16.2244 5.97702L16.2957 6.13619L16.496 6.04837L16.4219 5.88372C16.411 5.85628 16.3973 5.82883 16.3835 5.80139L16.3424 5.7218L16.5427 5.62027L16.5976 5.73004C16.6168 5.76571 16.6305 5.80413 16.6497 5.83981L16.7513 6.0621L16.9516 5.97702L16.8473 5.74925C16.8308 5.71083 16.8144 5.67241 16.7952 5.63673L16.7375 5.52422C16.6991 5.45287 16.6634 5.37877 16.625 5.30742L16.5015 5.09062C16.4796 5.05494 16.4604 5.01652 16.4384 4.98359L16.3698 4.87931L16.1859 4.99457L16.2518 5.09611C16.2738 5.12904 16.293 5.16746 16.3122 5.20039L16.4329 5.4117L16.2353 5.51873C16.175 5.41445 16.1173 5.31016 16.0542 5.20588L15.4807 5.55715C15.5054 5.59557 15.5273 5.63673 15.552 5.6779L15.5849 5.73553L15.6453 5.83981L15.4477 5.94684L15.3434 5.76846C15.327 5.73827 15.3105 5.70808 15.2913 5.6779L15.2364 5.59008C15.198 5.53245 15.1623 5.47208 15.1239 5.41719L15.0032 5.24704L15.1843 5.11532L15.2803 5.24979C15.2968 5.27174 15.3133 5.2937 15.327 5.3184L15.3709 5.387L15.552 5.26625L15.5054 5.1949C15.4889 5.1702 15.4724 5.14825 15.456 5.1263L15.3572 4.98908C15.3352 4.9589 15.316 4.93145 15.2941 4.90126L15.2282 4.81619L15.1513 4.7174L15.3352 4.56921C15.4807 4.75033 15.6206 4.93969 15.7469 5.13727L15.928 5.01653L15.8786 4.93968C15.8621 4.91499 15.8429 4.89029 15.8264 4.86559L15.7222 4.7174L15.9033 4.58567L16.0432 4.78326C16.0899 4.84912 16.1311 4.92048 16.175 4.98634L16.3588 4.86833C16.3122 4.79698 16.2683 4.72838 16.2216 4.65702L16.0762 4.45395C16.0515 4.42102 16.0295 4.38808 16.0048 4.35515L15.9307 4.2591C15.8786 4.19324 15.8292 4.12738 15.7743 4.06426L15.6096 3.8749L15.4477 4.02035L15.6069 4.20422C15.659 4.26734 15.7084 4.33045 15.7578 4.39357L15.5795 4.53079L15.4669 4.38808C15.4477 4.36339 15.4285 4.34143 15.4093 4.31948L15.3489 4.25087L14.8412 4.68721L14.9318 4.79424L14.973 4.84638L15.0471 4.94243L14.8687 5.07964C14.8248 5.02476 14.7836 4.96987 14.7397 4.91773L14.6052 4.76131C14.5833 4.73661 14.5613 4.70917 14.5366 4.68447L14.4653 4.61037C14.4159 4.56097 14.372 4.50883 14.3226 4.46218L14.4817 4.30301C14.5586 4.37985 14.6327 4.46218 14.7095 4.53902L14.8714 4.39083C14.7918 4.3085 14.715 4.22617 14.6354 4.14659L14.479 3.9984C14.4488 3.97095 14.4186 3.94077 14.3884 3.91332L14.5449 3.73769L14.5778 3.76513L14.6107 3.79532L14.6738 3.85569L14.8001 3.97644C14.8824 4.05877 14.962 4.14659 15.0443 4.22892L15.2062 4.08073C15.1239 3.99291 15.0416 3.90509 14.9565 3.82002L15.1157 3.66085C15.1733 3.71848 15.2282 3.77885 15.2858 3.83648L15.3709 3.9243C15.3983 3.95449 15.4258 3.98468 15.4505 4.01486L15.6124 3.86942C15.5849 3.83923 15.5575 3.8063 15.5301 3.77611L15.445 3.68555C15.3874 3.62518 15.3297 3.5648 15.2721 3.50443L15.0965 3.33703C15.0361 3.2794 14.973 3.22451 14.9099 3.16962L14.8165 3.0873C14.7836 3.05985 14.7534 3.03241 14.7205 3.00771L14.5833 3.17511C14.6162 3.19981 14.6464 3.22725 14.6766 3.2547L14.7699 3.33428C14.8303 3.38642 14.8934 3.43856 14.951 3.49619L14.7973 3.66085L14.7315 3.59773L14.6629 3.53736L14.5257 3.41935L14.0921 3.93253L14.1991 4.02584L14.2512 4.06975C14.2814 4.09445 14.3116 4.12463 14.339 4.15208L14.1854 4.31673C14.136 4.26734 14.0838 4.22343 14.0317 4.17952L13.9521 4.11091C13.9247 4.08896 13.9 4.06426 13.8725 4.04505C13.7627 3.95998 13.6585 3.87216 13.5432 3.79532L13.6749 3.6142C13.7188 3.64713 13.7655 3.67732 13.8094 3.71025L13.9384 3.81179L14.0728 3.64164L13.9384 3.53736C13.8945 3.50168 13.8478 3.4715 13.8012 3.43856L13.7133 3.37545C13.6832 3.35624 13.6557 3.33428 13.6255 3.31507L13.5212 3.24646L13.6475 3.04888C13.6969 3.08181 13.7463 3.11199 13.7957 3.14493L13.9384 3.24646C13.985 3.28214 14.0344 3.31233 14.0811 3.348L14.2183 3.45777L14.3528 3.28763L14.2101 3.17511C14.1634 3.13944 14.1113 3.10376 14.0646 3.06809L14.1963 2.88696C14.3308 2.97752 14.457 3.08181 14.5833 3.1806L14.7205 3.0132C14.5888 2.91166 14.4598 2.80464 14.3226 2.71133L14.2238 2.63998C14.1908 2.61802 14.1579 2.59333 14.125 2.57137C13.985 2.48081 13.8451 2.3875 13.6996 2.30792L13.5899 2.2448C13.5542 2.22285 13.5185 2.20364 13.4801 2.18443L13.2578 2.06917C13.1864 2.03075 13.1123 2.00056 13.0383 1.96489L12.923 1.91274C12.8846 1.89628 12.8462 1.87707 12.8077 1.86335L12.5745 1.77004L12.4894 1.98135L12.7172 2.07191C12.7556 2.08563 12.7913 2.10484 12.8297 2.12131L12.9395 2.17071L12.8462 2.37378L12.6815 2.29969C12.6266 2.27499 12.569 2.25578 12.5141 2.23108L12.2671 2.85403L12.3988 2.90617C12.4208 2.91441 12.44 2.92538 12.4592 2.93362L12.569 2.98301L12.4757 3.18609L12.3824 3.14218C12.3494 3.12846 12.3192 3.11199 12.2863 3.10102L12.0942 3.02418C12.0311 2.99673 11.9652 2.97752 11.8994 2.95557C11.8335 2.93362 11.7704 2.90892 11.7018 2.88971L11.7676 2.67565C11.8719 2.70859 11.9762 2.74426 12.0805 2.77994L12.1546 2.57412C12.0476 2.53844 11.9405 2.50002 11.8335 2.46709L11.6277 2.40946L11.5673 2.39299L11.5371 2.38476L11.5069 2.37653L11.5646 2.14875C11.592 2.15424 11.6222 2.16247 11.6496 2.17071L11.7347 2.19541L11.9049 2.24206C12.0174 2.27773 12.1272 2.31615 12.2369 2.35457L12.311 2.14875C12.1958 2.11033 12.0832 2.06917 11.968 2.03349L12.0338 1.81944C12.1107 1.84139 12.1875 1.87158 12.2644 1.89628C12.3412 1.92372 12.418 1.94842 12.4949 1.97861L12.5717 1.77553C12.4949 1.7426 12.4153 1.7179 12.3357 1.69046C12.2561 1.66301 12.1765 1.63557 12.097 1.61087L11.8637 1.54501C11.8225 1.53403 11.7841 1.52031 11.743 1.51208L11.6222 1.48464C11.5399 1.46543 11.4603 1.44622 11.378 1.42975L11.3341 1.6438C11.4136 1.66027 11.4932 1.67948 11.5728 1.69869L11.6908 1.72613C11.7292 1.73437 11.7704 1.74809 11.8088 1.75906L11.7512 1.97586L11.6634 1.95116C11.6332 1.94293 11.6057 1.93744 11.5756 1.92921L11.3999 1.88805L11.2572 2.54393L11.3944 2.57686L11.4603 2.59333L11.4905 2.59881L11.5207 2.60705L11.5783 2.62351L11.5207 2.84031C11.4877 2.83208 11.4548 2.8211 11.4219 2.81287L11.3203 2.79091C11.2517 2.77445 11.1859 2.75798 11.1173 2.74426L10.9142 2.70859L10.8126 2.68938L10.7111 2.67565L10.7413 2.45337C10.8511 2.46434 10.9581 2.4863 11.0651 2.50551L11.1063 2.29146C10.9938 2.27225 10.884 2.25029 10.7715 2.23657L10.5574 2.20913C10.5163 2.20364 10.4751 2.20364 10.4339 2.19815L10.4531 1.96489C10.5711 1.97037 10.6864 1.98958 10.8017 2.00331C10.9169 2.01428 11.0322 2.03898 11.1474 2.05819L11.1886 1.84414C11.0706 1.82493 10.9526 1.80023 10.8318 1.78651L10.862 1.56422L10.9828 1.58069L11.1035 1.60264L11.3423 1.64655L11.3862 1.4325L11.1392 1.38859L11.0157 1.36663L10.8922 1.35017L10.6507 1.31998C10.5684 1.31175 10.4833 1.30626 10.401 1.30077C10.3187 1.29528 10.2336 1.28705 10.1513 1.28705L10.143 1.50385C10.2254 1.50385 10.3049 1.51208 10.3845 1.51757C10.4641 1.52306 10.5464 1.52855 10.626 1.53678L10.6041 1.75906C10.4833 1.74809 10.3626 1.73985 10.2446 1.73162L10.2089 2.40123L10.3489 2.4122L10.4175 2.41769C10.4586 2.42044 10.497 2.42318 10.5382 2.42867L10.5163 2.65096C10.4476 2.64272 10.379 2.63998 10.3104 2.63449C10.2418 2.629 10.1732 2.62351 10.1046 2.62351L9.89605 2.61802H9.8494H9.8L9.59144 2.62351C9.52283 2.62351 9.45422 2.63175 9.38561 2.63449C9.31701 2.63998 9.2484 2.64272 9.17979 2.65096L9.15784 2.42867C9.26761 2.41769 9.37738 2.4122 9.48441 2.40397L9.47343 2.18717C9.36092 2.19541 9.2484 2.20364 9.13588 2.21462L8.92183 2.24206C8.88067 2.24755 8.8395 2.25304 8.79834 2.25852L8.76266 2.02526C8.87792 2.00879 8.99593 1.99507 9.11119 1.98135C9.22645 1.97037 9.34445 1.96214 9.46245 1.95391L9.45148 1.73711C9.33073 1.74534 9.20998 1.75358 9.09198 1.76455L9.07002 1.54227C9.14961 1.53403 9.23194 1.52855 9.31152 1.52306C9.3911 1.51757 9.47343 1.50934 9.55302 1.50934L9.54478 1.29254C9.46245 1.29254 9.37738 1.30077 9.29505 1.30626C9.21273 1.31175 9.12765 1.31724 9.04532 1.32547L8.80383 1.35566L8.68034 1.37212L8.55684 1.39408L8.30986 1.43798L8.35377 1.65204L8.59252 1.60813L8.71327 1.58618L8.83401 1.56971L8.8642 1.792C8.74345 1.80572 8.62545 1.83042 8.50744 1.84963L8.63094 2.50825L8.76815 2.48355L8.83401 2.47258C8.87243 2.46709 8.9136 2.4616 8.95476 2.45611L8.98495 2.6784L8.88341 2.69212L8.78187 2.71133L8.5788 2.74701C8.51019 2.76073 8.44433 2.77719 8.37572 2.79366L8.27418 2.81561C8.24125 2.82385 8.20832 2.83482 8.17539 2.84306L8.11776 2.62626L8.19734 2.6043C8.22478 2.59607 8.24948 2.59058 8.27693 2.58509L8.43609 2.54942L8.38944 2.33536L8.22478 2.37378C8.19734 2.37927 8.1699 2.38476 8.14246 2.39299L8.06013 2.41495L7.85431 2.47258C7.81314 2.48355 7.77472 2.49728 7.7363 2.511L7.66221 2.28597L7.74453 2.25852C7.77198 2.25029 7.79942 2.24206 7.82961 2.23382L7.99975 2.18717L8.08483 2.16247C8.11227 2.15424 8.14246 2.14875 8.1699 2.14326L8.34004 2.10484L8.29339 1.89079L8.11776 1.93195C8.08757 1.94019 8.06013 1.94568 8.02994 1.95391L7.94212 1.97861L7.88449 1.76181C7.92291 1.75083 7.96133 1.73985 8.0025 1.72888L8.1205 1.70143C8.20009 1.68222 8.27967 1.66576 8.35925 1.64655L8.31535 1.4325C8.23302 1.44896 8.15343 1.46817 8.0711 1.48738L7.95036 1.51482C7.90919 1.5258 7.87077 1.53678 7.82961 1.54775L7.59634 1.61362C7.51676 1.63832 7.43718 1.66576 7.35759 1.6932C7.27801 1.72064 7.19842 1.74534 7.12158 1.77827L7.19842 1.98135C7.27252 1.95116 7.3521 1.92647 7.42894 1.89902C7.50578 1.87432 7.58262 1.84688 7.65946 1.82218L7.72532 2.03624C7.61006 2.07191 7.49755 2.11308 7.38229 2.1515L7.61007 2.78268L7.74179 2.73877L7.80491 2.71682C7.84333 2.70584 7.88175 2.68938 7.92017 2.6784L7.98603 2.89245C7.92017 2.91166 7.85431 2.93636 7.78844 2.95832C7.72258 2.98027 7.65672 3.00222 7.5936 3.02692L7.4015 3.10376C7.36857 3.11474 7.33838 3.1312 7.30545 3.14493L7.21214 3.18883L7.11884 2.98576L7.26977 2.91715C7.31917 2.8952 7.37131 2.87599 7.42345 2.85678L7.34387 2.6537C7.29173 2.67565 7.23959 2.69486 7.18745 2.71682L7.03377 2.78543C6.9679 2.81561 6.90204 2.84306 6.83892 2.87599L6.72915 2.93362L6.62212 2.72505L6.77855 2.64547C6.83069 2.61802 6.88558 2.59607 6.93772 2.57137L7.09688 2.50002C7.15177 2.47807 7.20666 2.45611 7.2588 2.43416L7.17921 2.23108C7.12433 2.25304 7.0667 2.27499 7.01181 2.29969L6.84716 2.37378L6.75385 2.17071L6.86362 2.12131C6.90204 2.10484 6.93772 2.08563 6.97614 2.07191L7.20391 1.98135L7.12707 1.77827L6.89381 1.87158C6.85539 1.8853 6.81697 1.90451 6.77855 1.92098L6.66329 1.97312C6.58919 2.00605 6.5151 2.03898 6.44375 2.0774L6.22146 2.19266C6.18304 2.21187 6.14736 2.23382 6.11169 2.25303L6.00192 2.31615L6.11169 2.50551L6.21597 2.44513C6.25165 2.42592 6.28732 2.40397 6.323 2.3875L6.5398 2.27773L6.63859 2.47807L6.47668 2.56039L6.39709 2.60156L6.31751 2.64547L6.64408 3.23274L6.70445 3.19707C6.72366 3.18609 6.74562 3.17511 6.76757 3.16414L6.82795 3.13395L6.93497 3.07906L7.03377 3.2794L6.8499 3.3727C6.81971 3.38642 6.78953 3.40563 6.75934 3.4221L6.66878 3.47424C6.54803 3.5401 6.43277 3.61969 6.31751 3.69104L6.19402 3.50443L6.33123 3.41661L6.39984 3.3727L6.43551 3.35075L6.47119 3.33154L6.35867 3.14493L6.323 3.16688L6.28732 3.18883L6.21597 3.23549L6.07327 3.32605C6.04308 3.34526 6.01289 3.36721 5.98545 3.38642L5.89763 3.44954L5.7961 3.52089L5.65614 3.33154L5.79884 3.23L5.87019 3.17786C5.89489 3.16139 5.91684 3.14493 5.94154 3.12846L6.08973 3.03241L6.16383 2.98576L6.1995 2.96106L6.23793 2.9391L6.12541 2.75249L6.08699 2.77445L6.04857 2.79915L5.97173 2.84854L5.82079 2.94734L5.6973 2.76073C5.83452 2.67291 5.96899 2.58235 6.11169 2.50551L6.00192 2.31615C5.85647 2.39574 5.71651 2.48904 5.57655 2.5796C5.54088 2.60156 5.51069 2.62626 5.47776 2.64821L5.37897 2.71956C5.24175 2.81287 5.11277 2.91989 4.98104 3.02143L5.11826 3.18883C5.24724 3.09004 5.37073 2.98576 5.5052 2.8952L5.63693 3.07632C5.58753 3.11199 5.53813 3.14493 5.49148 3.18335L5.34878 3.29586L5.76591 3.82276L5.87568 3.73495C5.89215 3.72122 5.91136 3.7075 5.93057 3.69378L6.02936 3.62517L6.16109 3.8063C6.04583 3.88314 5.94154 3.9737 5.83177 4.05603C5.80433 4.07798 5.77963 4.09994 5.75219 4.12189L5.6726 4.1905C5.62046 4.23441 5.56832 4.28106 5.51892 4.32771L5.36524 4.16305L5.42562 4.10542L5.48874 4.05054L5.61223 3.94351L5.47227 3.77611L5.34329 3.88588L5.28017 3.94077L5.2198 3.9984L5.06337 4.14659C5.03319 4.17403 5.00574 4.20696 4.97556 4.23715L4.80816 4.07249C4.97007 3.90509 5.14296 3.74592 5.32134 3.59499L5.18138 3.42759L5.04416 3.54559L4.97556 3.60596L4.90969 3.66908L4.75601 3.50443C4.81364 3.4468 4.87676 3.39466 4.93714 3.34251L5.03044 3.26293C5.06063 3.23549 5.09082 3.20804 5.12375 3.18335L4.98653 3.01594C4.9536 3.04064 4.92342 3.07083 4.89048 3.09553L4.79718 3.17786C4.73406 3.23274 4.67094 3.28763 4.61057 3.34526L4.43493 3.51266C4.37456 3.57029 4.31967 3.63341 4.26204 3.69378L4.17697 3.78434C4.14678 3.81453 4.12209 3.84746 4.09464 3.87765L4.25655 4.0231C4.284 3.99291 4.3087 3.95998 4.33614 3.93253L4.42121 3.84472C4.47884 3.78709 4.53098 3.72671 4.59136 3.66908L4.75053 3.82825C4.66545 3.91332 4.58312 4.00114 4.5008 4.08896L4.99751 4.54176L5.09356 4.44023L5.14021 4.39083C5.16766 4.36339 5.1951 4.33045 5.22529 4.30576L5.38445 4.46492C5.33506 4.51432 5.2884 4.56372 5.24175 4.61312L5.1704 4.68721C5.1457 4.71191 5.12375 4.73935 5.10179 4.76405L4.96732 4.92048C4.92341 4.97262 4.88225 5.0275 4.83834 5.08239L4.65996 4.94517L4.7615 4.81619C4.77797 4.79424 4.79718 4.77503 4.81364 4.75307L4.86853 4.68996L4.70387 4.54725L4.64899 4.61037C4.62978 4.63233 4.61057 4.65154 4.5941 4.67623L4.48982 4.8107L4.42396 4.89578C4.402 4.92322 4.38279 4.95341 4.36084 4.98359L4.28949 5.08513L4.09739 4.95066L4.19892 4.80796L4.22362 4.77228L4.25107 4.73661L4.30595 4.668L4.41572 4.53079C4.43219 4.50609 4.45414 4.48688 4.47335 4.46218L4.53098 4.39632L4.36633 4.25362L4.30595 4.32222C4.28674 4.34418 4.26479 4.36888 4.24832 4.39083L4.13581 4.53353L3.95743 4.39632C4.00683 4.3332 4.05622 4.26734 4.10836 4.20696L4.26753 4.0231L4.10562 3.87765L3.94096 4.067C3.88882 4.13012 3.83668 4.19873 3.78454 4.26185L3.71044 4.3579C3.68574 4.39083 3.66379 4.42376 3.63909 4.45669L3.49365 4.65977C3.44699 4.72838 3.40308 4.79973 3.35643 4.87108L3.5403 4.98908C3.58421 4.92048 3.62812 4.85187 3.67202 4.78601L3.81198 4.58842L3.9931 4.72014L3.88882 4.86833C3.87236 4.89303 3.85315 4.91773 3.83668 4.94243L3.78728 5.01927L4.34986 5.387C4.37456 5.34858 4.39926 5.30742 4.4267 5.269L4.46512 5.21411L4.53373 5.11532L4.71485 5.24704L4.5941 5.41719C4.55568 5.47482 4.52001 5.53245 4.48159 5.59008L4.4267 5.6779C4.40749 5.70808 4.39102 5.73827 4.37456 5.76846L4.27028 5.94684L4.07269 5.83981C4.12757 5.7465 4.17971 5.65045 4.23734 5.5544L4.05073 5.44189C3.9931 5.53794 3.93822 5.63673 3.88059 5.73553C3.84766 5.79864 3.81473 5.86176 3.78179 5.92763L3.72416 6.0374L3.51285 5.93586C3.56774 5.83158 3.61988 5.72729 3.67477 5.62301C3.7324 5.52147 3.79003 5.41993 3.8504 5.3184L3.66379 5.20588C3.60067 5.31016 3.54304 5.41445 3.48267 5.51873L3.28508 5.4117L3.40583 5.20039C3.42778 5.16472 3.44425 5.12904 3.4662 5.09611L3.53207 4.99457L3.3482 4.87931L3.27959 4.98359C3.25764 5.01927 3.23843 5.05494 3.21647 5.09062L3.09298 5.30742C3.05456 5.37877 3.01888 5.45012 2.98046 5.52422L2.92283 5.63673C2.90362 5.67515 2.88716 5.71357 2.87069 5.74925L2.76641 5.97702L2.96674 6.0621L3.06828 5.83981C3.08475 5.80413 3.10121 5.76571 3.12042 5.73004L3.17531 5.62027L3.37564 5.7218L3.33448 5.80139C3.32076 5.82883 3.30703 5.85628 3.29606 5.88372L3.22196 6.04837L3.83394 6.32006L3.89157 6.19108C3.8998 6.17187 3.91078 6.14991 3.91901 6.1307L3.97389 6.02368L4.17423 6.12521L4.12757 6.21852C4.11111 6.24871 4.09739 6.28164 4.08367 6.31182L3.99859 6.50118C3.97115 6.5643 3.94645 6.63016 3.92175 6.69328L3.88333 6.78933C3.86961 6.82226 3.86138 6.85519 3.8504 6.88812L3.63909 6.81403L3.66653 6.73719L3.69672 6.66035L3.7571 6.50667L3.55402 6.42434L3.4909 6.58351L3.46071 6.66309L3.43327 6.74268L3.36466 6.94575L3.35369 6.97594L3.34545 7.00613L3.32899 7.0665L3.10396 7.00064C3.16982 6.77561 3.2494 6.55607 3.33722 6.33927L3.13414 6.25694L3.06828 6.42434L3.03535 6.50941L3.00516 6.59449L2.79385 6.52039C2.80757 6.48197 2.81855 6.44355 2.83502 6.40513L2.87893 6.29262C2.90911 6.21852 2.93656 6.14168 2.96949 6.06758L2.76916 5.98251C2.73622 6.05935 2.70604 6.13894 2.67585 6.21578L2.6292 6.33378C2.61273 6.3722 2.60175 6.41336 2.58803 6.45178L2.51119 6.6823C2.49747 6.72072 2.48649 6.76189 2.47552 6.80305L2.44259 6.9238C2.42063 7.00338 2.39593 7.08297 2.37947 7.1653L2.59078 7.21744C2.60724 7.13785 2.63194 7.06101 2.6539 6.98143L2.68683 6.86343C2.6978 6.82501 2.70878 6.78384 2.7225 6.74817L2.93656 6.81677C2.92558 6.84422 2.91735 6.8744 2.90911 6.90459L2.88441 6.99241L2.83502 7.1653L3.48541 7.33544L3.52383 7.20097L3.54304 7.13511L3.55951 7.07748L3.56774 7.04729L3.57872 7.01985L3.79277 7.08846C3.78179 7.12139 3.77356 7.15432 3.76258 7.18725L3.73514 7.28604C3.71593 7.35191 3.69672 7.41777 3.683 7.48638L3.63635 7.68671C3.62811 7.71964 3.62263 7.75532 3.61714 7.78825L3.59793 7.88979L3.37839 7.85137L3.40583 7.68945C3.41681 7.63731 3.43053 7.58243 3.4415 7.53029L3.23019 7.48089C3.21647 7.53577 3.2055 7.59066 3.19177 7.64555L3.10396 7.79922L3.08475 7.90625L3.07651 7.95839L3.06828 8.01053L3.05182 8.13403L2.81855 8.10384L2.84051 7.93095L2.87069 7.75806L2.90088 7.58517C2.91186 7.52754 2.92558 7.46991 2.9393 7.41503L2.72799 7.36563C2.71427 7.42326 2.70055 7.48363 2.68683 7.54126L2.6539 7.71964L2.43435 7.68122L2.45631 7.56047C2.46454 7.51931 2.47003 7.48089 2.48101 7.44247L2.53589 7.20646L2.32458 7.15432L2.26695 7.39856C2.25597 7.43972 2.25049 7.48089 2.24225 7.52205L2.2203 7.64555L2.19834 7.76629L2.18737 7.82667L2.17913 7.88704C2.15992 8.0517 2.13248 8.2191 2.12425 8.38376L2.34105 8.40022C2.34928 8.23831 2.37398 8.0764 2.39319 7.91723L2.61548 7.95016L2.59352 8.12854L2.58254 8.2191L2.57706 8.26301L2.57431 8.30692L3.24117 8.37003C3.24392 8.32338 3.25215 8.27673 3.25764 8.23008L3.26587 8.16421L3.28234 8.04347L3.50462 8.0764C3.48816 8.21361 3.4662 8.35083 3.46071 8.48804C3.45522 8.55665 3.44974 8.62525 3.44699 8.69386L3.4415 8.90243L3.21647 8.89968L3.22196 8.73502C3.22196 8.70758 3.22196 8.68014 3.22471 8.6527L3.23019 8.57037L3.0134 8.55665L3.00791 8.64172C3.00516 8.66916 3.00516 8.69935 3.00516 8.72679L2.99967 8.89694L2.99693 9.00396L2.99967 9.11099L3.00242 9.23448L2.76641 9.24272C2.76367 9.12471 2.75818 9.00945 2.76367 8.89145L2.76916 8.71581C2.76916 8.68563 2.76915 8.65818 2.7719 8.628L2.77739 8.54018L2.56059 8.52646L2.5551 8.61702C2.55236 8.64721 2.55236 8.67739 2.55236 8.70758L2.54687 8.8887L2.32184 8.88596L2.32733 8.64172C2.33007 8.55939 2.3383 8.47981 2.34379 8.40022L2.12699 8.38376C2.1215 8.46608 2.11327 8.55116 2.11053 8.63349L2.10504 8.88321L2.10229 9.00396L2.10504 9.12471L2.11053 9.37444C2.11327 9.45677 2.1215 9.54184 2.12699 9.62417L2.34379 9.60771C2.3383 9.52812 2.33007 9.44579 2.32733 9.36621L2.32184 9.12197L2.54687 9.11922L2.55236 9.30035C2.55236 9.33053 2.55236 9.36072 2.5551 9.39091L2.56059 9.48147L3.23019 9.43756C3.22745 9.39091 3.22196 9.34426 3.22196 9.2976L3.21922 9.229L3.21647 9.10825L3.4415 9.1055L3.44699 9.31407C3.44974 9.38267 3.45797 9.45128 3.46071 9.51989C3.46895 9.6571 3.48816 9.79432 3.50462 9.93153L3.28234 9.96446L3.26038 9.80255L3.2494 9.72022L3.24392 9.67906L3.24117 9.63789L3.02437 9.6571L3.02712 9.69827L3.03261 9.73943L3.04358 9.8245L3.06554 9.99191L3.07377 10.044L3.082 10.0962L3.10121 10.2032L3.12317 10.3267L2.89265 10.3734L2.86246 10.2005C2.85148 10.1428 2.84051 10.0852 2.83502 10.0276L2.81306 9.85469L2.80209 9.76687L2.7966 9.72297L2.79385 9.67906L2.57706 9.69827L2.5798 9.74217L2.58529 9.78608L2.59627 9.87665L2.61822 10.055L2.39593 10.088C2.37672 9.92604 2.35202 9.76687 2.34379 9.60496L2.12699 9.62143C2.13523 9.78883 2.15992 9.95348 2.18188 10.1181L2.19011 10.1785L2.20109 10.2389L2.22304 10.3596L2.245 10.4831C2.25323 10.5243 2.25872 10.5655 2.2697 10.6066L2.32733 10.8509L2.53864 10.7987L2.48375 10.5627C2.47277 10.5243 2.46728 10.4831 2.45905 10.4447L2.4371 10.324L2.65664 10.2855L2.68957 10.4639C2.70329 10.5216 2.71701 10.5819 2.73073 10.6396L3.38387 10.4886L3.35094 10.3514C3.34545 10.3295 3.34271 10.3075 3.33722 10.2855L3.31527 10.1675L3.53481 10.1291L3.55402 10.2307C3.55951 10.2636 3.565 10.2993 3.57323 10.3322L3.61988 10.5325C3.6336 10.6011 3.65556 10.667 3.67202 10.7329L3.69947 10.8317C3.71044 10.8646 3.71593 10.8975 3.72965 10.9304L3.5156 10.9991C3.50737 10.9744 3.49913 10.9469 3.4909 10.9195L3.46895 10.8399L3.42504 10.6807L3.21373 10.7356L3.26038 10.8975L3.28234 10.9798C3.29057 11.0073 3.29606 11.0347 3.30703 11.0622L3.37564 11.2652C3.38936 11.3037 3.40034 11.3448 3.4168 11.3833L3.19726 11.4656C3.18629 11.4381 3.17531 11.4107 3.16708 11.3833L3.13963 11.3009L3.08475 11.1335C3.07377 11.1061 3.06828 11.0786 3.06005 11.0485L3.03535 10.9634L2.9887 10.7932L2.77739 10.8481L2.82678 11.021L2.85148 11.1088C2.85972 11.139 2.86795 11.1665 2.87893 11.1966L2.66487 11.2652C2.65115 11.2268 2.64017 11.1884 2.6292 11.15L2.59627 11.032C2.57431 10.9524 2.54961 10.8756 2.53315 10.796L2.32184 10.8481C2.3383 10.9304 2.363 11.01 2.38496 11.0896L2.41789 11.2104C2.42886 11.2515 2.43984 11.2899 2.45356 11.3311L2.5304 11.5616C2.54412 11.6001 2.5551 11.6412 2.57157 11.6796L2.61822 11.7976C2.64841 11.8745 2.67859 11.9541 2.71153 12.0309L2.91186 11.9458C2.87893 11.8717 2.85148 11.7949 2.8213 11.7208L2.77739 11.6083C2.76092 11.5699 2.74995 11.5314 2.73622 11.493L2.94753 11.4189L2.97772 11.504L3.01065 11.5891L3.07651 11.7565L3.69672 11.5013L3.64458 11.3695L3.61988 11.3064C3.60342 11.268 3.59244 11.2296 3.57872 11.1939L3.79003 11.1198C3.801 11.1527 3.81198 11.1857 3.82296 11.2186L3.86138 11.3146C3.88608 11.3778 3.91078 11.4436 3.93822 11.5067L4.02329 11.6961C4.03701 11.7263 4.05073 11.7592 4.0672 11.7894L4.11385 11.8827L3.91352 11.9843L3.8751 11.9102C3.86138 11.8855 3.8504 11.8608 3.83942 11.8361L3.77082 11.6851L3.57048 11.7729L3.63909 11.9266C3.65007 11.9513 3.66379 11.9788 3.67477 12.0035L3.71319 12.0803C3.74612 12.1434 3.77905 12.2093 3.81198 12.2724L3.8751 12.3794L3.67202 12.4947C3.64458 12.4425 3.61165 12.3931 3.58695 12.341L3.50737 12.1846L3.4662 12.1077C3.45248 12.083 3.43876 12.0556 3.42778 12.0282L3.35643 11.869L3.1561 11.9568L3.23019 12.1215C3.24117 12.1489 3.25489 12.1764 3.26861 12.2038L3.30978 12.2834L3.10945 12.3849L3.05456 12.2751C3.03535 12.2395 3.02163 12.201 3.00242 12.1654L2.90088 11.9431L2.70055 12.0282L2.80483 12.2559C2.8213 12.2944 2.83776 12.3328 2.85697 12.3685L2.9146 12.481C2.95302 12.5523 2.9887 12.6264 3.02712 12.6978L3.15061 12.9146C3.17256 12.9502 3.19177 12.9887 3.21373 13.0216L3.28234 13.1259L3.4662 13.0079L3.40034 12.9063C3.37838 12.8734 3.35918 12.835 3.33997 12.802L3.21922 12.5907L3.4168 12.4837C3.47718 12.588 3.53481 12.6923 3.59793 12.7966L4.17148 12.4453C4.14678 12.4069 4.12483 12.3657 4.10013 12.3245L4.0672 12.2669L4.00683 12.1626L4.20441 12.0556L4.3087 12.234C4.32516 12.2642 4.34163 12.2944 4.36084 12.3245L4.41572 12.4124C4.45414 12.47 4.48982 12.5304 4.52824 12.5852L4.64899 12.7554L4.46786 12.8871L4.37181 12.7527C4.35535 12.7307 4.33888 12.7087 4.32516 12.684L4.28125 12.6154L4.10013 12.7362L4.14678 12.8075C4.16325 12.8322 4.17971 12.8542 4.19618 12.8761L4.29497 13.0134C4.31693 13.0435 4.33614 13.071 4.35809 13.1012L4.42396 13.1862L4.5008 13.285L4.31693 13.4332C4.17148 13.2521 4.03152 13.0628 3.90529 12.8652L3.72416 12.9859L3.77356 13.0628C3.79003 13.0875 3.80924 13.1122 3.8257 13.1368L3.92999 13.285L3.74886 13.4168L3.6089 13.2192C3.56225 13.1533 3.52109 13.082 3.47718 13.0161L3.29331 13.1314C3.33997 13.2027 3.38387 13.2713 3.43053 13.3427L3.57597 13.5457C3.60067 13.5787 3.62263 13.6116 3.64732 13.6445L3.72142 13.7406C3.77356 13.8065 3.82296 13.8723 3.87784 13.9354L4.0425 14.1248L4.20441 13.9793L4.04524 13.7955C3.9931 13.7324 3.94371 13.6692 3.89431 13.6061L4.07269 13.4689L4.1852 13.6116C4.20441 13.6363 4.22362 13.6583 4.24283 13.6802L4.30321 13.7488L4.8109 13.3125L4.72034 13.2055L4.67917 13.1533L4.60508 13.0573L4.78346 12.9201C4.82737 12.9749 4.86853 13.0298 4.91244 13.082L5.04691 13.2384C5.06886 13.2631 5.09082 13.2905 5.11551 13.3152L5.18687 13.3893C5.23626 13.4387 5.28017 13.4909 5.32957 13.5375L5.1704 13.6967C5.09356 13.6198 5.01946 13.5375 4.94262 13.4607L4.78071 13.6089C4.8603 13.6912 4.93714 13.7735 5.01672 13.8531L5.17314 14.0013C5.20333 14.0287 5.23352 14.0589 5.26371 14.0864L5.10728 14.262L5.07435 14.2346L5.04142 14.2044L4.9783 14.144L4.85206 14.0233C4.76974 13.9409 4.69015 13.8531 4.60782 13.7708L4.44591 13.919C4.52824 14.0068 4.61057 14.0946 4.69564 14.1797L4.53647 14.3388C4.47884 14.2812 4.42396 14.2208 4.36633 14.1632L4.28125 14.0754C4.25381 14.0452 4.22637 14.015 4.20167 13.9848L4.03976 14.1303C4.0672 14.1605 4.09464 14.1934 4.12209 14.2236L4.20716 14.3141C4.26479 14.3745 4.32242 14.4349 4.38005 14.4953L4.55568 14.6627C4.61606 14.7203 4.67917 14.7752 4.74229 14.8301L4.8356 14.9124C4.86853 14.9398 4.89872 14.9673 4.93165 14.992L5.06886 14.8246C5.03593 14.7999 5.00574 14.7724 4.97556 14.745L4.88225 14.6654C4.82188 14.6133 4.75876 14.5611 4.70113 14.5035L4.85481 14.3388L4.92067 14.402L4.98928 14.4623L5.12649 14.5803L5.56009 14.0672L5.45306 13.9739L5.40092 13.9299C5.37073 13.9052 5.34055 13.8751 5.3131 13.8476L5.46678 13.683C5.51618 13.7324 5.56832 13.7763 5.62046 13.8202L5.70005 13.8888C5.72749 13.9107 5.75219 13.9354 5.77963 13.9546C5.8894 14.0397 5.99368 14.1275 6.10894 14.2044L5.97722 14.3855C5.93331 14.3526 5.88666 14.3224 5.84275 14.2894L5.71377 14.1879L5.5793 14.3581L5.71377 14.4623C5.75768 14.498 5.80433 14.5282 5.85098 14.5611L5.9388 14.6242C5.96899 14.6435 5.99643 14.6654 6.02662 14.6846L6.1309 14.7532L6.00466 14.9508C5.95526 14.9179 5.90587 14.8877 5.85647 14.8548L5.71377 14.7532C5.66711 14.7176 5.61772 14.6874 5.57106 14.6517L5.43385 14.5419L5.29938 14.7121L5.44208 14.8246C5.48874 14.8603 5.54088 14.8959 5.58753 14.9316L5.45581 15.1127C5.32134 15.0222 5.1951 14.9179 5.06886 14.8191L4.93165 14.9865C5.06337 15.088 5.19235 15.1951 5.32957 15.2884L5.42836 15.3597C5.46129 15.3817 5.49422 15.4064 5.52716 15.4283C5.66711 15.5189 5.80707 15.6122 5.95252 15.6918L6.06229 15.7549C6.09797 15.7768 6.13364 15.7961 6.17206 15.8153L6.39435 15.9305C6.4657 15.9689 6.5398 15.9991 6.61389 16.0348L6.72915 16.087C6.76757 16.1034 6.80599 16.1226 6.84441 16.1363L7.07767 16.2297L7.15451 16.0266L6.92674 15.936C6.88832 15.9223 6.85264 15.9031 6.81422 15.8866L6.70445 15.8372L6.79776 15.6341L6.96242 15.7082C7.0173 15.7329 7.07493 15.7521 7.12982 15.7768L7.3768 15.1539L7.24508 15.1018C7.22312 15.0935 7.20391 15.0825 7.1847 15.0743L7.07493 15.0249L7.16824 14.8218L7.26154 14.8657C7.29447 14.8795 7.32466 14.8959 7.35759 14.9069L7.54969 14.9837C7.61281 15.0112 7.67867 15.0304 7.74453 15.0524C7.8104 15.0743 7.87352 15.099 7.94212 15.1182L7.87626 15.3323C7.77198 15.2993 7.6677 15.2637 7.56341 15.228L7.48932 15.4338C7.59634 15.4695 7.70337 15.5079 7.8104 15.5408L8.01622 15.5985L8.07659 15.6149L8.10678 15.6232L8.13697 15.6314L8.07934 15.8592C8.05189 15.8537 8.02171 15.8455 7.99426 15.8372L7.90919 15.8125L7.73905 15.7659C7.62653 15.7302 7.51676 15.6918 7.40699 15.6534L7.33289 15.8592C7.44815 15.8976 7.56067 15.9388 7.67593 15.9744L7.61007 16.1885C7.53323 16.1665 7.45639 16.1363 7.37955 16.1116C7.30271 16.0842 7.22587 16.0595 7.14903 16.0293L7.07219 16.2324C7.14903 16.2653 7.22861 16.29 7.30819 16.3175C7.38778 16.3449 7.46736 16.3724 7.54695 16.3971L7.78021 16.4629C7.82137 16.4739 7.85979 16.4876 7.90096 16.4958L8.02171 16.5233C8.10404 16.5425 8.18362 16.5617 8.26595 16.5782L8.30986 16.3641C8.23027 16.3477 8.15069 16.3284 8.0711 16.3092L7.9531 16.2818C7.91468 16.2736 7.87352 16.2598 7.8351 16.2489L7.89273 16.0321L7.98054 16.0568C8.01073 16.065 8.03817 16.0705 8.06836 16.0787L8.24399 16.1199L8.3867 15.464L8.24948 15.4311L8.18362 15.4146L8.15343 15.4091L8.12325 15.4009L8.06562 15.3844L8.12325 15.1676C8.15618 15.1758 8.18911 15.1868 8.22204 15.1951L8.32358 15.217C8.39219 15.2335 8.45805 15.2499 8.52666 15.2637L8.72973 15.2993L8.83127 15.3186L8.93281 15.3323L8.90262 15.5546C8.79285 15.5436 8.68582 15.5216 8.5788 15.5024L8.53763 15.7165C8.65015 15.7357 8.75992 15.7576 8.87243 15.7714L9.08649 15.7988C9.12765 15.8043 9.16882 15.8043 9.20998 15.8098L9.19077 16.043C9.07277 16.0376 8.95751 16.0183 8.84225 16.0046C8.72699 15.9936 8.61173 15.9689 8.49647 15.9497L8.4553 16.1638C8.57331 16.183 8.69131 16.2077 8.81206 16.2214L8.78187 16.4437L8.66112 16.4272L8.54038 16.4053L8.30162 16.3614L8.25772 16.5754L8.5047 16.6193L8.62819 16.6413L8.75169 16.6578L8.99318 16.6879C9.07551 16.6962 9.16058 16.7017 9.24291 16.7072C9.32524 16.7126 9.41031 16.7209 9.49264 16.7209L9.50087 16.5041C9.41855 16.5041 9.33896 16.4958 9.25938 16.4904C9.17979 16.4849 9.09747 16.4794 9.01788 16.4711L9.03983 16.2489C9.16058 16.2598 9.28133 16.2681 9.39934 16.2763L9.43501 15.6067L9.29505 15.5957L9.22645 15.5902C9.18528 15.5875 9.14686 15.5847 9.1057 15.5793L9.12765 15.357C9.19626 15.3652 9.26487 15.3679 9.33347 15.3734C9.40208 15.3789 9.47069 15.3844 9.53929 15.3844L9.74786 15.3899H9.79451H9.84391L10.0525 15.3844C10.1211 15.3844 10.1897 15.3762 10.2583 15.3734C10.3269 15.3679 10.3955 15.3652 10.4641 15.357L10.4861 15.5793C10.3763 15.5902 10.2665 15.5957 10.1595 15.604L10.1705 15.8208C10.283 15.8125 10.3955 15.8043 10.508 15.7933L10.7221 15.7659C10.7632 15.7604 10.8044 15.7549 10.8456 15.7494L10.8812 15.9827C10.766 15.9991 10.648 16.0129 10.5327 16.0266C10.4175 16.0376 10.2995 16.0458 10.1815 16.054L10.1924 16.2708C10.3132 16.2626 10.4339 16.2544 10.5519 16.2434L10.5739 16.4657C10.4943 16.4739 10.412 16.4794 10.3324 16.4849C10.2528 16.4904 10.1705 16.4986 10.0909 16.4986L10.0991 16.7154C10.2199 16.7209 10.3049 16.7126 10.3873 16.7072ZM12.5443 2.73328L12.6376 2.51649L12.7968 2.58784L12.8763 2.62351C12.9038 2.63449 12.9285 2.65096 12.9559 2.66193L13.1123 2.74152L13.1892 2.78268L13.266 2.82659L13.3731 2.63723L13.2935 2.59333L13.2139 2.55216L13.052 2.46983L13.1508 2.2695L13.3676 2.37927C13.4032 2.39848 13.4389 2.41769 13.4746 2.4369L13.5789 2.49728C13.7216 2.57412 13.856 2.66742 13.9933 2.75249L13.8698 2.9391L13.7161 2.84031L13.6392 2.79091L13.6008 2.76622L13.5624 2.74426L13.2166 3.32056C13.2578 3.34251 13.2962 3.36996 13.3346 3.39466L13.3923 3.43033L13.4938 3.49619L13.3703 3.6828C13.2523 3.60871 13.1398 3.53187 13.019 3.46601L12.9285 3.41387C12.8983 3.3974 12.8681 3.37819 12.8379 3.36447L12.6541 3.27116L12.7528 3.07083L12.8983 3.14493L12.9724 3.18335L13.0437 3.22451L13.1508 3.03515L13.0767 2.99399L12.9998 2.95557L12.8489 2.87873C12.7858 2.8458 12.7199 2.81836 12.6541 2.78817L12.5443 2.73328ZM7.11061 15.2692L7.0173 15.486L6.85813 15.4146L6.77855 15.3789C6.75111 15.3679 6.72641 15.3515 6.69896 15.3405L6.54254 15.2609L6.4657 15.2198L6.38886 15.1758L6.28183 15.3652L6.36142 15.4091L6.441 15.4503L6.60291 15.5326L6.50412 15.7329L6.28732 15.6232C6.25165 15.604 6.21597 15.5847 6.1803 15.5655L6.07601 15.5052C5.93331 15.4283 5.79884 15.335 5.66163 15.2499L5.78512 15.0633L5.9388 15.1621L6.01564 15.2115L6.05406 15.2362L6.09248 15.2582L6.43826 14.6819C6.39709 14.6599 6.35867 14.6325 6.32025 14.6078L6.26262 14.5721L6.16109 14.5062L6.28458 14.3196C6.40258 14.3937 6.5151 14.4706 6.63585 14.5364L6.72641 14.5886C6.75659 14.605 6.78678 14.6242 6.81697 14.638L7.00083 14.7313L6.90204 14.9316L6.75659 14.8575L6.6825 14.8191L6.61115 14.7779L6.50412 14.9673L6.57822 15.0084L6.65506 15.0469L6.80599 15.1237C6.86911 15.1566 6.93497 15.1841 7.00083 15.2143L7.11061 15.2692ZM10.4751 15.1402C10.4092 15.1457 10.3434 15.1511 10.2748 15.1566C10.2089 15.1621 10.143 15.1676 10.0744 15.1676L9.8741 15.1731H9.82744H9.77805L9.57771 15.1676C9.51185 15.1676 9.44324 15.1594 9.37738 15.1566C9.31152 15.1511 9.24291 15.1484 9.17705 15.1402L8.98495 15.1155L8.88616 15.1018L8.78736 15.0853L8.58977 15.0496C8.52391 15.0359 8.46079 15.0194 8.39493 15.0057L8.29614 14.9837C8.2632 14.9755 8.23302 14.9645 8.20009 14.9563L8.01347 14.9042C7.95036 14.885 7.88724 14.863 7.82412 14.841C7.761 14.8191 7.69788 14.7999 7.63476 14.7724L7.44815 14.6983C7.41797 14.6874 7.38778 14.6709 7.35759 14.6572L7.26703 14.616C7.2094 14.5886 7.14903 14.5639 7.0914 14.5337L6.91302 14.4431C6.88283 14.4294 6.85539 14.4102 6.8252 14.3937L6.73738 14.3443C6.61938 14.2812 6.50961 14.2044 6.39709 14.133C6.36965 14.1166 6.34495 14.0973 6.31751 14.0781L6.23793 14.0205C6.12815 13.9464 6.02387 13.8586 5.91959 13.779C5.89215 13.7598 5.86745 13.7351 5.84275 13.7131L5.76591 13.6473C5.71651 13.6034 5.66437 13.5595 5.61772 13.5128L5.47776 13.3783C5.43111 13.3317 5.38445 13.2823 5.3378 13.2329L5.26919 13.1615C5.2445 13.1368 5.22529 13.1122 5.20333 13.0875L5.07161 12.9365C5.0277 12.8844 4.98928 12.8322 4.94811 12.7801L4.88774 12.7033C4.86853 12.6786 4.84932 12.6511 4.83011 12.6237L4.71485 12.4618C4.67643 12.4069 4.6435 12.3492 4.60508 12.2944L4.55019 12.2093C4.53098 12.1818 4.51726 12.1517 4.5008 12.1242L4.402 11.9513C4.37181 11.8937 4.34163 11.8361 4.31418 11.7784L4.26753 11.6906C4.25107 11.6604 4.24009 11.6302 4.22637 11.6001L4.14404 11.4189C4.1166 11.3586 4.09464 11.2954 4.06994 11.2323L4.03427 11.139C4.02055 11.1088 4.01231 11.0759 4.00134 11.0457L3.93822 10.8618C3.92724 10.8317 3.91901 10.7987 3.91078 10.7658L3.88333 10.6697C3.86687 10.6066 3.84491 10.5408 3.83119 10.4776L3.78728 10.2828C3.77905 10.2499 3.77356 10.2169 3.76807 10.184L3.75161 10.0852L3.73514 9.98916L3.72691 9.94251L3.72142 9.89311C3.70495 9.76138 3.68574 9.62966 3.67751 9.49519C3.67202 9.42933 3.66653 9.36346 3.66379 9.29486L3.6583 9.09452L3.65556 8.99848L3.6583 8.90243L3.66379 8.70209C3.66653 8.63623 3.67477 8.56762 3.67751 8.50176C3.683 8.36729 3.70495 8.23557 3.72142 8.10384L3.72691 8.05444L3.73514 8.00779L3.75161 7.91174L3.76807 7.81295C3.77356 7.78001 3.77905 7.74708 3.78728 7.71415L3.83119 7.51931C3.84491 7.45345 3.86412 7.39033 3.88333 7.32721L3.91078 7.23116C3.91901 7.19823 3.92724 7.16804 3.93822 7.13511L4.00134 6.95124C4.01231 6.92106 4.02055 6.88812 4.03427 6.85794L4.06994 6.76463C4.09464 6.70151 4.1166 6.64114 4.14404 6.57802L4.22637 6.3969C4.24009 6.36671 4.25381 6.33652 4.26753 6.30634L4.31418 6.21852C4.34437 6.16089 4.37181 6.10326 4.402 6.04563L4.5008 5.87274C4.51726 5.8453 4.53373 5.81511 4.55019 5.78767L4.60508 5.7026C4.64075 5.64771 4.67643 5.59008 4.71485 5.53519L4.83011 5.37328C4.84932 5.34584 4.86579 5.32114 4.88774 5.2937L4.94811 5.21686C4.98928 5.16472 5.03044 5.11258 5.07161 5.06043L5.20333 4.9095C5.22529 4.8848 5.24724 4.85736 5.26919 4.8354L5.3378 4.76405C5.38445 4.7174 5.42836 4.66526 5.47776 4.6186L5.61772 4.48413C5.66437 4.43748 5.71651 4.39357 5.76591 4.34966L5.84275 4.2838C5.86745 4.26185 5.89215 4.23989 5.91959 4.21794C6.02387 4.13561 6.12815 4.05054 6.23793 3.97644L6.31751 3.91881C6.34495 3.8996 6.36965 3.88039 6.39709 3.86393C6.50961 3.79258 6.61938 3.71848 6.73738 3.65262L6.8252 3.60322C6.85539 3.58676 6.88283 3.57029 6.91302 3.55382L7.0914 3.46326C7.14903 3.43308 7.20666 3.40838 7.26703 3.38093L7.35759 3.33977C7.38778 3.32605 7.41797 3.31233 7.44815 3.29861L7.63476 3.22451C7.69514 3.19981 7.761 3.17786 7.82412 3.1559C7.88724 3.13395 7.95036 3.11199 8.01347 3.09278L8.20009 3.04064C8.23302 3.03241 8.2632 3.02143 8.29614 3.0132L8.39493 2.99125C8.46079 2.97752 8.52391 2.96106 8.58977 2.94734L8.78736 2.91166L8.88616 2.8952L8.98495 2.88148L9.17705 2.85678C9.24291 2.85129 9.30877 2.8458 9.37738 2.84031C9.44324 2.83482 9.50911 2.82933 9.57771 2.82933L9.77805 2.82385H9.8247H9.8741L10.0744 2.82933C10.1403 2.82933 10.2089 2.83757 10.2748 2.84031C10.3406 2.8458 10.4092 2.84854 10.4751 2.85678L10.6672 2.88148L10.766 2.8952L10.8648 2.91166L11.0624 2.94734C11.1282 2.96106 11.1913 2.97752 11.2572 2.99125L11.356 3.0132C11.3889 3.02143 11.4191 3.03241 11.4521 3.04064L11.6387 3.09278C11.7018 3.11199 11.7649 3.13395 11.828 3.1559C11.8911 3.17786 11.9543 3.19707 12.0174 3.22451L12.204 3.29861C12.2342 3.30958 12.2644 3.32605 12.2946 3.33977L12.3851 3.38093C12.4427 3.40838 12.5031 3.43308 12.5607 3.46326L12.7391 3.55382C12.7693 3.56755 12.7968 3.58676 12.8269 3.60322L12.9148 3.65262C13.0328 3.71574 13.1425 3.79258 13.2551 3.86393C13.2825 3.88039 13.3072 3.8996 13.3346 3.91881L13.4142 3.97644C13.524 4.05054 13.6283 4.13836 13.7326 4.21794C13.76 4.23715 13.7847 4.26185 13.8094 4.2838L13.8862 4.34966C13.9356 4.39357 13.9878 4.43748 14.0344 4.48413L14.1744 4.6186C14.221 4.66526 14.2677 4.71465 14.3143 4.76405L14.3829 4.8354C14.4076 4.8601 14.4269 4.8848 14.4488 4.9095L14.5805 5.06043C14.6244 5.11258 14.6629 5.16472 14.704 5.21686L14.7644 5.2937C14.7836 5.3184 14.8028 5.34584 14.822 5.37328L14.9373 5.53519C14.9757 5.59008 15.0086 5.64771 15.0471 5.7026L15.102 5.78767C15.1212 5.81511 15.1349 5.8453 15.1513 5.87274L15.2501 6.04563C15.2803 6.10326 15.3105 6.16089 15.338 6.21852L15.3846 6.30634C15.4011 6.33652 15.4121 6.36671 15.4258 6.3969L15.5081 6.57802C15.5355 6.63839 15.5575 6.70151 15.5822 6.76463L15.6179 6.85794C15.6316 6.88812 15.6398 6.92106 15.6508 6.95124L15.7139 7.13511C15.7249 7.1653 15.7331 7.19823 15.7414 7.23116L15.7688 7.32721C15.7853 7.39033 15.8072 7.45619 15.821 7.51931L15.8649 7.71415C15.8731 7.74708 15.8786 7.78001 15.8841 7.81295L15.9005 7.91174L15.917 8.00779L15.9252 8.05444L15.9307 8.10384C15.9472 8.23557 15.9664 8.36729 15.9746 8.50176C15.9801 8.56762 15.9856 8.63349 15.9884 8.70209L15.9938 8.90243L15.9966 8.99848L15.9938 9.09452L15.9884 9.29486C15.9856 9.36072 15.9774 9.42933 15.9746 9.49519C15.9691 9.62966 15.9472 9.76138 15.9307 9.89311L15.9252 9.94251L15.917 9.98916L15.9005 10.0852L15.8841 10.184C15.8786 10.2169 15.8731 10.2499 15.8649 10.2828L15.821 10.4776C15.8072 10.5435 15.788 10.6066 15.7688 10.6697L15.7414 10.7658C15.7331 10.7987 15.7249 10.8289 15.7139 10.8618L15.6508 11.0457C15.6398 11.0759 15.6316 11.1088 15.6179 11.139L15.5822 11.2323C15.5575 11.2954 15.5355 11.3558 15.5081 11.4189L15.4258 11.6001C15.4121 11.6302 15.3983 11.6604 15.3846 11.6906L15.338 11.7784C15.3078 11.8361 15.2803 11.8937 15.2501 11.9513L15.1513 12.1242C15.1349 12.1517 15.1184 12.1818 15.102 12.2093L15.0471 12.2944C15.0114 12.3492 14.9757 12.4069 14.9373 12.4618L14.822 12.6237C14.8028 12.6511 14.7864 12.6758 14.7644 12.7033L14.704 12.7801C14.6629 12.8322 14.6217 12.8844 14.5805 12.9365L14.4488 13.0875C14.4269 13.1122 14.4049 13.1396 14.3829 13.1615L14.3143 13.2329C14.2677 13.2796 14.2238 13.3317 14.1744 13.3783L14.0344 13.5128C13.9878 13.5595 13.9356 13.6034 13.8862 13.6473L13.8094 13.7131C13.7847 13.7351 13.76 13.7571 13.7326 13.779C13.6283 13.8613 13.524 13.9464 13.4142 14.0205L13.3346 14.0781C13.3072 14.0973 13.2825 14.1166 13.2551 14.133C13.1425 14.2044 13.0328 14.2785 12.9148 14.3443L12.8269 14.3937C12.7968 14.4102 12.7693 14.4267 12.7391 14.4431L12.5607 14.5337C12.5031 14.5639 12.4455 14.5886 12.3851 14.616L12.2946 14.6572C12.2644 14.6709 12.2342 14.6846 12.204 14.6983L12.0174 14.7724C11.957 14.7971 11.8911 14.8191 11.828 14.841C11.7649 14.863 11.7018 14.885 11.6387 14.9042L11.4521 14.9563C11.4191 14.9645 11.3889 14.9755 11.356 14.9837L11.2572 15.0057C11.1913 15.0194 11.1282 15.0359 11.0624 15.0496L10.8648 15.0853L10.766 15.1018L10.6672 15.1155L10.4751 15.1402Z" fill="#E9993E"/>
<path d="M11.1408 0.986811L11.1064 1.1814L11.301 1.21572L11.3354 1.02113L11.1408 0.986811Z" fill="#E9993E"/>
<path d="M11.2909 0.12083L11.1741 0.782959L11.3687 0.81728L11.4854 0.155151L11.2909 0.12083Z" fill="#E9993E"/>
<path d="M12.5126 1.33429L12.4451 1.51996L12.6307 1.58753L12.6983 1.40186L12.5126 1.33429Z" fill="#E9993E"/>
<path d="M12.8115 0.509185L12.5815 1.14099L12.7672 1.20857L12.9972 0.57676L12.8115 0.509185Z" fill="#E9993E"/>
<path d="M13.8009 1.9191L13.7021 2.09021L13.8733 2.189L13.9721 2.01789L13.8009 1.9191Z" fill="#E9993E"/>
<path d="M14.2424 1.15713L13.9062 1.73938L14.0774 1.83817L14.4135 1.25592L14.2424 1.15713Z" fill="#E9993E"/>
<path d="M14.971 2.71602L14.844 2.86737L14.9953 2.99438L15.1224 2.84303L14.971 2.71602Z" fill="#E9993E"/>
<path d="M15.5364 2.04217L15.1042 2.55719L15.2556 2.6842L15.6878 2.16918L15.5364 2.04217Z" fill="#E9993E"/>
<path d="M15.9851 3.70557L15.8337 3.83258L15.9607 3.98395L16.1121 3.85694L15.9851 3.70557Z" fill="#E9993E"/>
<path d="M16.6584 3.13849L16.1433 3.57068L16.2703 3.72205L16.7854 3.28987L16.6584 3.13849Z" fill="#E9993E"/>
<path d="M16.8125 4.85274L16.6414 4.95154L16.7402 5.12267L16.9113 5.02388L16.8125 4.85274Z" fill="#E9993E"/>
<path d="M17.572 4.41407L16.9897 4.75024L17.0885 4.92136L17.6708 4.58518L17.572 4.41407Z" fill="#E9993E"/>
<path d="M17.4249 6.13067L17.2393 6.19824L17.3068 6.38392L17.4925 6.31634L17.4249 6.13067Z" fill="#E9993E"/>
<path d="M18.25 5.8292L17.6182 6.05914L17.6857 6.24482L18.3175 6.01487L18.25 5.8292Z" fill="#E9993E"/>
<path d="M17.8084 7.49205L17.6138 7.52637L17.6481 7.72095L17.8427 7.68663L17.8084 7.49205Z" fill="#E9993E"/>
<path d="M18.6741 7.34092L18.012 7.45764L18.0463 7.65223L18.7084 7.53551L18.6741 7.34092Z" fill="#E9993E"/>
<path d="M17.9478 8.90283H17.7502V9.10042H17.9478V8.90283Z" fill="#E9993E"/>
<path d="M18.8286 8.90283H18.1562V9.10042H18.8286V8.90283Z" fill="#E9993E"/>
<path d="M17.6473 10.2806L17.613 10.4752L17.8076 10.5095L17.8419 10.3149L17.6473 10.2806Z" fill="#E9993E"/>
<path d="M18.0448 10.3519L18.0105 10.5465L18.6726 10.6632L18.7069 10.4686L18.0448 10.3519Z" fill="#E9993E"/>
<path d="M17.3061 11.6189L17.2385 11.8046L17.4242 11.8721L17.4918 11.6865L17.3061 11.6189Z" fill="#E9993E"/>
<path d="M17.6874 11.7577L17.6199 11.9434L18.2517 12.1734L18.3193 11.9877L17.6874 11.7577Z" fill="#E9993E"/>
<path d="M16.7389 12.8789L16.6401 13.05L16.8112 13.1488L16.91 12.9777L16.7389 12.8789Z" fill="#E9993E"/>
<path d="M17.0876 13.081L16.9888 13.2521L17.571 13.5882L17.6698 13.4171L17.0876 13.081Z" fill="#E9993E"/>
<path d="M15.9617 14.0214L15.8347 14.1727L15.9861 14.2997L16.1131 14.1484L15.9617 14.0214Z" fill="#E9993E"/>
<path d="M16.2674 14.2814L16.1404 14.4328L16.6554 14.865L16.7824 14.7136L16.2674 14.2814Z" fill="#E9993E"/>
<path d="M14.9971 15.0089L14.8457 15.1359L14.9727 15.2872L15.1241 15.1602L14.9971 15.0089Z" fill="#E9993E"/>
<path d="M15.2539 15.3165L15.1025 15.4435L15.5347 15.9586L15.6861 15.8316L15.2539 15.3165Z" fill="#E9993E"/>
<path d="M13.8725 15.8151L13.7014 15.9139L13.8002 16.0851L13.9713 15.9863L13.8725 15.8151Z" fill="#E9993E"/>
<path d="M14.0744 16.1651L13.9033 16.2639L14.2395 16.8461L14.4106 16.7473L14.0744 16.1651Z" fill="#E9993E"/>
<path d="M12.6307 16.4157L12.4451 16.4833L12.5126 16.669L12.6983 16.6014L12.6307 16.4157Z" fill="#E9993E"/>
<path d="M12.7689 16.7949L12.5833 16.8625L12.8132 17.4943L12.9989 17.4267L12.7689 16.7949Z" fill="#E9993E"/>
<path d="M11.2991 16.7893L11.1045 16.8237L11.1388 17.0183L11.3334 16.9839L11.2991 16.7893Z" fill="#E9993E"/>
<path d="M11.3687 17.1866L11.1741 17.2209L11.2908 17.8831L11.4854 17.8488L11.3687 17.1866Z" fill="#E9993E"/>
<path d="M9.92659 16.9266H9.83054H9.8278H9.729V17.1242H9.8278H9.83054H9.92659V16.9266Z" fill="#E9993E"/>
<path d="M9.92659 18.0052V17.3301H9.83054H9.729V18.0052H9.8278H9.92659Z" fill="#E9993E"/>
</svg>
