<svg width="161" height="162" viewBox="0 0 161 162" fill="none" xmlns="http://www.w3.org/2000/svg">
<path d="M67.5164 76.4995V61.9702H71.4677V72.8672H78.4624V76.4995H67.5164Z" fill="#FFF6D2"/>
<path d="M90.292 76.4995L89.3348 73.7262H83.9109L82.9537 76.4995H78.8306L84.3281 61.9702H88.9667L94.4643 76.4995H90.292ZM88.0832 70.2166L86.6106 65.9216L85.1135 70.2166H88.0832Z" fill="#FFF6D2"/>
<path d="M51.269 84.2059L46.7041 86.7338C45.7715 85.1385 44.3971 84.3286 42.5318 84.3286C39.8812 84.3286 37.9669 86.3411 37.9669 89.2371C37.9669 92.4768 40.2248 94.1457 42.5564 94.1457C44.3725 94.1457 45.796 93.3358 46.8268 91.765L51.0481 94.7101C49.2565 97.3853 46.3605 99.0787 42.6055 99.0787C36.7398 99.0787 32.592 95.0292 32.592 89.2371C32.592 83.4451 36.7398 79.3955 42.6055 79.3955C46.3359 79.3955 49.6001 81.1871 51.269 84.2059Z" fill="#FFF6D2"/>
<path d="M66.2894 98.7106L65.0377 95.1028H57.9449L56.6932 98.7106H51.3184L58.4848 79.7637H64.5469L71.7133 98.7106H66.2894ZM63.4424 90.5134L61.5036 84.9176L59.5647 90.5134H63.4424Z" fill="#FFF6D2"/>
<path d="M81.4322 99.0789C75.9837 99.0789 73.0386 96.1583 73.0386 91.0043V79.7883H78.1925V90.8571C78.1925 93.0414 79.4197 94.1703 81.4322 94.1703C83.4447 94.1703 84.6718 93.0414 84.6718 90.8571V79.7883H89.8258V91.0043C89.8258 96.1338 86.8806 99.0789 81.4322 99.0789Z" fill="#FFF6D2"/>
<path d="M100.649 84.034C99.2743 84.034 98.219 84.4021 98.219 85.2611C98.219 86.3164 100.158 86.4637 102.097 86.8073L102.71 86.93C106.662 87.6908 108.625 89.5561 108.625 92.4766C108.625 97.287 104.576 99.0541 100.551 99.0541C97.1391 99.0541 94.0713 98.2442 91.887 96.698L94.4149 92.5012C95.9365 93.3847 97.7281 94.4401 100.624 94.4401C101.999 94.4401 103.029 94.0719 103.029 93.1148C103.029 92.133 101.827 91.9367 99.4952 91.544L98.7835 91.4213C94.4149 90.6605 92.5987 88.8198 92.6969 85.4329C92.795 81.8006 95.8138 79.3708 100.379 79.3708C102.858 79.3708 105.091 79.6163 108.38 81.3588L106.171 85.5801C104.845 84.942 103.005 84.034 100.649 84.034Z" fill="#FFF6D2"/>
<path d="M123.572 98.7106L122.32 95.1028H115.227L113.975 98.7106H108.601L115.767 79.7637H121.829L128.996 98.7106H123.572ZM120.7 90.5134L118.761 84.9176L116.822 90.5134H120.7Z" fill="#FFF6D2"/>
<path d="M78.9295 143.673L78.8804 145.612L80.5002 145.661H80.5247L82.1446 145.612L81.9973 139.623L80.7456 139.648C80.672 139.648 80.5984 139.648 80.5247 139.648L79.0522 139.599L79.0031 141.538L80.5247 141.587V143.697L78.9295 143.673Z" fill="#FFF6D2"/>
<path d="M77.8002 13.4249L79.9845 13.3758L80.4999 13.3512L81.0153 13.3758L83.1996 13.4249L83.2732 11.486L81.0398 11.4124H80.5244H79.9599L77.7266 11.486L77.8002 13.4249Z" fill="#FFF6D2"/>
<path d="M67.3361 150.141L67.0293 151.881L68.7695 152.188L69.0763 150.448L67.3361 150.141Z" fill="#FFF6D2"/>
<path d="M66.7008 153.723L65.657 159.644L67.3972 159.951L68.441 154.029L66.7008 153.723Z" fill="#FFF6D2"/>
<path d="M55.441 146.814L54.8367 148.474L56.4972 149.078L57.1015 147.418L55.441 146.814Z" fill="#FFF6D2"/>
<path d="M54.1939 150.197L52.1375 155.847L53.798 156.451L55.8544 150.801L54.1939 150.197Z" fill="#FFF6D2"/>
<path d="M44.2895 141.454L43.406 142.985L44.9363 143.868L45.8198 142.338L44.2895 141.454Z" fill="#FFF6D2"/>
<path d="M42.4992 144.583L39.4927 149.79L41.023 150.673L44.0294 145.466L42.4992 144.583Z" fill="#FFF6D2"/>
<path d="M34.2684 134.239L33.1326 135.592L34.4861 136.728L35.622 135.375L34.2684 134.239Z" fill="#FFF6D2"/>
<path d="M31.9559 137.005L28.0908 141.612L29.4446 142.748L33.3097 138.141L31.9559 137.005Z" fill="#FFF6D2"/>
<path d="M25.6682 125.392L24.3145 126.528L25.4503 127.882L26.8041 126.746L25.6682 125.392Z" fill="#FFF6D2"/>
<path d="M22.8801 127.705L18.2742 131.57L19.41 132.924L24.016 129.059L22.8801 127.705Z" fill="#FFF6D2"/>
<path d="M18.6785 115.176L17.1482 116.06L18.0317 117.59L19.562 116.706L18.6785 115.176Z" fill="#FFF6D2"/>
<path d="M15.5507 116.984L10.3435 119.991L11.227 121.521L16.4343 118.515L15.5507 116.984Z" fill="#FFF6D2"/>
<path d="M13.6078 103.91L11.9473 104.514L12.5516 106.174L14.2121 105.57L13.6078 103.91Z" fill="#FFF6D2"/>
<path d="M10.2124 105.149L4.56201 107.205L5.16635 108.866L10.8167 106.809L10.2124 105.149Z" fill="#FFF6D2"/>
<path d="M10.5525 91.9462L8.81226 92.2529L9.11902 93.9931L10.8592 93.6864L10.5525 91.9462Z" fill="#FFF6D2"/>
<path d="M6.99285 92.5569L1.07129 93.6013L1.37823 95.3415L7.29979 94.2971L6.99285 92.5569Z" fill="#FFF6D2"/>
<path d="M9.64525 79.6165H7.87817V81.3835H9.64525V79.6165Z" fill="#FFF6D2"/>
<path d="M6.01296 79.6165H0V81.3835H6.01296V79.6165Z" fill="#FFF6D2"/>
<path d="M9.11553 67.0242L8.80859 68.7644L10.5488 69.0713L10.8558 67.3311L9.11553 67.0242Z" fill="#FFF6D2"/>
<path d="M1.3739 65.6477L1.06714 67.3879L6.9887 68.4318L7.29546 66.6916L1.3739 65.6477Z" fill="#FFF6D2"/>
<path d="M12.5482 54.8278L11.9438 56.4883L13.6044 57.0926L14.2087 55.4321L12.5482 54.8278Z" fill="#FFF6D2"/>
<path d="M5.16928 52.1486L4.56494 53.8091L10.2153 55.8655L10.8197 54.205L5.16928 52.1486Z" fill="#FFF6D2"/>
<path d="M18.0312 43.4238L17.1477 44.9541L18.678 45.8376L19.5615 44.3074L18.0312 43.4238Z" fill="#FFF6D2"/>
<path d="M11.238 39.489L10.3545 41.0193L15.5617 44.0258L16.4453 42.4955L11.238 39.489Z" fill="#FFF6D2"/>
<path d="M25.4457 33.1296L24.3098 34.4834L25.6636 35.6193L26.7994 34.2655L25.4457 33.1296Z" fill="#FFF6D2"/>
<path d="M19.4201 28.0723L18.2842 29.426L22.8907 33.2912L24.0266 31.9374L19.4201 28.0723Z" fill="#FFF6D2"/>
<path d="M34.4922 24.2831L33.1384 25.4189L34.2743 26.7727L35.6281 25.6368L34.4922 24.2831Z" fill="#FFF6D2"/>
<path d="M29.4464 18.2662L28.0928 19.4021L31.9579 24.008L33.3115 22.8721L29.4464 18.2662Z" fill="#FFF6D2"/>
<path d="M44.9407 17.1546L43.4104 18.0381L44.2939 19.5684L45.8242 18.6848L44.9407 17.1546Z" fill="#FFF6D2"/>
<path d="M41.0286 10.3379L39.4983 11.2214L42.5048 16.4287L44.0351 15.5451L41.0286 10.3379Z" fill="#FFF6D2"/>
<path d="M56.4889 11.9521L54.8284 12.5564L55.4327 14.2169L57.0932 13.6126L56.4889 11.9521Z" fill="#FFF6D2"/>
<path d="M53.7926 4.54996L52.1321 5.1543L54.1885 10.8047L55.849 10.2003L53.7926 4.54996Z" fill="#FFF6D2"/>
<path d="M68.7724 8.81921L67.0322 9.12598L67.339 10.8662L69.0792 10.5594L68.7724 8.81921Z" fill="#FFF6D2"/>
<path d="M67.3987 1.06635L65.6584 1.37329L66.7029 7.29485L68.4431 6.98791L67.3987 1.06635Z" fill="#FFF6D2"/>
<path d="M79.6165 9.62083H80.5H80.5245H81.3835V7.85376H80.5245H80.5H79.6165V9.62083Z" fill="#FFF6D2"/>
<path d="M79.6165 0V6.01296H80.5H81.3835V0H80.5245H79.6165Z" fill="#FFF6D2"/>
<path d="M82.0711 17.3517L82.1201 15.4129L80.5003 15.3638H80.4758L78.856 15.4129L79.0278 21.4013L80.2794 21.3767C80.3531 21.3767 80.4267 21.3767 80.5003 21.3767L81.9729 21.4258L82.022 19.4869L80.5003 19.4379V17.3272L82.0711 17.3517Z" fill="#FFF6D2"/>
<path d="M83.1996 147.6L81.0153 147.649H80.5244H79.9845L77.8002 147.6L77.7266 149.539L79.9599 149.588L80.4999 149.612L81.0398 149.588L83.2732 149.539L83.1996 147.6Z" fill="#FFF6D2"/>
<path d="M85.5067 149.416C86.243 149.367 87.0038 149.318 87.7401 149.244L89.8998 148.974L91.0043 148.827L92.1087 148.63L94.3175 148.238L93.9249 146.323L91.7896 146.716L90.7098 146.912L89.6299 147.06L89.3599 145.072C90.4398 144.949 91.4951 144.728 92.5505 144.556L91.446 138.666L90.2189 138.887L89.6299 138.985C89.2863 139.034 88.9181 139.083 88.55 139.132L88.28 137.144L89.1881 137.022L90.0962 136.85L91.9124 136.531C92.5259 136.408 93.1149 136.261 93.7285 136.114L94.6366 135.917C94.9311 135.844 95.2256 135.746 95.5201 135.672L96.0355 137.611L95.3238 137.807C95.0784 137.881 94.8575 137.93 94.612 137.979L93.1886 138.298L93.6058 140.212L95.0784 139.869C95.3238 139.82 95.5692 139.771 95.8146 139.697L96.5509 139.501L98.3916 138.985C98.7598 138.887 99.1034 138.764 99.447 138.642L100.11 140.654L99.3733 140.9C99.1279 140.973 98.8825 141.047 98.6125 141.12L97.0909 141.538L96.33 141.759C96.0846 141.832 95.8146 141.881 95.5692 141.93L94.0476 142.274L94.4648 144.188L96.0355 143.82C96.3055 143.746 96.5509 143.697 96.8209 143.624L97.6063 143.403L98.1216 145.342C97.778 145.44 97.4345 145.538 97.0663 145.636L96.011 145.882C95.2992 146.053 94.5875 146.201 93.8758 146.373L94.2684 148.287C95.0047 148.14 95.7165 147.968 96.4527 147.796L97.5326 147.551C97.9008 147.452 98.2444 147.354 98.6125 147.256L100.699 146.667C101.41 146.446 102.122 146.201 102.834 145.955C103.546 145.71 104.257 145.489 104.945 145.195L104.257 143.378C103.595 143.648 102.883 143.869 102.196 144.115C101.509 144.335 100.821 144.581 100.134 144.802L99.5451 142.887C100.576 142.568 101.582 142.2 102.613 141.857L100.576 136.212L99.3979 136.605L98.8334 136.801C98.4898 136.899 98.1462 137.046 97.8026 137.144L97.2136 135.23C97.8026 135.058 98.3916 134.837 98.9806 134.641C99.5697 134.445 100.159 134.248 100.723 134.028L102.441 133.34C102.736 133.242 103.006 133.095 103.3 132.972L104.135 132.58L104.969 134.396L103.619 135.009C103.177 135.206 102.711 135.377 102.245 135.549L102.957 137.365C103.423 137.169 103.889 136.997 104.355 136.801L105.73 136.187C106.319 135.917 106.908 135.672 107.472 135.377L108.454 134.862L109.411 136.727L108.012 137.439C107.546 137.684 107.055 137.881 106.589 138.102L105.165 138.74C104.675 138.936 104.184 139.132 103.717 139.329L104.429 141.145C104.92 140.949 105.435 140.752 105.926 140.531L107.399 139.869L108.233 141.685L107.252 142.127C106.908 142.274 106.589 142.446 106.245 142.568L104.208 143.378L104.895 145.195L106.982 144.36C107.325 144.237 107.669 144.066 108.012 143.918L109.043 143.452C109.706 143.157 110.368 142.863 111.007 142.519L112.995 141.489C113.338 141.317 113.657 141.12 113.976 140.949L114.958 140.384L113.976 138.691L113.044 139.231C112.725 139.402 112.405 139.599 112.086 139.746L110.148 140.728L109.264 138.936L110.712 138.2L111.424 137.832L112.136 137.439L109.215 132.187L108.675 132.506C108.503 132.604 108.307 132.702 108.111 132.8L107.571 133.07L106.613 133.561L105.73 131.77L107.374 130.935C107.644 130.812 107.914 130.641 108.184 130.493L108.994 130.027C110.074 129.438 111.105 128.726 112.136 128.088L113.24 129.757L112.013 130.543L111.399 130.935L111.08 131.132L110.761 131.303L111.767 132.972L112.086 132.776L112.405 132.58L113.044 132.162L114.32 131.352C114.59 131.181 114.86 130.984 115.105 130.812L115.891 130.248L116.799 129.61L118.05 131.303L116.774 132.211L116.136 132.678C115.915 132.825 115.719 132.972 115.498 133.119L114.173 133.978L113.51 134.396L113.191 134.617L112.847 134.813L113.854 136.482L114.197 136.285L114.541 136.065L115.228 135.623L116.578 134.739L117.682 136.408C116.455 137.194 115.252 138.003 113.976 138.691L114.958 140.384C116.259 139.672 117.51 138.838 118.762 138.028C119.081 137.832 119.351 137.611 119.646 137.414L120.529 136.776C121.756 135.942 122.91 134.985 124.088 134.077L122.861 132.58C121.707 133.463 120.603 134.396 119.4 135.206L118.222 133.586C118.664 133.267 119.106 132.972 119.523 132.629L120.799 131.622L117.069 126.91L116.087 127.696C115.94 127.818 115.768 127.941 115.596 128.064L114.713 128.677L113.534 127.057C114.565 126.37 115.498 125.56 116.48 124.824C116.725 124.628 116.946 124.431 117.191 124.235L117.903 123.621C118.369 123.229 118.836 122.812 119.277 122.394L120.652 123.867L120.112 124.382L119.547 124.873L118.443 125.83L119.695 127.327L120.848 126.346L121.413 125.855L121.953 125.339L123.352 124.014C123.621 123.769 123.867 123.474 124.137 123.204L125.634 124.677C124.186 126.174 122.64 127.597 121.045 128.947L122.296 130.444L123.523 129.389L124.137 128.849L124.726 128.285L126.1 129.757C125.585 130.273 125.02 130.739 124.48 131.205L123.646 131.917C123.376 132.162 123.106 132.408 122.812 132.629L124.039 134.126C124.333 133.905 124.603 133.635 124.898 133.414L125.732 132.678C126.297 132.187 126.861 131.696 127.401 131.181L128.972 129.684C129.512 129.168 130.003 128.604 130.518 128.064L131.279 127.254C131.549 126.984 131.77 126.689 132.015 126.419L130.567 125.119C130.322 125.389 130.101 125.683 129.855 125.928L129.095 126.714C128.579 127.229 128.113 127.769 127.573 128.285L126.149 126.861C126.91 126.1 127.646 125.315 128.383 124.53L123.941 120.48L123.082 121.388L122.664 121.83C122.419 122.075 122.173 122.37 121.904 122.591L120.48 121.167C120.922 120.725 121.339 120.284 121.756 119.842L122.394 119.179C122.615 118.958 122.812 118.713 123.008 118.492L124.211 117.093C124.603 116.627 124.971 116.136 125.364 115.645L126.959 116.872L126.051 118.026C125.904 118.222 125.732 118.394 125.585 118.59L125.094 119.155L126.567 120.431L127.057 119.866C127.229 119.67 127.401 119.498 127.548 119.277L128.481 118.075L129.07 117.314C129.266 117.069 129.438 116.799 129.634 116.529L130.273 115.621L131.991 116.823L131.082 118.099L130.862 118.418L130.616 118.737L130.125 119.351L129.144 120.578C128.996 120.799 128.8 120.971 128.628 121.192L128.113 121.781L129.585 123.057L130.125 122.443C130.297 122.247 130.493 122.026 130.641 121.83L131.647 120.554L133.242 121.781C132.8 122.345 132.359 122.934 131.892 123.474L130.469 125.119L131.917 126.419L133.389 124.726C133.856 124.161 134.322 123.548 134.788 122.983L135.451 122.124C135.672 121.83 135.868 121.535 136.089 121.241L137.39 119.425C137.807 118.811 138.2 118.173 138.617 117.535L136.973 116.504C136.58 117.118 136.187 117.731 135.795 118.32L134.543 120.087L132.923 118.909L133.856 117.584C134.003 117.363 134.175 117.142 134.322 116.921L134.764 116.234L129.733 112.945C129.512 113.289 129.291 113.657 129.045 114.001L128.702 114.492L128.088 115.375L126.468 114.197L127.548 112.675C127.892 112.16 128.211 111.645 128.555 111.129L129.045 110.344C129.217 110.074 129.364 109.804 129.512 109.534L130.444 107.939L132.211 108.896C131.721 109.73 131.254 110.589 130.739 111.448L132.408 112.455C132.923 111.596 133.414 110.712 133.929 109.828C134.224 109.264 134.518 108.7 134.813 108.11L135.328 107.129L137.218 108.037C136.727 108.969 136.261 109.902 135.77 110.835C135.255 111.743 134.739 112.651 134.199 113.559L135.868 114.565C136.433 113.633 136.948 112.7 137.488 111.767L139.255 112.725L138.175 114.614C138.004 114.933 137.832 115.252 137.635 115.547L137.046 116.455L138.691 117.486L139.304 116.553C139.501 116.234 139.672 115.915 139.869 115.596L140.973 113.657C141.317 113.019 141.636 112.381 141.979 111.718L142.495 110.712C142.667 110.368 142.814 110.025 142.961 109.706L143.894 107.669L142.102 106.908L141.194 108.896C141.047 109.215 140.9 109.559 140.728 109.878L140.237 110.859L138.445 109.951L138.813 109.239C138.936 108.994 139.059 108.749 139.157 108.503L139.82 107.031L134.347 104.601L133.831 105.754C133.758 105.926 133.659 106.123 133.586 106.294L133.095 107.252L131.303 106.343L131.721 105.509C131.868 105.239 131.991 104.944 132.113 104.675L132.874 102.981C133.12 102.417 133.34 101.828 133.561 101.263L133.905 100.404C134.028 100.11 134.101 99.8151 134.199 99.5206L136.089 100.183L135.844 100.87L135.574 101.558L135.034 102.932L136.85 103.668L137.414 102.245L137.684 101.533L137.93 100.821L138.543 99.0052L138.642 98.7352L138.715 98.4652L138.862 97.9253L140.875 98.5143C140.286 100.527 139.574 102.49 138.789 104.429L140.58 105.165L141.17 103.668L141.464 102.907L141.734 102.147L143.624 102.809C143.501 103.153 143.403 103.496 143.256 103.84L142.863 104.846C142.593 105.509 142.348 106.196 142.053 106.859L143.845 107.62C144.139 106.932 144.409 106.221 144.679 105.534L145.096 104.478C145.244 104.135 145.342 103.766 145.464 103.423L146.152 101.361C146.274 101.018 146.373 100.65 146.471 100.281L146.765 99.2015C146.962 98.4898 147.182 97.778 147.33 97.0417L145.44 96.5754C145.293 97.2872 145.072 97.9744 144.875 98.6861L144.581 99.7414C144.483 100.085 144.385 100.453 144.262 100.772L142.348 100.159C142.446 99.9132 142.519 99.6433 142.593 99.3733L142.814 98.5879L143.256 97.0417L137.439 95.5201L137.095 96.7227L136.924 97.3117L136.776 97.8271L136.703 98.0971L136.605 98.3425L134.69 97.7289C134.788 97.4344 134.862 97.1399 134.96 96.8454L135.206 95.9619C135.377 95.3728 135.549 94.7838 135.672 94.1702L136.089 92.3786C136.163 92.0841 136.212 91.7651 136.261 91.4706L136.433 90.5625L138.396 90.9061L138.151 92.3541C138.053 92.8204 137.93 93.3113 137.832 93.7776L139.721 94.2193C139.844 93.7285 139.942 93.2376 140.065 92.7468L140.335 91.2497L140.507 90.2925L140.58 89.8262L140.654 89.3599L140.801 88.2555L142.887 88.5254L142.691 90.0716L142.421 91.6178L142.151 93.164C142.053 93.6794 141.93 94.1948 141.808 94.6857L143.697 95.1274C143.82 94.612 143.943 94.0721 144.066 93.5567L144.36 91.9614L146.323 92.305L146.127 93.3849C146.054 93.753 146.004 94.0966 145.906 94.4402L145.415 96.5509L147.305 97.0172L147.821 94.8329C147.919 94.4648 147.968 94.0966 148.041 93.7285L148.238 92.6241L148.434 91.5442L148.532 91.0043L148.606 90.4643C148.778 88.9918 149.023 87.4946 149.097 86.0221L147.158 85.8748C147.084 87.3228 146.863 88.7709 146.692 90.1943L144.704 89.8998L144.9 88.3046L144.998 87.4946L145.047 87.102L145.072 86.7093L139.108 86.1448C139.083 86.562 139.01 86.9793 138.961 87.3965L138.887 87.9855L138.74 89.0654L136.752 88.7709C136.899 87.5437 137.095 86.3166 137.145 85.0895C137.194 84.4759 137.243 83.8623 137.267 83.2488L137.316 81.3835L139.329 81.4081L139.28 82.8806C139.28 83.126 139.28 83.3715 139.255 83.6169L139.206 84.3532L141.145 84.4759L141.194 83.7151C141.219 83.4697 141.219 83.1997 141.219 82.9542L141.268 81.4326L141.292 80.4754L141.268 79.5183L141.243 78.4138L143.354 78.3402C143.378 79.3956 143.427 80.4263 143.378 81.4817L143.329 83.0524C143.329 83.3224 143.329 83.5678 143.305 83.8378L143.256 84.6232L145.195 84.7459L145.244 83.936C145.268 83.666 145.268 83.396 145.268 83.126L145.317 81.5062L147.33 81.5308L147.281 83.7151C147.256 84.4268 147.182 85.1631 147.133 85.8748L149.072 86.0221C149.121 85.2858 149.195 84.525 149.22 83.7887L149.269 81.5553L149.293 80.4754L149.269 79.3956L149.22 77.1622C149.195 76.4259 149.121 75.6651 149.072 74.9288L147.133 75.076C147.182 75.7878 147.256 76.5241 147.281 77.2358L147.33 79.4201L145.317 79.4446L145.268 77.8248C145.268 77.5549 145.268 77.2849 145.244 77.0149L145.195 76.205L139.206 76.5977C139.231 77.0149 139.28 77.4321 139.28 77.8494L139.304 78.4629L139.329 79.5428L137.316 79.5674L137.267 77.7021C137.243 77.0886 137.169 76.475 137.145 75.8614C137.071 74.6343 136.899 73.4071 136.752 72.18L138.74 71.8855L138.936 73.3335L139.034 74.0698L139.083 74.4379L139.108 74.8061L141.047 74.6343L141.022 74.2661L140.973 73.898L140.875 73.1372L140.679 71.6401L140.605 71.1738L140.531 70.7075L140.63 69.7503L140.433 68.6459L142.495 68.2286L142.765 69.7748C142.863 70.2902 142.961 70.8056 143.01 71.321L143.207 72.8672L143.305 73.6526L143.354 74.0453L143.378 74.4379L145.317 74.2661L145.293 73.8735L145.244 73.4808L145.145 72.6709L144.949 71.0756L146.937 70.7811C147.109 72.2291 147.33 73.6526 147.403 75.1006L149.342 74.9533C149.269 73.4562 149.048 71.9837 148.851 70.5111L148.778 69.9712L148.68 69.4312L148.483 68.3513L148.287 67.2469C148.213 66.8788 148.164 66.5107 148.066 66.1425L147.551 63.9582L145.661 64.4245L146.152 66.5352C146.25 66.8788 146.299 67.2469 146.373 67.6151L146.569 68.695L144.605 69.0386L144.311 67.4433C144.188 66.9279 144.066 66.3879 143.943 65.8725L138.102 67.2224L138.396 68.4495C138.445 68.6459 138.47 68.8422 138.519 69.0386L138.715 70.0939L136.752 70.4375L136.58 69.5294C136.531 69.2349 136.482 68.9158 136.408 68.6213L135.991 66.8297C135.868 66.2161 135.672 65.6271 135.525 65.0381L135.279 64.1546C135.181 63.86 135.132 63.5655 135.009 63.271L136.924 62.6575C136.997 62.8783 137.071 63.1238 137.145 63.3692L137.341 64.0809L137.734 65.5044L139.623 65.0135L139.206 63.5655L139.01 62.8292C138.936 62.5838 138.887 62.3384 138.789 62.093L138.175 60.2768C138.053 59.9332 137.954 59.5651 137.807 59.2215L139.771 58.4852C139.869 58.7306 139.967 58.9761 140.041 59.2215L140.286 59.9578L140.777 61.4549C140.875 61.7003 140.924 61.9457 140.998 62.2157L141.219 62.9765L141.636 64.4982L143.526 64.0073L143.084 62.4611L142.863 61.6757C142.789 61.4058 142.716 61.1603 142.618 60.8904L144.532 60.2768C144.655 60.6204 144.753 60.964 144.851 61.3076L145.145 62.3629C145.342 63.0747 145.563 63.7619 145.71 64.4736L147.6 64.0073C147.452 63.271 147.232 62.5593 147.035 61.8475L146.741 60.7677C146.643 60.3995 146.544 60.0559 146.422 59.6878L145.734 57.6262C145.612 57.2826 145.514 56.9145 145.366 56.5709L144.949 55.5155C144.679 54.8283 144.409 54.1166 144.115 53.4294L142.323 54.1902C142.618 54.8529 142.863 55.5401 143.133 56.2027L143.526 57.209C143.673 57.5526 143.771 57.8962 143.894 58.2398L142.004 58.9024L141.734 58.1416L141.439 57.3808L140.85 55.8837L135.304 58.1661L135.77 59.3442L135.991 59.9087C136.138 60.2523 136.236 60.5959 136.359 60.9149L134.469 61.5776C134.371 61.2831 134.273 60.9885 134.175 60.694L133.831 59.835C133.61 59.2706 133.389 58.6815 133.144 58.1171L132.383 56.4236C132.261 56.1536 132.138 55.8591 131.991 55.5892L131.573 54.7547L133.365 53.8466L133.709 54.5093C133.831 54.7302 133.929 54.951 134.028 55.1719L134.641 56.5218L136.433 55.7364L135.819 54.362C135.721 54.1411 135.598 53.8957 135.5 53.6748L135.157 52.9876C134.862 52.4232 134.568 51.8341 134.273 51.2696L133.709 50.3125L135.525 49.2817C135.77 49.748 136.065 50.1898 136.286 50.6561L136.997 52.055L137.365 52.7422C137.488 52.9631 137.611 53.2085 137.709 53.4539L138.347 54.8774L140.139 54.0921L139.476 52.6195C139.378 52.3741 139.255 52.1286 139.132 51.8832L138.764 51.1715L140.556 50.2634L141.047 51.2451C141.219 51.5642 141.341 51.9078 141.513 52.2268L142.421 54.2148L144.213 53.4539L143.28 51.4169C143.133 51.0733 142.986 50.7297 142.814 50.4107L142.298 49.4044C141.955 48.7663 141.636 48.1036 141.292 47.4655L140.188 45.5267C139.991 45.2076 139.82 44.864 139.623 44.5695L139.01 43.6369L137.365 44.6677L137.954 45.5757C138.151 45.8703 138.323 46.2139 138.494 46.5084L139.574 48.3982L137.807 49.3553C137.267 48.4227 136.752 47.4901 136.187 46.5574L131.058 49.6989C131.279 50.0425 131.475 50.4107 131.696 50.7788L131.991 51.2942L132.53 52.2268L130.763 53.184L129.831 51.5887C129.684 51.3187 129.536 51.0488 129.364 50.7788L128.874 49.9934C128.53 49.478 128.211 48.9381 127.867 48.4472L126.787 46.9256L128.407 45.7475L129.266 46.9501C129.414 47.1465 129.561 47.3428 129.684 47.5637L130.076 48.1773L131.696 47.0974L131.279 46.4593C131.132 46.2384 130.984 46.0421 130.837 45.8457L129.954 44.6186C129.757 44.3486 129.585 44.1032 129.389 43.8332L128.8 43.0724L128.113 42.1889L129.757 40.8635C131.058 42.4834 132.31 44.1768 133.439 45.9439L135.058 44.864L134.617 44.1768C134.469 43.9559 134.298 43.735 134.15 43.5142L133.218 42.1889L134.838 41.0108L136.089 42.7779C136.506 43.3669 136.875 44.005 137.267 44.594L138.912 43.5387C138.494 42.9006 138.102 42.287 137.684 41.6489L136.384 39.8328C136.163 39.5382 135.966 39.2437 135.746 38.9492L135.083 38.0902C134.617 37.5012 134.175 36.9122 133.684 36.3477L132.211 34.6542L130.763 35.955L132.187 37.5994C132.653 38.1639 133.095 38.7283 133.537 39.2928L131.941 40.5199L130.935 39.2437C130.763 39.0228 130.592 38.8265 130.42 38.6302L129.88 38.0166L125.339 41.9189L126.149 42.876L126.518 43.3424L127.18 44.2014L125.585 45.4285C125.192 44.9376 124.824 44.4468 124.431 43.9805L123.229 42.5815C123.032 42.3607 122.836 42.1152 122.615 41.8943L121.977 41.2317C121.535 40.7899 121.143 40.3236 120.701 39.9064L122.124 38.4829C122.812 39.1701 123.474 39.9064 124.161 40.5936L125.609 39.2683C124.898 38.532 124.211 37.7957 123.499 37.084L122.1 35.7587C121.83 35.5132 121.56 35.2433 121.29 34.9978L122.689 33.4271L122.983 33.6725L123.278 33.9425L123.842 34.4825L124.971 35.5623C125.708 36.2986 126.419 37.084 127.156 37.8203L128.604 36.495C127.867 35.7096 127.131 34.9242 126.37 34.1634L127.794 32.7399C128.309 33.2553 128.8 33.7953 129.315 34.3107L130.076 35.096C130.322 35.366 130.567 35.636 130.788 35.9059L132.236 34.6052C131.991 34.3352 131.745 34.0407 131.5 33.7707L130.739 32.9608C130.223 32.4209 129.708 31.8809 129.193 31.341L127.622 29.8439C127.082 29.3285 126.518 28.8376 125.953 28.3468L125.119 27.6105C124.824 27.3651 124.554 27.1196 124.26 26.8988L123.032 28.3959C123.327 28.6167 123.597 28.8622 123.867 29.1076L124.701 29.8193C125.241 30.2857 125.806 30.752 126.321 31.2674L124.947 32.7399L124.358 32.1754L123.744 31.6355L122.517 30.5802L118.639 35.1696L119.596 36.0041L120.063 36.3968C120.333 36.6177 120.603 36.8876 120.848 37.1331L119.474 38.6056C119.032 38.1639 118.566 37.7712 118.099 37.3785L117.388 36.7649C117.142 36.5686 116.921 36.3477 116.676 36.1759C115.694 35.4151 114.762 34.6297 113.731 33.9425L114.909 32.3227C115.302 32.6172 115.719 32.8872 116.111 33.1817L117.265 34.0898L118.468 32.5681L117.265 31.6355C116.872 31.3164 116.455 31.0465 116.038 30.752L115.252 30.1875C114.982 30.0157 114.737 29.8193 114.467 29.6475L113.534 29.034L114.663 27.2669C115.105 27.5614 115.547 27.8314 115.989 28.1259L117.265 29.034C117.682 29.353 118.124 29.623 118.541 29.9421L119.768 30.9238L120.971 29.4021L119.695 28.3959C119.277 28.0768 118.811 27.7578 118.394 27.4387L119.572 25.8189C120.775 26.6288 121.904 27.5614 123.032 28.445L124.26 26.9478C123.082 26.0398 121.928 25.0826 120.701 24.2482L119.817 23.61C119.523 23.4137 119.228 23.1928 118.934 22.9965C117.682 22.1866 116.43 21.3521 115.13 20.6404L114.148 20.0759C113.829 19.8796 113.51 19.7078 113.166 19.536L111.178 18.5052C110.54 18.1616 109.878 17.8916 109.215 17.5725L108.184 17.1062C107.841 16.959 107.497 16.7872 107.153 16.6645L105.067 15.83L104.306 17.7198L106.343 18.5297C106.687 18.6524 107.006 18.8242 107.35 18.9715L108.331 19.4132L107.497 21.2294L106.024 20.5668C105.534 20.3459 105.018 20.1741 104.527 19.9532L102.318 25.5244L103.496 25.9907C103.693 26.0643 103.865 26.1625 104.036 26.2361L105.018 26.6779L104.184 28.494L103.349 28.1014C103.055 27.9786 102.785 27.8314 102.49 27.7332L100.772 27.046C100.208 26.8006 99.6188 26.6288 99.0297 26.4325C98.4407 26.2361 97.8762 26.0152 97.2626 25.8434L97.8517 23.9291C98.7843 24.2236 99.7169 24.5427 100.65 24.8617L101.312 23.021C100.355 22.702 99.3979 22.3584 98.4407 22.0639L96.6 21.5485L96.0601 21.4012L95.7901 21.3276L95.5201 21.2539L96.0355 19.2169C96.2809 19.266 96.5509 19.3396 96.7963 19.4132L97.5572 19.6341L99.0788 20.0514C100.085 20.3704 101.067 20.714 102.048 21.0576L102.711 19.2169C101.68 18.8733 100.674 18.5052 99.6433 18.1861L100.232 16.2718C100.92 16.4681 101.607 16.7381 102.294 16.959C102.981 17.2044 103.668 17.4253 104.355 17.6953L105.043 15.8791C104.355 15.5846 103.644 15.3637 102.932 15.1183C102.22 14.8728 101.509 14.6274 100.797 14.4065L98.7107 13.8175C98.3425 13.7193 97.9989 13.5966 97.6308 13.523L96.5509 13.2776C95.8146 13.1058 95.1029 12.934 94.3666 12.7867L93.9739 14.701C94.6857 14.8483 95.3974 15.0201 96.1091 15.1919L97.1645 15.4373C97.5081 15.511 97.8762 15.6337 98.2198 15.7318L97.7044 17.6707L96.9191 17.4498C96.6491 17.3762 96.4037 17.3271 96.1337 17.2535L94.563 16.8853L93.2867 22.751L94.5139 23.0456L95.1029 23.1928L95.3729 23.2419L95.6428 23.3155L96.1582 23.4628L95.6428 25.4017C95.3483 25.328 95.0538 25.2299 94.7593 25.1562L93.8512 24.9599C93.2377 24.8126 92.6486 24.6654 92.0351 24.5427L90.2189 24.2236L89.3108 24.0518L88.4027 23.9291L88.6727 21.9411C89.6544 22.0393 90.6116 22.2357 91.5687 22.4075L91.9369 20.4931C90.9306 20.3213 89.9489 20.125 88.9427 20.0023L87.0284 19.7568C86.6602 19.7078 86.2921 19.7078 85.9239 19.6587L86.0957 17.5725C87.1511 17.6216 88.1819 17.7934 89.2127 17.9161C90.2434 18.0143 91.2742 18.2352 92.305 18.407L92.6732 16.4927C91.6178 16.3209 90.5625 16.1 89.4826 15.9773L89.7526 13.9893L90.8325 14.1366L91.9124 14.3329L94.0476 14.7256L94.4402 12.8113L92.2314 12.4186L91.127 12.2222L90.0226 12.075L87.8628 11.805C87.1265 11.7314 86.3657 11.6823 85.6294 11.6332C84.8932 11.5841 84.1323 11.5105 83.396 11.5105L83.3224 13.4494C84.0587 13.4494 84.7704 13.523 85.4822 13.5721C86.1939 13.6212 86.9302 13.6703 87.6419 13.7439L87.4456 15.7318C86.3657 15.6337 85.2858 15.56 84.2305 15.4864L83.9114 21.4748L85.1631 21.573L85.7767 21.6221C86.1448 21.6466 86.4884 21.6712 86.8566 21.7203L86.6602 23.7082C86.0466 23.6346 85.4331 23.61 84.8195 23.561C84.2059 23.5119 83.5924 23.4628 82.9788 23.4628L81.1136 23.4137H80.6963H80.2546L78.3893 23.4628C77.7758 23.4628 77.1622 23.5364 76.5486 23.561C75.9351 23.61 75.3215 23.6346 74.7079 23.7082L74.5116 21.7203C75.4933 21.6221 76.475 21.573 77.4322 21.4994L77.334 19.5605C76.3278 19.6341 75.3215 19.7078 74.3152 19.8059L72.4009 20.0514C72.0328 20.1004 71.6646 20.1495 71.2965 20.1986L70.9774 18.1125C72.0082 17.9652 73.0636 17.8425 74.0944 17.7198C75.1252 17.6216 76.1805 17.548 77.2358 17.4744L77.1376 15.5355C76.0578 15.6091 74.9779 15.6828 73.9226 15.7809L73.7262 13.793C74.438 13.7193 75.1742 13.6703 75.886 13.6212C76.5977 13.5721 77.334 13.4985 78.0457 13.4985L77.9721 11.5596C77.2358 11.5596 76.475 11.6332 75.7387 11.6823C75.0024 11.7314 74.2416 11.7805 73.5053 11.8541L71.3456 12.1241L70.2412 12.2713L69.1367 12.4677L66.9279 12.8603L67.3206 14.7747L69.4558 14.382L70.5357 14.1857L71.6156 14.0384L71.8855 16.0264C70.8056 16.1491 69.7503 16.3699 68.695 16.5417L69.7994 22.432L71.0265 22.2111L71.6156 22.1129C71.9591 22.0639 72.3273 22.0148 72.6954 21.9657L72.9654 23.9536L72.0573 24.0764L71.1492 24.2482L69.3331 24.5672C68.7195 24.6899 68.1305 24.8372 67.5169 24.9844L66.6088 25.1808C66.3143 25.2544 66.0198 25.3526 65.7253 25.4262L65.2099 23.4873L65.9216 23.291C66.1671 23.2174 66.388 23.1683 66.6334 23.1192L68.0569 22.8001L67.6396 20.8858L66.1671 21.2294C65.9216 21.2785 65.6762 21.3276 65.4308 21.4012L64.6945 21.5975L62.8538 22.1129C62.4857 22.2111 62.1421 22.3338 61.7985 22.4565L61.1358 20.444L61.8721 20.1986C62.1175 20.125 62.363 20.0514 62.6329 19.9777L64.1546 19.5605L64.9154 19.3396C65.1608 19.266 65.4308 19.2169 65.6762 19.1678L67.1979 18.8242L66.7806 16.9099L65.2099 17.278C64.9399 17.3517 64.6945 17.4007 64.4245 17.4744L63.6392 17.6953L63.1238 15.7564C63.4674 15.6582 63.811 15.56 64.1791 15.4619L65.2345 15.2164C65.9462 15.0446 66.6579 14.8974 67.3697 14.7256L66.977 12.8113C66.2407 12.9585 65.529 13.1303 64.7927 13.3021L63.7128 13.5475C63.3447 13.6457 63.0011 13.7439 62.6329 13.8421L60.5468 14.4311C59.8351 14.652 59.1233 14.8974 58.4116 15.1428C57.6999 15.3882 56.9881 15.6091 56.3009 15.9036L56.9881 17.7198C57.6508 17.4498 58.3625 17.2289 59.0497 16.9835C59.7369 16.7626 60.4241 16.5172 61.1113 16.2963L61.7003 18.2107C60.6695 18.5297 59.6633 18.8978 58.6325 19.2414L60.6695 24.8863L61.8476 24.4936L62.412 24.2972C62.7556 24.1991 63.0992 24.0518 63.4428 23.9536L64.0319 25.868C63.4428 26.0398 62.8538 26.2607 62.2648 26.457C61.6758 26.6533 61.0867 26.8497 60.5223 27.0706L58.8043 27.7578C58.5098 27.8559 58.2398 28.0032 57.9453 28.1259L57.1108 28.5186L56.2764 26.7024L57.6262 26.0889C58.068 25.8925 58.5343 25.7207 59.0006 25.5489L58.2889 23.7328C57.8226 23.9291 57.3563 24.1009 56.8899 24.2972L55.5156 24.9108C54.9265 25.1808 54.3375 25.4262 53.773 25.7207L52.7913 26.2361L51.8342 24.3709L53.2331 23.6591C53.6994 23.4137 54.1903 23.2174 54.6566 22.9965L56.08 22.3584C56.5709 22.162 57.0617 21.9657 57.528 21.7693L56.8163 19.9532C56.3255 20.1495 55.8101 20.3459 55.3192 20.5668L53.8466 21.2294L53.0122 19.4132L53.9939 18.9715C54.3375 18.8242 54.6566 18.6524 55.0002 18.5297L57.0372 17.7198L56.35 15.9036L54.2639 16.7381C53.9203 16.8608 53.5767 17.0326 53.2331 17.1799L52.2023 17.6462C51.5396 17.9407 50.877 18.2352 50.2389 18.5788L48.2509 19.6096C47.9073 19.7814 47.5883 19.9777 47.2692 20.1495L46.2875 20.714L47.2692 22.4075L48.2018 21.8675C48.5209 21.6957 48.8399 21.4994 49.159 21.3521L51.0979 20.3704L51.9814 22.162L50.5334 22.8983L49.8217 23.2664L49.1099 23.6591L52.0305 28.9113L52.5704 28.5922C52.7422 28.494 52.9386 28.3959 53.1349 28.2977L53.6749 28.0277L54.632 27.5369L55.5156 29.3285L53.8712 30.1629C53.6012 30.2857 53.3313 30.4575 53.0613 30.6047L52.2514 31.071C51.1715 31.66 50.1407 32.3718 49.1099 33.0099L48.0055 31.341L49.2326 30.5556L49.8462 30.1629L50.1652 29.9666L50.4843 29.7948L49.4781 28.1259L49.159 28.3222L48.8399 28.5186L48.2018 28.9358L46.9256 29.7457C46.6556 29.9175 46.3857 30.1139 46.1402 30.2857L45.3549 30.8501L44.4468 31.4882L43.1951 29.7948L44.4713 28.8867L45.1095 28.4204C45.3303 28.2732 45.5267 28.1259 45.7476 27.9786L47.0729 27.1196L47.7355 26.7024L48.0546 26.4815L48.3982 26.2852L47.3919 24.6163L47.0483 24.8126L46.7047 25.0335L46.0175 25.4753L44.6677 26.3588L43.5633 24.6899C44.7904 23.9046 45.993 23.0946 47.2692 22.4075L46.2875 20.714C44.9867 21.4257 43.7351 22.2602 42.4834 23.0701C42.1643 23.2664 41.8944 23.4873 41.5999 23.6837L40.7163 24.3218C39.4892 25.1562 38.3357 26.1134 37.1576 27.0215L38.3848 28.5186C39.5383 27.635 40.6427 26.7024 41.8453 25.8925L43.0233 27.5123C42.5816 27.8314 42.1398 28.1259 41.7226 28.4695L40.4463 29.4757L44.1768 34.1879L45.1585 33.4026C45.3058 33.2799 45.4776 33.1571 45.6494 33.0344L46.5329 32.4209L47.711 34.0407C46.6802 34.7279 45.7476 35.5378 44.7659 36.2741C44.5204 36.4704 44.2995 36.6667 44.0541 36.8631L43.3424 37.4767C42.8761 37.8693 42.4098 38.2866 41.968 38.7038L40.5936 37.2312L41.1335 36.7158L41.698 36.225L42.8024 35.2678L41.5508 33.7707L40.3973 34.7524L39.8328 35.2433L39.2928 35.7587L37.8939 37.084C37.6239 37.3294 37.3785 37.6239 37.1085 37.8939L35.6114 36.4213C37.0595 34.9242 38.6056 33.5007 40.2009 32.1509L38.9492 30.6538L37.7221 31.7091L37.1085 32.2491L36.5195 32.8135L35.1451 31.341C35.6605 30.8256 36.225 30.3593 36.7649 29.893L37.5994 29.1812C37.8694 28.9358 38.1393 28.6904 38.4338 28.4695L37.2067 26.9724C36.9122 27.1933 36.6422 27.4632 36.3477 27.6841L35.5133 28.4204C34.9488 28.9113 34.3843 29.4021 33.8444 29.9175L32.2736 31.4146C31.7337 31.93 31.2428 32.4945 30.7274 33.0344L29.9666 33.8443C29.6967 34.1143 29.4758 34.4088 29.2303 34.6788L30.6784 35.9796C30.9238 35.7096 31.1447 35.4151 31.3901 35.1696L32.1509 34.3843C32.6663 33.8689 33.1326 33.3289 33.6726 32.8135L35.096 34.237C34.3352 34.9978 33.5989 35.7832 32.8627 36.5686L37.3049 40.6181L38.1639 39.71L38.5811 39.2683C38.8265 39.0228 39.072 38.7283 39.3419 38.5075L40.7654 39.9309C40.3236 40.3727 39.9064 40.8145 39.4892 41.2562L38.8511 41.9189C38.6302 42.1398 38.4338 42.3852 38.2375 42.6061L37.0349 44.005C36.6422 44.4713 36.2741 44.9622 35.8814 45.453L34.2861 44.2259L35.1942 43.0724C35.3415 42.876 35.5133 42.7042 35.6605 42.5079L36.1514 41.9434L34.6788 40.6672L34.188 41.2317C34.0162 41.428 33.8444 41.5998 33.6971 41.8207L32.7645 43.0233L32.1755 43.7841C31.9791 44.0296 31.8073 44.2995 31.611 44.5695L30.9729 45.4776L29.2549 44.275L30.163 42.9988L30.3838 42.6797L30.6293 42.3607L31.1201 41.7471L32.1018 40.5199C32.2491 40.2991 32.4454 40.1273 32.6172 39.9064L33.1326 39.3174L31.6601 38.0411L31.1201 38.6547C30.9483 38.851 30.752 39.0719 30.6047 39.2683L29.5985 40.5445L28.0032 39.3174C28.445 38.7529 28.8867 38.1639 29.3531 37.6239L30.7765 35.9796L29.3285 34.6788L27.856 36.3722C27.3896 36.9367 26.9233 37.5503 26.457 38.1148L25.7944 38.9738C25.5735 39.2683 25.3771 39.5628 25.1563 39.8573L23.8555 41.6735C23.4383 42.287 23.0456 42.9251 22.6284 43.5632L24.2727 44.6186C24.6654 44.005 25.0581 43.3914 25.4508 42.8024L26.7024 41.0353L28.3223 42.2134L27.3896 43.5387C27.2424 43.7596 27.0706 43.9805 26.9233 44.2014L26.4816 44.8885L31.5128 48.1773C31.7337 47.8337 31.9546 47.4655 32.2 47.1219L32.5436 46.6311L33.1572 45.7475L34.777 46.9256L33.6971 48.4472C33.3535 48.9626 33.0345 49.478 32.6909 49.9934L32.2 50.7788C32.0282 51.0488 31.8809 51.3187 31.7337 51.5887L30.8011 53.184L29.034 52.2268C29.5248 51.3924 29.9912 50.5334 30.5066 49.6744L28.8377 48.6681C28.3223 49.5271 27.8314 50.4106 27.316 51.2942C27.0215 51.8587 26.727 52.4231 26.4325 53.0122L25.9171 53.9939L24.0273 53.0858C24.5181 52.1532 24.9845 51.2206 25.4753 50.2879C25.9907 49.3799 26.5061 48.4718 27.046 47.5637L25.3771 46.5574C24.8127 47.4901 24.2973 48.4227 23.7573 49.3553L21.9903 48.3982L23.0701 46.5084C23.2665 46.1893 23.4137 45.8703 23.6101 45.5757L24.1991 44.6677L22.5547 43.6369L21.9412 44.5695C21.7448 44.8885 21.573 45.2076 21.3767 45.5267L20.2723 47.4655C19.9287 48.1036 19.6096 48.7418 19.266 49.4044L18.7506 50.4107C18.5788 50.7543 18.4316 51.0978 18.2843 51.4169L17.3517 53.4539L19.1433 54.2148L20.0514 52.2268C20.1986 51.9078 20.3459 51.5642 20.5177 51.2451L21.0085 50.2634L22.8002 51.1715L22.432 51.8832C22.3093 52.1286 22.1866 52.3741 22.0884 52.6195L21.4258 54.0921L26.8988 56.5218L27.4142 55.3683C27.4878 55.1965 27.586 55.0001 27.6596 54.8283L28.1505 53.8712L29.9421 54.7793L29.5248 55.6137C29.3776 55.8837 29.2549 56.1782 29.1322 56.4482L28.3713 58.1416C28.1259 58.7061 27.905 59.2951 27.6841 59.8596L27.3406 60.7186C27.2178 61.0131 27.1442 61.3076 27.046 61.6021L25.1563 60.9395L25.4017 60.2523L25.6717 59.5651L26.2116 58.1907L24.3954 57.4544L23.831 58.8779L23.561 59.5896L23.3156 60.3014L22.702 62.1175L22.6038 62.3875L22.5302 62.6575L22.3829 63.1974L20.3704 62.6084C20.9595 60.5959 21.6712 58.6324 22.4566 56.6936L20.6404 55.9573L20.0514 57.4544L19.7569 58.2152L19.4869 58.9761L17.5971 58.3134C17.7198 57.9698 17.818 57.6262 17.9652 57.2826L18.3579 56.2764C18.6279 55.6137 18.8733 54.9265 19.1678 54.2639L17.3762 53.503C17.0817 54.1902 16.8117 54.902 16.5418 55.5892L16.1245 56.6445C15.9773 56.9881 15.8791 57.3562 15.7564 57.6998L15.0692 59.7614C14.9465 60.105 14.8483 60.4732 14.7502 60.8413L14.4556 61.9212C14.2593 62.6329 14.0384 63.3446 13.8912 64.0809L15.781 64.5472C15.9282 63.8355 16.1491 63.1483 16.3454 62.4366L16.6399 61.3812C16.7381 61.0376 16.8363 60.6695 16.959 60.3504L18.8733 60.964C18.7752 61.2094 18.7015 61.4794 18.6279 61.7494L18.407 62.5347L17.9652 64.0809L23.7819 65.6026L24.1255 64.4L24.2973 63.811L24.4445 63.2956L24.5181 63.0256L24.6163 62.7802L26.5306 63.3937C26.4325 63.6882 26.3588 63.9828 26.2607 64.2773L26.0152 65.1608C25.8435 65.7498 25.6717 66.3389 25.5489 66.9524L25.1317 68.744C25.0581 69.0385 25.009 69.3576 24.9599 69.6521L24.7881 70.5602L22.8247 70.2166L23.0701 68.7686C23.1683 68.3023 23.291 67.8114 23.3892 67.3451L21.4994 66.9033C21.3767 67.3942 21.2785 67.885 21.1558 68.3759L20.3704 69.7503L20.1986 70.7075L20.125 71.1738L20.0514 71.6401L19.9041 72.7445L17.818 72.4745L18.0143 70.9283L18.2843 69.3821L18.5543 67.836C18.6524 67.3206 18.7752 66.8052 18.8979 66.3143L17.0081 65.8725C16.8854 66.3879 16.7627 66.9279 16.6399 67.4433L16.3454 69.0386L14.382 68.695L14.5784 67.6151C14.652 67.2469 14.7011 66.9033 14.7992 66.5597L15.2901 64.4491L13.4003 63.9828L12.8849 66.1671C12.7867 66.5352 12.7377 66.9033 12.664 67.2715L12.4677 68.3759L12.2713 69.4558L12.1732 69.9957L12.0995 70.5357C11.9278 72.0082 11.6823 73.5053 11.6087 74.9779L13.5476 75.1251C13.6212 73.6771 13.8421 72.2291 14.0139 70.8056L16.0018 71.1001L15.8055 72.6954L15.7073 73.5053L15.6582 73.898L15.6337 74.2907L21.5976 74.8552C21.6221 74.4379 21.6957 74.0207 21.7448 73.6035L21.8184 73.0145L21.9657 71.9346L23.9537 72.2291C23.8064 73.4562 23.6101 74.6834 23.561 75.9105C23.5119 76.5241 23.4628 77.1376 23.4383 77.7512L23.3892 79.6164L21.3767 79.5919L21.4258 78.1193C21.4258 77.8739 21.4258 77.6285 21.4503 77.3831L21.4994 76.6468L19.5605 76.5241L19.5114 77.2849C19.4869 77.5303 19.4869 77.8003 19.4869 78.0457L19.4378 79.5674L19.4133 80.5245L19.4378 81.4817L19.4624 82.5861L17.3517 82.6597C17.3271 81.6044 17.2781 80.5736 17.3271 79.5183L17.3762 77.9475C17.3762 77.6776 17.3762 77.4321 17.4008 77.1622L17.4499 76.3768L15.511 76.2541L15.4619 77.064C15.4374 77.334 15.4374 77.604 15.4374 77.8739L15.3883 79.4937L13.3758 79.4692L13.4249 77.2849C13.4494 76.5486 13.523 75.8369 13.5721 75.1251L11.6332 74.9779C11.5842 75.7141 11.5105 76.475 11.486 77.2113L11.4369 79.4446L11.4124 80.5245L11.4369 81.6044L11.486 83.8378C11.5105 84.5741 11.5842 85.3349 11.6332 86.0712L13.5721 85.9239C13.523 85.2122 13.4494 84.4759 13.4249 83.7642L13.3758 81.5799L15.3883 81.5553L15.4374 83.1751C15.4374 83.4451 15.4374 83.7151 15.4619 83.985L15.511 84.7949L21.4994 84.4023C21.4749 83.985 21.4258 83.5678 21.4258 83.1506L21.4012 82.537L21.3767 81.4571L23.3892 81.4326L23.4383 83.2978C23.4628 83.9114 23.5364 84.525 23.561 85.1385C23.6346 86.3657 23.8064 87.5928 23.9537 88.82L21.9657 89.1145L21.7694 87.6664L21.6712 86.9302L21.6221 86.562L21.5976 86.1939L19.6587 86.3657L19.6832 86.7338L19.7323 87.102L19.8305 87.8628L20.0268 89.3599L20.1005 89.8262L20.1741 90.2925L20.3459 91.2497L20.5422 92.3541L18.4806 92.7713L18.2107 91.2251C18.1125 90.7097 18.0143 90.1943 17.9652 89.6789L17.7689 88.1328L17.6707 87.3474L17.6217 86.9547L17.5971 86.562L15.6582 86.7338L15.6828 87.1265L15.7319 87.5192L15.83 88.3291L16.0264 89.9244L14.0384 90.2189C13.8666 88.7709 13.6457 87.3474 13.5721 85.8994L11.6332 86.0466C11.7069 87.5437 11.9277 89.0163 12.1241 90.4889L12.1977 91.0288L12.2959 91.5687L12.4922 92.6486L12.6886 93.753C12.7622 94.1212 12.8113 94.4893 12.9095 94.8574L13.4249 97.0417L15.3146 96.5754L14.8238 94.4648C14.7256 94.1212 14.6765 93.753 14.6029 93.4094L14.4066 92.3296L16.37 91.986L16.6645 93.5812C16.7872 94.0966 16.9099 94.6366 17.0326 95.152L22.8738 93.8021L22.5793 92.575C22.5302 92.3786 22.5056 92.1823 22.4566 91.986L22.2602 90.9306L24.2236 90.587L24.3954 91.4951C24.4445 91.7896 24.4936 92.1087 24.5672 92.4032L24.9845 94.1948C25.1072 94.8084 25.3035 95.3974 25.4508 95.9864L25.6962 96.8699C25.7944 97.1645 25.8434 97.459 25.9662 97.7535L24.0518 98.3671C23.9782 98.1462 23.9046 97.9007 23.831 97.6553L23.6346 96.9436L23.2419 95.5201L21.3521 96.011L21.7694 97.459L21.9657 98.1953C22.0393 98.4407 22.0884 98.6861 22.1866 98.9315L22.8002 100.748C22.9229 101.091 23.021 101.459 23.1683 101.803L21.2049 102.539C21.1067 102.294 21.0085 102.048 20.9349 101.803L20.6895 101.067L20.1986 99.5696C20.1005 99.3242 20.0514 99.0788 19.9777 98.8088L19.7569 98.048L19.3396 96.5264L17.4499 97.0172L17.8916 98.5634L18.1125 99.3488C18.1861 99.6187 18.2598 99.8642 18.3579 100.134L16.4436 100.748C16.3209 100.404 16.2227 100.061 16.1245 99.7169L15.83 98.6616C15.6337 97.9498 15.4128 97.2626 15.2656 96.5509L13.3758 97.0172C13.523 97.7535 13.7439 98.4652 13.9403 99.177L14.2348 100.257C14.3329 100.625 14.4311 100.969 14.5538 101.337L15.241 103.398C15.3637 103.742 15.4619 104.11 15.6092 104.454L16.0264 105.509C16.2963 106.196 16.5663 106.908 16.8608 107.595L18.6524 106.834C18.3579 106.172 18.1125 105.484 17.8425 104.822L17.4499 103.816C17.3026 103.472 17.2044 103.128 17.0817 102.785L18.9715 102.122L19.2415 102.883L19.536 103.644L20.125 105.141L25.6717 102.858L25.2053 101.68L24.9845 101.116C24.8372 100.772 24.739 100.429 24.6163 100.11L26.5061 99.4469C26.6043 99.7414 26.7024 100.036 26.8006 100.33L27.1442 101.189C27.3651 101.754 27.586 102.343 27.8314 102.907L28.5922 104.601C28.7149 104.871 28.8377 105.165 28.9849 105.435L29.4021 106.27L27.6105 107.178L27.2669 106.515C27.1442 106.294 27.046 106.073 26.9479 105.853L26.3343 104.503L24.5427 105.288L25.1563 106.662C25.2544 106.883 25.3771 107.129 25.4753 107.35L25.8189 108.037C26.1134 108.601 26.4079 109.19 26.7024 109.755L27.2669 110.712L25.4508 111.743C25.2053 111.276 24.9108 110.835 24.6899 110.368L23.9782 108.969L23.6101 108.282C23.4874 108.061 23.3646 107.816 23.2665 107.571L22.6284 106.147L20.8367 106.932L21.4994 108.405C21.5976 108.65 21.7203 108.896 21.843 109.141L22.2111 109.853L20.4195 110.761L19.9287 109.779C19.7569 109.46 19.6342 109.117 19.4624 108.798L18.5543 106.81L16.7627 107.571L17.6953 109.608C17.8425 109.951 17.9898 110.295 18.1616 110.614L18.677 111.62C19.0206 112.258 19.3396 112.921 19.6832 113.559L20.7877 115.498C20.984 115.817 21.1558 116.16 21.3521 116.455L21.9657 117.388L23.6101 116.332L23.021 115.424C22.8247 115.13 22.6529 114.786 22.4811 114.492L21.4012 112.602L23.1683 111.645C23.7082 112.577 24.2236 113.51 24.7881 114.443L29.9175 111.301C29.6966 110.957 29.5003 110.589 29.2794 110.221L28.9849 109.706L28.445 108.773L30.212 107.816L31.1447 109.411C31.2919 109.681 31.4392 109.951 31.611 110.221L32.1018 111.007C32.4454 111.522 32.7645 112.062 33.1081 112.553L34.188 114.074L32.5681 115.252L31.7092 114.05C31.5619 113.853 31.4146 113.657 31.2919 113.436L30.8992 112.823L29.2794 113.903L29.6967 114.541C29.8439 114.762 29.9912 114.958 30.1384 115.154L31.022 116.381C31.2183 116.651 31.3901 116.897 31.5864 117.167L32.1755 117.928L32.8627 118.811L31.2183 120.136C29.9175 118.517 28.6659 116.823 27.5369 115.056L25.9171 116.136L26.3588 116.823C26.5061 117.044 26.6779 117.265 26.8252 117.486L27.7578 118.811L26.138 119.989L24.8863 118.222C24.4691 117.633 24.1009 116.995 23.7082 116.406L22.0639 117.437C22.4811 118.075 22.8738 118.688 23.291 119.326L24.5918 121.143C24.8127 121.437 25.009 121.732 25.2299 122.026L25.8925 122.885C26.3588 123.474 26.8006 124.063 27.2915 124.628L28.764 126.321L30.212 125.02L28.7886 123.376C28.3223 122.812 27.8805 122.247 27.4387 121.683L29.034 120.455L30.0402 121.732C30.212 121.953 30.3838 122.149 30.5556 122.345L31.0956 122.959L35.636 119.057L34.8261 118.099L34.4579 117.633L33.7953 116.774L35.3906 115.547C35.7832 116.038 36.1514 116.529 36.5441 116.995L37.7466 118.394C37.943 118.615 38.1393 118.86 38.3602 119.081L38.9983 119.744C39.4401 120.186 39.8328 120.652 40.2745 121.069L38.8511 122.493C38.1639 121.805 37.5012 121.069 36.814 120.382L35.366 121.707C36.0778 122.443 36.7649 123.18 37.4767 123.891L38.8756 125.217C39.1456 125.462 39.4156 125.732 39.6855 125.978L38.2866 127.548L37.9921 127.303L37.6976 127.033L37.1331 126.493L36.0041 125.413C35.2678 124.677 34.5561 123.891 33.8198 123.155L32.3718 124.48C33.1081 125.266 33.8444 126.051 34.6052 126.812L33.1817 128.235C32.6663 127.72 32.1755 127.18 31.6601 126.665L30.8992 125.879C30.6538 125.609 30.4084 125.339 30.1875 125.069L28.7395 126.37C28.9849 126.64 29.2303 126.935 29.4758 127.205L30.2366 128.015C30.752 128.555 31.2674 129.094 31.7828 129.634L33.3535 131.132C33.8934 131.647 34.4579 132.138 35.0224 132.629L35.8569 133.365C36.1514 133.61 36.4213 133.856 36.7159 134.077L37.943 132.58C37.6485 132.359 37.3785 132.113 37.1085 131.868L36.2741 131.156C35.7341 130.69 35.1697 130.223 34.6543 129.708L36.0287 128.235L36.6177 128.8L37.2313 129.34L38.4584 130.395L42.3361 125.806L41.379 124.971L40.9127 124.579C40.6427 124.358 40.3727 124.088 40.1273 123.842L41.5017 122.37C41.9435 122.812 42.4098 123.204 42.8761 123.597L43.5878 124.211C43.8332 124.407 44.0541 124.628 44.2995 124.8C45.2813 125.56 46.2139 126.346 47.2447 127.033L46.0666 128.653C45.6739 128.358 45.2567 128.088 44.864 127.794L43.7105 126.886L42.5079 128.407L43.7105 129.34C44.1032 129.659 44.5204 129.929 44.9377 130.223L45.723 130.788C45.993 130.96 46.2384 131.156 46.5084 131.328L47.441 131.941L46.312 133.709C45.8703 133.414 45.4285 133.144 44.9867 132.85L43.7105 131.941C43.2933 131.622 42.8515 131.352 42.4343 131.033L41.2072 130.052L40.0046 131.573L41.2808 132.58C41.698 132.899 42.1643 133.218 42.5816 133.537L41.4035 135.157C40.2009 134.347 39.072 133.414 37.943 132.53L36.7159 134.028C37.8939 134.936 39.0474 135.893 40.2745 136.727L41.1581 137.365C41.4526 137.562 41.7471 137.783 42.0416 137.979C43.2933 138.789 44.545 139.623 45.8457 140.335L46.8274 140.9C47.1465 141.096 47.4655 141.268 47.8091 141.439L49.7971 142.47C50.4352 142.814 51.0979 143.084 51.7605 143.403L52.7913 143.869C53.1349 144.016 53.4785 144.188 53.8221 144.311L55.9082 145.145L56.5954 143.329L54.5584 142.519C54.2148 142.397 53.8957 142.225 53.5521 142.078L52.5704 141.636L53.4049 139.82L54.8774 140.482C55.3683 140.703 55.8837 140.875 56.3745 141.096L58.5834 135.525L57.4053 135.058C57.209 134.985 57.0372 134.887 56.8654 134.813L55.8837 134.371L56.7181 132.555L57.5526 132.948C57.8471 133.07 58.1171 133.218 58.4116 133.316L60.1296 134.003C60.6941 134.248 61.2831 134.42 61.8721 134.617C62.4611 134.813 63.0256 135.034 63.6392 135.206L63.0502 137.12C62.1175 136.825 61.1849 136.506 60.2523 136.187L59.5896 138.028C60.5468 138.347 61.504 138.691 62.4611 138.985L64.3018 139.501L64.8418 139.648L65.1117 139.721L65.3817 139.795L64.8663 141.832C64.6209 141.783 64.3509 141.709 64.1055 141.636L63.3447 141.415L61.823 140.998C60.8168 140.679 59.8351 140.335 58.8534 139.991L58.1907 141.832C59.2215 142.176 60.2277 142.544 61.2585 142.863L60.6695 144.777C59.9823 144.581 59.2951 144.311 58.6079 144.09C57.9207 143.845 57.2335 143.624 56.5463 143.354L55.8592 145.17C56.5463 145.464 57.2581 145.685 57.9698 145.931C58.6816 146.176 59.3933 146.422 60.105 146.643L62.1912 147.232C62.5593 147.33 62.9029 147.452 63.271 147.526L64.3509 147.771C65.0872 147.943 65.7989 148.115 66.5352 148.262L66.9279 146.348C66.2162 146.201 65.5044 146.029 64.7927 145.857L63.7374 145.612C63.3938 145.538 63.0256 145.415 62.682 145.317L63.1974 143.378L63.9828 143.599C64.2528 143.673 64.4982 143.722 64.7681 143.796L66.3389 144.164L67.6151 138.298L66.388 138.003L65.7989 137.856L65.529 137.807L65.259 137.734L64.7436 137.586L65.259 135.647C65.5535 135.721 65.848 135.819 66.1425 135.893L67.0506 136.089C67.6642 136.236 68.2532 136.384 68.8668 136.506L70.6829 136.825L71.591 136.997L72.4991 137.12L72.2291 139.108C71.2474 139.01 70.2902 138.813 69.3331 138.642L68.9649 140.556C69.9712 140.728 70.9529 140.924 71.9592 141.047L73.8735 141.292C74.2416 141.341 74.6098 141.341 74.9779 141.39L74.8061 143.477C73.7508 143.427 72.72 143.256 71.6892 143.133C70.6584 143.035 69.6276 142.814 68.5968 142.642L68.2287 144.556C69.284 144.728 70.3393 144.949 71.4192 145.072L71.1492 147.06L70.0694 146.912L68.9895 146.716L66.8543 146.323L66.4616 148.238L68.6704 148.63L69.7748 148.827L70.8793 148.974L73.039 149.244C73.7753 149.318 74.5361 149.367 75.2724 149.416C76.0087 149.465 76.7695 149.539 77.5058 149.539L77.5794 147.6C76.8431 147.6 76.1314 147.526 75.4197 147.477C74.7079 147.428 73.9716 147.379 73.2599 147.305L73.4562 145.317C74.5361 145.415 75.616 145.489 76.6713 145.563L76.9904 139.574L75.7387 139.476L75.1252 139.427C74.757 139.402 74.4134 139.378 74.0453 139.329L74.2416 137.341C74.8552 137.414 75.4688 137.439 76.0823 137.488C76.6959 137.537 77.3095 137.586 77.923 137.586L79.7883 137.635H80.2055H80.6473L82.5125 137.586C83.1261 137.586 83.7396 137.513 84.3532 137.488C84.9668 137.439 85.5803 137.414 86.1939 137.341L86.3902 139.329C85.4085 139.427 84.4268 139.476 83.4697 139.55L83.5678 141.489C84.5741 141.415 85.5803 141.341 86.5866 141.243L88.5009 140.998C88.869 140.949 89.2372 140.9 89.6053 140.85L89.9244 142.937C88.8936 143.084 87.8383 143.207 86.8075 143.329C85.7767 143.427 84.7214 143.501 83.666 143.575L83.7642 145.514C84.8441 145.44 85.9239 145.366 86.9793 145.268L87.1756 147.256C86.4639 147.33 85.7276 147.379 85.0159 147.428C84.3041 147.477 83.5678 147.551 82.8561 147.551L82.9297 149.489C84.0096 149.539 84.7704 149.465 85.5067 149.416ZM104.797 24.4445L105.632 22.5056L107.055 23.1437L107.767 23.4628C108.012 23.561 108.233 23.7082 108.479 23.8064L109.878 24.5181L110.565 24.8863L111.252 25.2789L112.209 23.5855L111.497 23.1928L110.786 22.8247L109.338 22.0884L110.221 20.2968L112.16 21.2785C112.479 21.4503 112.798 21.6221 113.117 21.7939L114.05 22.3338C115.326 23.021 116.529 23.8555 117.756 24.6163L116.651 26.2852L115.277 25.4017L114.59 24.9599L114.246 24.739L113.903 24.5427L110.81 29.6966C111.178 29.893 111.522 30.1384 111.866 30.3593L112.381 30.6783L113.289 31.2674L112.185 32.9363C111.129 32.2736 110.123 31.5864 109.043 30.9974L108.233 30.5311C107.963 30.3838 107.693 30.212 107.423 30.0893L105.779 29.2549L106.662 27.4632L107.963 28.1259L108.626 28.4695L109.264 28.8376L110.221 27.1442L109.559 26.776L108.871 26.4325L107.521 25.7453C106.957 25.4507 106.368 25.2053 105.779 24.9353L104.797 24.4445ZM56.2027 136.555L55.3683 138.494L53.9448 137.856L53.2331 137.537C52.9877 137.439 52.7668 137.292 52.5213 137.194L51.1224 136.482L50.4352 136.114L49.748 135.721L48.7909 137.414L49.5026 137.807L50.2143 138.175L51.6624 138.912L50.7788 140.703L48.8399 139.721C48.5209 139.55 48.2018 139.378 47.8828 139.206L46.9502 138.666C45.6739 137.979 44.4713 137.144 43.2442 136.384L44.3486 134.715L45.723 135.598L46.4102 136.04L46.7538 136.261L47.0974 136.457L50.1898 131.303C49.8217 131.107 49.4781 130.862 49.1345 130.641L48.6191 130.322L47.711 129.733L48.8154 128.064C49.8707 128.726 50.877 129.414 51.9569 130.003L52.7668 130.469C53.0367 130.616 53.3067 130.788 53.5767 130.911L55.221 131.745L54.3375 133.537L53.0367 132.874L52.3741 132.53L51.736 132.162L50.7788 133.856L51.4415 134.224L52.1287 134.568L53.4785 135.255C54.043 135.549 54.632 135.795 55.221 136.065L56.2027 136.555ZM86.2921 135.402C85.703 135.451 85.114 135.5 84.5005 135.549C83.9114 135.598 83.3224 135.647 82.7088 135.647L80.9172 135.696H80.5H80.0582L78.2666 135.647C77.6776 135.647 77.064 135.574 76.475 135.549C75.886 135.5 75.2724 135.476 74.6834 135.402L72.9654 135.181L72.0819 135.058L71.1983 134.911L69.4313 134.592C68.8422 134.469 68.2777 134.322 67.6887 134.199L66.8052 134.003C66.5107 133.929 66.2407 133.831 65.9462 133.758L64.2773 133.291C63.7128 133.119 63.1483 132.923 62.5838 132.727C62.0194 132.53 61.4549 132.359 60.8904 132.113L59.2215 131.451C58.9515 131.352 58.6816 131.205 58.4116 131.082L57.6017 130.714C57.0863 130.469 56.5463 130.248 56.0309 129.978L54.4357 129.168C54.1657 129.045 53.9203 128.874 53.6503 128.726L52.8649 128.285C51.8096 127.72 50.8279 127.033 49.8217 126.395C49.5762 126.248 49.3553 126.076 49.1099 125.904L48.3982 125.389C47.4165 124.726 46.4838 123.941 45.5512 123.229C45.3058 123.057 45.0849 122.836 44.864 122.64L44.1768 122.051C43.7351 121.658 43.2688 121.265 42.8515 120.848L41.5999 119.646C41.1826 119.228 40.7654 118.787 40.3482 118.345L39.7346 117.707C39.5137 117.486 39.3419 117.265 39.1456 117.044L37.9675 115.694C37.5749 115.228 37.2313 114.762 36.8631 114.295L36.3232 113.608C36.1514 113.387 35.9796 113.142 35.8078 112.896L34.777 111.448C34.4334 110.957 34.1389 110.442 33.7953 109.951L33.3044 109.19C33.1326 108.945 33.0099 108.675 32.8627 108.43L31.9791 106.883C31.7091 106.368 31.4392 105.853 31.1938 105.337L30.7765 104.552C30.6293 104.282 30.5311 104.012 30.4084 103.742L29.6721 102.122C29.4267 101.582 29.2303 101.018 29.0095 100.453L28.6904 99.6187C28.5677 99.3488 28.4941 99.0542 28.3959 98.7843L27.8314 97.1399C27.7332 96.87 27.6596 96.5754 27.586 96.2809L27.3406 95.4219C27.1933 94.8575 26.997 94.2684 26.8742 93.7039L26.4816 91.9614C26.4079 91.6669 26.3588 91.3724 26.3098 91.0779L26.1625 90.1943L26.0152 89.3353L25.9416 88.9181L25.8925 88.4763C25.7453 87.2983 25.5735 86.1202 25.4999 84.9177C25.4508 84.3286 25.4017 83.7396 25.3771 83.126L25.3281 81.3344L25.3035 80.4754L25.3281 79.6164L25.3771 77.8248C25.4017 77.2358 25.4753 76.6222 25.4999 76.0332C25.5489 74.8306 25.7453 73.6526 25.8925 72.4745L25.9416 72.0328L26.0152 71.6155L26.1625 70.7565L26.3098 69.873C26.3588 69.5785 26.4079 69.284 26.4816 68.9895L26.8742 67.2469C26.997 66.6579 27.1688 66.0934 27.3406 65.5289L27.586 64.6699C27.6596 64.3754 27.7332 64.1055 27.8314 63.811L28.3959 62.1666C28.4941 61.8966 28.5677 61.6021 28.6904 61.3321L29.0095 60.4977C29.2303 59.9332 29.4267 59.3933 29.6721 58.8288L30.4084 57.209C30.5311 56.939 30.6538 56.669 30.7765 56.3991L31.1938 55.6137C31.4637 55.0983 31.7091 54.5829 31.9791 54.0675L32.8627 52.5213C33.0099 52.2759 33.1572 52.0059 33.3044 51.7605L33.7953 50.9997C34.1143 50.5088 34.4334 49.9934 34.777 49.5026L35.8078 48.0546C35.9796 47.8091 36.1268 47.5882 36.3232 47.3428L36.8631 46.6556C37.2313 46.1893 37.5994 45.723 37.9675 45.2567L39.1456 43.9068C39.3419 43.686 39.5383 43.4405 39.7346 43.2442L40.3482 42.6061C40.7654 42.1889 41.1581 41.7225 41.5999 41.3053L42.8515 40.1027C43.2688 39.6855 43.7351 39.2928 44.1768 38.9001L44.864 38.3111C45.0849 38.1148 45.3058 37.9184 45.5512 37.7221C46.4838 36.9858 47.4165 36.225 48.3982 35.5623L49.1099 35.0469C49.3553 34.8751 49.5762 34.7033 49.8217 34.5561C50.8279 33.918 51.8096 33.2553 52.8649 32.6663L53.6503 32.2245C53.9203 32.0773 54.1657 31.93 54.4357 31.7828L56.0309 30.9728C56.5463 30.7029 57.0617 30.482 57.6017 30.2366L58.4116 29.8684C58.6816 29.7457 58.9515 29.623 59.2215 29.5003L60.8904 28.8376C61.4303 28.6168 62.0194 28.4204 62.5838 28.2241C63.1483 28.0277 63.7128 27.8314 64.2773 27.6596L65.9462 27.1933C66.2407 27.1196 66.5107 27.0215 66.8052 26.9478L67.6887 26.7515C68.2777 26.6288 68.8422 26.4815 69.4313 26.3588L71.1983 26.0398L72.0819 25.8925L72.9654 25.7698L74.6834 25.5489C75.2724 25.4998 75.8614 25.4507 76.475 25.4017C77.064 25.3526 77.6531 25.3035 78.2666 25.3035L80.0582 25.2544H80.4755H80.9172L82.7088 25.3035C83.2979 25.3035 83.9114 25.3771 84.5005 25.4017C85.0895 25.4507 85.703 25.4753 86.2921 25.5489L88.0101 25.7698L88.8936 25.8925L89.7771 26.0398L91.5442 26.3588C92.1332 26.4815 92.6977 26.6288 93.2867 26.7515L94.1703 26.9478C94.4648 27.0215 94.7348 27.1196 95.0293 27.1933L96.6982 27.6596C97.2627 27.8314 97.8271 28.0277 98.3916 28.2241C98.9561 28.4204 99.5206 28.5922 100.085 28.8376L101.754 29.5003C102.024 29.5985 102.294 29.7457 102.564 29.8684L103.374 30.2366C103.889 30.482 104.429 30.7029 104.945 30.9728L106.54 31.7828C106.81 31.9055 107.055 32.0773 107.325 32.2245L108.111 32.6663C109.166 33.2308 110.148 33.918 111.154 34.5561C111.399 34.7033 111.62 34.8751 111.866 35.0469L112.577 35.5623C113.559 36.225 114.492 37.0103 115.424 37.7221C115.67 37.8939 115.891 38.1148 116.111 38.3111L116.799 38.9001C117.24 39.2928 117.707 39.6855 118.124 40.1027L119.376 41.3053C119.793 41.7225 120.21 42.1643 120.627 42.6061L121.241 43.2442C121.462 43.4651 121.634 43.686 121.83 43.9068L123.008 45.2567C123.401 45.723 123.744 46.1893 124.112 46.6556L124.652 47.3428C124.824 47.5637 124.996 47.8091 125.168 48.0546L126.198 49.5026C126.542 49.9934 126.837 50.5088 127.18 50.9997L127.671 51.7605C127.843 52.0059 127.966 52.2759 128.113 52.5213L128.996 54.0675C129.266 54.5829 129.536 55.0983 129.782 55.6137L130.199 56.3991C130.346 56.669 130.444 56.939 130.567 57.209L131.303 58.8288C131.549 59.3687 131.745 59.9332 131.966 60.4977L132.285 61.3321C132.408 61.6021 132.481 61.8966 132.58 62.1666L133.144 63.811C133.242 64.0809 133.316 64.3754 133.389 64.6699L133.635 65.5289C133.782 66.0934 133.979 66.6824 134.101 67.2469L134.494 68.9895C134.568 69.284 134.617 69.5785 134.666 69.873L134.813 70.7565L134.96 71.6155L135.034 72.0328L135.083 72.4745C135.23 73.6526 135.402 74.8306 135.476 76.0332C135.525 76.6222 135.574 77.2113 135.598 77.8248L135.647 79.6164L135.672 80.4754L135.647 81.3344L135.598 83.126C135.574 83.7151 135.5 84.3286 135.476 84.9177C135.427 86.1202 135.23 87.2983 135.083 88.4763L135.034 88.9181L134.96 89.3353L134.813 90.1943L134.666 91.0779C134.617 91.3724 134.568 91.6669 134.494 91.9614L134.101 93.7039C133.979 94.293 133.807 94.8575 133.635 95.4219L133.389 96.2809C133.316 96.5754 133.242 96.8454 133.144 97.1399L132.58 98.7843C132.481 99.0542 132.408 99.3488 132.285 99.6187L131.966 100.453C131.745 101.018 131.549 101.558 131.303 102.122L130.567 103.742C130.444 104.012 130.322 104.282 130.199 104.552L129.782 105.337C129.512 105.853 129.266 106.368 128.996 106.883L128.113 108.43C127.966 108.675 127.818 108.945 127.671 109.19L127.18 109.951C126.861 110.442 126.542 110.957 126.198 111.448L125.168 112.896C124.996 113.142 124.849 113.363 124.652 113.608L124.112 114.295C123.744 114.762 123.376 115.228 123.008 115.694L121.83 117.044C121.634 117.265 121.437 117.51 121.241 117.707L120.627 118.345C120.21 118.762 119.817 119.228 119.376 119.646L118.124 120.848C117.707 121.265 117.24 121.658 116.799 122.051L116.111 122.64C115.891 122.836 115.67 123.032 115.424 123.229C114.492 123.965 113.559 124.726 112.577 125.389L111.866 125.904C111.62 126.076 111.399 126.248 111.154 126.395C110.148 127.033 109.166 127.696 108.111 128.285L107.325 128.726C107.055 128.874 106.81 129.021 106.54 129.168L104.945 129.978C104.429 130.248 103.914 130.469 103.374 130.714L102.564 131.082C102.294 131.205 102.024 131.328 101.754 131.451L100.085 132.113C99.5451 132.334 98.9561 132.53 98.3916 132.727C97.8271 132.923 97.2627 133.119 96.6982 133.291L95.0293 133.758C94.7348 133.831 94.4648 133.929 94.1703 134.003L93.2867 134.199C92.6977 134.322 92.1332 134.469 91.5442 134.592L89.7771 134.911L88.8936 135.058L88.0101 135.181L86.2921 135.402Z" fill="#FFF6D2"/>
<path d="M92.2462 8.82424L91.9392 10.5645L93.6794 10.8714L93.9864 9.13118L92.2462 8.82424Z" fill="#FFF6D2"/>
<path d="M93.5916 1.08235L92.5471 7.00391L94.2873 7.31085L95.3318 1.38929L93.5916 1.08235Z" fill="#FFF6D2"/>
<path d="M104.516 11.9347L103.911 13.5952L105.572 14.1996L106.176 12.539L104.516 11.9347Z" fill="#FFF6D2"/>
<path d="M107.191 4.55617L105.135 10.2065L106.795 10.8109L108.852 5.16051L107.191 4.55617Z" fill="#FFF6D2"/>
<path d="M116.036 17.1658L115.152 18.696L116.682 19.5796L117.566 18.0493L116.036 17.1658Z" fill="#FFF6D2"/>
<path d="M119.985 10.3536L116.979 15.5608L118.509 16.4443L121.516 11.2371L119.985 10.3536Z" fill="#FFF6D2"/>
<path d="M126.499 24.2912L125.363 25.6448L126.717 26.7806L127.853 25.4271L126.499 24.2912Z" fill="#FFF6D2"/>
<path d="M131.557 18.2671L127.692 22.873L129.045 24.0089L132.911 19.403L131.557 18.2671Z" fill="#FFF6D2"/>
<path d="M135.573 33.139L134.22 34.2749L135.356 35.6287L136.709 34.4928L135.573 33.139Z" fill="#FFF6D2"/>
<path d="M141.593 28.0704L136.987 31.9355L138.122 33.2893L142.729 29.4242L141.593 28.0704Z" fill="#FFF6D2"/>
<path d="M142.974 43.4055L141.443 44.2891L142.327 45.8195L143.857 44.936L142.974 43.4055Z" fill="#FFF6D2"/>
<path d="M149.764 39.4791L144.557 42.4856L145.44 44.0159L150.648 41.0094L149.764 39.4791Z" fill="#FFF6D2"/>
<path d="M148.445 54.8285L146.785 55.4329L147.389 57.0934L149.05 56.489L148.445 54.8285Z" fill="#FFF6D2"/>
<path d="M155.828 52.1379L150.177 54.1943L150.782 55.8549L156.432 53.7984L155.828 52.1379Z" fill="#FFF6D2"/>
<path d="M151.875 67.0024L150.135 67.3093L150.442 69.0495L152.182 68.7426L151.875 67.0024Z" fill="#FFF6D2"/>
<path d="M159.62 65.6566L153.698 66.7004L154.005 68.4407L159.927 67.3968L159.62 65.6566Z" fill="#FFF6D2"/>
<path d="M153.122 79.6165H151.354V81.3835H153.122V79.6165Z" fill="#FFF6D2"/>
<path d="M161 79.6165H154.987V81.3835H161V79.6165Z" fill="#FFF6D2"/>
<path d="M150.435 91.9424L150.128 93.6826L151.869 93.9894L152.175 92.2492L150.435 91.9424Z" fill="#FFF6D2"/>
<path d="M153.991 92.5747L153.684 94.3149L159.606 95.3588L159.912 93.6186L153.991 92.5747Z" fill="#FFF6D2"/>
<path d="M147.383 103.912L146.779 105.573L148.439 106.177L149.043 104.517L147.383 103.912Z" fill="#FFF6D2"/>
<path d="M150.797 105.148L150.193 106.809L155.843 108.865L156.447 107.205L150.797 105.148Z" fill="#FFF6D2"/>
<path d="M142.311 115.181L141.427 116.712L142.958 117.595L143.841 116.065L142.311 115.181Z" fill="#FFF6D2"/>
<path d="M145.426 116.99L144.542 118.521L149.75 121.527L150.633 119.997L145.426 116.99Z" fill="#FFF6D2"/>
<path d="M135.364 125.4L134.228 126.754L135.582 127.89L136.718 126.536L135.364 125.4Z" fill="#FFF6D2"/>
<path d="M138.102 127.724L136.966 129.078L141.572 132.943L142.708 131.589L138.102 127.724Z" fill="#FFF6D2"/>
<path d="M126.736 134.234L125.382 135.369L126.518 136.723L127.871 135.587L126.736 134.234Z" fill="#FFF6D2"/>
<path d="M129.028 136.984L127.674 138.12L131.539 142.726L132.893 141.59L129.028 136.984Z" fill="#FFF6D2"/>
<path d="M116.673 141.439L115.143 142.323L116.027 143.853L117.557 142.969L116.673 141.439Z" fill="#FFF6D2"/>
<path d="M118.484 144.568L116.954 145.452L119.96 150.659L121.49 149.776L118.484 144.568Z" fill="#FFF6D2"/>
<path d="M105.567 146.817L103.907 147.421L104.511 149.082L106.172 148.477L105.567 146.817Z" fill="#FFF6D2"/>
<path d="M106.807 150.203L105.146 150.807L107.203 156.457L108.863 155.853L106.807 150.203Z" fill="#FFF6D2"/>
<path d="M93.666 150.156L91.9258 150.463L92.2327 152.203L93.9729 151.896L93.666 150.156Z" fill="#FFF6D2"/>
<path d="M94.2868 153.706L92.5466 154.013L93.5905 159.934L95.3307 159.628L94.2868 153.706Z" fill="#FFF6D2"/>
<path d="M81.3835 151.379H80.5245H80.5H79.6165V153.146H80.5H80.5245H81.3835V151.379Z" fill="#FFF6D2"/>
<path d="M81.3835 161.025V154.987H80.5245H79.6165V161.025H80.5H81.3835Z" fill="#FFF6D2"/>
</svg>
