<svg width="18" height="18" viewBox="0 0 18 18" fill="none" xmlns="http://www.w3.org/2000/svg">
<path d="M1.88965 3.375C1.88965 3.06434 2.14149 2.8125 2.45215 2.8125H15.9521C16.2628 2.8125 16.5146 3.06434 16.5146 3.375C16.5146 3.68566 16.2628 3.9375 15.9521 3.9375H2.45215C2.14149 3.9375 1.88965 3.68566 1.88965 3.375Z" fill="#E9993E"/>
<path d="M1.88965 9C1.88965 8.68934 2.14149 8.4375 2.45215 8.4375H15.9521C16.2628 8.4375 16.5146 8.68934 16.5146 9C16.5146 9.31066 16.2628 9.5625 15.9521 9.5625H2.45215C2.14149 9.5625 1.88965 9.31066 1.88965 9Z" fill="#E9993E"/>
<path d="M2.45215 14.0625C2.14149 14.0625 1.88965 14.3143 1.88965 14.625C1.88965 14.9357 2.14149 15.1875 2.45215 15.1875H15.9521C16.2628 15.1875 16.5146 14.9357 16.5146 14.625C16.5146 14.3143 16.2628 14.0625 15.9521 14.0625H2.45215Z" fill="#E9993E"/>
<path d="M1.88965 3.375C1.88965 3.06434 2.14149 2.8125 2.45215 2.8125H15.9521C16.2628 2.8125 16.5146 3.06434 16.5146 3.375C16.5146 3.68566 16.2628 3.9375 15.9521 3.9375H2.45215C2.14149 3.9375 1.88965 3.68566 1.88965 3.375Z" stroke="#E9993E" stroke-linecap="round" stroke-linejoin="round"/>
<path d="M1.88965 9C1.88965 8.68934 2.14149 8.4375 2.45215 8.4375H15.9521C16.2628 8.4375 16.5146 8.68934 16.5146 9C16.5146 9.31066 16.2628 9.5625 15.9521 9.5625H2.45215C2.14149 9.5625 1.88965 9.31066 1.88965 9Z" stroke="#E9993E" stroke-linecap="round" stroke-linejoin="round"/>
<path d="M2.45215 14.0625C2.14149 14.0625 1.88965 14.3143 1.88965 14.625C1.88965 14.9357 2.14149 15.1875 2.45215 15.1875H15.9521C16.2628 15.1875 16.5146 14.9357 16.5146 14.625C16.5146 14.3143 16.2628 14.0625 15.9521 14.0625H2.45215Z" stroke="#E9993E" stroke-linecap="round" stroke-linejoin="round"/>
</svg>
