<svg xmlns="http://www.w3.org/2000/svg" viewBox="0 0 64 48.01"><defs><style>.cls-1{fill:#fff6d2;}</style></defs><g id="Capa_2" data-name="Capa 2"><g id="Capa_1-2" data-name="Capa 1"><g id="_000000ff" data-name="#000000ff"><path class="cls-1" d="M0,4.66C1,2.2,3-.09,5.88.11,22.93-.07,40,.08,57.05,0c3.14-.37,5.69,1.59,7,4.35V7.16c-1,2.47-3,4.72-6,4.54-15,.23-30,0-45,.11-4.62,0-10.92,1.07-13-4.33Z"/><path class="cls-1" d="M4.25,18.41c3.56-.6,7.19-.3,10.78-.32,11,0,22,0,32.94,0,3.92,0,7.89-.32,11.78.31,2.14.29,3.14,2.45,4.25,4v2.76c-1.08,3.54-4.54,5.09-8,4.68-16.69-.13-33.39.11-50.07-.11-2.82.21-4.69-2-5.91-4.25v-2.8C1,21,2,18.7,4.25,18.41Z"/><path class="cls-1" d="M0,40.77c1-2.44,3-4.71,5.88-4.52C21.23,36,36.6,36.31,52,36.12c4.37-.09,10.15-.69,12,4.37v2.74c-1,2.5-3,4.81-5.93,4.6-16.69.21-33.39,0-50.08.11a7.35,7.35,0,0,1-8-4.37Z"/></g></g></g></svg>