<svg xmlns="http://www.w3.org/2000/svg" xmlns:xlink="http://www.w3.org/1999/xlink" viewBox="0 0 113 113"><defs><style>.cls-1,.cls-2{fill:none;}.cls-2{stroke:#fff6d2;stroke-width:5px;}.cls-3{clip-path:url(#clip-path);}.cls-4{fill:#fff6d2;}</style><clipPath id="clip-path"><rect class="cls-1" x="28" y="32.5" width="57" height="56"/></clipPath></defs><g id="Capa_2" data-name="Capa 2"><g id="Capa_1-2" data-name="Capa 1"><path class="cls-2" d="M56.5,2.5h0a54,54,0,0,1,54,54h0a54,54,0,0,1-54,54h0a54,54,0,0,1-54-54h0A54,54,0,0,1,56.5,2.5Z"/><g class="cls-3"><path class="cls-4" d="M41,37.15a2.29,2.29,0,0,0-.78-.64,2.39,2.39,0,0,0-1-.27,2.44,2.44,0,0,0-1,.15,2.28,2.28,0,0,0-.86.54l-3.68,3.62a5.92,5.92,0,0,0-1.6,6.2A61.23,61.23,0,0,0,47,69.87,62.72,62.72,0,0,0,70.5,84.46a6.18,6.18,0,0,0,6.31-1.57l3.68-3.62a2.48,2.48,0,0,0,.56-.84,2.39,2.39,0,0,0,.15-1,2.36,2.36,0,0,0-.28-1,2.41,2.41,0,0,0-.65-.77l-8.22-6.27A2.44,2.44,0,0,0,70,69l-7.8,1.91a6.16,6.16,0,0,1-3.16,0,6.26,6.26,0,0,1-2.74-1.56l-8.75-8.6a6,6,0,0,1-1.64-5.8l2-7.67a2.24,2.24,0,0,0,0-1.06,2.39,2.39,0,0,0-.45-1Zm-6.31-2.86a6.36,6.36,0,0,1,2.2-1.4,6.5,6.5,0,0,1,2.59-.38,6.29,6.29,0,0,1,2.51.7,6.18,6.18,0,0,1,2,1.65l6.39,8.07a6,6,0,0,1,1.12,5.23l-2,7.66a2.36,2.36,0,0,0,0,1.21,2.22,2.22,0,0,0,.62,1L59,66.67a2.4,2.4,0,0,0,1.06.61,2.44,2.44,0,0,0,1.23,0l7.8-1.92a6.41,6.41,0,0,1,2.79,0,6.22,6.22,0,0,1,2.53,1.16l8.22,6.27a6,6,0,0,1,.58,9.14L79.5,85.52A10,10,0,0,1,69.25,88a66.65,66.65,0,0,1-25-15.47A65.17,65.17,0,0,1,28.53,48,9.62,9.62,0,0,1,31,37.91l3.69-3.62Z"/></g></g></g></svg>