<svg xmlns="http://www.w3.org/2000/svg" viewBox="0 0 153.85 46.04"><defs><style>.cls-1{fill:#10454f;}</style></defs><g id="Capa_2" data-name="Capa 2"><g id="Capa_1-2" data-name="Capa 1"><path class="cls-1" d="M147.9,1a4.84,4.84,0,0,1,4.89,4.81V40.19A4.84,4.84,0,0,1,147.9,45H6a4.84,4.84,0,0,1-4.89-4.81V5.85A4.84,4.84,0,0,1,6,1Zm0-1H6A5.89,5.89,0,0,0,0,5.85V40.19A5.89,5.89,0,0,0,6,46h142a5.89,5.89,0,0,0,5.95-5.85V5.85A5.89,5.89,0,0,0,147.9,0Z"/><path class="cls-1" d="M50.39,27.8h2.12v4.81a8.68,8.68,0,0,1-2.18,1.15,7.76,7.76,0,0,1-2.59.41,7.18,7.18,0,0,1-3.35-.81A6.1,6.1,0,0,1,42,31.16,5.77,5.77,0,0,1,41.15,28,5.88,5.88,0,0,1,42,24.79a6.1,6.1,0,0,1,2.36-2.2,7.25,7.25,0,0,1,3.41-.81,7.08,7.08,0,0,1,2.77.52,6,6,0,0,1,2.12,1.45l-1.41,1.39a4.62,4.62,0,0,0-3.36-1.39,4.79,4.79,0,0,0-2.3.52A4.47,4.47,0,0,0,44,25.77a4.59,4.59,0,0,0-.58,2.2A3.84,3.84,0,0,0,44,30.12a3.73,3.73,0,0,0,1.59,1.5,4.79,4.79,0,0,0,2.3.52,5.33,5.33,0,0,0,2.53-.63V27.8Z"/><path class="cls-1" d="M57,33.47a4.35,4.35,0,0,1-1.77-1.68,4.87,4.87,0,0,1,0-4.86A4.35,4.35,0,0,1,57,25.25a5.16,5.16,0,0,1,2.53-.58,5.45,5.45,0,0,1,2.59.58,4,4,0,0,1,1.76,1.68,4.87,4.87,0,0,1,0,4.86,4.39,4.39,0,0,1-1.76,1.68,5.29,5.29,0,0,1-2.59.58A5.16,5.16,0,0,1,57,33.47Zm4.53-2a2.76,2.76,0,0,0,.76-2.08,2.79,2.79,0,0,0-.76-2.09,2.89,2.89,0,0,0-4,0,2.83,2.83,0,0,0-.76,2.09,2.79,2.79,0,0,0,.76,2.08,2.86,2.86,0,0,0,4,0Z"/><path class="cls-1" d="M68.24,33.47a4.35,4.35,0,0,1-1.77-1.68,4.87,4.87,0,0,1,0-4.86,4.35,4.35,0,0,1,1.77-1.68,5.19,5.19,0,0,1,2.53-.58,5.42,5.42,0,0,1,2.59.58,4.1,4.1,0,0,1,1.77,1.68,4.93,4.93,0,0,1,0,4.86,4.48,4.48,0,0,1-1.77,1.68,5.27,5.27,0,0,1-2.59.58A5.19,5.19,0,0,1,68.24,33.47Zm4.53-2a2.76,2.76,0,0,0,.77-2.08,2.8,2.8,0,0,0-.77-2.09,2.87,2.87,0,0,0-4,0A2.8,2.8,0,0,0,68,29.36a2.76,2.76,0,0,0,.77,2.08,2.85,2.85,0,0,0,4,0Z"/><path class="cls-1" d="M87.07,24.78v7.76c0,3.25-1.65,4.87-5,4.87a9,9,0,0,1-2.54-.35,5,5,0,0,1-2-1l1-1.62a5.67,5.67,0,0,0,1.53.81,7.28,7.28,0,0,0,1.89.29,3.16,3.16,0,0,0,2.24-.7,2.8,2.8,0,0,0,.7-2.08v-.47a3.62,3.62,0,0,1-1.35.93,4.39,4.39,0,0,1-1.77.29A4.73,4.73,0,0,1,79.36,33a4,4,0,0,1-1.71-1.56,4.35,4.35,0,0,1,1.71-6.2,5.4,5.4,0,0,1,2.41-.52A4.52,4.52,0,0,1,83.6,25,3.87,3.87,0,0,1,85,26V24.78ZM84.13,31a2.38,2.38,0,0,0,.76-1.91,2.33,2.33,0,0,0-.76-1.85,2.92,2.92,0,0,0-2.06-.7,3,3,0,0,0-2.06.7,2.34,2.34,0,0,0-.77,1.85A2.56,2.56,0,0,0,80,31a3.07,3.07,0,0,0,2.06.75A2.74,2.74,0,0,0,84.13,31Z"/><path class="cls-1" d="M90,21.25h2.18V34H90Z"/><path class="cls-1" d="M103.74,30.06h-7.3a2.53,2.53,0,0,0,1,1.62,3.24,3.24,0,0,0,2,.58,3.56,3.56,0,0,0,2.54-1l1.17,1.34a4,4,0,0,1-1.58,1.1,6.41,6.41,0,0,1-2.18.4,5.75,5.75,0,0,1-2.71-.58,4.93,4.93,0,0,1-1.83-1.68,4.68,4.68,0,0,1-.64-2.43A5,5,0,0,1,94.85,27a4.59,4.59,0,0,1,1.71-1.68A4.83,4.83,0,0,1,99,24.73a4.76,4.76,0,0,1,2.42.58A3.88,3.88,0,0,1,103.1,27a4.88,4.88,0,0,1,.58,2.49A1.39,1.39,0,0,1,103.74,30.06Zm-6.47-3a2.61,2.61,0,0,0-.89,1.62h5.3a2.43,2.43,0,0,0-.88-1.62,2.75,2.75,0,0,0-3.53,0Z"/><path class="cls-1" d="M118.63,22.47a4.09,4.09,0,0,1,1.83,6,4,4,0,0,1-1.83,1.5,6.63,6.63,0,0,1-2.76.52H113.1v3.48h-2.3V22h5A6.73,6.73,0,0,1,118.63,22.47ZM118,28a2,2,0,0,0,.77-1.79,2.19,2.19,0,0,0-.77-1.8,3.53,3.53,0,0,0-2.23-.64h-2.65v4.75h2.65A3,3,0,0,0,118,28Z"/><path class="cls-1" d="M123.35,21.25h2.17V34h-2.17Z"/><path class="cls-1" d="M135.06,25.66a3.78,3.78,0,0,1,1.12,2.95V34h-2.06v-1.1a2.83,2.83,0,0,1-1.12.93,4.2,4.2,0,0,1-1.76.29,4.49,4.49,0,0,1-1.83-.35,3.07,3.07,0,0,1-1.24-1,2.54,2.54,0,0,1,.53-3.36,4.59,4.59,0,0,1,3-.75h2.41v-.12a1.68,1.68,0,0,0-.59-1.45,2.53,2.53,0,0,0-1.71-.52,4.52,4.52,0,0,0-1.52.23,3.91,3.91,0,0,0-1.3.7l-.88-1.57a6.42,6.42,0,0,1,1.76-.86,8.75,8.75,0,0,1,2.18-.29A3.92,3.92,0,0,1,135.06,25.66Zm-2,6.48a1.93,1.93,0,0,0,.88-1v-1h-2.23c-1.24,0-1.89.4-1.89,1.21a1.13,1.13,0,0,0,.47.93,2.18,2.18,0,0,0,1.3.35A3.69,3.69,0,0,0,133.06,32.14Z"/><path class="cls-1" d="M147.48,24.79l-4.36,9.9a4.56,4.56,0,0,1-1.47,2.09,3.69,3.69,0,0,1-2.12.63,3.55,3.55,0,0,1-1.35-.23,2.89,2.89,0,0,1-1.12-.64l.88-1.56a3.27,3.27,0,0,0,.77.46,2.31,2.31,0,0,0,.88.18,1.52,1.52,0,0,0,.94-.29,2.9,2.9,0,0,0,.71-1l.18-.34-4.07-9.21h2.3l2.94,6.77,2.95-6.77Z"/><path class="cls-1" d="M37,22.41l-5.89-3.3-4.83,4.58,4.42,4.17L37,24.32a1,1,0,0,0,.53-.92A1.14,1.14,0,0,0,37,22.41Z"/><path class="cls-1" d="M30.14,18.54l-6.42-3.65L9.59,7.76l16,15.18Z"/><path class="cls-1" d="M9.83,39.44l13.9-7.58,6-3.42-4.18-4Z"/><path class="cls-1" d="M8.59,8.4V39L24.72,23.69Z"/><path class="cls-1" d="M44.27,8.52a4.23,4.23,0,0,1,2,.4,3.31,3.31,0,0,1,1.24,1.16,3.69,3.69,0,0,1,.41,1.85,3.73,3.73,0,0,1-.41,1.86,2.56,2.56,0,0,1-1.24,1.15,4.23,4.23,0,0,1-2,.41H42V8.52Zm0,6.31a3.15,3.15,0,0,0,2.3-.75,2.85,2.85,0,0,0,.76-2.15,2.82,2.82,0,0,0-.76-2.14A3.15,3.15,0,0,0,44.27,9H42.68v5.79Z"/><path class="cls-1" d="M49.63,9.38a.43.43,0,0,1-.29-.11A.45.45,0,0,1,49.22,9a.41.41,0,0,1,.41-.41.46.46,0,0,1,.3.12.43.43,0,0,1,.12.29.39.39,0,0,1-.42.4Zm-.23,1h.53v4.92H49.4Z"/><path class="cls-1" d="M51.87,13.9a1.09,1.09,0,0,0,.23.53,1.73,1.73,0,0,0,.47.34,2.15,2.15,0,0,0,.65.12,1.52,1.52,0,0,0,.94-.23.64.64,0,0,0,.3-.58.66.66,0,0,0-.18-.47,1.39,1.39,0,0,0-.47-.29l-.65-.17c-.17-.06-.35-.06-.53-.11A2.62,2.62,0,0,1,52,12.8a3.82,3.82,0,0,1-.47-.34,1,1,0,0,1-.18-.64.92.92,0,0,1,.24-.7,1.41,1.41,0,0,1,.65-.46,2.58,2.58,0,0,1,.94-.17,2.39,2.39,0,0,1,1.12.29,1.45,1.45,0,0,1,.65.87l-.53.17a.88.88,0,0,0-.3-.46,1.16,1.16,0,0,0-.47-.24,1.71,1.71,0,0,0-.47,0,1.12,1.12,0,0,0-.82.23.58.58,0,0,0-.3.58.45.45,0,0,0,.12.34.62.62,0,0,0,.29.24c.12,0,.24.11.41.17s.36.06.48.12l.59.17a4.42,4.42,0,0,1,.52.23,1.37,1.37,0,0,1,.42.41,1,1,0,0,1,.17.63,1.16,1.16,0,0,1-.23.76,1.41,1.41,0,0,1-.65.46,2.38,2.38,0,0,1-.94.17A2,2,0,0,1,52,15.24a1.82,1.82,0,0,1-.65-1Z"/><path class="cls-1" d="M56.87,14.19l.06,3.07h-.59V10.43h.53l.06,1.1a1.58,1.58,0,0,1,.71-.81,1.91,1.91,0,0,1,1.24-.35,2.41,2.41,0,0,1,1.17.29,3,3,0,0,1,.83.87,3,3,0,0,1,.29,1.33,3.25,3.25,0,0,1-.29,1.33,2,2,0,0,1-.83.87,2.79,2.79,0,0,1-1.23.29A2,2,0,0,1,57.58,15,1.38,1.38,0,0,1,56.87,14.19Zm3.59-1.27A2.12,2.12,0,0,0,60,11.47,1.72,1.72,0,0,0,58.7,11a1.77,1.77,0,0,0-.94.23,1.8,1.8,0,0,0-.65.69,1.94,1.94,0,0,0-.24,1.05,1.93,1.93,0,0,0,.24,1,1.8,1.8,0,0,0,.65.69,1.69,1.69,0,0,0,.94.24A1.64,1.64,0,0,0,60,14.36,2.19,2.19,0,0,0,60.46,12.92Z"/><path class="cls-1" d="M64.47,15.41a2.83,2.83,0,0,1-1.24-.29,2,2,0,0,1-.88-.87,2.32,2.32,0,0,1-.3-1.33,2.94,2.94,0,0,1,.3-1.33,2,2,0,0,1,.88-.87,2.83,2.83,0,0,1,1.24-.29,2.79,2.79,0,0,1,1.23.29,2.06,2.06,0,0,1,.89.87,2.41,2.41,0,0,1,.29,1.33,3.08,3.08,0,0,1-.29,1.33,2.06,2.06,0,0,1-.89.87A2.79,2.79,0,0,1,64.47,15.41Zm0-.52a1.59,1.59,0,0,0,.88-.23,1.56,1.56,0,0,0,.71-.64,2.23,2.23,0,0,0,.23-1.1,2.11,2.11,0,0,0-.23-1.1,1.56,1.56,0,0,0-.71-.64,2.61,2.61,0,0,0-.88-.23,1.74,1.74,0,0,0-.89.23,1.15,1.15,0,0,0-.64.64,2.13,2.13,0,0,0-.24,1.1,2,2,0,0,0,.24,1.1,1.7,1.7,0,0,0,.64.64A1.48,1.48,0,0,0,64.47,14.89Z"/><path class="cls-1" d="M68.18,10.43h.53l.06.87a1.44,1.44,0,0,1,.64-.7,1.89,1.89,0,0,1,1-.23,2,2,0,0,1,1,.23,1.44,1.44,0,0,1,.64.7,2.28,2.28,0,0,1,.24,1.21v2.78h-.59V12.57a1.89,1.89,0,0,0-.35-1.27,1.31,1.31,0,0,0-1.06-.47,1.52,1.52,0,0,0-1.12.47,1.83,1.83,0,0,0-.41,1.38v2.61h-.59Z"/><path class="cls-1" d="M74.24,9.38A.43.43,0,0,1,74,9.27.45.45,0,0,1,73.83,9a.41.41,0,0,1,.41-.41.46.46,0,0,1,.3.12.43.43,0,0,1,.12.29.45.45,0,0,1-.12.29A.61.61,0,0,1,74.24,9.38Zm-.29,1h.53v4.92H74Z"/><path class="cls-1" d="M76.78,11.59a1.63,1.63,0,0,1,.7-.87,2.25,2.25,0,0,1,1.24-.35,2.42,2.42,0,0,1,1.18.29,2.84,2.84,0,0,1,.82.87,2.94,2.94,0,0,1,.3,1.33,3.1,3.1,0,0,1-.3,1.33,1.67,1.67,0,0,1-.82.87,2.12,2.12,0,0,1-1.18.29A1.86,1.86,0,0,1,77.54,15a3,3,0,0,1-.7-.81l-.06,1.1h-.53v-7h.59Zm3.59,1.33a2.17,2.17,0,0,0-.47-1.45A1.74,1.74,0,0,0,78.6,11a1.8,1.8,0,0,0-.94.23,1.9,1.9,0,0,0-.65.7,2,2,0,0,0-.23,1A2,2,0,0,0,77,14a2,2,0,0,0,.65.7,1.8,1.8,0,0,0,.94.23,1.7,1.7,0,0,0,1.3-.52A2.29,2.29,0,0,0,80.37,12.92Z"/><path class="cls-1" d="M82.25,8.34h.59v7h-.59Z"/><path class="cls-1" d="M86.43,15.41a2.25,2.25,0,0,1-1.24-.35,2.12,2.12,0,0,1-.82-.93,3.1,3.1,0,0,1-.3-1.33,2.83,2.83,0,0,1,.3-1.27,2.35,2.35,0,0,1,.82-.87,2.14,2.14,0,0,1,1.18-.29,2.45,2.45,0,0,1,1.18.29,1.79,1.79,0,0,1,.82.81,2.38,2.38,0,0,1,.3,1.16v.46h-4a1.54,1.54,0,0,0,.24.93,2,2,0,0,0,.59.63,1.39,1.39,0,0,0,.88.24,2,2,0,0,0,1.06-.24,1.44,1.44,0,0,0,.65-.69l.47.17a2.29,2.29,0,0,1-.82,1A2.94,2.94,0,0,1,86.43,15.41Zm1.65-2.84a1.87,1.87,0,0,0-.18-.87,1.43,1.43,0,0,0-.59-.58,2,2,0,0,0-.88-.23,1.38,1.38,0,0,0-.82.23,1.43,1.43,0,0,0-.59.58,1.87,1.87,0,0,0-.3.87Z"/><path class="cls-1" d="M94.79,15.41a2.19,2.19,0,0,1-1.23-.35,2.09,2.09,0,0,1-.83-.93,3.25,3.25,0,0,1-.29-1.33,3,3,0,0,1,.29-1.27,2.3,2.3,0,0,1,.83-.87,2.08,2.08,0,0,1,1.17-.29,2.45,2.45,0,0,1,1.18.29,1.86,1.86,0,0,1,.83.81A2.49,2.49,0,0,1,97,12.63v.46H93a1.61,1.61,0,0,0,.23.93,2,2,0,0,0,.59.63,1.4,1.4,0,0,0,.88.24,2,2,0,0,0,1.06-.24,1.44,1.44,0,0,0,.65-.69l.47.17a2.22,2.22,0,0,1-.82,1A2.94,2.94,0,0,1,94.79,15.41Zm1.65-2.84a1.87,1.87,0,0,0-.18-.87,1.41,1.41,0,0,0-.58-.58,2.08,2.08,0,0,0-.89-.23,1.38,1.38,0,0,0-.82.23,1.43,1.43,0,0,0-.59.58,1.76,1.76,0,0,0-.29.87Z"/><path class="cls-1" d="M98.33,10.43h.52l.06.87a1.51,1.51,0,0,1,.65-.7,1.88,1.88,0,0,1,1-.23,2,2,0,0,1,1,.23,1.46,1.46,0,0,1,.65.7,2.28,2.28,0,0,1,.24,1.21v2.78h-.59V12.57a2,2,0,0,0-.35-1.27,1.32,1.32,0,0,0-1.07-.47,1.5,1.5,0,0,0-1.11.47,1.83,1.83,0,0,0-.42,1.38v2.61h-.58Z"/></g></g></svg>