<svg width="627" height="123" viewBox="0 0 627 123" fill="none" xmlns="http://www.w3.org/2000/svg">
<path d="M12.2 37.56V57H1V0.999996H17.4C24.36 0.999996 27.8 4.44 27.8 11.4V27.16C27.8 34.12 24.36 37.56 17.4 37.56H12.2ZM16.6 12.6C16.6 11.24 15.96 10.6 14.6 10.6H12.2V27.96H14.6C15.96 27.96 16.6 27.32 16.6 25.96V12.6ZM53.2419 30.52C56.6819 31.48 58.1219 33.64 58.1219 37.72V57H46.9219V37.8C46.9219 36.44 46.2819 35.8 44.9219 35.8H42.1219V57H30.9219V0.999996H47.6419C54.6019 0.999996 58.0419 4.44 58.0419 11.4V22.2C58.0419 27 56.2819 29.4 53.2419 30.52ZM46.8419 12.76C46.8419 11.4 46.2019 10.76 44.8419 10.76H42.1219V26.28H44.8419C46.2019 26.28 46.8419 25.64 46.8419 24.28V12.76ZM61.8594 0.999996H82.6594V11H73.0594V23.56H82.2594V33.56H73.0594V47H82.8194V57H61.8594V0.999996ZM103.271 34.76H99.7506V25.4H114.231V47.08C114.231 54.04 110.791 57.48 103.831 57.48H96.6306C89.6706 57.48 86.2306 54.04 86.2306 47.08V10.92C86.2306 3.96 89.6706 0.519998 96.6306 0.519998H103.671C110.631 0.519998 114.071 3.96 114.071 10.92V21.64H103.031V12.12C103.031 10.76 102.391 10.12 101.031 10.12H99.4306C98.0706 10.12 97.4306 10.76 97.4306 12.12V45.88C97.4306 47.24 98.0706 47.88 99.4306 47.88H101.271C102.631 47.88 103.271 47.24 103.271 45.88V34.76ZM145.629 0.999996V47.08C145.629 54.04 142.189 57.48 135.229 57.48H128.429C121.469 57.48 118.029 54.04 118.029 47.08V0.999996H129.229V45.88C129.229 47.24 129.869 47.88 131.229 47.88H132.429C133.789 47.88 134.429 47.24 134.429 45.88V0.999996H145.629ZM176.876 57H165.996L158.876 26.52L159.036 40.76L159.196 57H149.516V0.999996H160.956L167.436 28.76L167.276 12.6L167.196 0.999996H176.876V57ZM197.644 57H186.444V11H179.644V0.999996H204.444V11H197.644V57ZM232.447 57H221.327L220.447 48.84H213.407L212.607 57H202.447L209.807 0.999996H225.087L232.447 57ZM216.927 14.68L214.447 39.08H219.407L216.927 14.68ZM256.678 27.96C260.118 30.44 261.158 32.6 261.158 36.76V47.08C261.158 54.04 257.718 57.48 250.758 57.48H244.518C237.558 57.48 234.118 54.04 234.118 47.08V35.16H245.078V46.04C245.078 47.4 245.718 48.04 247.078 48.04H248.118C249.478 48.04 250.118 47.4 250.118 46.04V39.32C250.118 37.56 249.558 36.68 248.198 35.72L238.598 28.6C235.158 26.12 234.118 23.8 234.118 19.8V10.92C234.118 3.96 237.558 0.519998 244.518 0.519998H250.598C257.558 0.519998 260.998 3.96 260.998 10.92V21.16H250.038V11.96C250.038 10.6 249.398 9.96 248.038 9.96H247.158C245.798 9.96 245.158 10.6 245.158 11.96V17.24C245.158 19 245.718 19.88 247.078 20.84L256.678 27.96ZM275.375 0.999996H295.775V11H286.575V24.12H295.375V34.12H286.575V57H275.375V0.999996ZM321.211 30.52C324.651 31.48 326.091 33.64 326.091 37.72V57H314.891V37.8C314.891 36.44 314.251 35.8 312.891 35.8H310.091V57H298.891V0.999996H315.611C322.571 0.999996 326.011 4.44 326.011 11.4V22.2C326.011 27 324.251 29.4 321.211 30.52ZM314.811 12.76C314.811 11.4 314.171 10.76 312.811 10.76H310.091V26.28H312.811C314.171 26.28 314.811 25.64 314.811 24.28V12.76ZM329.828 0.999996H350.628V11H341.028V23.56H350.228V33.56H341.028V47H350.788V57H329.828V0.999996ZM370.839 32.28H381.879V47.08C381.879 54.04 378.439 57.48 371.479 57.48H364.599C357.639 57.48 354.199 54.04 354.199 47.08V10.92C354.199 3.96 357.639 0.519998 364.599 0.519998H371.319C378.279 0.519998 381.719 3.96 381.719 10.92V24.04H370.679V12.12C370.679 10.76 370.039 10.12 368.679 10.12H367.399C366.039 10.12 365.399 10.76 365.399 12.12V45.88C365.399 47.24 366.039 47.88 367.399 47.88H368.839C370.199 47.88 370.839 47.24 370.839 45.88V32.28ZM413.129 0.999996V47.08C413.129 54.04 409.689 57.48 402.729 57.48H395.929C388.969 57.48 385.529 54.04 385.529 47.08V0.999996H396.729V45.88C396.729 47.24 397.369 47.88 398.729 47.88H399.929C401.289 47.88 401.929 47.24 401.929 45.88V0.999996H413.129ZM417.016 0.999996H437.816V11H428.216V23.56H437.416V33.56H428.216V47H437.976V57H417.016V0.999996ZM468.907 57H458.027L450.907 26.52L451.067 40.76L451.227 57H441.547V0.999996H452.987L459.467 28.76L459.307 12.6L459.227 0.999996H468.907V57ZM489.675 57H478.475V11H471.675V0.999996H496.475V11H489.675V57ZM499.281 0.999996H520.081V11H510.481V23.56H519.681V33.56H510.481V47H520.241V57H499.281V0.999996ZM545.818 27.96C549.258 30.44 550.298 32.6 550.298 36.76V47.08C550.298 54.04 546.858 57.48 539.898 57.48H533.658C526.698 57.48 523.258 54.04 523.258 47.08V35.16H534.218V46.04C534.218 47.4 534.858 48.04 536.218 48.04H537.258C538.618 48.04 539.258 47.4 539.258 46.04V39.32C539.258 37.56 538.698 36.68 537.338 35.72L527.738 28.6C524.298 26.12 523.258 23.8 523.258 19.8V10.92C523.258 3.96 526.698 0.519998 533.658 0.519998H539.738C546.698 0.519998 550.138 3.96 550.138 10.92V21.16H539.178V11.96C539.178 10.6 538.538 9.96 537.178 9.96H536.298C534.938 9.96 534.298 10.6 534.298 11.96V17.24C534.298 19 534.858 19.88 536.218 20.84L545.818 27.96Z" fill="#E9993E"/>
<path d="M23.24 92.96C26.68 95.44 27.72 97.6 27.72 101.76V112.08C27.72 119.04 24.28 122.48 17.32 122.48H11.08C4.12 122.48 0.68 119.04 0.68 112.08V100.16H11.64V111.04C11.64 112.4 12.28 113.04 13.64 113.04H14.68C16.04 113.04 16.68 112.4 16.68 111.04V104.32C16.68 102.56 16.12 101.68 14.76 100.72L5.16 93.6C1.72 91.12 0.68 88.8 0.68 84.8V75.92C0.68 68.96 4.12 65.52 11.08 65.52H17.16C24.12 65.52 27.56 68.96 27.56 75.92V86.16H16.6V76.96C16.6 75.6 15.96 74.96 14.6 74.96H13.72C12.36 74.96 11.72 75.6 11.72 76.96V82.24C11.72 84 12.28 84.88 13.64 85.84L23.24 92.96ZM58.9181 112.08C58.9181 119.04 55.4781 122.48 48.5181 122.48H41.3181C34.3581 122.48 30.9181 119.04 30.9181 112.08V75.92C30.9181 68.96 34.3581 65.52 41.3181 65.52H48.5181C55.4781 65.52 58.9181 68.96 58.9181 75.92V112.08ZM47.7181 77.12C47.7181 75.76 47.0781 75.12 45.7181 75.12H44.1181C42.7581 75.12 42.1181 75.76 42.1181 77.12V110.88C42.1181 112.24 42.7581 112.88 44.1181 112.88H45.7181C47.0781 112.88 47.7181 112.24 47.7181 110.88V77.12ZM85.0369 93.04C88.3969 94 89.8369 96.16 89.8369 100.24V111.6C89.8369 118.56 86.3969 122 79.4369 122H62.7969V66H79.2769C86.2369 66 89.6769 69.44 89.6769 76.4V84.72C89.6769 89.52 87.9969 91.92 85.0369 93.04ZM78.5569 77.6C78.5569 76.24 77.9169 75.6 76.5569 75.6H73.9169V88.88H76.5569C77.9169 88.88 78.5569 88.24 78.5569 86.88V77.6ZM73.9169 98.24V112.4H76.7169C78.0769 112.4 78.7169 111.76 78.7169 110.4V100.24C78.7169 98.88 78.0769 98.24 76.7169 98.24H73.9169ZM115.742 95.52C119.182 96.48 120.622 98.64 120.622 102.72V122H109.422V102.8C109.422 101.44 108.782 100.8 107.422 100.8H104.622V122H93.4219V66H110.142C117.102 66 120.542 69.44 120.542 76.4V87.2C120.542 92 118.782 94.4 115.742 95.52ZM109.342 77.76C109.342 76.4 108.702 75.76 107.342 75.76H104.622V91.28H107.342C108.702 91.28 109.342 90.64 109.342 89.28V77.76ZM124.359 66H145.159V76H135.559V88.56H144.759V98.56H135.559V112H145.319V122H124.359V66ZM176.55 122H165.35V76H158.55V66H183.35V76H176.55V122ZM213.676 66V112.08C213.676 119.04 210.236 122.48 203.276 122.48H196.476C189.516 122.48 186.076 119.04 186.076 112.08V66H197.276V110.88C197.276 112.24 197.916 112.88 199.276 112.88H200.476C201.836 112.88 202.476 112.24 202.476 110.88V66H213.676ZM244.902 97.28H255.942V112.08C255.942 119.04 252.502 122.48 245.542 122.48H238.662C231.702 122.48 228.262 119.04 228.262 112.08V75.92C228.262 68.96 231.702 65.52 238.662 65.52H245.382C252.342 65.52 255.782 68.96 255.782 75.92V89.04H244.742V77.12C244.742 75.76 244.102 75.12 242.742 75.12H241.462C240.102 75.12 239.462 75.76 239.462 77.12V110.88C239.462 112.24 240.102 112.88 241.462 112.88H242.902C244.262 112.88 244.902 112.24 244.902 110.88V97.28ZM287.192 66V112.08C287.192 119.04 283.752 122.48 276.792 122.48H269.992C263.032 122.48 259.592 119.04 259.592 112.08V66H270.792V110.88C270.792 112.24 271.432 112.88 272.792 112.88H273.992C275.352 112.88 275.992 112.24 275.992 110.88V66H287.192ZM291.078 66H311.878V76H302.278V88.56H311.478V98.56H302.278V112H312.038V122H291.078V66ZM342.969 122H332.089L324.969 91.52L325.129 105.76L325.289 122H315.609V66H327.049L333.529 93.76L333.369 77.6L333.289 66H342.969V122ZM363.738 122H352.538V76H345.738V66H370.538V76H363.738V122ZM398.541 122H387.421L386.541 113.84H379.501L378.701 122H368.541L375.901 66H391.181L398.541 122ZM383.021 79.68L380.541 104.08H385.501L383.021 79.68ZM411.781 66H422.981V112H431.061V122H411.781V66ZM462.447 122H451.327L450.447 113.84H443.407L442.607 122H432.447L439.807 66H455.087L462.447 122ZM446.927 79.68L444.447 104.08H449.407L446.927 79.68ZM492.168 97.28H503.208V112.08C503.208 119.04 499.768 122.48 492.808 122.48H485.928C478.967 122.48 475.528 119.04 475.528 112.08V75.92C475.528 68.96 478.967 65.52 485.928 65.52H492.648C499.608 65.52 503.048 68.96 503.048 75.92V89.04H492.008V77.12C492.008 75.76 491.368 75.12 490.008 75.12H488.728C487.368 75.12 486.728 75.76 486.728 77.12V110.88C486.728 112.24 487.368 112.88 488.728 112.88H490.168C491.528 112.88 492.168 112.24 492.168 110.88V97.28ZM534.947 122H523.827L522.947 113.84H515.907L515.107 122H504.947L512.307 66H527.587L534.947 122ZM519.427 79.68L516.947 104.08H521.907L519.427 79.68ZM564.458 66V112.08C564.458 119.04 561.018 122.48 554.058 122.48H547.258C540.298 122.48 536.858 119.04 536.858 112.08V66H548.058V110.88C548.058 112.24 548.698 112.88 550.058 112.88H551.258C552.618 112.88 553.258 112.24 553.258 110.88V66H564.458ZM590.584 92.96C594.024 95.44 595.064 97.6 595.064 101.76V112.08C595.064 119.04 591.624 122.48 584.664 122.48H578.424C571.464 122.48 568.024 119.04 568.024 112.08V100.16H578.984V111.04C578.984 112.4 579.624 113.04 580.984 113.04H582.024C583.384 113.04 584.024 112.4 584.024 111.04V104.32C584.024 102.56 583.464 101.68 582.104 100.72L572.504 93.6C569.064 91.12 568.024 88.8 568.024 84.8V75.92C568.024 68.96 571.464 65.52 578.424 65.52H584.504C591.464 65.52 594.904 68.96 594.904 75.92V86.16H583.944V76.96C583.944 75.6 583.304 74.96 581.944 74.96H581.064C579.704 74.96 579.064 75.6 579.064 76.96V82.24C579.064 84 579.624 84.88 580.984 85.84L590.584 92.96ZM626.431 122H615.311L614.431 113.84H607.391L606.591 122H596.431L603.791 66H619.071L626.431 122ZM610.911 79.68L608.431 104.08H613.391L610.911 79.68Z" fill="#10454F"/>
</svg>
