<svg xmlns="http://www.w3.org/2000/svg" viewBox="0 0 469.57 469.49"><defs><style>.cls-1{fill:#f5f5f5;}</style></defs><g id="Capa_2" data-name="Capa 2"><g id="Capa_1-2" data-name="Capa 1"><path class="cls-1" d="M0,234.3C1,104.13,106.55-1,235.29,0,365.4,1,470.51,106.65,469.56,235.34,468.61,366,363.6,470,234.26,469.49,104,469-1,363,0,234.3ZM235,21.51c-117.83-.21-213.19,95-213.44,213.13-.25,117.8,95,213.25,213.09,213.49C352.37,448.36,447.84,353,448,235,448.25,117.15,353,21.72,235,21.51Z"/><path class="cls-1" d="M297.62,144.6c-10.67,0-21,0-31.27,0-15.84,0-22.42,6.58-22.55,22.48-.06,7.33,0,14.65,0,22.65h51.77c-2.4,15.32-4.69,29.93-7,44.91H243.89V370H199.43V235.05H172.16V189.88h27.6c0-13.41-.3-26.22.09-39a65.44,65.44,0,0,1,7.45-29.3c7.6-14.14,20.3-20.7,35.56-21.41,18.1-.84,36.27-.2,54.76-.2Z"/></g></g></svg>