<svg width="499" height="237" viewBox="0 0 499 237" fill="none" xmlns="http://www.w3.org/2000/svg">
<path d="M29.3 34.7C33.6 37.8 34.9 40.5 34.9 45.7V58.6C34.9 67.3 30.6 71.6 21.9 71.6H14.1C5.4 71.6 1.1 67.3 1.1 58.6V43.7H14.8V57.3C14.8 59 15.6 59.8 17.3 59.8H18.6C20.3 59.8 21.1 59 21.1 57.3V48.9C21.1 46.7 20.4 45.6 18.7 44.4L6.7 35.5C2.4 32.4 1.1 29.5 1.1 24.5V13.4C1.1 4.7 5.4 0.399997 14.1 0.399997H21.7C30.4 0.399997 34.7 4.7 34.7 13.4V26.2H21V14.7C21 13 20.2 12.2 18.5 12.2H17.4C15.7 12.2 14.9 13 14.9 14.7V21.3C14.9 23.5 15.6 24.6 17.3 25.8L29.3 34.7ZM39.5977 0.999995H65.5977V13.5H53.5977V29.2H65.0977V41.7H53.5977V58.5H65.7977V71H39.5977V0.999995ZM104.962 71H91.3617L82.4617 32.9L82.6617 50.7L82.8617 71H70.7617V0.999995H85.0617L93.1617 35.7L92.9617 15.5L92.8617 0.999995H104.962V71ZM110.422 71V0.999995H130.122C140.222 0.999995 145.122 5.9 145.122 16V56C145.122 66.1 140.222 71 130.122 71H110.422ZM124.422 13V59H127.222C129.922 59 131.122 57.8 131.122 55.1V16.9C131.122 14.2 129.922 13 127.222 13H124.422ZM180.949 71L175.649 24.7V71H164.449V0.999995H184.649L188.649 43.4L192.949 0.999995H213.249V71H199.449V25.2L194.149 71H180.949ZM253.558 58.6C253.558 67.3 249.258 71.6 240.558 71.6H231.558C222.858 71.6 218.558 67.3 218.558 58.6V13.4C218.558 4.7 222.858 0.399997 231.558 0.399997H240.558C249.258 0.399997 253.558 4.7 253.558 13.4V58.6ZM239.558 14.9C239.558 13.2 238.758 12.4 237.058 12.4H235.058C233.358 12.4 232.558 13.2 232.558 14.9V57.1C232.558 58.8 233.358 59.6 235.058 59.6H237.058C238.758 59.6 239.558 58.8 239.558 57.1V14.9ZM293.106 71H279.506L270.606 32.9L270.806 50.7L271.006 71H258.906V0.999995H273.206L281.306 35.7L281.106 15.5L281.006 0.999995H293.106V71ZM298.566 0.999995H324.566V13.5H312.566V29.2H324.066V41.7H312.566V58.5H324.766V71H298.566V0.999995ZM352.93 46.1V71H338.93V47.1L327.13 0.999995H341.73L346.43 24.8L351.43 0.999995H364.73L352.93 46.1Z" fill="#114550"/>
<path d="M22.5 154H8.5V96.5H7.07805e-08V84H31V96.5H22.5V154ZM69.3195 141.6C69.3195 150.3 65.0195 154.6 56.3195 154.6H47.3195C38.6195 154.6 34.3195 150.3 34.3195 141.6V96.4C34.3195 87.7 38.6195 83.4 47.3195 83.4H56.3195C65.0195 83.4 69.3195 87.7 69.3195 96.4V141.6ZM55.3195 97.9C55.3195 96.2 54.5195 95.4 52.8195 95.4H50.8195C49.1195 95.4 48.3195 96.2 48.3195 97.9V140.1C48.3195 141.8 49.1195 142.6 50.8195 142.6H52.8195C54.5195 142.6 55.3195 141.8 55.3195 140.1V97.9ZM105.242 154L99.9422 107.7V154H88.7422V84H108.942L112.942 126.4L117.242 84H137.542V154H123.742V108.2L118.442 154H105.242ZM143.051 84H169.051V96.5H157.051V112.2H168.551V124.7H157.051V141.5H169.251V154H143.051V84ZM208.915 84L200.315 117.8L209.115 154H194.515L190.315 132.4L185.615 154H172.315L181.015 120.2L172.515 84H187.115L191.015 105.4L195.615 84H208.915ZM226.803 84V154H212.803V84H226.803ZM253.041 123.1H266.841V141.6C266.841 150.3 262.541 154.6 253.841 154.6H245.241C236.541 154.6 232.241 150.3 232.241 141.6V96.4C232.241 87.7 236.541 83.4 245.241 83.4H253.641C262.341 83.4 266.641 87.7 266.641 96.4V112.8H252.841V97.9C252.841 96.2 252.041 95.4 250.341 95.4H248.741C247.041 95.4 246.241 96.2 246.241 97.9V140.1C246.241 141.8 247.041 142.6 248.741 142.6H250.541C252.241 142.6 253.041 141.8 253.041 140.1V123.1ZM306.804 141.6C306.804 150.3 302.504 154.6 293.804 154.6H284.804C276.104 154.6 271.804 150.3 271.804 141.6V96.4C271.804 87.7 276.104 83.4 284.804 83.4H293.804C302.504 83.4 306.804 87.7 306.804 96.4V141.6ZM292.804 97.9C292.804 96.2 292.004 95.4 290.304 95.4H288.304C286.604 95.4 285.804 96.2 285.804 97.9V140.1C285.804 141.8 286.604 142.6 288.304 142.6H290.304C292.004 142.6 292.804 141.8 292.804 140.1V97.9ZM326.152 83.8L325.852 93L334.652 87.9H334.952V94.6L328.052 98.1L334.952 101.6V108.3H334.652L325.952 103.3L326.152 112.4H319.852L320.052 103.3L311.352 108.3H311.052V101.6L317.852 98.1L311.052 94.6V87.9H311.352L320.052 93L319.852 83.8H326.152ZM373.387 84H386.587L390.587 121.2L394.187 84H406.587L398.087 154H382.687L378.987 122.1L375.487 154H360.087L351.587 84H365.787L369.387 121.5L373.387 84ZM424.432 84V154H410.432V84H424.432ZM451.07 154H437.07V96.5H428.57V84H459.57V96.5H451.07V154ZM477.578 112.2H484.578V84H498.578V154H484.578V124.7H477.578V154H463.578V84H477.578V112.2ZM1.5 166H15.5V223.5H25.6V236H1.5V166ZM65.332 236H51.432L50.332 225.8H41.532L40.532 236H27.832L37.032 166H56.132L65.332 236ZM45.932 183.1L42.832 213.6H49.032L45.932 183.1ZM103.483 205.1H117.283V223.6C117.283 232.3 112.983 236.6 104.283 236.6H95.6828C86.9828 236.6 82.6828 232.3 82.6828 223.6V178.4C82.6828 169.7 86.9828 165.4 95.6828 165.4H104.083C112.783 165.4 117.083 169.7 117.083 178.4V194.8H103.283V179.9C103.283 178.2 102.483 177.4 100.783 177.4H99.1828C97.4828 177.4 96.6828 178.2 96.6828 179.9V222.1C96.6828 223.8 97.4828 224.6 99.1828 224.6H100.983C102.683 224.6 103.483 223.8 103.483 222.1V205.1ZM157.457 236H143.557L142.457 225.8H133.657L132.657 236H119.957L129.157 166H148.257L157.457 236ZM138.057 183.1L134.957 213.6H141.157L138.057 183.1ZM194.845 166V223.6C194.845 232.3 190.545 236.6 181.845 236.6H173.345C164.645 236.6 160.345 232.3 160.345 223.6V166H174.345V222.1C174.345 223.8 175.145 224.6 176.845 224.6H178.345C180.045 224.6 180.845 223.8 180.845 222.1V166H194.845ZM228.003 199.7C232.303 202.8 233.603 205.5 233.603 210.7V223.6C233.603 232.3 229.303 236.6 220.603 236.6H212.803C204.103 236.6 199.803 232.3 199.803 223.6V208.7H213.503V222.3C213.503 224 214.303 224.8 216.003 224.8H217.303C219.003 224.8 219.803 224 219.803 222.3V213.9C219.803 211.7 219.103 210.6 217.403 209.4L205.403 200.5C201.103 197.4 199.803 194.5 199.803 189.5V178.4C199.803 169.7 204.103 165.4 212.803 165.4H220.403C229.103 165.4 233.403 169.7 233.403 178.4V191.2H219.703V179.7C219.703 178 218.903 177.2 217.203 177.2H216.103C214.403 177.2 213.603 178 213.603 179.7V186.3C213.603 188.5 214.303 189.6 216.003 190.8L228.003 199.7ZM273.313 236H259.413L258.313 225.8H249.513L248.512 236H235.813L245.013 166H264.113L273.313 236ZM253.913 183.1L250.813 213.6H257.013L253.913 183.1ZM316.663 236H298.263L288.863 166H303.063L307.963 215.7L313.063 166H326.063L316.663 236ZM343.647 166V236H329.647V166H343.647ZM377.085 199.7C381.385 202.8 382.685 205.5 382.685 210.7V223.6C382.685 232.3 378.385 236.6 369.685 236.6H361.885C353.185 236.6 348.885 232.3 348.885 223.6V208.7H362.585V222.3C362.585 224 363.385 224.8 365.085 224.8H366.385C368.085 224.8 368.885 224 368.885 222.3V213.9C368.885 211.7 368.185 210.6 366.485 209.4L354.485 200.5C350.185 197.4 348.885 194.5 348.885 189.5V178.4C348.885 169.7 353.185 165.4 361.885 165.4H369.485C378.185 165.4 382.485 169.7 382.485 178.4V191.2H368.785V179.7C368.785 178 367.985 177.2 366.285 177.2H365.185C363.485 177.2 362.685 178 362.685 179.7V186.3C362.685 188.5 363.385 189.6 365.085 190.8L377.085 199.7ZM422.395 236H408.495L407.395 225.8H398.595L397.595 236H384.895L394.095 166H413.195L422.395 236ZM402.995 183.1L399.895 213.6H406.095L402.995 183.1Z" fill="#E9993E"/>
</svg>
