<svg width="554" height="72" viewBox="0 0 554 72" fill="none" xmlns="http://www.w3.org/2000/svg">
<path d="M21.1 40.1H34.9V58.6C34.9 67.3 30.6 71.6 21.9 71.6H13.3C4.6 71.6 0.3 67.3 0.3 58.6V13.4C0.3 4.7 4.6 0.399997 13.3 0.399997H21.7C30.4 0.399997 34.7 4.7 34.7 13.4V29.8H20.9V14.9C20.9 13.2 20.1 12.4 18.4 12.4H16.8C15.1 12.4 14.3 13.2 14.3 14.9V57.1C14.3 58.8 15.1 59.6 16.8 59.6H18.6C20.3 59.6 21.1 58.8 21.1 57.1V40.1ZM73.9625 0.999995V58.6C73.9625 67.3 69.6625 71.6 60.9625 71.6H52.4625C43.7625 71.6 39.4625 67.3 39.4625 58.6V0.999995H53.4625V57.1C53.4625 58.8 54.2625 59.6 55.9625 59.6H57.4625C59.1625 59.6 59.9625 58.8 59.9625 57.1V0.999995H73.9625ZM106.62 34.7C110.92 37.8 112.22 40.5 112.22 45.7V58.6C112.22 67.3 107.92 71.6 99.2203 71.6H91.4203C82.7203 71.6 78.4203 67.3 78.4203 58.6V43.7H92.1203V57.3C92.1203 59 92.9203 59.8 94.6203 59.8H95.9203C97.6203 59.8 98.4203 59 98.4203 57.3V48.9C98.4203 46.7 97.7203 45.6 96.0203 44.4L84.0203 35.5C79.7203 32.4 78.4203 29.5 78.4203 24.5V13.4C78.4203 4.7 82.7203 0.399997 91.4203 0.399997H99.0203C107.72 0.399997 112.02 4.7 112.02 13.4V26.2H98.3203V14.7C98.3203 13 97.5203 12.2 95.8203 12.2H94.7203C93.0203 12.2 92.2203 13 92.2203 14.7V21.3C92.2203 23.5 92.9203 24.6 94.6203 25.8L106.62 34.7ZM136.93 71H122.93V13.5H114.43V0.999995H145.43V13.5H136.93V71ZM183.249 58.6C183.249 67.3 178.949 71.6 170.249 71.6H161.249C152.549 71.6 148.249 67.3 148.249 58.6V13.4C148.249 4.7 152.549 0.399997 161.249 0.399997H170.249C178.949 0.399997 183.249 4.7 183.249 13.4V58.6ZM169.249 14.9C169.249 13.2 168.449 12.4 166.749 12.4H164.749C163.049 12.4 162.249 13.2 162.249 14.9V57.1C162.249 58.8 163.049 59.6 164.749 59.6H166.749C168.449 59.6 169.249 58.8 169.249 57.1V14.9ZM204.598 71L199.298 24.7V71H188.098V0.999995H208.298L212.298 43.4L216.598 0.999995H236.898V71H223.098V25.2L217.798 71H204.598ZM241.906 0.999995H267.906V13.5H255.906V29.2H267.406V41.7H255.906V58.5H268.106V71H241.906V0.999995ZM300.47 37.9C304.77 39.1 306.57 41.8 306.57 46.9V71H292.57V47C292.57 45.3 291.77 44.5 290.07 44.5H286.57V71H272.57V0.999995H293.47C302.17 0.999995 306.47 5.3 306.47 14V27.5C306.47 33.5 304.27 36.5 300.47 37.9ZM292.47 15.7C292.47 14 291.67 13.2 289.97 13.2H286.57V32.6H289.97C291.67 32.6 292.47 31.8 292.47 30.1V15.7ZM352.616 34.7C356.916 37.8 358.216 40.5 358.216 45.7V58.6C358.216 67.3 353.916 71.6 345.216 71.6H337.416C328.716 71.6 324.416 67.3 324.416 58.6V43.7H338.116V57.3C338.116 59 338.916 59.8 340.616 59.8H341.916C343.616 59.8 344.416 59 344.416 57.3V48.9C344.416 46.7 343.716 45.6 342.016 44.4L330.016 35.5C325.716 32.4 324.416 29.5 324.416 24.5V13.4C324.416 4.7 328.716 0.399997 337.416 0.399997H345.016C353.716 0.399997 358.016 4.7 358.016 13.4V26.2H344.316V14.7C344.316 13 343.516 12.2 341.816 12.2H340.716C339.016 12.2 338.216 13 338.216 14.7V21.3C338.216 23.5 338.916 24.6 340.616 25.8L352.616 34.7ZM362.414 0.999995H388.414V13.5H376.414V29.2H387.914V41.7H376.414V58.5H388.614V71H362.414V0.999995ZM420.978 37.9C425.278 39.1 427.078 41.8 427.078 46.9V71H413.078V47C413.078 45.3 412.278 44.5 410.578 44.5H407.078V71H393.078V0.999995H413.978C422.678 0.999995 426.978 5.3 426.978 14V27.5C426.978 33.5 424.778 36.5 420.978 37.9ZM412.978 15.7C412.978 14 412.178 13.2 410.478 13.2H407.078V32.6H410.478C412.178 32.6 412.978 31.8 412.978 30.1V15.7ZM457.062 71H438.662L429.262 0.999995H443.462L448.362 50.7L453.462 0.999995H466.462L457.062 71ZM483.545 0.999995V71H469.545V0.999995H483.545ZM509.284 40.1H523.084V58.6C523.084 67.3 518.784 71.6 510.084 71.6H501.484C492.784 71.6 488.484 67.3 488.484 58.6V13.4C488.484 4.7 492.784 0.399997 501.484 0.399997H509.884C518.584 0.399997 522.884 4.7 522.884 13.4V29.8H509.084V14.9C509.084 13.2 508.284 12.4 506.584 12.4H504.984C503.284 12.4 502.484 13.2 502.484 14.9V57.1C502.484 58.8 503.284 59.6 504.984 59.6H506.784C508.484 59.6 509.284 58.8 509.284 57.1V40.1ZM527.746 0.999995H553.746V13.5H541.746V29.2H553.246V41.7H541.746V58.5H553.946V71H527.746V0.999995Z" fill="#114550"/>
</svg>
