<svg width="171" height="281" viewBox="0 0 171 281" fill="none" xmlns="http://www.w3.org/2000/svg">
<path d="M0.96 4.46V2.4H11.34V4.46H7.52V17H4.8V4.46H0.96ZM15.9416 17.28C14.1016 17.28 12.7882 16.7867 12.0016 15.8C11.2149 14.8 10.8216 13.2933 10.8216 11.28C10.8216 7.28 12.5016 5.28 15.8616 5.28C17.7949 5.28 19.1149 5.88 19.8216 7.08C20.4349 8.10667 20.7416 9.44 20.7416 11.08V11.8H13.4216C13.4349 13.0533 13.6416 13.94 14.0416 14.46C14.4416 14.9667 15.1016 15.22 16.0216 15.22C17.5016 15.22 18.2882 14.6867 18.3816 13.62L20.5816 13.7C20.3682 16.0867 18.8216 17.28 15.9416 17.28ZM17.4816 8C17.1482 7.56 16.6016 7.34 15.8416 7.34C15.0816 7.34 14.5216 7.55333 14.1616 7.98C13.8149 8.39333 13.5882 9.06 13.4816 9.98H18.1016C18.0216 9.08667 17.8149 8.42667 17.4816 8ZM15.0216 4.6L14.1216 3.16L18.0216 0.499999L19.2216 2.42L15.0216 4.6ZM25.9311 17H23.2511V5.56H24.5111L25.5711 7.34C26.4911 6.03333 27.7911 5.34667 29.4711 5.28V7.58C27.8978 7.62 26.7178 8.1 25.9311 9.02V17ZM36.9356 5.28C38.5356 5.28 39.6556 5.74 40.2956 6.66C41.4423 5.74 42.6623 5.28 43.9556 5.28C45.2623 5.28 46.229 5.60667 46.8556 6.26C47.4823 6.9 47.7956 7.78667 47.7956 8.92V17H45.1156V9.36C45.1156 8.66667 44.989 8.16 44.7356 7.84C44.4823 7.50667 44.0356 7.34 43.3956 7.34C42.489 7.34 41.6556 7.65333 40.8956 8.28C40.9223 8.54667 40.9356 8.76 40.9356 8.92V17H38.2556V9.36C38.2556 8.66667 38.1223 8.16 37.8556 7.84C37.589 7.50667 37.0756 7.34 36.3156 7.34C35.569 7.34 34.8223 7.60667 34.0756 8.14V17H31.3956V5.56H32.8156L33.5156 6.5C34.5956 5.68667 35.7356 5.28 36.9356 5.28ZM51.3566 5.56H54.0366V17H51.3566V5.56ZM52.6966 4.2C51.6966 4.2 51.1966 3.68667 51.1966 2.66C51.1966 1.62 51.6966 1.1 52.6966 1.1C53.7232 1.1 54.2366 1.62 54.2366 2.66C54.2366 3.68667 53.7232 4.2 52.6966 4.2ZM59.9219 6.6C61.1752 5.72 62.4552 5.28 63.7619 5.28C65.0819 5.28 66.0352 5.60667 66.6219 6.26C67.2085 6.9 67.5019 7.78667 67.5019 8.92V17H64.8219V9.2C64.8219 8.52 64.6952 8.04 64.4419 7.76C64.2019 7.48 63.7752 7.34 63.1619 7.34C62.2019 7.34 61.3085 7.64 60.4819 8.24V17H57.8019V5.56H59.0619L59.9219 6.6ZM73.1036 14.22C73.4503 14.8867 74.1169 15.22 75.1036 15.22C76.0903 15.22 76.7569 14.8867 77.1036 14.22C77.4503 13.5533 77.6236 12.5733 77.6236 11.28C77.6236 9.98667 77.4503 9.00667 77.1036 8.34C76.7569 7.67333 76.0903 7.34 75.1036 7.34C74.1169 7.34 73.4503 7.67333 73.1036 8.34C72.7569 9.00667 72.5836 9.98667 72.5836 11.28C72.5836 12.5733 72.7569 13.5533 73.1036 14.22ZM80.3036 11.28C80.3036 15.28 78.5703 17.28 75.1036 17.28C71.6369 17.28 69.9036 15.28 69.9036 11.28C69.9036 7.28 71.6369 5.28 75.1036 5.28C78.5703 5.28 80.3036 7.28 80.3036 11.28ZM91.0795 13.8C91.0795 16.08 89.4795 17.22 86.2795 17.22C84.8795 17.22 83.8395 16.92 83.1595 16.32C82.4795 15.7067 82.0529 14.82 81.8795 13.66L83.9595 13.34C84.1062 14.62 84.8995 15.26 86.3395 15.26C87.7929 15.26 88.5195 14.8067 88.5195 13.9C88.5195 13.5267 88.3729 13.2467 88.0795 13.06C87.7995 12.8733 87.2262 12.68 86.3595 12.48L85.4395 12.26C84.2529 11.98 83.3995 11.5733 82.8795 11.04C82.3729 10.4933 82.1195 9.70667 82.1195 8.68C82.1195 6.41333 83.6662 5.28 86.7595 5.28C88.0929 5.28 89.0862 5.58667 89.7395 6.2C90.4062 6.8 90.8195 7.68 90.9795 8.84L88.8995 9.14C88.7529 7.87333 88.0129 7.24 86.6795 7.24C85.3595 7.24 84.6995 7.69333 84.6995 8.6C84.6995 8.97333 84.8262 9.26 85.0795 9.46C85.3462 9.64667 85.8795 9.83333 86.6795 10.02L87.7195 10.28C88.9062 10.5733 89.7595 10.9867 90.2795 11.52C90.8129 12.04 91.0795 12.8 91.0795 13.8ZM102.025 17.28C99.452 17.28 98.1653 15.28 98.1653 11.28C98.1653 7.28 99.7253 5.28 102.845 5.28C103.725 5.28 104.592 5.44 105.445 5.76V1.96L108.125 1.76V17H106.385L105.645 15.58C104.539 16.7133 103.332 17.28 102.025 17.28ZM103.085 15.22C103.912 15.22 104.699 14.7933 105.445 13.94V7.74C104.792 7.47333 104.152 7.34 103.525 7.34C102.565 7.34 101.879 7.67333 101.465 8.34C101.052 9.00667 100.845 9.98667 100.845 11.28C100.845 13.9067 101.592 15.22 103.085 15.22ZM115.844 17.28C114.004 17.28 112.691 16.7867 111.904 15.8C111.117 14.8 110.724 13.2933 110.724 11.28C110.724 7.28 112.404 5.28 115.764 5.28C117.697 5.28 119.017 5.88 119.724 7.08C120.337 8.10667 120.644 9.44 120.644 11.08V11.8H113.324C113.337 13.0533 113.544 13.94 113.944 14.46C114.344 14.9667 115.004 15.22 115.924 15.22C117.404 15.22 118.191 14.6867 118.284 13.62L120.484 13.7C120.271 16.0867 118.724 17.28 115.844 17.28ZM117.384 8C117.051 7.56 116.504 7.34 115.744 7.34C114.984 7.34 114.424 7.55333 114.064 7.98C113.717 8.39333 113.491 9.06 113.384 9.98H118.004C117.924 9.08667 117.717 8.42667 117.384 8ZM136.541 2.4H139.261V12.18C139.261 13.0733 139.148 13.84 138.921 14.48C138.695 15.12 138.415 15.62 138.081 15.98C137.748 16.3267 137.321 16.6067 136.801 16.82C136.281 17.02 135.795 17.1467 135.341 17.2C134.901 17.2533 134.388 17.28 133.801 17.28C133.215 17.28 132.695 17.2533 132.241 17.2C131.801 17.1467 131.321 17.02 130.801 16.82C130.281 16.6067 129.855 16.3267 129.521 15.98C129.201 15.62 128.928 15.12 128.701 14.48C128.475 13.84 128.361 13.0733 128.361 12.18V2.4H131.081V11.98C131.081 13.22 131.321 14.0467 131.801 14.46C132.281 14.86 132.948 15.06 133.801 15.06C134.215 15.06 134.561 15.0267 134.841 14.96C135.121 14.8933 135.401 14.76 135.681 14.56C136.255 14.1467 136.541 13.2867 136.541 11.98V2.4ZM150.904 13.8C150.904 16.08 149.304 17.22 146.104 17.22C144.704 17.22 143.664 16.92 142.984 16.32C142.304 15.7067 141.877 14.82 141.704 13.66L143.784 13.34C143.93 14.62 144.724 15.26 146.164 15.26C147.617 15.26 148.344 14.8067 148.344 13.9C148.344 13.5267 148.197 13.2467 147.904 13.06C147.624 12.8733 147.05 12.68 146.184 12.48L145.264 12.26C144.077 11.98 143.224 11.5733 142.704 11.04C142.197 10.4933 141.944 9.70667 141.944 8.68C141.944 6.41333 143.49 5.28 146.584 5.28C147.917 5.28 148.91 5.58667 149.564 6.2C150.23 6.8 150.644 7.68 150.804 8.84L148.724 9.14C148.577 7.87333 147.837 7.24 146.504 7.24C145.184 7.24 144.524 7.69333 144.524 8.6C144.524 8.97333 144.65 9.26 144.904 9.46C145.17 9.64667 145.704 9.83333 146.504 10.02L147.544 10.28C148.73 10.5733 149.584 10.9867 150.104 11.52C150.637 12.04 150.904 12.8 150.904 13.8ZM155.682 14.22C156.028 14.8867 156.695 15.22 157.682 15.22C158.668 15.22 159.335 14.8867 159.682 14.22C160.028 13.5533 160.202 12.5733 160.202 11.28C160.202 9.98667 160.028 9.00667 159.682 8.34C159.335 7.67333 158.668 7.34 157.682 7.34C156.695 7.34 156.028 7.67333 155.682 8.34C155.335 9.00667 155.162 9.98667 155.162 11.28C155.162 12.5733 155.335 13.5533 155.682 14.22ZM162.882 11.28C162.882 15.28 161.148 17.28 157.682 17.28C154.215 17.28 152.482 15.28 152.482 11.28C152.482 7.28 154.215 5.28 157.682 5.28C161.148 5.28 162.882 7.28 162.882 11.28Z" fill="#CA8923"/>
<path d="M6.19 49.115H4.45V53H2.41V42.05H6.19C7.51 42.05 8.44 42.41 8.98 43.13C9.45 43.78 9.685 44.6 9.685 45.59C9.685 46.57 9.45 47.38 8.98 48.02C8.44 48.75 7.51 49.115 6.19 49.115ZM4.45 47.54H5.875C7.055 47.54 7.645 46.89 7.645 45.59C7.645 44.28 7.055 43.625 5.875 43.625H4.45V47.54ZM12.8902 50.915C13.1502 51.415 13.6502 51.665 14.3902 51.665C15.1302 51.665 15.6302 51.415 15.8902 50.915C16.1502 50.415 16.2802 49.68 16.2802 48.71C16.2802 47.74 16.1502 47.005 15.8902 46.505C15.6302 46.005 15.1302 45.755 14.3902 45.755C13.6502 45.755 13.1502 46.005 12.8902 46.505C12.6302 47.005 12.5002 47.74 12.5002 48.71C12.5002 49.68 12.6302 50.415 12.8902 50.915ZM18.2902 48.71C18.2902 51.71 16.9902 53.21 14.3902 53.21C11.7902 53.21 10.4902 51.71 10.4902 48.71C10.4902 45.71 11.7902 44.21 14.3902 44.21C16.9902 44.21 18.2902 45.71 18.2902 48.71ZM22.2471 53H20.2371V41.72L22.2471 41.45V53ZM25.0711 44.42H27.0811V53H25.0711V44.42ZM25.1461 43.7L24.4711 42.62L27.3961 40.625L28.2961 42.065L25.1461 43.7ZM28.6301 45.725V44.42H30.0101V42.86L32.0201 42.35V44.42H33.6551V45.725H32.0201V50.57C32.0201 51 32.0801 51.305 32.2001 51.485C32.3301 51.665 32.5151 51.755 32.7551 51.755C33.0051 51.755 33.2751 51.715 33.5651 51.635L33.8201 52.88C33.2301 53.1 32.7001 53.21 32.2301 53.21C31.7701 53.21 31.4001 53.155 31.1201 53.045C30.8401 52.935 30.6301 52.81 30.4901 52.67C30.3501 52.52 30.2451 52.32 30.1751 52.07C30.0651 51.72 30.0101 51.285 30.0101 50.765V45.725H28.6301ZM35.3104 44.42H37.3204V53H35.3104V44.42ZM36.3154 43.4C35.5654 43.4 35.1904 43.015 35.1904 42.245C35.1904 41.465 35.5654 41.075 36.3154 41.075C37.0854 41.075 37.4704 41.465 37.4704 42.245C37.4704 43.015 37.0854 43.4 36.3154 43.4ZM41.6594 46.475C41.4094 46.955 41.2844 47.7 41.2844 48.71C41.2844 49.72 41.4094 50.465 41.6594 50.945C41.9194 51.425 42.3644 51.665 42.9944 51.665C43.6344 51.665 44.0894 51.535 44.3594 51.275C44.6394 51.015 44.7894 50.605 44.8094 50.045L46.3844 50.12C46.3244 51.14 46.0244 51.91 45.4844 52.43C44.9544 52.95 44.0794 53.21 42.8594 53.21C41.4294 53.21 40.4544 52.745 39.9344 51.815C39.6844 51.365 39.5094 50.895 39.4094 50.405C39.3194 49.915 39.2744 49.35 39.2744 48.71C39.2744 48.06 39.3194 47.49 39.4094 47C39.5094 46.5 39.6844 46.03 39.9344 45.59C40.4444 44.67 41.4194 44.21 42.8594 44.21C44.0694 44.21 44.9394 44.46 45.4694 44.96C45.9994 45.45 46.2994 46.185 46.3694 47.165L44.8094 47.375C44.7894 46.815 44.6394 46.405 44.3594 46.145C44.0894 45.885 43.6344 45.755 42.9944 45.755C42.3644 45.755 41.9194 45.995 41.6594 46.475ZM51.2014 44.21C53.3814 44.21 54.4714 45.205 54.4714 47.195V53H53.1664L52.5964 51.95C51.7964 52.79 50.8614 53.21 49.7914 53.21C49.0314 53.21 48.4514 53 48.0514 52.58C47.6614 52.15 47.4664 51.58 47.4664 50.87C47.4664 50.15 47.6914 49.57 48.1414 49.13C48.5914 48.69 49.4314 48.38 50.6614 48.2L52.4614 47.93V47.21C52.4614 46.24 52.0014 45.755 51.0814 45.755C50.2114 45.755 49.6964 46.195 49.5364 47.075L47.9764 46.61C48.3564 45.01 49.4314 44.21 51.2014 44.21ZM50.4364 51.74C51.1164 51.74 51.7914 51.405 52.4614 50.735V49.19L51.0214 49.445C50.3714 49.555 49.9414 49.73 49.7314 49.97C49.5214 50.21 49.4164 50.48 49.4164 50.78C49.4164 51.08 49.5064 51.315 49.6864 51.485C49.8664 51.655 50.1164 51.74 50.4364 51.74ZM63.2924 53.21C61.3624 53.21 60.3974 51.71 60.3974 48.71C60.3974 45.71 61.5674 44.21 63.9074 44.21C64.5674 44.21 65.2174 44.33 65.8574 44.57V41.72L67.8674 41.57V53H66.5624L66.0074 51.935C65.1774 52.785 64.2724 53.21 63.2924 53.21ZM64.0874 51.665C64.7074 51.665 65.2974 51.345 65.8574 50.705V46.055C65.3674 45.855 64.8874 45.755 64.4174 45.755C63.6974 45.755 63.1824 46.005 62.8724 46.505C62.5624 47.005 62.4074 47.74 62.4074 48.71C62.4074 50.68 62.9674 51.665 64.0874 51.665ZM73.6564 53.21C72.2764 53.21 71.2914 52.84 70.7014 52.1C70.1114 51.35 69.8164 50.22 69.8164 48.71C69.8164 45.71 71.0764 44.21 73.5964 44.21C75.0464 44.21 76.0364 44.66 76.5664 45.56C77.0264 46.33 77.2564 47.33 77.2564 48.56V49.1H71.7664C71.7764 50.04 71.9314 50.705 72.2314 51.095C72.5314 51.475 73.0264 51.665 73.7164 51.665C74.8264 51.665 75.4164 51.265 75.4864 50.465L77.1364 50.525C76.9764 52.315 75.8164 53.21 73.6564 53.21ZM74.8114 46.25C74.5614 45.92 74.1514 45.755 73.5814 45.755C73.0114 45.755 72.5914 45.915 72.3214 46.235C72.0614 46.545 71.8914 47.045 71.8114 47.735H75.2764C75.2164 47.065 75.0614 46.57 74.8114 46.25ZM87.0494 49.115H85.3094V53H83.2694V42.05H87.0494C88.3694 42.05 89.2994 42.41 89.8394 43.13C90.3094 43.78 90.5444 44.6 90.5444 45.59C90.5444 46.57 90.3094 47.38 89.8394 48.02C89.2994 48.75 88.3694 49.115 87.0494 49.115ZM85.3094 47.54H86.7344C87.9144 47.54 88.5044 46.89 88.5044 45.59C88.5044 44.28 87.9144 43.625 86.7344 43.625H85.3094V47.54ZM94.2296 53H92.2196V44.42H93.1646L93.9596 45.755C94.6496 44.775 95.6246 44.26 96.8846 44.21V45.935C95.7046 45.965 94.8196 46.325 94.2296 47.015V53ZM98.328 44.42H100.338V53H98.328V44.42ZM99.333 43.4C98.583 43.4 98.208 43.015 98.208 42.245C98.208 41.465 98.583 41.075 99.333 41.075C100.103 41.075 100.488 41.465 100.488 42.245C100.488 43.015 100.103 43.4 99.333 43.4ZM106.957 53H104.722L101.812 44.42H103.837L105.832 50.63L107.842 44.42H109.867L106.957 53ZM114.351 44.21C116.531 44.21 117.621 45.205 117.621 47.195V53H116.316L115.746 51.95C114.946 52.79 114.011 53.21 112.941 53.21C112.181 53.21 111.601 53 111.201 52.58C110.811 52.15 110.616 51.58 110.616 50.87C110.616 50.15 110.841 49.57 111.291 49.13C111.741 48.69 112.581 48.38 113.811 48.2L115.611 47.93V47.21C115.611 46.24 115.151 45.755 114.231 45.755C113.361 45.755 112.846 46.195 112.686 47.075L111.126 46.61C111.506 45.01 112.581 44.21 114.351 44.21ZM113.586 51.74C114.266 51.74 114.941 51.405 115.611 50.735V49.19L114.171 49.445C113.521 49.555 113.091 49.73 112.881 49.97C112.671 50.21 112.566 50.48 112.566 50.78C112.566 51.08 112.656 51.315 112.836 51.485C113.016 51.655 113.266 51.74 113.586 51.74ZM121.801 46.475C121.551 46.955 121.426 47.7 121.426 48.71C121.426 49.72 121.551 50.465 121.801 50.945C122.061 51.425 122.506 51.665 123.136 51.665C123.776 51.665 124.231 51.535 124.501 51.275C124.781 51.015 124.931 50.605 124.951 50.045L126.526 50.12C126.466 51.14 126.166 51.91 125.626 52.43C125.096 52.95 124.221 53.21 123.001 53.21C121.571 53.21 120.596 52.745 120.076 51.815C119.826 51.365 119.651 50.895 119.551 50.405C119.461 49.915 119.416 49.35 119.416 48.71C119.416 48.06 119.461 47.49 119.551 47C119.651 46.5 119.826 46.03 120.076 45.59C120.586 44.67 121.561 44.21 123.001 44.21C124.211 44.21 125.081 44.46 125.611 44.96C126.141 45.45 126.441 46.185 126.511 47.165L124.951 47.375C124.931 46.815 124.781 46.405 124.501 46.145C124.231 45.885 123.776 45.755 123.136 45.755C122.506 45.755 122.061 45.995 121.801 46.475ZM128.328 44.42H130.338V53H128.328V44.42ZM129.333 43.4C128.583 43.4 128.208 43.015 128.208 42.245C128.208 41.465 128.583 41.075 129.333 41.075C130.103 41.075 130.488 41.465 130.488 42.245C130.488 43.015 130.103 43.4 129.333 43.4ZM135.187 53.21C133.257 53.21 132.292 51.71 132.292 48.71C132.292 45.71 133.462 44.21 135.802 44.21C136.462 44.21 137.112 44.33 137.752 44.57V41.72L139.762 41.57V53H138.457L137.902 51.935C137.072 52.785 136.167 53.21 135.187 53.21ZM135.982 51.665C136.602 51.665 137.192 51.345 137.752 50.705V46.055C137.262 45.855 136.782 45.755 136.312 45.755C135.592 45.755 135.077 46.005 134.767 46.505C134.457 47.005 134.302 47.74 134.302 48.71C134.302 50.68 134.862 51.665 135.982 51.665ZM145.596 44.21C147.776 44.21 148.866 45.205 148.866 47.195V53H147.561L146.991 51.95C146.191 52.79 145.256 53.21 144.186 53.21C143.426 53.21 142.846 53 142.446 52.58C142.056 52.15 141.861 51.58 141.861 50.87C141.861 50.15 142.086 49.57 142.536 49.13C142.986 48.69 143.826 48.38 145.056 48.2L146.856 47.93V47.21C146.856 46.24 146.396 45.755 145.476 45.755C144.606 45.755 144.091 46.195 143.931 47.075L142.371 46.61C142.751 45.01 143.826 44.21 145.596 44.21ZM144.831 51.74C145.511 51.74 146.186 51.405 146.856 50.735V49.19L145.416 49.445C144.766 49.555 144.336 49.73 144.126 49.97C143.916 50.21 143.811 50.48 143.811 50.78C143.811 51.08 143.901 51.315 144.081 51.485C144.261 51.655 144.511 51.74 144.831 51.74ZM153.556 53.21C151.626 53.21 150.661 51.71 150.661 48.71C150.661 45.71 151.831 44.21 154.171 44.21C154.831 44.21 155.481 44.33 156.121 44.57V41.72L158.131 41.57V53H156.826L156.271 51.935C155.441 52.785 154.536 53.21 153.556 53.21ZM154.351 51.665C154.971 51.665 155.561 51.345 156.121 50.705V46.055C155.631 45.855 155.151 45.755 154.681 45.755C153.961 45.755 153.446 46.005 153.136 46.505C152.826 47.005 152.671 47.74 152.671 48.71C152.671 50.68 153.231 51.665 154.351 51.665ZM6.28 84.49C5.34 84.49 4.705 84.8 4.375 85.42C4.045 86.03 3.88 87.065 3.88 88.525C3.88 89.975 4.045 91.01 4.375 91.63C4.705 92.25 5.34 92.56 6.28 92.56C7.01 92.56 7.525 92.36 7.825 91.96C8.135 91.56 8.3 90.98 8.32 90.22L9.97 90.295C9.89 91.585 9.58 92.56 9.04 93.22C8.51 93.88 7.59 94.21 6.28 94.21C4.57 94.21 3.39 93.71 2.74 92.71C2.41 92.21 2.175 91.63 2.035 90.97C1.905 90.3 1.84 89.485 1.84 88.525C1.84 87.565 1.905 86.755 2.035 86.095C2.175 85.425 2.41 84.84 2.74 84.34C3.39 83.34 4.57 82.84 6.28 82.84C7.51 82.84 8.395 83.115 8.935 83.665C9.475 84.215 9.805 85.025 9.925 86.095L8.275 86.35C8.215 85.75 8.03 85.29 7.72 84.97C7.41 84.65 6.93 84.49 6.28 84.49ZM13.3296 91.915C13.5896 92.415 14.0896 92.665 14.8296 92.665C15.5696 92.665 16.0696 92.415 16.3296 91.915C16.5896 91.415 16.7196 90.68 16.7196 89.71C16.7196 88.74 16.5896 88.005 16.3296 87.505C16.0696 87.005 15.5696 86.755 14.8296 86.755C14.0896 86.755 13.5896 87.005 13.3296 87.505C13.0696 88.005 12.9396 88.74 12.9396 89.71C12.9396 90.68 13.0696 91.415 13.3296 91.915ZM18.7296 89.71C18.7296 92.71 17.4296 94.21 14.8296 94.21C12.2296 94.21 10.9296 92.71 10.9296 89.71C10.9296 86.71 12.2296 85.21 14.8296 85.21C17.4296 85.21 18.7296 86.71 18.7296 89.71ZM22.2666 86.2C23.2066 85.54 24.1666 85.21 25.1466 85.21C26.1366 85.21 26.8516 85.455 27.2916 85.945C27.7316 86.425 27.9516 87.09 27.9516 87.94V94H25.9416V88.15C25.9416 87.64 25.8466 87.28 25.6566 87.07C25.4766 86.86 25.1566 86.755 24.6966 86.755C23.9766 86.755 23.3066 86.98 22.6866 87.43V94H20.6766V85.42H21.6216L22.2666 86.2ZM29.3479 86.725V85.42H30.7279V83.86L32.7379 83.35V85.42H34.3729V86.725H32.7379V91.57C32.7379 92 32.7979 92.305 32.9179 92.485C33.0479 92.665 33.2329 92.755 33.4729 92.755C33.7229 92.755 33.9929 92.715 34.2829 92.635L34.5379 93.88C33.9479 94.1 33.4179 94.21 32.9479 94.21C32.4879 94.21 32.1179 94.155 31.8379 94.045C31.5579 93.935 31.3479 93.81 31.2079 93.67C31.0679 93.52 30.9629 93.32 30.8929 93.07C30.7829 92.72 30.7279 92.285 30.7279 91.765V86.725H29.3479ZM38.0382 94H36.0282V85.42H36.9732L37.7682 86.755C38.4582 85.775 39.4332 85.26 40.6932 85.21V86.935C39.5132 86.965 38.6282 87.325 38.0382 88.015V94ZM45.1516 85.21C47.3316 85.21 48.4216 86.205 48.4216 88.195V94H47.1166L46.5466 92.95C45.7466 93.79 44.8116 94.21 43.7416 94.21C42.9816 94.21 42.4016 94 42.0016 93.58C41.6116 93.15 41.4166 92.58 41.4166 91.87C41.4166 91.15 41.6416 90.57 42.0916 90.13C42.5416 89.69 43.3816 89.38 44.6116 89.2L46.4116 88.93V88.21C46.4116 87.24 45.9516 86.755 45.0316 86.755C44.1616 86.755 43.6466 87.195 43.4866 88.075L41.9266 87.61C42.3066 86.01 43.3816 85.21 45.1516 85.21ZM44.3866 92.74C45.0666 92.74 45.7416 92.405 46.4116 91.735V90.19L44.9716 90.445C44.3216 90.555 43.8916 90.73 43.6816 90.97C43.4716 91.21 43.3666 91.48 43.3666 91.78C43.3666 92.08 43.4566 92.315 43.6366 92.485C43.8166 92.655 44.0666 92.74 44.3866 92.74ZM49.8118 86.725V85.42H51.1918V83.86L53.2018 83.35V85.42H54.8368V86.725H53.2018V91.57C53.2018 92 53.2618 92.305 53.3818 92.485C53.5118 92.665 53.6968 92.755 53.9368 92.755C54.1868 92.755 54.4568 92.715 54.7468 92.635L55.0018 93.88C54.4118 94.1 53.8818 94.21 53.4118 94.21C52.9518 94.21 52.5818 94.155 52.3018 94.045C52.0218 93.935 51.8118 93.81 51.6718 93.67C51.5318 93.52 51.4268 93.32 51.3568 93.07C51.2468 92.72 51.1918 92.285 51.1918 91.765V86.725H49.8118ZM58.022 91.915C58.282 92.415 58.782 92.665 59.522 92.665C60.262 92.665 60.762 92.415 61.022 91.915C61.282 91.415 61.412 90.68 61.412 89.71C61.412 88.74 61.282 88.005 61.022 87.505C60.762 87.005 60.262 86.755 59.522 86.755C58.782 86.755 58.282 87.005 58.022 87.505C57.762 88.005 57.632 88.74 57.632 89.71C57.632 90.68 57.762 91.415 58.022 91.915ZM63.422 89.71C63.422 92.71 62.122 94.21 59.522 94.21C56.922 94.21 55.622 92.71 55.622 89.71C55.622 86.71 56.922 85.21 59.522 85.21C62.122 85.21 63.422 86.71 63.422 89.71ZM71.5248 94.21C69.5948 94.21 68.6298 92.71 68.6298 89.71C68.6298 86.71 69.7998 85.21 72.1398 85.21C72.7998 85.21 73.4498 85.33 74.0898 85.57V82.72L76.0998 82.57V94H74.7948L74.2398 92.935C73.4098 93.785 72.5048 94.21 71.5248 94.21ZM72.3198 92.665C72.9398 92.665 73.5298 92.345 74.0898 91.705V87.055C73.5998 86.855 73.1198 86.755 72.6498 86.755C71.9298 86.755 71.4148 87.005 71.1048 87.505C70.7948 88.005 70.6398 88.74 70.6398 89.71C70.6398 91.68 71.1998 92.665 72.3198 92.665ZM81.8888 94.21C80.5088 94.21 79.5238 93.84 78.9338 93.1C78.3438 92.35 78.0488 91.22 78.0488 89.71C78.0488 86.71 79.3088 85.21 81.8288 85.21C83.2788 85.21 84.2688 85.66 84.7988 86.56C85.2588 87.33 85.4888 88.33 85.4888 89.56V90.1H79.9988C80.0088 91.04 80.1638 91.705 80.4638 92.095C80.7638 92.475 81.2588 92.665 81.9488 92.665C83.0588 92.665 83.6488 92.265 83.7188 91.465L85.3688 91.525C85.2088 93.315 84.0488 94.21 81.8888 94.21ZM83.0438 87.25C82.7938 86.92 82.3838 86.755 81.8138 86.755C81.2438 86.755 80.8238 86.915 80.5538 87.235C80.2938 87.545 80.1238 88.045 80.0438 88.735H83.5088C83.4488 88.065 83.2938 87.57 83.0438 87.25ZM90.0618 84.595V83.05H97.8468V84.595H94.9818V94H92.9418V84.595H90.0618ZM99.2215 85.42H101.232V94H99.2215V85.42ZM100.227 84.4C99.4765 84.4 99.1015 84.015 99.1015 83.245C99.1015 82.465 99.4765 82.075 100.227 82.075C100.997 82.075 101.382 82.465 101.382 83.245C101.382 84.015 100.997 84.4 100.227 84.4ZM102.781 86.725V85.42H104.161V83.86L106.171 83.35V85.42H107.806V86.725H106.171V91.57C106.171 92 106.231 92.305 106.351 92.485C106.481 92.665 106.666 92.755 106.906 92.755C107.156 92.755 107.426 92.715 107.716 92.635L107.971 93.88C107.381 94.1 106.851 94.21 106.381 94.21C105.921 94.21 105.551 94.155 105.271 94.045C104.991 93.935 104.781 93.81 104.641 93.67C104.501 93.52 104.396 93.32 104.326 93.07C104.216 92.72 104.161 92.285 104.161 91.765V86.725H102.781ZM111.951 94.21C110.191 94.21 109.311 93.3 109.311 91.48V85.42H111.321V91.15C111.321 91.67 111.421 92.055 111.621 92.305C111.831 92.545 112.176 92.665 112.656 92.665C113.336 92.665 113.981 92.345 114.591 91.705V85.42H116.601V94H115.296L114.726 92.965C113.946 93.795 113.021 94.21 111.951 94.21ZM121.432 94H119.422V82.72L121.432 82.45V94ZM127.271 85.21C129.451 85.21 130.541 86.205 130.541 88.195V94H129.236L128.666 92.95C127.866 93.79 126.931 94.21 125.861 94.21C125.101 94.21 124.521 94 124.121 93.58C123.731 93.15 123.536 92.58 123.536 91.87C123.536 91.15 123.761 90.57 124.211 90.13C124.661 89.69 125.501 89.38 126.731 89.2L128.531 88.93V88.21C128.531 87.24 128.071 86.755 127.151 86.755C126.281 86.755 125.766 87.195 125.606 88.075L124.046 87.61C124.426 86.01 125.501 85.21 127.271 85.21ZM126.506 92.74C127.186 92.74 127.861 92.405 128.531 91.735V90.19L127.091 90.445C126.441 90.555 126.011 90.73 125.801 90.97C125.591 91.21 125.486 91.48 125.486 91.78C125.486 92.08 125.576 92.315 125.756 92.485C125.936 92.655 126.186 92.74 126.506 92.74ZM135.216 94H133.206V85.42H134.151L134.946 86.755C135.636 85.775 136.611 85.26 137.871 85.21V86.935C136.691 86.965 135.806 87.325 135.216 88.015V94ZM0.97 125.595V124.05H8.755V125.595H5.89V135H3.85V125.595H0.97ZM13.1447 126.21C15.3247 126.21 16.4147 127.205 16.4147 129.195V135H15.1097L14.5397 133.95C13.7397 134.79 12.8047 135.21 11.7347 135.21C10.9747 135.21 10.3947 135 9.99473 134.58C9.60473 134.15 9.40973 133.58 9.40973 132.87C9.40973 132.15 9.63473 131.57 10.0847 131.13C10.5347 130.69 11.3747 130.38 12.6047 130.2L14.4047 129.93V129.21C14.4047 128.24 13.9447 127.755 13.0247 127.755C12.1547 127.755 11.6397 128.195 11.4797 129.075L9.91973 128.61C10.2997 127.01 11.3747 126.21 13.1447 126.21ZM12.3797 133.74C13.0597 133.74 13.7347 133.405 14.4047 132.735V131.19L12.9647 131.445C12.3147 131.555 11.8847 131.73 11.6747 131.97C11.4647 132.21 11.3597 132.48 11.3597 132.78C11.3597 133.08 11.4497 133.315 11.6297 133.485C11.8097 133.655 12.0597 133.74 12.3797 133.74ZM21.0899 135H19.0799V126.42H20.0249L20.8199 127.755C21.5099 126.775 22.4849 126.26 23.7449 126.21V127.935C22.5649 127.965 21.6799 128.325 21.0899 129.015V135ZM25.1883 126.42H27.1983V135H25.1883V126.42ZM26.1933 125.4C25.4433 125.4 25.0683 125.015 25.0683 124.245C25.0683 123.465 25.4433 123.075 26.1933 123.075C26.9633 123.075 27.3483 123.465 27.3483 124.245C27.3483 125.015 26.9633 125.4 26.1933 125.4ZM33.0073 124.95C32.4773 124.95 32.2123 125.245 32.2123 125.835V126.42H33.8323V127.725H32.2123V135H30.2023V127.725H29.2723V126.42H30.2023V125.835C30.2023 124.195 31.0673 123.375 32.7973 123.375C33.4473 123.375 34.0173 123.465 34.5073 123.645L34.0123 125.16C33.6723 125.02 33.3373 124.95 33.0073 124.95ZM38.2961 126.21C40.4761 126.21 41.5661 127.205 41.5661 129.195V135H40.2611L39.6911 133.95C38.8911 134.79 37.9561 135.21 36.8861 135.21C36.1261 135.21 35.5461 135 35.1461 134.58C34.7561 134.15 34.5611 133.58 34.5611 132.87C34.5611 132.15 34.7861 131.57 35.2361 131.13C35.6861 130.69 36.5261 130.38 37.7561 130.2L39.5561 129.93V129.21C39.5561 128.24 39.0961 127.755 38.1761 127.755C37.3061 127.755 36.7911 128.195 36.6311 129.075L35.0711 128.61C35.4511 127.01 36.5261 126.21 38.2961 126.21ZM37.5311 133.74C38.2111 133.74 38.8861 133.405 39.5561 132.735V131.19L38.1161 131.445C37.4661 131.555 37.0361 131.73 36.8261 131.97C36.6161 132.21 36.5111 132.48 36.5111 132.78C36.5111 133.08 36.6011 133.315 36.7811 133.485C36.9611 133.655 37.2111 133.74 37.5311 133.74ZM50.3663 132.6C50.3663 134.31 49.1663 135.165 46.7663 135.165C45.7163 135.165 44.9363 134.94 44.4263 134.49C43.9163 134.03 43.5963 133.365 43.4663 132.495L45.0263 132.255C45.1363 133.215 45.7313 133.695 46.8113 133.695C47.9013 133.695 48.4463 133.355 48.4463 132.675C48.4463 132.395 48.3363 132.185 48.1163 132.045C47.9063 131.905 47.4763 131.76 46.8263 131.61L46.1363 131.445C45.2463 131.235 44.6063 130.93 44.2163 130.53C43.8363 130.12 43.6463 129.53 43.6463 128.76C43.6463 127.06 44.8063 126.21 47.1263 126.21C48.1263 126.21 48.8713 126.44 49.3613 126.9C49.8613 127.35 50.1713 128.01 50.2913 128.88L48.7313 129.105C48.6213 128.155 48.0663 127.68 47.0663 127.68C46.0763 127.68 45.5813 128.02 45.5813 128.7C45.5813 128.98 45.6763 129.195 45.8663 129.345C46.0663 129.485 46.4663 129.625 47.0663 129.765L47.8463 129.96C48.7363 130.18 49.3763 130.49 49.7663 130.89C50.1663 131.28 50.3663 131.85 50.3663 132.6ZM58.9056 138.555L57.1206 138.285L58.3356 135.12L55.2006 126.42H57.2256L59.2806 132.39L61.1406 126.42H63.1956L58.9056 138.555ZM72.6814 125.49C71.7414 125.49 71.1064 125.8 70.7764 126.42C70.4464 127.03 70.2814 128.065 70.2814 129.525C70.2814 130.975 70.4464 132.01 70.7764 132.63C71.1064 133.25 71.7414 133.56 72.6814 133.56C73.4114 133.56 73.9264 133.36 74.2264 132.96C74.5364 132.56 74.7014 131.98 74.7214 131.22L76.3714 131.295C76.2914 132.585 75.9814 133.56 75.4414 134.22C74.9114 134.88 73.9914 135.21 72.6814 135.21C70.9714 135.21 69.7914 134.71 69.1414 133.71C68.8114 133.21 68.5764 132.63 68.4364 131.97C68.3064 131.3 68.2414 130.485 68.2414 129.525C68.2414 128.565 68.3064 127.755 68.4364 127.095C68.5764 126.425 68.8114 125.84 69.1414 125.34C69.7914 124.34 70.9714 123.84 72.6814 123.84C73.9114 123.84 74.7964 124.115 75.3364 124.665C75.8764 125.215 76.2064 126.025 76.3264 127.095L74.6764 127.35C74.6164 126.75 74.4314 126.29 74.1214 125.97C73.8114 125.65 73.3314 125.49 72.6814 125.49ZM81.216 126.21C83.396 126.21 84.486 127.205 84.486 129.195V135H83.181L82.611 133.95C81.811 134.79 80.876 135.21 79.806 135.21C79.046 135.21 78.466 135 78.066 134.58C77.676 134.15 77.481 133.58 77.481 132.87C77.481 132.15 77.706 131.57 78.156 131.13C78.606 130.69 79.446 130.38 80.676 130.2L82.476 129.93V129.21C82.476 128.24 82.016 127.755 81.096 127.755C80.226 127.755 79.711 128.195 79.551 129.075L77.991 128.61C78.371 127.01 79.446 126.21 81.216 126.21ZM80.451 133.74C81.131 133.74 81.806 133.405 82.476 132.735V131.19L81.036 131.445C80.386 131.555 79.956 131.73 79.746 131.97C79.536 132.21 79.431 132.48 79.431 132.78C79.431 133.08 79.521 133.315 79.701 133.485C79.881 133.655 80.131 133.74 80.451 133.74ZM89.1612 135H87.1512V126.42H88.0962L88.8912 127.755C89.5812 126.775 90.5562 126.26 91.8162 126.21V127.935C90.6362 127.965 89.7512 128.325 89.1612 129.015V135ZM98.9146 131.445C98.6846 131.765 98.3346 132.02 97.8646 132.21C97.3946 132.39 96.8396 132.48 96.1996 132.48C95.5696 132.48 95.0446 132.405 94.6246 132.255L94.2046 132.705C94.0346 132.875 93.9496 133.04 93.9496 133.2C93.9496 133.44 94.1146 133.56 94.4446 133.56H97.6396C98.4296 133.56 99.0496 133.775 99.4996 134.205C99.9596 134.635 100.19 135.14 100.19 135.72C100.19 136.3 100.07 136.76 99.8296 137.1C99.5896 137.44 99.2446 137.69 98.7946 137.85C98.0346 138.12 97.0596 138.255 95.8696 138.255C94.6896 138.255 93.7796 138.11 93.1396 137.82C92.4996 137.54 92.1796 137.055 92.1796 136.365C92.1796 136.035 92.2746 135.735 92.4646 135.465C92.6546 135.205 92.8896 135.005 93.1696 134.865C92.5596 134.675 92.2546 134.23 92.2546 133.53C92.2546 133.07 92.4346 132.645 92.7946 132.255L93.4846 131.535C93.0146 130.995 92.7796 130.265 92.7796 129.345C92.7796 128.535 92.9996 127.835 93.4396 127.245C93.9396 126.555 94.8496 126.21 96.1696 126.21C96.7396 126.21 97.2346 126.28 97.6546 126.42H100.16V127.605H99.1696C99.4396 128.095 99.5746 128.61 99.5746 129.15C99.5746 129.68 99.5246 130.115 99.4246 130.455C99.3246 130.795 99.1546 131.125 98.9146 131.445ZM96.1696 127.545C95.1896 127.545 94.6996 128.145 94.6996 129.345C94.6996 130.545 95.1896 131.145 96.1696 131.145C97.1596 131.145 97.6546 130.545 97.6546 129.345C97.6546 128.145 97.1596 127.545 96.1696 127.545ZM94.0096 135.915C94.0096 136.275 94.1696 136.505 94.4896 136.605C94.8196 136.705 95.3596 136.755 96.1096 136.755C96.8596 136.755 97.3896 136.695 97.6996 136.575C98.0196 136.465 98.1796 136.22 98.1796 135.84C98.1796 135.28 97.7896 135 97.0096 135H94.4446C94.1546 135.26 94.0096 135.565 94.0096 135.915ZM103.461 132.915C103.721 133.415 104.221 133.665 104.961 133.665C105.701 133.665 106.201 133.415 106.461 132.915C106.721 132.415 106.851 131.68 106.851 130.71C106.851 129.74 106.721 129.005 106.461 128.505C106.201 128.005 105.701 127.755 104.961 127.755C104.221 127.755 103.721 128.005 103.461 128.505C103.201 129.005 103.071 129.74 103.071 130.71C103.071 131.68 103.201 132.415 103.461 132.915ZM108.861 130.71C108.861 133.71 107.561 135.21 104.961 135.21C102.361 135.21 101.061 133.71 101.061 130.71C101.061 127.71 102.361 126.21 104.961 126.21C107.561 126.21 108.861 127.71 108.861 130.71ZM116.943 132.6C116.943 134.31 115.743 135.165 113.343 135.165C112.293 135.165 111.513 134.94 111.003 134.49C110.493 134.03 110.173 133.365 110.043 132.495L111.603 132.255C111.713 133.215 112.308 133.695 113.388 133.695C114.478 133.695 115.023 133.355 115.023 132.675C115.023 132.395 114.913 132.185 114.693 132.045C114.483 131.905 114.053 131.76 113.403 131.61L112.713 131.445C111.823 131.235 111.183 130.93 110.793 130.53C110.413 130.12 110.223 129.53 110.223 128.76C110.223 127.06 111.383 126.21 113.703 126.21C114.703 126.21 115.448 126.44 115.938 126.9C116.438 127.35 116.748 128.01 116.868 128.88L115.308 129.105C115.198 128.155 114.643 127.68 113.643 127.68C112.653 127.68 112.158 128.02 112.158 128.7C112.158 128.98 112.253 129.195 112.443 129.345C112.643 129.485 113.043 129.625 113.643 129.765L114.423 129.96C115.313 130.18 115.953 130.49 116.343 130.89C116.743 131.28 116.943 131.85 116.943 132.6ZM6.19 172.115H4.45V176H2.41V165.05H6.19C7.51 165.05 8.44 165.41 8.98 166.13C9.45 166.78 9.685 167.6 9.685 168.59C9.685 169.57 9.45 170.38 8.98 171.02C8.44 171.75 7.51 172.115 6.19 172.115ZM4.45 170.54H5.875C7.055 170.54 7.645 169.89 7.645 168.59C7.645 167.28 7.055 166.625 5.875 166.625H4.45V170.54ZM12.8902 173.915C13.1502 174.415 13.6502 174.665 14.3902 174.665C15.1302 174.665 15.6302 174.415 15.8902 173.915C16.1502 173.415 16.2802 172.68 16.2802 171.71C16.2802 170.74 16.1502 170.005 15.8902 169.505C15.6302 169.005 15.1302 168.755 14.3902 168.755C13.6502 168.755 13.1502 169.005 12.8902 169.505C12.6302 170.005 12.5002 170.74 12.5002 171.71C12.5002 172.68 12.6302 173.415 12.8902 173.915ZM18.2902 171.71C18.2902 174.71 16.9902 176.21 14.3902 176.21C11.7902 176.21 10.4902 174.71 10.4902 171.71C10.4902 168.71 11.7902 167.21 14.3902 167.21C16.9902 167.21 18.2902 168.71 18.2902 171.71ZM22.2471 176H20.2371V164.72L22.2471 164.45V176ZM25.0711 167.42H27.0811V176H25.0711V167.42ZM25.1461 166.7L24.4711 165.62L27.3961 163.625L28.2961 165.065L25.1461 166.7ZM28.6301 168.725V167.42H30.0101V165.86L32.0201 165.35V167.42H33.6551V168.725H32.0201V173.57C32.0201 174 32.0801 174.305 32.2001 174.485C32.3301 174.665 32.5151 174.755 32.7551 174.755C33.0051 174.755 33.2751 174.715 33.5651 174.635L33.8201 175.88C33.2301 176.1 32.7001 176.21 32.2301 176.21C31.7701 176.21 31.4001 176.155 31.1201 176.045C30.8401 175.935 30.6301 175.81 30.4901 175.67C30.3501 175.52 30.2451 175.32 30.1751 175.07C30.0651 174.72 30.0101 174.285 30.0101 173.765V168.725H28.6301ZM35.3104 167.42H37.3204V176H35.3104V167.42ZM36.3154 166.4C35.5654 166.4 35.1904 166.015 35.1904 165.245C35.1904 164.465 35.5654 164.075 36.3154 164.075C37.0854 164.075 37.4704 164.465 37.4704 165.245C37.4704 166.015 37.0854 166.4 36.3154 166.4ZM41.6594 169.475C41.4094 169.955 41.2844 170.7 41.2844 171.71C41.2844 172.72 41.4094 173.465 41.6594 173.945C41.9194 174.425 42.3644 174.665 42.9944 174.665C43.6344 174.665 44.0894 174.535 44.3594 174.275C44.6394 174.015 44.7894 173.605 44.8094 173.045L46.3844 173.12C46.3244 174.14 46.0244 174.91 45.4844 175.43C44.9544 175.95 44.0794 176.21 42.8594 176.21C41.4294 176.21 40.4544 175.745 39.9344 174.815C39.6844 174.365 39.5094 173.895 39.4094 173.405C39.3194 172.915 39.2744 172.35 39.2744 171.71C39.2744 171.06 39.3194 170.49 39.4094 170C39.5094 169.5 39.6844 169.03 39.9344 168.59C40.4444 167.67 41.4194 167.21 42.8594 167.21C44.0694 167.21 44.9394 167.46 45.4694 167.96C45.9994 168.45 46.2994 169.185 46.3694 170.165L44.8094 170.375C44.7894 169.815 44.6394 169.405 44.3594 169.145C44.0894 168.885 43.6344 168.755 42.9944 168.755C42.3644 168.755 41.9194 168.995 41.6594 169.475ZM51.2014 167.21C53.3814 167.21 54.4714 168.205 54.4714 170.195V176H53.1664L52.5964 174.95C51.7964 175.79 50.8614 176.21 49.7914 176.21C49.0314 176.21 48.4514 176 48.0514 175.58C47.6614 175.15 47.4664 174.58 47.4664 173.87C47.4664 173.15 47.6914 172.57 48.1414 172.13C48.5914 171.69 49.4314 171.38 50.6614 171.2L52.4614 170.93V170.21C52.4614 169.24 52.0014 168.755 51.0814 168.755C50.2114 168.755 49.6964 169.195 49.5364 170.075L47.9764 169.61C48.3564 168.01 49.4314 167.21 51.2014 167.21ZM50.4364 174.74C51.1164 174.74 51.7914 174.405 52.4614 173.735V172.19L51.0214 172.445C50.3714 172.555 49.9414 172.73 49.7314 172.97C49.5214 173.21 49.4164 173.48 49.4164 173.78C49.4164 174.08 49.5064 174.315 49.6864 174.485C49.8664 174.655 50.1164 174.74 50.4364 174.74ZM63.2924 176.21C61.3624 176.21 60.3974 174.71 60.3974 171.71C60.3974 168.71 61.5674 167.21 63.9074 167.21C64.5674 167.21 65.2174 167.33 65.8574 167.57V164.72L67.8674 164.57V176H66.5624L66.0074 174.935C65.1774 175.785 64.2724 176.21 63.2924 176.21ZM64.0874 174.665C64.7074 174.665 65.2974 174.345 65.8574 173.705V169.055C65.3674 168.855 64.8874 168.755 64.4174 168.755C63.6974 168.755 63.1824 169.005 62.8724 169.505C62.5624 170.005 62.4074 170.74 62.4074 171.71C62.4074 173.68 62.9674 174.665 64.0874 174.665ZM73.6564 176.21C72.2764 176.21 71.2914 175.84 70.7014 175.1C70.1114 174.35 69.8164 173.22 69.8164 171.71C69.8164 168.71 71.0764 167.21 73.5964 167.21C75.0464 167.21 76.0364 167.66 76.5664 168.56C77.0264 169.33 77.2564 170.33 77.2564 171.56V172.1H71.7664C71.7764 173.04 71.9314 173.705 72.2314 174.095C72.5314 174.475 73.0264 174.665 73.7164 174.665C74.8264 174.665 75.4164 174.265 75.4864 173.465L77.1364 173.525C76.9764 175.315 75.8164 176.21 73.6564 176.21ZM74.8114 169.25C74.5614 168.92 74.1514 168.755 73.5814 168.755C73.0114 168.755 72.5914 168.915 72.3214 169.235C72.0614 169.545 71.8914 170.045 71.8114 170.735H75.2764C75.2164 170.065 75.0614 169.57 74.8114 169.25ZM87.1394 166.49C86.1994 166.49 85.5644 166.8 85.2344 167.42C84.9044 168.03 84.7394 169.065 84.7394 170.525C84.7394 171.975 84.9044 173.01 85.2344 173.63C85.5644 174.25 86.1994 174.56 87.1394 174.56C87.8694 174.56 88.3844 174.36 88.6844 173.96C88.9944 173.56 89.1594 172.98 89.1794 172.22L90.8294 172.295C90.7494 173.585 90.4394 174.56 89.8994 175.22C89.3694 175.88 88.4494 176.21 87.1394 176.21C85.4294 176.21 84.2494 175.71 83.5994 174.71C83.2694 174.21 83.0344 173.63 82.8944 172.97C82.7644 172.3 82.6994 171.485 82.6994 170.525C82.6994 169.565 82.7644 168.755 82.8944 168.095C83.0344 167.425 83.2694 166.84 83.5994 166.34C84.2494 165.34 85.4294 164.84 87.1394 164.84C88.3694 164.84 89.2544 165.115 89.7944 165.665C90.3344 166.215 90.6644 167.025 90.7844 168.095L89.1344 168.35C89.0744 167.75 88.8894 167.29 88.5794 166.97C88.2694 166.65 87.7894 166.49 87.1394 166.49ZM95.674 167.21C97.854 167.21 98.944 168.205 98.944 170.195V176H97.639L97.069 174.95C96.269 175.79 95.334 176.21 94.264 176.21C93.504 176.21 92.924 176 92.524 175.58C92.134 175.15 91.939 174.58 91.939 173.87C91.939 173.15 92.164 172.57 92.614 172.13C93.064 171.69 93.904 171.38 95.134 171.2L96.934 170.93V170.21C96.934 169.24 96.474 168.755 95.554 168.755C94.684 168.755 94.169 169.195 94.009 170.075L92.449 169.61C92.829 168.01 93.904 167.21 95.674 167.21ZM94.909 174.74C95.589 174.74 96.264 174.405 96.934 173.735V172.19L95.494 172.445C94.844 172.555 94.414 172.73 94.204 172.97C93.994 173.21 93.889 173.48 93.889 173.78C93.889 174.08 93.979 174.315 94.159 174.485C94.339 174.655 94.589 174.74 94.909 174.74ZM103.199 168.2C104.139 167.54 105.099 167.21 106.079 167.21C107.069 167.21 107.784 167.455 108.224 167.945C108.664 168.425 108.884 169.09 108.884 169.94V176H106.874V170.15C106.874 169.64 106.779 169.28 106.589 169.07C106.409 168.86 106.089 168.755 105.629 168.755C104.909 168.755 104.239 168.98 103.619 169.43V176H101.609V167.42H102.554L103.199 168.2ZM113.071 169.475C112.821 169.955 112.696 170.7 112.696 171.71C112.696 172.72 112.821 173.465 113.071 173.945C113.331 174.425 113.776 174.665 114.406 174.665C115.046 174.665 115.501 174.535 115.771 174.275C116.051 174.015 116.201 173.605 116.221 173.045L117.796 173.12C117.736 174.14 117.436 174.91 116.896 175.43C116.366 175.95 115.491 176.21 114.271 176.21C112.841 176.21 111.866 175.745 111.346 174.815C111.096 174.365 110.921 173.895 110.821 173.405C110.731 172.915 110.686 172.35 110.686 171.71C110.686 171.06 110.731 170.49 110.821 170C110.921 169.5 111.096 169.03 111.346 168.59C111.856 167.67 112.831 167.21 114.271 167.21C115.481 167.21 116.351 167.46 116.881 167.96C117.411 168.45 117.711 169.185 117.781 170.165L116.221 170.375C116.201 169.815 116.051 169.405 115.771 169.145C115.501 168.885 115.046 168.755 114.406 168.755C113.776 168.755 113.331 168.995 113.071 169.475ZM122.568 176.21C121.188 176.21 120.203 175.84 119.613 175.1C119.023 174.35 118.728 173.22 118.728 171.71C118.728 168.71 119.988 167.21 122.508 167.21C123.958 167.21 124.948 167.66 125.478 168.56C125.938 169.33 126.168 170.33 126.168 171.56V172.1H120.678C120.688 173.04 120.843 173.705 121.143 174.095C121.443 174.475 121.938 174.665 122.628 174.665C123.738 174.665 124.328 174.265 124.398 173.465L126.048 173.525C125.888 175.315 124.728 176.21 122.568 176.21ZM123.723 169.25C123.473 168.92 123.063 168.755 122.493 168.755C121.923 168.755 121.503 168.915 121.233 169.235C120.973 169.545 120.803 170.045 120.723 170.735H124.188C124.128 170.065 123.973 169.57 123.723 169.25ZM130.06 176H128.05V164.72L130.06 164.45V176ZM135.899 167.21C138.079 167.21 139.169 168.205 139.169 170.195V176H137.864L137.294 174.95C136.494 175.79 135.559 176.21 134.489 176.21C133.729 176.21 133.149 176 132.749 175.58C132.359 175.15 132.164 174.58 132.164 173.87C132.164 173.15 132.389 172.57 132.839 172.13C133.289 171.69 134.129 171.38 135.359 171.2L137.159 170.93V170.21C137.159 169.24 136.699 168.755 135.779 168.755C134.909 168.755 134.394 169.195 134.234 170.075L132.674 169.61C133.054 168.01 134.129 167.21 135.899 167.21ZM135.134 174.74C135.814 174.74 136.489 174.405 137.159 173.735V172.19L135.719 172.445C135.069 172.555 134.639 172.73 134.429 172.97C134.219 173.21 134.114 173.48 134.114 173.78C134.114 174.08 134.204 174.315 134.384 174.485C134.564 174.655 134.814 174.74 135.134 174.74ZM143.349 169.475C143.099 169.955 142.974 170.7 142.974 171.71C142.974 172.72 143.099 173.465 143.349 173.945C143.609 174.425 144.054 174.665 144.684 174.665C145.324 174.665 145.779 174.535 146.049 174.275C146.329 174.015 146.479 173.605 146.499 173.045L148.074 173.12C148.014 174.14 147.714 174.91 147.174 175.43C146.644 175.95 145.769 176.21 144.549 176.21C143.119 176.21 142.144 175.745 141.624 174.815C141.374 174.365 141.199 173.895 141.099 173.405C141.009 172.915 140.964 172.35 140.964 171.71C140.964 171.06 141.009 170.49 141.099 170C141.199 169.5 141.374 169.03 141.624 168.59C142.134 167.67 143.109 167.21 144.549 167.21C145.759 167.21 146.629 167.46 147.159 167.96C147.689 168.45 147.989 169.185 148.059 170.165L146.499 170.375C146.479 169.815 146.329 169.405 146.049 169.145C145.779 168.885 145.324 168.755 144.684 168.755C144.054 168.755 143.609 168.995 143.349 169.475ZM149.876 167.42H151.886V176H149.876V167.42ZM150.881 166.4C150.131 166.4 149.756 166.015 149.756 165.245C149.756 164.465 150.131 164.075 150.881 164.075C151.651 164.075 152.036 164.465 152.036 165.245C152.036 166.015 151.651 166.4 150.881 166.4ZM156.24 173.915C156.5 174.415 157 174.665 157.74 174.665C158.48 174.665 158.98 174.415 159.24 173.915C159.5 173.415 159.63 172.68 159.63 171.71C159.63 170.74 159.5 170.005 159.24 169.505C158.98 169.005 158.48 168.755 157.74 168.755C157 168.755 156.5 169.005 156.24 169.505C155.98 170.005 155.85 170.74 155.85 171.71C155.85 172.68 155.98 173.415 156.24 173.915ZM161.64 171.71C161.64 174.71 160.34 176.21 157.74 176.21C155.14 176.21 153.84 174.71 153.84 171.71C153.84 168.71 155.14 167.21 157.74 167.21C160.34 167.21 161.64 168.71 161.64 171.71ZM157.14 166.7L156.465 165.62L159.39 163.625L160.29 165.065L157.14 166.7ZM165.177 168.2C166.117 167.54 167.077 167.21 168.057 167.21C169.047 167.21 169.762 167.455 170.202 167.945C170.642 168.425 170.862 169.09 170.862 169.94V176H168.852V170.15C168.852 169.64 168.757 169.28 168.567 169.07C168.387 168.86 168.067 168.755 167.607 168.755C166.887 168.755 166.217 168.98 165.597 169.43V176H163.587V167.42H164.532L165.177 168.2ZM4.765 200.555L2.98 200.285L4.195 197.12L1.06 188.42H3.085L5.14 194.39L7 188.42H9.055L4.765 200.555ZM14.6707 186.05H18.4957C19.8857 186.05 20.8507 186.415 21.3907 187.145C21.8507 187.775 22.0807 188.515 22.0807 189.365C22.0807 190.875 21.4907 191.875 20.3107 192.365C20.5307 192.605 20.7207 192.905 20.8807 193.265L22.5457 197H20.3707L18.8107 193.445C18.6707 193.145 18.5157 192.94 18.3457 192.83C18.1857 192.72 17.9407 192.665 17.6107 192.665H16.7107V197H14.6707V186.05ZM16.7107 191.09H18.2557C18.8557 191.09 19.3007 190.925 19.5907 190.595C19.8907 190.265 20.0407 189.855 20.0407 189.365C20.0407 188.865 19.8907 188.45 19.5907 188.12C19.3007 187.79 18.8557 187.625 18.2557 187.625H16.7107V191.09ZM27.5431 197.21C26.1631 197.21 25.1781 196.84 24.5881 196.1C23.9981 195.35 23.7031 194.22 23.7031 192.71C23.7031 189.71 24.9631 188.21 27.4831 188.21C28.9331 188.21 29.9231 188.66 30.4531 189.56C30.9131 190.33 31.1431 191.33 31.1431 192.56V193.1H25.6531C25.6631 194.04 25.8181 194.705 26.1181 195.095C26.4181 195.475 26.9131 195.665 27.6031 195.665C28.7131 195.665 29.3031 195.265 29.3731 194.465L31.0231 194.525C30.8631 196.315 29.7031 197.21 27.5431 197.21ZM28.6981 190.25C28.4481 189.92 28.0381 189.755 27.4681 189.755C26.8981 189.755 26.4781 189.915 26.2081 190.235C25.9481 190.545 25.7781 191.045 25.6981 191.735H29.1631C29.1031 191.065 28.9481 190.57 28.6981 190.25ZM35.9952 197.21C34.6152 197.21 33.6302 196.84 33.0402 196.1C32.4502 195.35 32.1552 194.22 32.1552 192.71C32.1552 189.71 33.4152 188.21 35.9352 188.21C37.3852 188.21 38.3752 188.66 38.9052 189.56C39.3652 190.33 39.5952 191.33 39.5952 192.56V193.1H34.1052C34.1152 194.04 34.2702 194.705 34.5702 195.095C34.8702 195.475 35.3652 195.665 36.0552 195.665C37.1652 195.665 37.7552 195.265 37.8252 194.465L39.4752 194.525C39.3152 196.315 38.1552 197.21 35.9952 197.21ZM37.1502 190.25C36.9002 189.92 36.4902 189.755 35.9202 189.755C35.3502 189.755 34.9302 189.915 34.6602 190.235C34.4002 190.545 34.2302 191.045 34.1502 191.735H37.6152C37.5552 191.065 37.4002 190.57 37.1502 190.25ZM45.6324 188.21C46.8324 188.21 47.6724 188.555 48.1524 189.245C49.0124 188.555 49.9274 188.21 50.8974 188.21C51.8774 188.21 52.6024 188.455 53.0724 188.945C53.5424 189.425 53.7774 190.09 53.7774 190.94V197H51.7674V191.27C51.7674 190.75 51.6724 190.37 51.4824 190.13C51.2924 189.88 50.9574 189.755 50.4774 189.755C49.7974 189.755 49.1724 189.99 48.6024 190.46C48.6224 190.66 48.6324 190.82 48.6324 190.94V197H46.6224V191.27C46.6224 190.75 46.5224 190.37 46.3224 190.13C46.1224 189.88 45.7374 189.755 45.1674 189.755C44.6074 189.755 44.0474 189.955 43.4874 190.355V197H41.4774V188.42H42.5424L43.0674 189.125C43.8774 188.515 44.7324 188.21 45.6324 188.21ZM60.4681 197.21C59.5581 197.21 58.6931 196.95 57.8731 196.43L57.4081 197H56.4481V185.72L58.4581 185.57V188.63C59.1381 188.35 59.8081 188.21 60.4681 188.21C62.7681 188.21 63.9181 189.71 63.9181 192.71C63.9181 195.71 62.7681 197.21 60.4681 197.21ZM59.9131 189.755C59.4331 189.755 58.9481 189.855 58.4581 190.055V195.32C58.8881 195.55 59.3581 195.665 59.8681 195.665C61.2281 195.665 61.9081 194.68 61.9081 192.71C61.9081 190.74 61.2431 189.755 59.9131 189.755ZM67.397 194.915C67.657 195.415 68.157 195.665 68.897 195.665C69.637 195.665 70.137 195.415 70.397 194.915C70.657 194.415 70.787 193.68 70.787 192.71C70.787 191.74 70.657 191.005 70.397 190.505C70.137 190.005 69.637 189.755 68.897 189.755C68.157 189.755 67.657 190.005 67.397 190.505C67.137 191.005 67.007 191.74 67.007 192.71C67.007 193.68 67.137 194.415 67.397 194.915ZM72.797 192.71C72.797 195.71 71.497 197.21 68.897 197.21C66.297 197.21 64.997 195.71 64.997 192.71C64.997 189.71 66.297 188.21 68.897 188.21C71.497 188.21 72.797 189.71 72.797 192.71ZM76.754 197H74.744V185.72L76.754 185.45V197ZM85.713 194.6C85.713 196.31 84.513 197.165 82.113 197.165C81.063 197.165 80.283 196.94 79.773 196.49C79.263 196.03 78.943 195.365 78.813 194.495L80.373 194.255C80.483 195.215 81.078 195.695 82.158 195.695C83.248 195.695 83.793 195.355 83.793 194.675C83.793 194.395 83.683 194.185 83.463 194.045C83.253 193.905 82.823 193.76 82.173 193.61L81.483 193.445C80.593 193.235 79.953 192.93 79.563 192.53C79.183 192.12 78.993 191.53 78.993 190.76C78.993 189.06 80.153 188.21 82.473 188.21C83.473 188.21 84.218 188.44 84.708 188.9C85.208 189.35 85.518 190.01 85.638 190.88L84.078 191.105C83.968 190.155 83.413 189.68 82.413 189.68C81.423 189.68 80.928 190.02 80.928 190.7C80.928 190.98 81.023 191.195 81.213 191.345C81.413 191.485 81.813 191.625 82.413 191.765L83.193 191.96C84.083 192.18 84.723 192.49 85.113 192.89C85.513 193.28 85.713 193.85 85.713 194.6ZM89.2964 194.915C89.5564 195.415 90.0564 195.665 90.7964 195.665C91.5364 195.665 92.0364 195.415 92.2964 194.915C92.5564 194.415 92.6864 193.68 92.6864 192.71C92.6864 191.74 92.5564 191.005 92.2964 190.505C92.0364 190.005 91.5364 189.755 90.7964 189.755C90.0564 189.755 89.5564 190.005 89.2964 190.505C89.0364 191.005 88.9064 191.74 88.9064 192.71C88.9064 193.68 89.0364 194.415 89.2964 194.915ZM94.6964 192.71C94.6964 195.71 93.3964 197.21 90.7964 197.21C88.1964 197.21 86.8964 195.71 86.8964 192.71C86.8964 189.71 88.1964 188.21 90.7964 188.21C93.3964 188.21 94.6964 189.71 94.6964 192.71ZM102.778 194.6C102.778 196.31 101.578 197.165 99.1784 197.165C98.1284 197.165 97.3484 196.94 96.8384 196.49C96.3284 196.03 96.0084 195.365 95.8784 194.495L97.4384 194.255C97.5484 195.215 98.1434 195.695 99.2234 195.695C100.313 195.695 100.858 195.355 100.858 194.675C100.858 194.395 100.748 194.185 100.528 194.045C100.318 193.905 99.8884 193.76 99.2384 193.61L98.5484 193.445C97.6584 193.235 97.0184 192.93 96.6284 192.53C96.2484 192.12 96.0584 191.53 96.0584 190.76C96.0584 189.06 97.2184 188.21 99.5384 188.21C100.538 188.21 101.283 188.44 101.773 188.9C102.273 189.35 102.583 190.01 102.703 190.88L101.143 191.105C101.033 190.155 100.478 189.68 99.4784 189.68C98.4884 189.68 97.9934 190.02 97.9934 190.7C97.9934 190.98 98.0884 191.195 98.2784 191.345C98.4784 191.485 98.8784 191.625 99.4784 191.765L100.258 191.96C101.148 192.18 101.788 192.49 102.178 192.89C102.578 193.28 102.778 193.85 102.778 194.6ZM2.41 227.05H6.235C7.625 227.05 8.59 227.415 9.13 228.145C9.59 228.775 9.82 229.515 9.82 230.365C9.82 231.875 9.23 232.875 8.05 233.365C8.27 233.605 8.46 233.905 8.62 234.265L10.285 238H8.11L6.55 234.445C6.41 234.145 6.255 233.94 6.085 233.83C5.925 233.72 5.68 233.665 5.35 233.665H4.45V238H2.41V227.05ZM4.45 232.09H5.995C6.595 232.09 7.04 231.925 7.33 231.595C7.63 231.265 7.78 230.855 7.78 230.365C7.78 229.865 7.63 229.45 7.33 229.12C7.04 228.79 6.595 228.625 5.995 228.625H4.45V232.09ZM15.2823 238.21C13.9023 238.21 12.9173 237.84 12.3273 237.1C11.7373 236.35 11.4423 235.22 11.4423 233.71C11.4423 230.71 12.7023 229.21 15.2223 229.21C16.6723 229.21 17.6623 229.66 18.1923 230.56C18.6523 231.33 18.8823 232.33 18.8823 233.56V234.1H13.3923C13.4023 235.04 13.5573 235.705 13.8573 236.095C14.1573 236.475 14.6523 236.665 15.3423 236.665C16.4523 236.665 17.0423 236.265 17.1123 235.465L18.7623 235.525C18.6023 237.315 17.4423 238.21 15.2823 238.21ZM16.4373 231.25C16.1873 230.92 15.7773 230.755 15.2073 230.755C14.6373 230.755 14.2173 230.915 13.9473 231.235C13.6873 231.545 13.5173 232.045 13.4373 232.735H16.9023C16.8423 232.065 16.6873 231.57 16.4373 231.25ZM22.3545 230.2C23.2945 229.54 24.2545 229.21 25.2345 229.21C26.2245 229.21 26.9395 229.455 27.3795 229.945C27.8195 230.425 28.0395 231.09 28.0395 231.94V238H26.0295V232.15C26.0295 231.64 25.9345 231.28 25.7445 231.07C25.5645 230.86 25.2445 230.755 24.7845 230.755C24.0645 230.755 23.3945 230.98 22.7745 231.43V238H20.7645V229.42H21.7095L22.3545 230.2ZM33.2008 238.21C31.4408 238.21 30.5608 237.3 30.5608 235.48V229.42H32.5708V235.15C32.5708 235.67 32.6708 236.055 32.8708 236.305C33.0808 236.545 33.4258 236.665 33.9058 236.665C34.5858 236.665 35.2308 236.345 35.8408 235.705V229.42H37.8508V238H36.5458L35.9758 236.965C35.1958 237.795 34.2708 238.21 33.2008 238.21ZM42.2617 230.2C43.2017 229.54 44.1617 229.21 45.1417 229.21C46.1317 229.21 46.8467 229.455 47.2867 229.945C47.7267 230.425 47.9467 231.09 47.9467 231.94V238H45.9367V232.15C45.9367 231.64 45.8417 231.28 45.6517 231.07C45.4717 230.86 45.1517 230.755 44.6917 230.755C43.9717 230.755 43.3017 230.98 42.6817 231.43V238H40.6717V229.42H41.6167L42.2617 230.2ZM52.133 231.475C51.883 231.955 51.758 232.7 51.758 233.71C51.758 234.72 51.883 235.465 52.133 235.945C52.393 236.425 52.838 236.665 53.468 236.665C54.108 236.665 54.563 236.535 54.833 236.275C55.113 236.015 55.263 235.605 55.283 235.045L56.858 235.12C56.798 236.14 56.498 236.91 55.958 237.43C55.428 237.95 54.553 238.21 53.333 238.21C51.903 238.21 50.928 237.745 50.408 236.815C50.158 236.365 49.983 235.895 49.883 235.405C49.793 234.915 49.748 234.35 49.748 233.71C49.748 233.06 49.793 232.49 49.883 232C49.983 231.5 50.158 231.03 50.408 230.59C50.918 229.67 51.893 229.21 53.333 229.21C54.543 229.21 55.413 229.46 55.943 229.96C56.473 230.45 56.773 231.185 56.843 232.165L55.283 232.375C55.263 231.815 55.113 231.405 54.833 231.145C54.563 230.885 54.108 230.755 53.468 230.755C52.838 230.755 52.393 230.995 52.133 231.475ZM58.66 229.42H60.67V238H58.66V229.42ZM59.665 228.4C58.915 228.4 58.54 228.015 58.54 227.245C58.54 226.465 58.915 226.075 59.665 226.075C60.435 226.075 60.82 226.465 60.82 227.245C60.82 228.015 60.435 228.4 59.665 228.4ZM66.509 229.21C68.689 229.21 69.779 230.205 69.779 232.195V238H68.474L67.904 236.95C67.104 237.79 66.169 238.21 65.099 238.21C64.339 238.21 63.759 238 63.359 237.58C62.969 237.15 62.774 236.58 62.774 235.87C62.774 235.15 62.999 234.57 63.449 234.13C63.899 233.69 64.739 233.38 65.969 233.2L67.769 232.93V232.21C67.769 231.24 67.309 230.755 66.389 230.755C65.519 230.755 65.004 231.195 64.844 232.075L63.284 231.61C63.664 230.01 64.739 229.21 66.509 229.21ZM65.744 236.74C66.424 236.74 67.099 236.405 67.769 235.735V234.19L66.329 234.445C65.679 234.555 65.249 234.73 65.039 234.97C64.829 235.21 64.724 235.48 64.724 235.78C64.724 236.08 64.814 236.315 64.994 236.485C65.174 236.655 65.424 236.74 65.744 236.74ZM78.6 238.21C76.67 238.21 75.705 236.71 75.705 233.71C75.705 230.71 76.875 229.21 79.215 229.21C79.875 229.21 80.525 229.33 81.165 229.57V226.72L83.175 226.57V238H81.87L81.315 236.935C80.485 237.785 79.58 238.21 78.6 238.21ZM79.395 236.665C80.015 236.665 80.605 236.345 81.165 235.705V231.055C80.675 230.855 80.195 230.755 79.725 230.755C79.005 230.755 78.49 231.005 78.18 231.505C77.87 232.005 77.715 232.74 77.715 233.71C77.715 235.68 78.275 236.665 79.395 236.665ZM88.964 238.21C87.584 238.21 86.599 237.84 86.009 237.1C85.419 236.35 85.124 235.22 85.124 233.71C85.124 230.71 86.384 229.21 88.904 229.21C90.354 229.21 91.344 229.66 91.874 230.56C92.334 231.33 92.564 232.33 92.564 233.56V234.1H87.074C87.084 235.04 87.239 235.705 87.539 236.095C87.839 236.475 88.334 236.665 89.024 236.665C90.134 236.665 90.724 236.265 90.794 235.465L92.444 235.525C92.284 237.315 91.124 238.21 88.964 238.21ZM90.119 231.25C89.869 230.92 89.459 230.755 88.889 230.755C88.319 230.755 87.899 230.915 87.629 231.235C87.369 231.545 87.199 232.045 87.119 232.735H90.584C90.524 232.065 90.369 231.57 90.119 231.25ZM2.41 245.05H6.235C7.625 245.05 8.59 245.415 9.13 246.145C9.59 246.775 9.82 247.515 9.82 248.365C9.82 249.875 9.23 250.875 8.05 251.365C8.27 251.605 8.46 251.905 8.62 252.265L10.285 256H8.11L6.55 252.445C6.41 252.145 6.255 251.94 6.085 251.83C5.925 251.72 5.68 251.665 5.35 251.665H4.45V256H2.41V245.05ZM4.45 250.09H5.995C6.595 250.09 7.04 249.925 7.33 249.595C7.63 249.265 7.78 248.855 7.78 248.365C7.78 247.865 7.63 247.45 7.33 247.12C7.04 246.79 6.595 246.625 5.995 246.625H4.45V250.09ZM15.2823 256.21C13.9023 256.21 12.9173 255.84 12.3273 255.1C11.7373 254.35 11.4423 253.22 11.4423 251.71C11.4423 248.71 12.7023 247.21 15.2223 247.21C16.6723 247.21 17.6623 247.66 18.1923 248.56C18.6523 249.33 18.8823 250.33 18.8823 251.56V252.1H13.3923C13.4023 253.04 13.5573 253.705 13.8573 254.095C14.1573 254.475 14.6523 254.665 15.3423 254.665C16.4523 254.665 17.0423 254.265 17.1123 253.465L18.7623 253.525C18.6023 255.315 17.4423 256.21 15.2823 256.21ZM16.4373 249.25C16.1873 248.92 15.7773 248.755 15.2073 248.755C14.6373 248.755 14.2173 248.915 13.9473 249.235C13.6873 249.545 13.5173 250.045 13.4373 250.735H16.9023C16.8423 250.065 16.6873 249.57 16.4373 249.25ZM26.8995 253.6C26.8995 255.31 25.6995 256.165 23.2995 256.165C22.2495 256.165 21.4695 255.94 20.9595 255.49C20.4495 255.03 20.1295 254.365 19.9995 253.495L21.5595 253.255C21.6695 254.215 22.2645 254.695 23.3445 254.695C24.4345 254.695 24.9795 254.355 24.9795 253.675C24.9795 253.395 24.8695 253.185 24.6495 253.045C24.4395 252.905 24.0095 252.76 23.3595 252.61L22.6695 252.445C21.7795 252.235 21.1395 251.93 20.7495 251.53C20.3695 251.12 20.1795 250.53 20.1795 249.76C20.1795 248.06 21.3395 247.21 23.6595 247.21C24.6595 247.21 25.4045 247.44 25.8945 247.9C26.3945 248.35 26.7045 249.01 26.8245 249.88L25.2645 250.105C25.1545 249.155 24.5995 248.68 23.5995 248.68C22.6095 248.68 22.1145 249.02 22.1145 249.7C22.1145 249.98 22.2095 250.195 22.3995 250.345C22.5995 250.485 22.9995 250.625 23.5995 250.765L24.3795 250.96C25.2695 251.18 25.9095 251.49 26.2995 251.89C26.6995 252.28 26.8995 252.85 26.8995 253.6ZM32.973 247.21C35.273 247.21 36.423 248.71 36.423 251.71C36.423 254.71 35.253 256.21 32.913 256.21C32.313 256.21 31.663 256.11 30.963 255.91V259.075L28.953 259.345V247.42H29.913L30.438 248.065C31.288 247.495 32.133 247.21 32.973 247.21ZM32.418 248.755C31.908 248.755 31.423 248.895 30.963 249.175V254.455C31.433 254.595 31.913 254.665 32.403 254.665C33.123 254.665 33.638 254.415 33.948 253.915C34.258 253.405 34.413 252.67 34.413 251.71C34.413 249.74 33.748 248.755 32.418 248.755ZM39.9019 253.915C40.1619 254.415 40.6619 254.665 41.4019 254.665C42.1419 254.665 42.6419 254.415 42.9019 253.915C43.1619 253.415 43.2919 252.68 43.2919 251.71C43.2919 250.74 43.1619 250.005 42.9019 249.505C42.6419 249.005 42.1419 248.755 41.4019 248.755C40.6619 248.755 40.1619 249.005 39.9019 249.505C39.6419 250.005 39.5119 250.74 39.5119 251.71C39.5119 252.68 39.6419 253.415 39.9019 253.915ZM45.3019 251.71C45.3019 254.71 44.0019 256.21 41.4019 256.21C38.8019 256.21 37.5019 254.71 37.5019 251.71C37.5019 248.71 38.8019 247.21 41.4019 247.21C44.0019 247.21 45.3019 248.71 45.3019 251.71ZM48.8389 248.2C49.7789 247.54 50.7389 247.21 51.7189 247.21C52.7089 247.21 53.4239 247.455 53.8639 247.945C54.3039 248.425 54.5239 249.09 54.5239 249.94V256H52.5139V250.15C52.5139 249.64 52.4189 249.28 52.2289 249.07C52.0489 248.86 51.7289 248.755 51.2689 248.755C50.5489 248.755 49.8789 248.98 49.2589 249.43V256H47.2489V247.42H48.1939L48.8389 248.2ZM63.3302 253.6C63.3302 255.31 62.1302 256.165 59.7302 256.165C58.6802 256.165 57.9002 255.94 57.3902 255.49C56.8802 255.03 56.5602 254.365 56.4302 253.495L57.9902 253.255C58.1002 254.215 58.6952 254.695 59.7752 254.695C60.8652 254.695 61.4102 254.355 61.4102 253.675C61.4102 253.395 61.3002 253.185 61.0802 253.045C60.8702 252.905 60.4402 252.76 59.7902 252.61L59.1002 252.445C58.2102 252.235 57.5702 251.93 57.1802 251.53C56.8002 251.12 56.6102 250.53 56.6102 249.76C56.6102 248.06 57.7702 247.21 60.0902 247.21C61.0902 247.21 61.8352 247.44 62.3252 247.9C62.8252 248.35 63.1352 249.01 63.2552 249.88L61.6952 250.105C61.5852 249.155 61.0302 248.68 60.0302 248.68C59.0402 248.68 58.5452 249.02 58.5452 249.7C58.5452 249.98 58.6402 250.195 58.8302 250.345C59.0302 250.485 59.4302 250.625 60.0302 250.765L60.8102 250.96C61.7002 251.18 62.3402 251.49 62.7302 251.89C63.1302 252.28 63.3302 252.85 63.3302 253.6ZM68.3986 247.21C70.5786 247.21 71.6686 248.205 71.6686 250.195V256H70.3636L69.7936 254.95C68.9936 255.79 68.0586 256.21 66.9886 256.21C66.2286 256.21 65.6486 256 65.2486 255.58C64.8586 255.15 64.6636 254.58 64.6636 253.87C64.6636 253.15 64.8886 252.57 65.3386 252.13C65.7886 251.69 66.6286 251.38 67.8586 251.2L69.6586 250.93V250.21C69.6586 249.24 69.1986 248.755 68.2786 248.755C67.4086 248.755 66.8936 249.195 66.7336 250.075L65.1736 249.61C65.5536 248.01 66.6286 247.21 68.3986 247.21ZM67.6336 254.74C68.3136 254.74 68.9886 254.405 69.6586 253.735V252.19L68.2186 252.445C67.5686 252.555 67.1386 252.73 66.9286 252.97C66.7186 253.21 66.6136 253.48 66.6136 253.78C66.6136 254.08 66.7036 254.315 66.8836 254.485C67.0636 254.655 67.3136 254.74 67.6336 254.74ZM78.3538 256.21C77.4438 256.21 76.5788 255.95 75.7588 255.43L75.2938 256H74.3338V244.72L76.3438 244.57V247.63C77.0238 247.35 77.6938 247.21 78.3538 247.21C80.6538 247.21 81.8038 248.71 81.8038 251.71C81.8038 254.71 80.6538 256.21 78.3538 256.21ZM77.7988 248.755C77.3188 248.755 76.8338 248.855 76.3438 249.055V254.32C76.7738 254.55 77.2438 254.665 77.7538 254.665C79.1138 254.665 79.7938 253.68 79.7938 251.71C79.7938 249.74 79.1288 248.755 77.7988 248.755ZM83.7528 247.42H85.7628V256H83.7528V247.42ZM84.7578 246.4C84.0078 246.4 83.6328 246.015 83.6328 245.245C83.6328 244.465 84.0078 244.075 84.7578 244.075C85.5278 244.075 85.9128 244.465 85.9128 245.245C85.9128 246.015 85.5278 246.4 84.7578 246.4ZM90.5968 256H88.5868V244.72L90.5968 244.45V256ZM93.4207 247.42H95.4307V256H93.4207V247.42ZM94.4257 246.4C93.6757 246.4 93.3007 246.015 93.3007 245.245C93.3007 244.465 93.6757 244.075 94.4257 244.075C95.1957 244.075 95.5807 244.465 95.5807 245.245C95.5807 246.015 95.1957 246.4 94.4257 246.4ZM100.28 256.21C98.3497 256.21 97.3847 254.71 97.3847 251.71C97.3847 248.71 98.5547 247.21 100.895 247.21C101.555 247.21 102.205 247.33 102.845 247.57V244.72L104.855 244.57V256H103.55L102.995 254.935C102.165 255.785 101.26 256.21 100.28 256.21ZM101.075 254.665C101.695 254.665 102.285 254.345 102.845 253.705V249.055C102.355 248.855 101.875 248.755 101.405 248.755C100.685 248.755 100.17 249.005 99.8597 249.505C99.5497 250.005 99.3947 250.74 99.3947 251.71C99.3947 253.68 99.9547 254.665 101.075 254.665ZM110.689 247.21C112.869 247.21 113.959 248.205 113.959 250.195V256H112.654L112.084 254.95C111.284 255.79 110.349 256.21 109.279 256.21C108.519 256.21 107.939 256 107.539 255.58C107.149 255.15 106.954 254.58 106.954 253.87C106.954 253.15 107.179 252.57 107.629 252.13C108.079 251.69 108.919 251.38 110.149 251.2L111.949 250.93V250.21C111.949 249.24 111.489 248.755 110.569 248.755C109.699 248.755 109.184 249.195 109.024 250.075L107.464 249.61C107.844 248.01 108.919 247.21 110.689 247.21ZM109.924 254.74C110.604 254.74 111.279 254.405 111.949 253.735V252.19L110.509 252.445C109.859 252.555 109.429 252.73 109.219 252.97C109.009 253.21 108.904 253.48 108.904 253.78C108.904 254.08 108.994 254.315 109.174 254.485C109.354 254.655 109.604 254.74 109.924 254.74ZM118.649 256.21C116.719 256.21 115.754 254.71 115.754 251.71C115.754 248.71 116.924 247.21 119.264 247.21C119.924 247.21 120.574 247.33 121.214 247.57V244.72L123.224 244.57V256H121.919L121.364 254.935C120.534 255.785 119.629 256.21 118.649 256.21ZM119.444 254.665C120.064 254.665 120.654 254.345 121.214 253.705V249.055C120.724 248.855 120.244 248.755 119.774 248.755C119.054 248.755 118.539 249.005 118.229 249.505C117.919 250.005 117.764 250.74 117.764 251.71C117.764 253.68 118.324 254.665 119.444 254.665ZM4.765 280.555L2.98 280.285L4.195 277.12L1.06 268.42H3.085L5.14 274.39L7 268.42H9.055L4.765 280.555ZM21.1657 266.05H23.2057V277H21.0457L16.7107 269.56V277H14.6707V266.05H16.8307L21.1657 273.505V266.05ZM27.5533 274.915C27.8133 275.415 28.3133 275.665 29.0533 275.665C29.7933 275.665 30.2933 275.415 30.5533 274.915C30.8133 274.415 30.9433 273.68 30.9433 272.71C30.9433 271.74 30.8133 271.005 30.5533 270.505C30.2933 270.005 29.7933 269.755 29.0533 269.755C28.3133 269.755 27.8133 270.005 27.5533 270.505C27.2933 271.005 27.1633 271.74 27.1633 272.71C27.1633 273.68 27.2933 274.415 27.5533 274.915ZM32.9533 272.71C32.9533 275.71 31.6533 277.21 29.0533 277.21C26.4533 277.21 25.1533 275.71 25.1533 272.71C25.1533 269.71 26.4533 268.21 29.0533 268.21C31.6533 268.21 32.9533 269.71 32.9533 272.71ZM33.6252 269.725V268.42H35.0052V266.86L37.0152 266.35V268.42H38.6502V269.725H37.0152V274.57C37.0152 275 37.0752 275.305 37.1952 275.485C37.3252 275.665 37.5102 275.755 37.7502 275.755C38.0002 275.755 38.2702 275.715 38.5602 275.635L38.8152 276.88C38.2252 277.1 37.6952 277.21 37.2252 277.21C36.7652 277.21 36.3952 277.155 36.1152 277.045C35.8352 276.935 35.6252 276.81 35.4852 276.67C35.3452 276.52 35.2402 276.32 35.1702 276.07C35.0602 275.72 35.0052 275.285 35.0052 274.765V269.725H33.6252ZM40.3055 268.42H42.3155V277H40.3055V268.42ZM41.3105 267.4C40.5605 267.4 40.1855 267.015 40.1855 266.245C40.1855 265.465 40.5605 265.075 41.3105 265.075C42.0805 265.075 42.4655 265.465 42.4655 266.245C42.4655 267.015 42.0805 267.4 41.3105 267.4ZM48.1245 266.95C47.5945 266.95 47.3295 267.245 47.3295 267.835V268.42H48.9495V269.725H47.3295V277H45.3195V269.725H44.3895V268.42H45.3195V267.835C45.3195 266.195 46.1845 265.375 47.9145 265.375C48.5645 265.375 49.1345 265.465 49.6245 265.645L49.1295 267.16C48.7895 267.02 48.4545 266.95 48.1245 266.95ZM50.6445 268.42H52.6545V277H50.6445V268.42ZM51.6495 267.4C50.8995 267.4 50.5245 267.015 50.5245 266.245C50.5245 265.465 50.8995 265.075 51.6495 265.075C52.4195 265.075 52.8045 265.465 52.8045 266.245C52.8045 267.015 52.4195 267.4 51.6495 267.4ZM56.9963 270.475C56.7463 270.955 56.6213 271.7 56.6213 272.71C56.6213 273.72 56.7463 274.465 56.9963 274.945C57.2563 275.425 57.7013 275.665 58.3313 275.665C58.9713 275.665 59.4263 275.535 59.6963 275.275C59.9763 275.015 60.1263 274.605 60.1463 274.045L61.7213 274.12C61.6613 275.14 61.3613 275.91 60.8213 276.43C60.2913 276.95 59.4163 277.21 58.1963 277.21C56.7663 277.21 55.7913 276.745 55.2713 275.815C55.0213 275.365 54.8463 274.895 54.7463 274.405C54.6563 273.915 54.6113 273.35 54.6113 272.71C54.6113 272.06 54.6563 271.49 54.7463 271C54.8463 270.5 55.0213 270.03 55.2713 269.59C55.7813 268.67 56.7563 268.21 58.1963 268.21C59.4063 268.21 60.2763 268.46 60.8063 268.96C61.3363 269.45 61.6363 270.185 61.7063 271.165L60.1463 271.375C60.1263 270.815 59.9763 270.405 59.6963 270.145C59.4263 269.885 58.9713 269.755 58.3313 269.755C57.7013 269.755 57.2563 269.995 56.9963 270.475ZM66.5383 268.21C68.7183 268.21 69.8083 269.205 69.8083 271.195V277H68.5033L67.9333 275.95C67.1333 276.79 66.1983 277.21 65.1283 277.21C64.3683 277.21 63.7883 277 63.3883 276.58C62.9983 276.15 62.8033 275.58 62.8033 274.87C62.8033 274.15 63.0283 273.57 63.4783 273.13C63.9283 272.69 64.7683 272.38 65.9983 272.2L67.7983 271.93V271.21C67.7983 270.24 67.3383 269.755 66.4183 269.755C65.5483 269.755 65.0333 270.195 64.8733 271.075L63.3133 270.61C63.6933 269.01 64.7683 268.21 66.5383 268.21ZM65.7733 275.74C66.4533 275.74 67.1283 275.405 67.7983 274.735V273.19L66.3583 273.445C65.7083 273.555 65.2783 273.73 65.0683 273.97C64.8583 274.21 64.7533 274.48 64.7533 274.78C64.7533 275.08 64.8433 275.315 65.0233 275.485C65.2033 275.655 65.4533 275.74 65.7733 275.74ZM73.9885 270.475C73.7385 270.955 73.6135 271.7 73.6135 272.71C73.6135 273.72 73.7385 274.465 73.9885 274.945C74.2485 275.425 74.6935 275.665 75.3235 275.665C75.9635 275.665 76.4185 275.535 76.6885 275.275C76.9685 275.015 77.1185 274.605 77.1385 274.045L78.7135 274.12C78.6535 275.14 78.3535 275.91 77.8135 276.43C77.2835 276.95 76.4085 277.21 75.1885 277.21C73.7585 277.21 72.7835 276.745 72.2635 275.815C72.0135 275.365 71.8385 274.895 71.7385 274.405C71.6485 273.915 71.6035 273.35 71.6035 272.71C71.6035 272.06 71.6485 271.49 71.7385 271C71.8385 270.5 72.0135 270.03 72.2635 269.59C72.7735 268.67 73.7485 268.21 75.1885 268.21C76.3985 268.21 77.2685 268.46 77.7985 268.96C78.3285 269.45 78.6285 270.185 78.6985 271.165L77.1385 271.375C77.1185 270.815 76.9685 270.405 76.6885 270.145C76.4185 269.885 75.9635 269.755 75.3235 269.755C74.6935 269.755 74.2485 269.995 73.9885 270.475ZM80.5155 268.42H82.5255V277H80.5155V268.42ZM81.5205 267.4C80.7705 267.4 80.3955 267.015 80.3955 266.245C80.3955 265.465 80.7705 265.075 81.5205 265.075C82.2905 265.075 82.6755 265.465 82.6755 266.245C82.6755 267.015 82.2905 267.4 81.5205 267.4ZM86.8795 274.915C87.1395 275.415 87.6395 275.665 88.3795 275.665C89.1195 275.665 89.6195 275.415 89.8795 274.915C90.1395 274.415 90.2695 273.68 90.2695 272.71C90.2695 271.74 90.1395 271.005 89.8795 270.505C89.6195 270.005 89.1195 269.755 88.3795 269.755C87.6395 269.755 87.1395 270.005 86.8795 270.505C86.6195 271.005 86.4895 271.74 86.4895 272.71C86.4895 273.68 86.6195 274.415 86.8795 274.915ZM92.2795 272.71C92.2795 275.71 90.9795 277.21 88.3795 277.21C85.7795 277.21 84.4795 275.71 84.4795 272.71C84.4795 269.71 85.7795 268.21 88.3795 268.21C90.9795 268.21 92.2795 269.71 92.2795 272.71ZM95.8164 269.2C96.7564 268.54 97.7164 268.21 98.6964 268.21C99.6864 268.21 100.401 268.455 100.841 268.945C101.281 269.425 101.501 270.09 101.501 270.94V277H99.4914V271.15C99.4914 270.64 99.3964 270.28 99.2064 270.07C99.0264 269.86 98.7064 269.755 98.2464 269.755C97.5264 269.755 96.8564 269.98 96.2364 270.43V277H94.2264V268.42H95.1714L95.8164 269.2ZM107.143 277.21C105.763 277.21 104.778 276.84 104.188 276.1C103.598 275.35 103.303 274.22 103.303 272.71C103.303 269.71 104.563 268.21 107.083 268.21C108.533 268.21 109.523 268.66 110.053 269.56C110.513 270.33 110.743 271.33 110.743 272.56V273.1H105.253C105.263 274.04 105.418 274.705 105.718 275.095C106.018 275.475 106.513 275.665 107.203 275.665C108.313 275.665 108.903 275.265 108.973 274.465L110.623 274.525C110.463 276.315 109.303 277.21 107.143 277.21ZM108.298 270.25C108.048 269.92 107.638 269.755 107.068 269.755C106.498 269.755 106.078 269.915 105.808 270.235C105.548 270.545 105.378 271.045 105.298 271.735H108.763C108.703 271.065 108.548 270.57 108.298 270.25ZM118.76 274.6C118.76 276.31 117.56 277.165 115.16 277.165C114.11 277.165 113.33 276.94 112.82 276.49C112.31 276.03 111.99 275.365 111.86 274.495L113.42 274.255C113.53 275.215 114.125 275.695 115.205 275.695C116.295 275.695 116.84 275.355 116.84 274.675C116.84 274.395 116.73 274.185 116.51 274.045C116.3 273.905 115.87 273.76 115.22 273.61L114.53 273.445C113.64 273.235 113 272.93 112.61 272.53C112.23 272.12 112.04 271.53 112.04 270.76C112.04 269.06 113.2 268.21 115.52 268.21C116.52 268.21 117.265 268.44 117.755 268.9C118.255 269.35 118.565 270.01 118.685 270.88L117.125 271.105C117.015 270.155 116.46 269.68 115.46 269.68C114.47 269.68 113.975 270.02 113.975 270.7C113.975 270.98 114.07 271.195 114.26 271.345C114.46 271.485 114.86 271.625 115.46 271.765L116.24 271.96C117.13 272.18 117.77 272.49 118.16 272.89C118.56 273.28 118.76 273.85 118.76 274.6Z" fill="#FFF7D2"/>
</svg>
