<svg width="251" height="62" viewBox="0 0 251 62" fill="none" xmlns="http://www.w3.org/2000/svg">
<path d="M48.6953 5.43757C48.6953 5.80416 48.6342 6.17074 48.5731 6.53734C48.512 6.90393 48.3287 7.27055 48.0843 7.63714C47.8399 7.94263 47.5344 8.2481 47.1678 8.4925C46.7402 8.73689 46.2514 8.79799 45.6404 8.79799C45.0294 8.79799 44.4795 8.67579 44.1129 8.4925C43.7463 8.3092 43.3797 8.00373 43.1964 7.63714C43.0131 7.27055 42.8298 6.96503 42.7076 6.53734C42.6465 6.17074 42.5854 5.80416 42.5854 5.43757V0.183105H43.4408V5.37649C43.4408 5.80418 43.5019 6.10968 43.563 6.41517C43.6241 6.72066 43.7463 6.96503 43.8685 7.14832C43.9907 7.33162 44.174 7.51494 44.2962 7.63714C44.4795 7.75934 44.6017 7.82041 44.785 7.88151C44.9683 7.94261 45.0905 8.00372 45.2738 8.00372C45.396 8.00372 45.5793 8.00372 45.6404 8.00372C45.7626 8.00372 45.8848 8.00372 46.007 8.00372C46.1903 8.00372 46.3125 7.94261 46.4958 7.88151C46.6791 7.82041 46.8012 7.75934 46.9845 7.63714C47.1678 7.51494 47.29 7.39272 47.4122 7.14832C47.5344 6.96503 47.6566 6.72066 47.7177 6.41517C47.7788 6.10968 47.8399 5.80418 47.8399 5.37649V0.183105H48.6953V5.43757Z" fill="#E9993E"/>
<path d="M61.2207 7.33165V0.183105H62.0761V8.6147H60.9763L55.9662 1.40508V8.6147H55.1108V0.183105H56.2106L61.2207 7.33165Z" fill="#E9993E"/>
<path d="M76.2502 0.183105H78.6942C79.5496 0.183105 80.2216 0.366379 80.7104 0.73297C81.1992 1.09956 81.4436 1.64948 81.4436 2.44376C81.4436 3.23804 81.1992 3.78792 80.7104 4.15451C80.2216 4.52111 79.5496 4.70438 78.6942 4.70438H77.1056V8.6147H76.2502V0.183105ZM77.1056 3.9101H78.5109C78.8775 3.9101 79.2441 3.849 79.4885 3.7879C79.7329 3.7268 79.9773 3.6046 80.0994 3.48241C80.2216 3.36021 80.3438 3.17692 80.466 2.99363C80.5271 2.81033 80.5882 2.62706 80.5882 2.44376C80.5882 2.26047 80.5271 2.07715 80.466 1.89386C80.4049 1.71056 80.2827 1.58837 80.0994 1.40508C79.9162 1.28288 79.7329 1.16068 79.4885 1.09958C79.2441 1.03849 78.8775 0.97738 78.5109 0.97738H77.1056V3.9101Z" fill="#E9993E"/>
<path d="M88.2267 8.6147H87.3713V0.183105H89.9375C90.7929 0.183105 91.4649 0.366379 91.9537 0.73297C92.4425 1.09956 92.6869 1.64948 92.6869 2.44376C92.6869 3.05475 92.5036 3.54351 92.137 3.9101C91.7704 4.33779 91.2206 4.52111 90.5485 4.58221L92.9924 8.55362H91.9537L89.632 4.6433H88.2267V8.6147ZM88.2267 3.9101H89.7542C90.1208 3.9101 90.4874 3.849 90.7318 3.7879C90.9762 3.7268 91.2205 3.6046 91.3427 3.48241C91.4649 3.36021 91.5871 3.17692 91.7093 2.99363C91.7704 2.81033 91.8315 2.62706 91.8315 2.44376C91.8315 2.26047 91.7704 2.07715 91.7093 1.89386C91.6482 1.71056 91.526 1.58837 91.3427 1.40508C91.1595 1.28288 90.9762 1.16068 90.7318 1.09958C90.4874 1.03849 90.1208 0.97738 89.7542 0.97738H88.2267V3.9101Z" fill="#E9993E"/>
<path d="M106.923 4.39907C106.923 5.07115 106.801 5.62106 106.617 6.17094C106.434 6.72083 106.067 7.14851 105.701 7.5762C105.334 7.94279 104.845 8.24829 104.295 8.49268C103.746 8.73708 103.196 8.79817 102.524 8.79817C101.852 8.79817 101.302 8.67598 100.752 8.49268C100.202 8.24829 99.7742 7.94279 99.3465 7.5762C98.9799 7.20961 98.6744 6.72083 98.43 6.17094C98.1856 5.62106 98.1245 5.01006 98.1245 4.39907C98.1245 3.72698 98.2467 3.17712 98.43 2.62723C98.6744 2.07734 98.9799 1.64966 99.3465 1.22197C99.7131 0.85538 100.202 0.549887 100.752 0.305493C101.302 0.0610986 101.852 0 102.524 0C103.196 0 103.746 0.122197 104.295 0.305493C104.845 0.549887 105.273 0.85538 105.701 1.22197C106.067 1.58856 106.373 2.07734 106.617 2.62723C106.801 3.17712 106.923 3.72698 106.923 4.39907ZM106.006 4.39907C106.006 3.91028 105.945 3.4826 105.762 2.99381C105.579 2.56612 105.395 2.13845 105.09 1.83296C104.784 1.52746 104.418 1.22194 103.99 1.03865C103.562 0.85535 103.074 0.733153 102.524 0.733153C101.974 0.733153 101.485 0.85535 101.057 1.03865C100.63 1.22194 100.263 1.52746 99.9575 1.83296C99.652 2.13845 99.4076 2.56612 99.2854 2.99381C99.1632 3.4215 99.041 3.91028 99.041 4.39907C99.041 4.88786 99.1021 5.31558 99.2854 5.80437C99.4687 6.23206 99.652 6.65972 99.9575 6.96522C100.263 7.27071 100.63 7.5762 101.057 7.75949C101.485 7.94279 101.974 8.06498 102.524 8.06498C103.074 8.06498 103.562 7.94279 103.99 7.75949C104.418 7.5762 104.784 7.27071 105.09 6.96522C105.395 6.65972 105.64 6.23206 105.762 5.80437C105.945 5.31558 106.006 4.88786 106.006 4.39907Z" fill="#E9993E"/>
<path d="M119.142 1.7107C118.836 1.40521 118.531 1.16081 118.103 0.977514C117.737 0.794218 117.248 0.733105 116.698 0.733105C116.148 0.733105 115.659 0.855302 115.232 1.0386C114.804 1.22189 114.437 1.52742 114.132 1.83291C113.826 2.1384 113.582 2.56607 113.46 2.99376C113.338 3.42145 113.215 3.91023 113.215 4.39902C113.215 4.88781 113.276 5.31553 113.46 5.80432C113.643 6.23201 113.826 6.65968 114.132 6.96517C114.437 7.27066 114.804 7.57615 115.232 7.75944C115.659 7.94274 116.148 8.06494 116.698 8.06494C117.126 8.06494 117.553 8.00384 117.981 7.88165C118.409 7.75945 118.714 7.63725 119.081 7.45395V4.64343H117.065V3.84916H119.936V8.00385C119.447 8.30935 118.959 8.49264 118.348 8.61484C117.737 8.73704 117.248 8.85925 116.698 8.85925C116.087 8.85925 115.476 8.73705 114.926 8.55375C114.376 8.30936 113.948 8.00387 113.521 7.63728C113.154 7.27068 112.849 6.78187 112.604 6.23198C112.36 5.68209 112.299 5.07113 112.299 4.46014C112.299 3.78806 112.421 3.23815 112.604 2.68827C112.849 2.13838 113.154 1.7107 113.521 1.28301C113.887 0.916415 114.376 0.610923 114.926 0.366528C115.476 0.122134 116.026 0.0610352 116.698 0.0610352C117.37 0.0610352 117.981 0.183232 118.47 0.366528C118.959 0.549824 119.386 0.855332 119.753 1.22192L119.142 1.7107Z" fill="#E9993E"/>
<path d="M127.33 8.6147H126.474V0.183105H129.041C129.896 0.183105 130.568 0.366379 131.057 0.73297C131.546 1.09956 131.79 1.64948 131.79 2.44376C131.79 3.05475 131.607 3.54351 131.24 3.9101C130.873 4.33779 130.324 4.52111 129.651 4.58221L132.095 8.55362H131.057L128.735 4.6433H127.33V8.6147ZM127.33 3.9101H128.857C129.224 3.9101 129.59 3.849 129.835 3.7879C130.079 3.7268 130.324 3.6046 130.446 3.48241C130.568 3.36021 130.69 3.17692 130.812 2.99363C130.873 2.81033 130.935 2.62706 130.935 2.44376C130.935 2.26047 130.873 2.07715 130.812 1.89386C130.751 1.71056 130.629 1.58837 130.446 1.40508C130.262 1.28288 130.079 1.16068 129.835 1.09958C129.59 1.03849 129.224 0.97738 128.857 0.97738H127.33V3.9101Z" fill="#E9993E"/>
<path d="M137.655 8.6147H136.677L140.343 0.183105H141.198L144.864 8.6147H143.887L142.97 6.41517H138.632L137.655 8.6147ZM138.938 5.62086H142.604L140.771 1.22179L138.938 5.62086Z" fill="#E9993E"/>
<path d="M154.397 7.02616L157.268 0.183105H158.551V8.6147H157.696V1.34396L154.641 8.6147H154.213L151.158 1.34396V8.6147H150.303V0.183105H151.586L154.397 7.02616Z" fill="#E9993E"/>
<path d="M165.027 8.6147H164.05L167.716 0.183105H168.571L172.237 8.6147H171.259L170.343 6.41517H165.944L165.027 8.6147ZM166.249 5.62086H169.915L168.082 1.22179L166.249 5.62086Z" fill="#E9993E"/>
<path d="M185.067 0.183105H187.877C188.427 0.183105 188.916 0.244182 189.466 0.427477C190.016 0.610773 190.444 0.855197 190.871 1.22179C191.299 1.58838 191.666 2.01604 191.91 2.56593C192.154 3.11582 192.277 3.7268 192.277 4.39889C192.277 5.13207 192.154 5.74305 191.91 6.23184C191.666 6.78173 191.299 7.20943 190.871 7.57602C190.444 7.94261 189.955 8.187 189.466 8.37029C188.916 8.55359 188.427 8.6147 187.877 8.6147H185.067V0.183105ZM185.922 7.82043H187.572C188.244 7.82043 188.794 7.69823 189.222 7.51494C189.71 7.33164 190.077 7.08725 190.382 6.72066C190.688 6.41517 190.932 6.04855 191.055 5.62086C191.177 5.19317 191.299 4.76549 191.299 4.3378C191.299 3.91011 191.238 3.48244 191.055 3.05475C190.932 2.62706 190.688 2.26044 190.382 1.95494C190.077 1.64945 189.649 1.40506 189.222 1.16067C188.733 0.977372 188.183 0.855175 187.572 0.855175H185.922V7.82043Z" fill="#E9993E"/>
<path d="M199.182 7.82043H203.703V8.6147H198.326V0.183105H203.581V0.97738H199.243V3.84902H203.336V4.6433H199.243V7.82043H199.182Z" fill="#E9993E"/>
<path d="M63.358 53.0963V37.8828H49.6719V41.6709H59.5699V45.8256C58.409 44.6648 56.9426 43.9316 54.3154 43.9316C49.6719 43.9316 47.5334 46.8643 47.5334 50.408C47.5334 53.8906 49.6719 56.8845 54.3154 56.8845C56.9426 56.8845 58.4701 56.1513 59.5699 54.9904V56.8845H65.6186V53.0963H63.358ZM55.4152 53.0963C52.6657 53.0963 51.2604 52.5465 51.2604 50.4691C51.2604 48.3918 52.6046 47.8419 55.4152 47.8419C58.1646 47.8419 59.5699 48.3918 59.5699 50.4691C59.5699 52.5465 58.1646 53.0963 55.4152 53.0963Z" fill="#E9993E"/>
<path d="M74.7224 37.8833C79.6714 37.8833 82.6041 40.9382 82.6041 45.0929H78.816C78.6938 43.1378 77.8384 41.6714 74.9057 41.6714C71.362 41.6714 70.0178 42.8323 70.0178 47.3536C70.0178 51.936 71.362 53.0357 74.9057 53.0357C77.8384 53.0357 78.6938 51.5694 78.816 49.6142H82.6041C82.6041 53.7689 79.6714 56.8239 74.7224 56.8239C69.1624 56.8239 66.2297 52.9136 66.2297 47.3536C66.1686 41.7936 69.1013 37.8833 74.7224 37.8833Z" fill="#E9993E"/>
<path d="M94.0918 37.8832C91.4646 37.8832 89.5705 38.9219 88.4096 40.1438V32.812H84.6826V56.8849H88.4707V54.6242C89.6316 55.9073 91.4646 56.8849 94.1529 56.8849C100.324 56.8849 102.462 52.9746 102.462 47.4146C102.401 41.7935 100.263 37.8832 94.0918 37.8832ZM93.5419 53.0968C89.8149 53.0968 88.4707 51.9359 88.4707 47.4146C88.4707 42.8322 89.8149 41.7324 93.5419 41.7324C97.2689 41.7324 98.6131 42.8933 98.6131 47.4146C98.6131 51.9359 97.2689 53.0968 93.5419 53.0968Z" fill="#E9993E"/>
<path d="M116.148 32.8726H107.594V36.6607H116.148V32.8726Z" fill="#E9993E"/>
<path d="M42.8288 46.4982L35.9858 44.8485C35.3748 44.6652 35.1915 44.543 35.1915 43.9932V42.3435C35.1915 41.5492 35.7414 41.1215 36.7801 41.1215H40.2016C41.668 41.1215 41.7902 41.9158 41.7902 42.4657V43.9932H45.5783V42.7101C45.5783 39.594 43.7453 37.8833 40.3849 37.8833H36.5968C33.1753 37.8833 31.2812 39.533 31.2812 42.4657V44.2987C31.2812 46.1927 32.2588 47.4147 34.2139 47.9034L41.1792 49.6142C41.7902 49.7975 41.9735 50.0419 41.9735 50.5307V52.3636C41.9735 52.9746 41.7902 53.6467 40.3849 53.6467H36.5357C35.0693 53.6467 34.9471 52.8524 34.9471 52.3026V50.4696H31.0979V52.0581C31.0979 55.1131 32.992 56.8849 36.3524 56.8849H40.5682C44.0508 56.8849 45.8838 55.2964 45.8838 52.3026V50.0419C45.9449 48.2089 44.8451 46.987 42.8288 46.4982Z" fill="#E9993E"/>
<path d="M119.202 48.5756V43.1988C119.202 39.7773 117.308 37.8833 113.948 37.8833H109.732C106.311 37.8833 104.417 39.7773 104.417 43.1988V51.5694C104.417 54.9909 106.311 56.8849 109.732 56.8849H113.948C117.308 56.8849 119.202 55.052 119.202 51.6916V50.4696H115.353V51.936C115.353 53.0358 114.864 53.5245 113.703 53.5245H109.915C108.816 53.5245 108.266 52.9747 108.266 51.936V48.5144H119.202V48.5756ZM108.388 42.7712C108.388 41.6714 108.938 41.1826 110.038 41.1826H113.826C114.925 41.1826 115.475 41.6714 115.475 42.7712V45.3373H108.449V42.7712H108.388Z" fill="#E9993E"/>
<path d="M25.1726 51.9965C21.4456 51.4466 17.1687 50.469 12.7085 48.8805C14.4804 52.302 16.3744 55.5402 18.3907 58.5341C17.0465 59.145 15.6412 59.5116 14.1138 59.6338C12.1586 56.64 10.3868 53.524 8.67601 50.1635C7.75953 52.913 7.20964 55.6013 6.84305 58.2286C5.37668 57.4954 4.09361 56.5178 3.05493 55.3569C3.60482 52.302 4.46019 49.1859 5.74326 45.9477C3.78811 44.9701 1.89406 43.8704 0 42.6484C0.366592 41.2432 0.977574 39.9601 1.77186 38.7992C2.62724 39.3491 3.48262 39.899 4.338 40.4488C3.91031 39.3491 3.48262 38.2493 3.05493 37.1495C4.03251 36.0498 5.19339 35.1333 6.53756 34.4612C7.20964 36.2942 7.88172 38.1271 8.6149 39.899C9.83688 37.5772 11.3032 35.1944 13.0751 32.8115C13.2584 32.8115 13.3806 32.8115 13.5639 32.8115C15.0303 32.8726 16.3744 33.1781 17.6575 33.6058C15.9467 35.9276 14.4193 38.1882 13.1362 40.3878L21.9955 36.1719C23.0953 37.1495 24.0117 38.2493 24.6838 39.4713L13.6861 44.7257C18.2685 46.3754 22.6676 47.353 26.3946 47.9029C26.1502 49.3692 25.7836 50.7745 25.1726 51.9965Z" fill="#E9993E"/>
<path d="M198.082 42.6487C198.082 42.6487 197.165 44.2983 194.966 44.2983C192.522 44.2983 190.933 42.7709 190.933 40.0825C190.933 37.3942 192.338 35.8667 194.721 35.8667C197.837 35.8667 198.143 38.4329 198.143 38.9827L196.126 39.2882C196.126 39.2882 196.126 37.7608 194.721 37.7608C193.744 37.7608 193.133 38.5551 193.133 40.0825C193.133 41.61 194.049 42.4043 195.027 42.4043C196.065 42.4043 196.799 41.3656 196.799 41.3656L198.082 42.6487Z" fill="#E9993E"/>
<path d="M203.826 44.1761V41.1212H201.26V44.1761H199.121V35.8667H201.26V39.4104H203.826V35.8667H205.964V44.1761H203.826Z" fill="#E9993E"/>
<path d="M207.492 44.1761V35.8667H209.631V44.1761H207.492Z" fill="#E9993E"/>
<path d="M217.939 42.6487C217.939 42.6487 217.023 44.2983 214.823 44.2983C212.379 44.2983 210.791 42.7709 210.791 40.0825C210.791 37.3942 212.196 35.8667 214.579 35.8667C217.695 35.8667 218 38.4329 218 38.9827L215.984 39.2882C215.984 39.2882 215.984 37.7608 214.579 37.7608C213.601 37.7608 212.99 38.5551 212.99 40.0825C212.99 41.61 213.907 42.4043 214.884 42.4043C215.923 42.4043 216.717 41.3656 216.717 41.3656L217.939 42.6487Z" fill="#E9993E"/>
<path d="M223.682 42.3432H221.055L220.444 44.1761H218.184L221.239 35.8667H223.438L226.493 44.1761H224.232L223.682 42.3432ZM221.605 40.7546H223.194L222.399 38.3106L221.605 40.7546Z" fill="#E9993E"/>
<path d="M231.869 44.1761L229.425 39.9603V44.1761H227.287V35.8667H229.425L231.869 40.3269V35.8667H234.007V44.1761H231.869Z" fill="#E9993E"/>
<path d="M235.169 40.022C235.169 37.2725 236.819 35.8062 239.018 35.8062C241.218 35.8062 242.867 37.2725 242.867 40.022C242.867 42.7714 241.157 44.2378 239.018 44.2378C236.819 44.2378 235.169 42.8325 235.169 40.022ZM240.607 40.022C240.607 38.3112 239.874 37.7002 239.018 37.7002C238.102 37.7002 237.43 38.3112 237.43 40.022C237.43 41.7327 238.102 42.4048 239.018 42.4048C239.935 42.4048 240.607 41.7938 240.607 40.022Z" fill="#E9993E"/>
<path d="M248.612 38.4328C248.612 38.4328 248.123 37.5775 247.023 37.5775C246.473 37.5775 246.107 37.8219 246.107 38.1885C246.107 39.5937 250.139 38.6772 250.139 41.7933C250.139 42.9541 249.284 44.2372 246.901 44.2372C244.213 44.2372 243.357 42.4654 243.357 42.4654L244.64 41.3045C244.64 41.3045 245.496 42.5875 246.901 42.5875C247.512 42.5875 247.817 42.3432 247.817 41.9155C247.817 40.3269 243.724 41.4878 243.724 38.2496C243.724 36.9665 244.824 35.8667 246.84 35.8667C249.467 35.8667 250.078 37.5775 250.078 37.5775L248.612 38.4328Z" fill="#E9993E"/>
<path d="M219.221 52.5471C219.221 52.5471 218.305 54.1967 216.105 54.1967C213.661 54.1967 212.073 52.6693 212.073 49.981C212.073 47.2926 213.478 45.7651 215.861 45.7651C218.977 45.7651 219.282 48.3313 219.282 48.8812L217.266 49.1867C217.266 49.1867 217.266 47.6592 215.861 47.6592C214.883 47.6592 214.272 48.4535 214.272 49.981C214.272 51.5084 215.189 52.3027 216.166 52.3027C217.205 52.3027 217.999 51.264 217.999 51.264L219.221 52.5471Z" fill="#E9993E"/>
<path d="M224.966 52.2416H222.338L221.727 54.0746H219.467L222.522 45.7651H224.721L227.776 54.0746H225.516L224.966 52.2416ZM222.888 50.653H224.477L223.683 48.2091L222.888 50.653Z" fill="#E9993E"/>
<path d="M232.603 45.8257H234.741V50.6525C234.741 53.2797 233.214 54.1962 231.442 54.1962C229.67 54.1962 228.081 53.3408 228.081 50.6525V45.8257H230.22V50.8357C230.22 51.5078 230.403 52.241 231.381 52.241C232.358 52.241 232.541 51.5078 232.541 50.8357V45.8257H232.603Z" fill="#E9993E"/>
<path d="M240.85 48.3918C240.85 48.3918 240.362 47.5364 239.262 47.5364C238.712 47.5364 238.345 47.7808 238.345 48.1474C238.345 49.5527 242.378 48.6362 242.378 51.7522C242.378 52.9131 241.523 54.1962 239.14 54.1962C236.451 54.1962 235.596 52.4243 235.596 52.4243L236.879 51.2634C236.879 51.2634 237.734 52.5465 239.14 52.5465C239.751 52.5465 240.056 52.3021 240.056 51.8744C240.056 50.2859 235.963 51.4467 235.963 48.2085C235.963 46.9254 237.062 45.8257 239.079 45.8257C241.706 45.8257 242.317 47.5364 242.317 47.5364L240.85 48.3918Z" fill="#E9993E"/>
<path d="M247.999 52.2416H245.372L244.761 54.0746H242.5L245.555 45.7651H247.755L250.81 54.0746H248.549L247.999 52.2416ZM245.922 50.653H247.51L246.716 48.2091L245.922 50.653Z" fill="#E9993E"/>
<path d="M192.645 50.4081V46.7422H193.989C194.905 46.7422 195.516 47.1699 195.516 48.0252C195.516 48.8806 194.844 49.3083 194.111 49.3083H193.561V50.4081H192.645ZM193.928 48.5751C194.294 48.5751 194.539 48.3918 194.539 48.0252C194.539 47.7198 194.355 47.4753 193.867 47.4753H193.561V48.5751H193.928Z" fill="#E9993E"/>
<path d="M195.7 48.5751C195.7 47.3532 196.433 46.7422 197.41 46.7422C198.388 46.7422 199.121 47.3532 199.121 48.5751C199.121 49.7971 198.388 50.4081 197.41 50.4081C196.433 50.4081 195.7 49.7971 195.7 48.5751ZM198.083 48.5751C198.083 47.842 197.777 47.5365 197.349 47.5365C196.983 47.5365 196.616 47.7809 196.616 48.5751C196.616 49.3694 196.922 49.6138 197.349 49.6138C197.777 49.6138 198.083 49.3694 198.083 48.5751Z" fill="#E9993E"/>
<path d="M202.482 50.4081C202.482 50.4081 202.36 50.4691 201.993 50.4691C200.771 50.4691 201.199 49.1861 200.466 49.1861H200.282V50.4691H199.305V46.8032H200.649C201.626 46.8032 202.115 47.1087 202.115 48.0252C202.115 48.5751 201.749 48.8195 201.565 48.9417C201.871 49.3083 201.81 49.7359 202.237 49.7359H202.421V50.4081H202.482ZM200.649 48.4529C201.015 48.4529 201.321 48.2696 201.321 47.9641C201.321 47.6586 201.077 47.4753 200.71 47.4753H200.343V48.3918H200.649V48.4529Z" fill="#E9993E"/>
<path d="M203.948 50.4081V46.7422H204.926V49.6138H206.392V50.347H203.948V50.4081Z" fill="#E9993E"/>
<path d="M208.958 49.5523H207.797L207.552 50.3466H206.575L207.919 46.6807H208.896L210.241 50.3466H209.263L208.958 49.5523ZM208.041 48.8802H208.713L208.347 47.8416L208.041 48.8802Z" fill="#E9993E"/>
<path d="M210.302 51.6304H192.645V52.7912H210.302V51.6304Z" fill="#E9993E"/>
<path d="M188.247 42.5875C188.247 40.3269 188.124 38.555 187.819 37.0886C187.452 35.3168 186.78 33.8504 185.68 32.6285C185.436 32.3841 185.253 32.1397 185.008 31.8953C183.603 30.5511 182.076 29.7568 180.059 29.3292C178.837 29.0848 177.432 28.9626 175.844 28.9015C174.988 28.9015 174.072 28.8403 173.155 28.8403C172.85 28.8403 172.544 28.8403 172.239 28.8403C171.933 28.8403 171.628 28.8403 171.322 28.8403C170.345 28.8403 169.428 28.8404 168.634 28.9015C167.045 28.9626 165.64 29.0237 164.418 29.3292C162.402 29.7568 160.813 30.5511 159.469 31.8953C159.225 32.1397 158.98 32.3841 158.797 32.6285C157.697 33.8504 157.025 35.3168 156.659 37.0886C156.353 38.555 156.231 40.388 156.231 42.5875C156.231 43.3818 156.231 47.9031 156.231 48.6363C156.292 50.286 156.353 51.7523 156.659 52.9743C157.086 54.9905 157.881 56.5791 159.225 57.9844C159.652 58.4121 160.141 58.8398 160.63 59.1453C161.73 59.9395 162.952 60.4894 164.418 60.7949C165.762 61.1004 167.351 61.2226 169.184 61.2226C169.917 61.2226 170.711 61.2226 171.567 61.2226C171.811 61.2226 172.056 61.2226 172.361 61.2226C172.605 61.2226 172.911 61.2226 173.155 61.2226C174.011 61.2226 174.744 61.2226 175.538 61.2226C177.371 61.1615 178.96 61.1004 180.304 60.7949C181.77 60.4894 182.992 59.9395 184.092 59.1453C184.581 58.7787 185.07 58.4121 185.497 57.9844C186.841 56.6402 187.697 55.0516 188.063 52.9743C188.308 51.7523 188.43 50.286 188.491 48.6363C188.247 47.9031 188.247 43.3207 188.247 42.5875ZM159.408 33.1784C159.469 33.1173 159.591 32.995 159.653 32.9339L159.775 32.8117C159.836 32.7506 159.836 32.7507 159.897 32.6896C160.08 32.5063 160.202 32.3841 160.386 32.2008C160.447 32.1397 160.508 32.1397 160.569 32.2008L162.096 34.0337C162.158 34.0948 162.158 34.1559 162.096 34.1559C161.974 34.2781 161.852 34.4003 161.73 34.5225C161.669 34.5225 161.669 34.5836 161.608 34.5836L161.547 34.6447C161.485 34.7058 161.424 34.7669 161.363 34.828C161.119 35.0724 160.936 35.3168 160.752 35.6223C160.752 35.6834 160.691 35.6834 160.63 35.6223L158.614 34.4003C158.553 34.4003 158.553 34.2781 158.614 34.217C158.797 33.9115 159.103 33.5449 159.408 33.1784ZM164.418 32.8117C164.418 32.8728 164.418 32.9339 164.357 32.9339C163.685 33.1172 163.074 33.4227 162.524 33.7893C162.463 33.7893 162.402 33.7893 162.402 33.7282L161.058 31.8342C160.997 31.7731 161.058 31.712 161.119 31.712C161.485 31.4676 161.913 31.2232 162.341 30.9788C162.769 30.7955 163.196 30.6122 163.624 30.49C163.685 30.49 163.746 30.49 163.746 30.5511L164.418 32.8117ZM164.357 30.2456C164.785 30.1234 165.212 30.0623 165.64 30.0012C166.068 29.9401 166.496 29.879 166.923 29.879C166.984 29.879 167.045 29.9401 167.045 29.9401L167.229 32.323C167.229 32.3841 167.168 32.4452 167.168 32.4452C166.801 32.5063 166.434 32.5063 166.068 32.5674C165.701 32.6285 165.335 32.6896 165.029 32.7507C164.968 32.7507 164.907 32.7507 164.907 32.6896L164.296 30.3678C164.296 30.3067 164.296 30.2456 164.357 30.2456ZM160.386 36.05C160.447 36.05 160.447 36.1111 160.447 36.1722C160.325 36.4777 160.202 36.7831 160.08 37.0886L160.019 37.3331L159.958 37.5775C159.897 37.7608 159.897 37.944 159.836 38.1273C159.836 38.1884 159.775 38.1884 159.714 38.1884L157.392 37.7607C157.331 37.7607 157.331 37.6996 157.331 37.6385C157.392 37.3941 157.392 37.2109 157.453 36.9665L157.514 36.661L157.636 36.3555C157.758 35.9278 157.942 35.5001 158.125 35.0724C158.125 35.0113 158.247 35.0113 158.247 35.0113L160.386 36.05ZM159.591 38.7383C159.652 38.7383 159.714 38.7994 159.653 38.8605C159.653 39.0438 159.591 39.2271 159.591 39.4104C159.591 39.5937 159.53 39.777 159.53 39.9603C159.469 40.3269 159.469 40.7546 159.469 41.1212C159.469 41.1823 159.408 41.2434 159.347 41.2434L156.964 41.1823C156.903 41.1823 156.842 41.1211 156.842 41.0601C156.842 40.6324 156.903 40.2047 156.903 39.777C156.903 39.5937 156.964 39.3493 156.964 39.166C156.964 38.9216 157.025 38.7383 157.025 38.4939C157.025 38.4328 157.086 38.3717 157.147 38.3717L159.591 38.7383ZM159.469 41.61V48.453H156.964V41.61H159.469ZM157.147 51.5079C157.086 51.2635 157.086 51.0802 157.086 50.8358C157.086 50.6525 157.025 50.4081 157.025 50.2248C156.964 49.7971 156.964 49.3695 156.964 48.9418C156.964 48.8807 157.025 48.8196 157.086 48.8196L159.469 48.7585C159.53 48.7585 159.591 48.8196 159.591 48.8807C159.591 49.2473 159.653 49.675 159.653 50.0416C159.653 50.2248 159.714 50.4082 159.714 50.5915C159.714 50.7747 159.775 50.958 159.775 51.1413C159.775 51.2024 159.714 51.2635 159.714 51.2635L157.392 51.6301C157.209 51.6301 157.147 51.569 157.147 51.5079ZM157.392 52.18L159.714 51.7523C159.775 51.7523 159.836 51.7523 159.836 51.8134C159.897 51.9967 159.897 52.18 159.958 52.3633L160.019 52.6077L160.08 52.8521C160.202 53.1576 160.325 53.4631 160.447 53.7686C160.447 53.8297 160.447 53.8908 160.386 53.8908L158.247 54.9906C158.186 54.9906 158.125 54.9905 158.125 54.9294C157.942 54.5017 157.758 54.0741 157.636 53.6464L157.514 53.3409L157.453 53.0354C157.392 52.791 157.331 52.6077 157.331 52.3633C157.27 52.2411 157.331 52.18 157.392 52.18ZM158.553 55.5404L160.569 54.3185C160.63 54.3185 160.691 54.3185 160.691 54.3185C160.874 54.6239 161.058 54.8683 161.302 55.1127C161.363 55.1738 161.424 55.235 161.485 55.2961L161.547 55.3571C161.547 55.3571 161.608 55.4182 161.669 55.4182C161.791 55.5404 161.913 55.6626 162.035 55.7848C162.096 55.8459 162.096 55.8459 162.035 55.907L160.508 57.74C160.447 57.8011 160.386 57.8011 160.325 57.74C160.141 57.6178 159.958 57.4345 159.836 57.2512C159.775 57.1901 159.775 57.1901 159.714 57.129L159.591 57.0068C159.53 56.9457 159.408 56.8235 159.347 56.7624C159.042 56.3958 158.736 56.0292 158.492 55.6015L158.553 55.5404ZM162.402 56.2125C162.463 56.1514 162.463 56.1514 162.524 56.1514C163.074 56.518 163.685 56.8235 164.357 57.0068C164.418 57.0068 164.418 57.0679 164.418 57.129L163.746 59.3896C163.746 59.4507 163.685 59.4508 163.624 59.4508C163.196 59.3286 162.769 59.1453 162.341 58.962C161.913 58.7787 161.485 58.5343 161.119 58.2288C161.058 58.1677 161.058 58.1066 161.058 58.1066L162.402 56.2125ZM164.357 59.7562C164.296 59.7562 164.235 59.6951 164.296 59.634L164.907 57.3123C164.907 57.2512 164.968 57.2512 165.029 57.2512C165.396 57.3123 165.701 57.4345 166.068 57.4345C166.434 57.4956 166.801 57.5567 167.168 57.5567C167.229 57.5567 167.29 57.6178 167.229 57.6789L167.045 60.0617C167.045 60.1228 166.984 60.1839 166.923 60.1228C166.496 60.0617 166.068 60.0617 165.64 60.0006C165.212 59.9395 164.785 59.8173 164.357 59.7562ZM166.373 52.0578C163.991 51.9967 161.974 49.9805 161.974 47.6587C161.913 45.2148 163.868 43.1985 166.312 43.1374C166.373 43.1374 166.434 43.1985 166.434 43.2596V44.7871C166.434 44.8482 166.373 44.9093 166.312 44.9093C164.846 44.9704 163.685 46.2534 163.746 47.7198C163.807 49.1251 164.907 50.2249 166.312 50.286C167.84 50.3471 169.062 49.1862 169.123 47.7198C169.123 47.6587 169.184 47.5976 169.245 47.5976H170.834C170.895 47.5976 170.956 47.6587 170.956 47.7198C170.834 50.1638 168.817 52.1189 166.373 52.0578ZM172.728 37.3331C171.75 37.3331 170.895 38.1273 170.895 39.166V46.8033C170.895 46.8644 170.834 46.9866 170.711 46.9866H169.245C169.184 46.9866 169.062 46.9255 169.062 46.8033V39.166C169.062 37.1498 170.834 35.5001 172.85 35.6223C174.744 35.7445 176.271 37.3331 176.21 39.2882C176.149 41.2434 174.561 42.7708 172.666 42.7708H171.628C171.506 42.7708 171.445 42.7097 171.445 42.5875V41.1823C171.445 41.1212 171.506 40.999 171.628 40.999H172.728C173.766 40.999 174.622 40.3269 174.622 39.2271C174.683 38.1273 173.827 37.3331 172.728 37.3331ZM172.117 57.74C172.544 57.74 172.911 57.74 173.339 57.74C173.4 57.74 173.461 57.8011 173.461 57.8622V60.245C173.461 60.3061 173.4 60.3672 173.339 60.3672C172.911 60.3672 172.544 60.3672 172.117 60.3672H170.895C170.834 60.3672 170.772 60.3061 170.772 60.245V57.8622C170.772 57.8011 170.834 57.74 170.895 57.74H172.117ZM170.834 29.8179C170.834 29.7568 170.895 29.6957 170.956 29.6957C171.383 29.6957 171.75 29.6957 172.178 29.6957H173.4C173.461 29.6957 173.522 29.7568 173.522 29.8179V32.2008C173.522 32.2619 173.461 32.323 173.4 32.323H172.178C171.75 32.323 171.383 32.323 170.956 32.323C170.895 32.323 170.834 32.2619 170.834 32.2008V29.8179ZM174.072 32.2619C174.011 32.2619 173.95 32.2008 173.95 32.1397V29.7568C173.95 29.6957 174.011 29.6346 174.072 29.6346C174.866 29.6346 175.721 29.6957 176.577 29.6957C176.638 29.6957 176.699 29.7568 176.699 29.8179L176.516 32.2008C176.516 32.2619 176.455 32.323 176.393 32.323C175.599 32.323 174.866 32.323 174.072 32.2619ZM170.161 29.6957C170.223 29.6957 170.284 29.7568 170.284 29.8179V32.2008C170.284 32.2619 170.223 32.323 170.161 32.323C169.367 32.323 168.573 32.3841 167.84 32.3841C167.779 32.3841 167.718 32.323 167.718 32.2619L167.534 29.879C167.534 29.8179 167.595 29.7568 167.656 29.7568C168.512 29.7568 169.367 29.6957 170.161 29.6957ZM167.779 57.74C167.779 57.6789 167.84 57.6178 167.901 57.6178C168.695 57.6789 169.428 57.6789 170.223 57.6789C170.284 57.6789 170.345 57.74 170.345 57.8011V60.1839C170.345 60.245 170.284 60.3061 170.223 60.3061C169.428 60.3061 168.573 60.245 167.718 60.245C167.656 60.245 167.595 60.1839 167.595 60.1228L167.779 57.74ZM174.072 60.3061C174.011 60.3061 173.95 60.245 173.95 60.1839V57.8011C173.95 57.74 174.011 57.6789 174.072 57.6789C174.866 57.6789 175.66 57.6178 176.393 57.6178C176.455 57.6178 176.516 57.6789 176.516 57.74L176.699 60.1228C176.699 60.1839 176.638 60.245 176.577 60.245C175.721 60.245 174.927 60.245 174.072 60.3061ZM171.689 52.5466C171.628 52.5466 171.506 52.4855 171.506 52.3633V43.504C171.506 43.4429 171.567 43.3207 171.689 43.3207H173.094C173.216 43.3207 173.277 43.3818 173.277 43.504V50.5915C173.277 50.7137 173.339 50.7747 173.461 50.7747H176.638C176.76 50.7747 176.821 50.8358 176.821 50.958V52.3633C176.821 52.4855 176.76 52.5466 176.638 52.5466H171.689ZM173.888 45.8258C173.827 43.3818 175.721 41.4267 178.165 41.3045C178.288 41.3045 178.41 41.3656 178.41 41.5489V42.9541C178.41 43.0763 178.349 43.1374 178.226 43.1374C176.76 43.2596 175.66 44.4816 175.721 45.9479C175.783 47.3532 176.882 48.453 178.288 48.5141C179.815 48.5752 181.037 47.4143 181.098 45.9479C181.098 45.8868 181.159 45.8258 181.22 45.8258H182.748C182.809 45.8258 182.87 45.8868 182.87 45.9479C182.809 48.3919 180.793 50.286 178.349 50.286C175.905 50.2249 173.95 48.2697 173.888 45.8258ZM184.642 32.9339C184.703 32.995 184.825 33.1173 184.886 33.1784C185.192 33.5449 185.497 33.9115 185.742 34.3392C185.803 34.4003 185.742 34.4614 185.742 34.5225L183.725 35.7445C183.664 35.7445 183.603 35.7445 183.603 35.7445C183.42 35.439 183.237 35.1946 182.992 34.9502C182.931 34.8891 182.87 34.828 182.809 34.7669L182.748 34.7058C182.748 34.7058 182.687 34.6447 182.626 34.6447C182.503 34.5225 182.381 34.4003 182.259 34.2781C182.198 34.2781 182.198 34.217 182.259 34.1559L183.786 32.323C183.848 32.2619 183.909 32.2619 183.97 32.323C184.153 32.4452 184.336 32.6284 184.459 32.8117C184.52 32.8728 184.52 32.8728 184.581 32.9339H184.642ZM187.086 38.4328C187.147 38.6772 187.147 38.8605 187.147 39.1049C187.147 39.2882 187.208 39.5326 187.208 39.7159C187.269 40.1436 187.269 40.5713 187.269 40.999C187.269 41.0601 187.208 41.1212 187.147 41.1212L184.764 41.1823C184.703 41.1823 184.642 41.1211 184.642 41.0601C184.642 40.6935 184.581 40.2658 184.581 39.8992C184.581 39.7159 184.52 39.5326 184.52 39.3493C184.52 39.166 184.459 38.9827 184.459 38.7994C184.459 38.7383 184.459 38.6772 184.52 38.6772L186.841 38.3106C187.025 38.3717 187.086 38.3717 187.086 38.4328ZM187.269 41.61V48.453H184.764V41.61H187.269ZM186.902 37.8218L184.581 38.2495C184.52 38.2495 184.459 38.2495 184.459 38.1884C184.397 38.0052 184.397 37.8218 184.336 37.6385L184.275 37.3941L184.214 37.1498C184.092 36.8443 183.97 36.5388 183.848 36.2333C183.848 36.1722 183.848 36.1111 183.909 36.1111L186.047 35.0113C186.108 35.0113 186.169 35.0113 186.169 35.0724C186.353 35.5001 186.536 35.9278 186.719 36.3555L186.841 36.661L186.902 36.9665C186.964 37.2109 187.025 37.3941 187.025 37.6385C186.964 37.7607 186.964 37.7607 186.902 37.8218ZM183.237 31.8342L181.831 33.7893C181.77 33.8504 181.77 33.8504 181.709 33.8504C181.159 33.4838 180.548 33.1784 179.876 32.9951C179.815 32.9951 179.815 32.934 179.815 32.8729L180.487 30.6122C180.487 30.5511 180.548 30.5511 180.609 30.5511C181.037 30.6733 181.465 30.8566 181.892 31.0399C182.32 31.2232 182.748 31.4676 183.114 31.7731C183.237 31.712 183.237 31.7731 183.237 31.8342ZM179.998 30.3678L179.387 32.6896C179.387 32.7507 179.326 32.7507 179.265 32.7507C178.899 32.6896 178.593 32.5674 178.226 32.5674C177.86 32.5063 177.493 32.4452 177.127 32.4452C177.066 32.4452 177.005 32.3841 177.066 32.323L177.249 29.9401C177.249 29.879 177.31 29.8179 177.371 29.879C177.799 29.9401 178.226 29.9401 178.654 30.0012C179.082 30.0623 179.51 30.1234 179.937 30.2456C179.937 30.2456 179.998 30.3067 179.998 30.3678ZM177.066 57.5567C177.432 57.4956 177.799 57.4956 178.165 57.4345C178.532 57.3734 178.899 57.3123 179.204 57.2512C179.265 57.2512 179.326 57.2512 179.326 57.3123L179.937 59.634C179.937 59.6951 179.937 59.7562 179.876 59.7562C179.448 59.8784 179.021 59.9395 178.593 60.0006C178.165 60.0617 177.738 60.1228 177.31 60.1228C177.249 60.1228 177.188 60.0617 177.188 60.0617L177.004 57.6789C177.004 57.6178 177.066 57.5567 177.066 57.5567ZM179.815 57.1901C179.815 57.129 179.815 57.0679 179.876 57.0679C180.548 56.8846 181.159 56.5791 181.709 56.2125C181.77 56.2125 181.831 56.2125 181.831 56.2736L183.237 58.2288C183.298 58.2899 183.237 58.351 183.175 58.351C182.809 58.5954 182.381 58.8397 181.953 59.0841C181.526 59.2674 181.098 59.4508 180.67 59.573C180.609 59.573 180.548 59.5729 180.548 59.5118L179.815 57.1901ZM182.198 55.9681C182.137 55.907 182.137 55.8459 182.198 55.8459C182.32 55.7237 182.442 55.6015 182.564 55.4793C182.626 55.4793 182.626 55.4182 182.687 55.4182L182.748 55.3571C182.809 55.296 182.87 55.2349 182.931 55.1738C183.175 54.9295 183.359 54.6851 183.542 54.3796C183.542 54.3185 183.603 54.3185 183.664 54.3796L185.68 55.6015C185.742 55.6015 185.742 55.7237 185.68 55.7848C185.436 56.2125 185.131 56.5791 184.825 56.9457C184.764 57.0068 184.642 57.129 184.581 57.1901L184.459 57.3123C184.397 57.3734 184.397 57.3734 184.336 57.4345C184.153 57.6178 184.031 57.74 183.848 57.9233C183.786 57.9844 183.725 57.9844 183.664 57.9233L182.198 55.9681ZM183.848 53.8908C183.786 53.8908 183.786 53.8297 183.786 53.7686C183.909 53.4631 184.031 53.1576 184.153 52.8521L184.214 52.6077L184.275 52.3633C184.336 52.18 184.336 51.9967 184.397 51.8134C184.397 51.7523 184.459 51.7523 184.52 51.7523L186.841 52.18C186.902 52.18 186.902 52.2411 186.902 52.3022C186.841 52.5466 186.841 52.7299 186.78 52.9743L186.719 53.2798L186.597 53.5853C186.475 54.013 186.291 54.4407 186.047 54.8684C186.047 54.9295 185.925 54.9294 185.925 54.9294L183.848 53.8908ZM184.642 51.2635C184.581 51.2635 184.52 51.2024 184.581 51.1413C184.581 50.958 184.642 50.7747 184.642 50.5915C184.642 50.4082 184.703 50.2248 184.703 50.0416C184.764 49.675 184.764 49.2473 184.764 48.8807C184.764 48.8196 184.825 48.7585 184.886 48.7585L187.269 48.8196C187.33 48.8196 187.391 48.8807 187.391 48.9418C187.391 49.3695 187.33 49.7971 187.33 50.2248C187.33 50.4081 187.269 50.6525 187.269 50.8358C187.269 51.0802 187.208 51.2635 187.208 51.5079C187.208 51.569 187.147 51.6301 187.086 51.6301L184.642 51.2635Z" fill="#E9993E"/>
<path d="M159.287 53.9515C159.164 53.646 159.042 53.3405 158.981 53.035L158.676 53.0961C158.737 53.2183 158.737 53.3405 158.798 53.4016L158.859 53.5849C158.859 53.646 158.92 53.7071 158.92 53.7682L158.614 53.8904C158.492 53.5849 158.37 53.2183 158.309 52.8517L159.287 52.6073C159.409 53.035 159.531 53.4016 159.653 53.7682L159.898 53.646C159.714 53.2183 159.592 52.7295 159.47 52.2407L157.942 52.6073C158.065 53.1572 158.248 53.7071 158.492 54.257L159.287 53.9515Z" fill="#E9993E"/>
<path d="M178.837 58.1679L179.021 59.1455C178.837 59.2066 178.654 59.2066 178.532 59.2066C178.348 59.2066 178.165 59.2677 178.043 59.2677L177.982 58.9011C178.104 58.9011 178.226 58.9011 178.348 58.84C178.471 58.84 178.593 58.7789 178.715 58.7789L178.654 58.4734C178.471 58.4734 178.348 58.5345 178.165 58.5345C177.982 58.5345 177.86 58.5956 177.676 58.5956L177.799 59.5121C178.348 59.451 178.898 59.3899 179.448 59.2677L179.143 57.7402C178.654 57.8624 178.165 57.9235 177.615 57.9846L177.676 58.2901C177.982 58.2901 178.41 58.229 178.837 58.1679Z" fill="#E9993E"/>
<path d="M182.075 58.0452C181.77 58.2285 181.464 58.3507 181.098 58.5339L180.975 58.2285C181.098 58.1674 181.22 58.1673 181.281 58.1062L181.464 58.0452L181.648 57.984L181.525 57.7397C181.22 57.8619 180.914 58.0452 180.609 58.1062L180.914 58.9616L181.098 58.9005L181.281 58.8394C181.403 58.7783 181.525 58.7173 181.709 58.6562C181.953 58.534 182.259 58.4117 182.503 58.2285L181.648 56.8843C181.464 57.0065 181.22 57.1287 181.037 57.2509C180.914 57.312 180.792 57.3731 180.731 57.3731L180.548 57.4342L180.365 57.4953L180.487 57.8008C180.853 57.6786 181.22 57.4953 181.586 57.312L182.075 58.0452Z" fill="#E9993E"/>
<path d="M159.163 39.1046L158.857 39.0435C158.796 39.4712 158.796 39.8989 158.735 40.3266L157.757 40.2655V40.0211V39.7767C157.757 39.5934 157.757 39.4101 157.818 39.2879L158.185 39.349L158.124 39.7156V40.0822H158.429C158.429 39.7767 158.491 39.4101 158.552 39.1046L157.635 38.9824C157.574 39.5323 157.513 40.0822 157.513 40.6321L159.101 40.6932C159.04 40.1433 159.102 39.6545 159.163 39.1046Z" fill="#E9993E"/>
<path d="M160.936 34.5832L161.058 34.461C161.119 34.3999 161.119 34.3999 161.18 34.3388C161.241 34.2777 161.241 34.2777 161.303 34.2166C161.364 34.1555 161.364 34.1555 161.425 34.0944L161.241 33.85C161.18 33.9111 161.119 33.9722 160.997 34.0944C160.936 34.1555 160.875 34.2166 160.814 34.3388L160.692 34.461L160.569 34.5832C160.508 34.6443 160.447 34.7665 160.386 34.8276L159.592 34.2166C159.836 33.9111 160.081 33.6667 160.325 33.4223L160.569 33.6667C160.386 33.85 160.264 33.9722 160.081 34.1555L160.325 34.3388C160.508 34.0944 160.753 33.85 160.997 33.6667L160.386 32.9946C160.325 33.0557 160.264 33.1168 160.203 33.1168C160.142 33.1779 160.081 33.239 160.019 33.3001C159.958 33.3612 159.897 33.4223 159.836 33.4834L159.714 33.6667C159.531 33.9111 159.347 34.0944 159.164 34.3388L160.447 35.2552C160.63 34.9498 160.814 34.7665 160.936 34.5832Z" fill="#E9993E"/>
<path d="M162.156 31.956C162.462 31.7727 162.767 31.6505 163.134 31.4672L163.256 31.7727C163.134 31.8338 163.012 31.8338 162.951 31.8949L162.767 31.956L162.584 32.0171L162.706 32.2615C163.012 32.1393 163.317 31.956 163.623 31.8949L163.317 31.0396L163.134 31.1006L162.889 31.2228C162.767 31.2839 162.645 31.345 162.462 31.4061C162.217 31.5283 161.912 31.6505 161.667 31.8338L162.523 33.178C162.706 33.0558 162.951 32.9336 163.134 32.8114C163.256 32.7503 163.378 32.6892 163.439 32.6892L163.623 32.6281L163.806 32.567L163.684 32.2615C163.317 32.3837 162.951 32.567 162.584 32.7503L162.156 31.956Z" fill="#E9993E"/>
<path d="M174.438 58.1677V58.4732C174.866 58.4732 175.293 58.4732 175.721 58.4121L175.782 59.3896H175.293H174.805V59.0231C175.049 59.0231 175.232 59.0231 175.477 59.0231V58.7176C175.293 58.7176 175.171 58.7176 174.988 58.7176C174.805 58.7176 174.682 58.7176 174.499 58.7176V59.634C175.049 59.634 175.599 59.6341 176.149 59.573L176.088 57.9844C175.538 58.1677 174.988 58.1677 174.438 58.1677Z" fill="#E9993E"/>
<path d="M159.406 37.6994C159.528 37.2106 159.651 36.7218 159.834 36.2941L159.589 36.1719C159.406 36.5385 159.284 36.9662 159.223 37.3328L158.245 37.0884C158.306 36.7218 158.429 36.4164 158.551 36.0498L158.856 36.1719C158.856 36.233 158.795 36.2942 158.795 36.3553L158.734 36.5385C158.673 36.6607 158.673 36.7829 158.612 36.844L158.917 36.9051C158.978 36.5996 159.101 36.2941 159.223 35.9886L158.367 35.6221C158.123 36.172 157.94 36.7219 157.818 37.2717L159.406 37.6994Z" fill="#E9993E"/>
<path d="M158.552 50.9576C158.491 50.6521 158.491 50.2856 158.43 49.9801H158.124V50.3467L158.186 50.7133L157.819 50.7744C157.819 50.5911 157.758 50.4078 157.758 50.2856V50.0412V49.7968L158.735 49.7357C158.735 50.1634 158.797 50.5911 158.858 51.0188L159.163 50.9576C159.102 50.4689 159.041 49.919 159.041 49.4302L157.452 49.4913C157.452 50.0412 157.513 50.591 157.575 51.1409L158.552 50.9576Z" fill="#E9993E"/>
<path d="M159.897 56.6399C159.958 56.701 160.019 56.7621 160.08 56.8232C160.142 56.8843 160.203 56.9454 160.264 57.0065C160.325 57.0676 160.386 57.1287 160.447 57.1287L161.058 56.4566C160.814 56.2122 160.569 56.0289 160.386 55.7845L160.142 55.9678C160.264 56.1511 160.447 56.3344 160.63 56.4566L160.386 56.701C160.142 56.4566 159.897 56.2122 159.653 55.9067L160.447 55.2957C160.508 55.3568 160.569 55.479 160.63 55.5401L160.753 55.6623L160.875 55.7845C160.936 55.8456 160.997 55.9067 161.058 56.0289C161.119 56.09 161.18 56.1511 161.302 56.2733L161.486 56.0289C161.425 55.9678 161.425 55.9678 161.363 55.9067C161.302 55.8456 161.302 55.8456 161.241 55.7845C161.18 55.7234 161.18 55.7234 161.119 55.6623L160.997 55.5401C160.814 55.3568 160.691 55.1735 160.569 54.9902L159.286 55.9067C159.469 56.1511 159.653 56.3955 159.836 56.5788L159.897 56.6399Z" fill="#E9993E"/>
<path d="M162.889 58.7175L163.073 58.7786L163.256 58.8397L163.562 57.9843C163.256 57.8621 162.951 57.7399 162.645 57.6177L162.523 57.8621L162.706 57.9232L162.889 57.9843C163.012 58.0454 163.073 58.1065 163.195 58.1065L163.073 58.412C162.767 58.2898 162.401 58.1065 162.095 57.9232L162.584 57.0678C162.951 57.2511 163.317 57.4344 163.684 57.5566L163.806 57.2511L163.623 57.19L163.439 57.129C163.317 57.0679 163.195 57.0068 163.134 57.0068C162.889 56.8846 162.706 56.7623 162.523 56.6401L161.667 57.9843C161.912 58.1676 162.156 58.2898 162.462 58.412C162.645 58.5953 162.767 58.6564 162.889 58.7175Z" fill="#E9993E"/>
<path d="M166.678 58.6561C166.494 58.6561 166.372 58.595 166.189 58.595C166.006 58.595 165.883 58.5339 165.7 58.5339L165.639 58.8394C165.761 58.8394 165.883 58.9005 166.006 58.9005C166.128 58.9005 166.25 58.9616 166.372 58.9616L166.311 59.3282C166.128 59.3282 165.945 59.2671 165.822 59.2671C165.639 59.2671 165.456 59.206 165.334 59.206L165.517 58.2284C165.945 58.2895 166.372 58.3506 166.8 58.4117L166.861 58.1062C166.372 58.0451 165.822 57.984 165.334 57.8618L165.028 59.3893C165.578 59.5115 166.128 59.5726 166.678 59.6337V58.6561Z" fill="#E9993E"/>
<path d="M172.91 58.229C172.36 58.229 171.871 58.229 171.321 58.229V58.5345H172.604V59.5121H171.566V59.1455H172.238V58.84H171.26V59.7565C171.81 59.7565 172.36 59.7565 172.849 59.7565L172.91 58.229Z" fill="#E9993E"/>
<path d="M169.793 58.84C169.61 58.84 169.488 58.84 169.305 58.84C169.121 58.84 168.999 58.84 168.816 58.84V59.1455C169.06 59.1455 169.243 59.1455 169.488 59.1455V59.5121H168.999H168.51L168.571 58.5345C168.999 58.5345 169.427 58.5956 169.855 58.5956V58.2901C169.305 58.2901 168.816 58.2901 168.266 58.229L168.205 59.8176C168.755 59.8176 169.305 59.8787 169.855 59.8787L169.793 58.84Z" fill="#E9993E"/>
<path d="M185.069 50.8356L185.375 50.8967C185.436 50.469 185.436 50.0413 185.497 49.6136L186.475 49.6748V49.9191V50.1635C186.475 50.3468 186.475 50.5301 186.414 50.6523L186.047 50.5912L186.108 50.2246V49.8581H185.803C185.803 50.1635 185.741 50.5301 185.741 50.8356L186.658 50.9578C186.719 50.4079 186.78 49.858 186.78 49.3082L185.192 49.2471C185.192 49.8581 185.13 50.3468 185.069 50.8356Z" fill="#E9993E"/>
<path d="M166.738 31.9566L166.677 31.6511C166.25 31.7122 165.822 31.7733 165.394 31.8344L165.211 30.8568C165.394 30.7957 165.577 30.7957 165.7 30.7957C165.883 30.7957 166.066 30.7346 166.189 30.7346L166.25 31.1012C166.127 31.1012 166.005 31.1012 165.883 31.1623C165.761 31.1623 165.639 31.2234 165.516 31.2234L165.578 31.5289C165.761 31.5289 165.883 31.4678 166.066 31.4678C166.25 31.4678 166.372 31.4067 166.555 31.4067L166.433 30.4902C165.883 30.5513 165.333 30.6124 164.783 30.7346L165.089 32.2621C165.7 32.0788 166.25 32.0177 166.738 31.9566Z" fill="#E9993E"/>
<path d="M177.614 31.3453C177.797 31.3453 177.92 31.4064 178.103 31.4064C178.286 31.4064 178.409 31.4675 178.592 31.4675L178.653 31.162C178.531 31.162 178.409 31.1009 178.286 31.1009C178.164 31.1009 178.042 31.0398 177.92 31.0398L177.981 30.6732C178.164 30.6732 178.347 30.7343 178.47 30.7343C178.653 30.7343 178.836 30.7954 178.958 30.7954L178.775 31.773C178.347 31.7119 177.92 31.6507 177.492 31.5896L177.431 31.8951C177.92 31.9562 178.47 32.0174 178.958 32.1395L179.264 30.6121C178.714 30.4899 178.164 30.4288 177.614 30.3677V31.3453Z" fill="#E9993E"/>
<path d="M181.342 31.2233L181.159 31.1622L180.975 31.1011L180.67 31.9565C180.975 32.0787 181.281 32.2008 181.586 32.323L181.709 32.0787L181.525 32.0176L181.342 31.9565C181.22 31.8954 181.159 31.8343 181.037 31.8343L181.159 31.5288C181.464 31.651 181.831 31.8343 182.136 32.0176L181.648 32.8729C181.281 32.6897 180.914 32.5064 180.548 32.3842L180.426 32.6897L180.609 32.7507L180.792 32.8118C180.914 32.8729 181.037 32.934 181.098 32.934C181.342 33.0562 181.525 33.1784 181.709 33.3006L182.564 31.9565C182.32 31.7732 182.075 31.651 181.77 31.5288C181.648 31.3455 181.464 31.2844 181.342 31.2233Z" fill="#E9993E"/>
<path d="M184.214 33.1785C184.153 33.1174 184.092 33.0564 184.031 32.9953C183.97 32.9342 183.909 32.873 183.848 32.873L183.237 33.5451C183.481 33.7895 183.725 33.9728 183.909 34.2172L184.153 34.0339C184.031 33.8506 183.848 33.6673 183.664 33.5451L183.909 33.3007C184.153 33.5451 184.397 33.7895 184.642 34.095L183.848 34.706C183.786 34.6449 183.725 34.5227 183.664 34.4616L183.542 34.3394L183.42 34.2172C183.359 34.1561 183.298 34.095 183.237 33.9728C183.175 33.9117 183.114 33.8506 182.992 33.7284L182.809 33.9728C182.87 34.0339 182.87 34.0339 182.931 34.095C182.992 34.1561 182.992 34.1561 183.053 34.2172C183.114 34.2783 183.114 34.2783 183.175 34.3394L183.298 34.4616C183.481 34.6449 183.603 34.8282 183.725 35.0115L185.008 34.095C184.825 33.8506 184.642 33.6062 184.459 33.4229L184.336 33.2396C184.275 33.3007 184.214 33.2396 184.214 33.1785Z" fill="#E9993E"/>
<path d="M185.008 36.0496C185.131 36.3551 185.253 36.6606 185.314 36.9661L185.619 36.905C185.558 36.7828 185.558 36.6606 185.497 36.5995L185.436 36.4162C185.436 36.3551 185.375 36.294 185.375 36.2329L185.681 36.1107C185.803 36.4162 185.925 36.7828 185.986 37.1494L185.008 37.3938C184.886 36.9661 184.764 36.5995 184.642 36.2329L184.397 36.3551C184.581 36.7828 184.703 37.2716 184.825 37.7604L186.353 37.3938C186.23 36.8439 186.047 36.294 185.803 35.7441L185.008 36.0496Z" fill="#E9993E"/>
<path d="M185.741 39.0435C185.803 39.349 185.803 39.7156 185.803 40.0211H186.108V39.6545L186.047 39.2879L186.414 39.2268C186.414 39.4101 186.475 39.5934 186.475 39.7156V39.96V40.2044L185.497 40.3877C185.497 39.96 185.436 39.5323 185.375 39.1046L185.069 39.1657C185.13 39.6545 185.192 40.2044 185.192 40.6932L186.78 40.6321C186.78 40.0822 186.719 39.5323 186.658 38.9824L185.741 39.0435Z" fill="#E9993E"/>
<path d="M183.908 55.7241C183.725 55.9685 183.48 56.2129 183.236 56.3962L183.847 57.0683C183.908 57.0072 183.969 56.9461 184.03 56.9461C184.091 56.885 184.152 56.8239 184.214 56.7628C184.275 56.7017 184.336 56.6406 184.397 56.5795L184.519 56.3962C184.702 56.1518 184.886 55.9685 185.069 55.7241L183.786 54.8076C183.664 54.9909 183.48 55.1742 183.358 55.3575L183.236 55.4797C183.175 55.5408 183.175 55.5408 183.114 55.6019C183.053 55.663 183.053 55.663 182.992 55.7241C182.93 55.7852 182.93 55.7852 182.869 55.8463L183.053 56.0907C183.114 56.0296 183.175 55.9685 183.297 55.8463C183.358 55.7852 183.419 55.7241 183.48 55.6019L183.603 55.4797L183.725 55.3575C183.786 55.2964 183.847 55.1742 183.908 55.1131L184.702 55.7241C184.458 56.0296 184.214 56.274 183.969 56.5184L183.725 56.274C183.908 56.0907 184.03 55.9685 184.214 55.7852L183.908 55.7241Z" fill="#E9993E"/>
<path d="M169.794 31.7725V31.467C169.366 31.467 168.939 31.467 168.511 31.5281L168.45 30.5506H168.939H169.427V30.9171C169.183 30.9171 169 30.9171 168.755 30.9171V31.2226C168.939 31.2226 169.061 31.2226 169.244 31.2226C169.427 31.2226 169.55 31.2226 169.733 31.2226V30.3062C169.183 30.3062 168.633 30.3061 168.083 30.3672L168.144 31.9558C168.755 31.8336 169.305 31.8336 169.794 31.7725Z" fill="#E9993E"/>
<path d="M174.437 31.1622C174.62 31.1622 174.742 31.1622 174.925 31.1622C175.109 31.1622 175.231 31.1622 175.414 31.1622V30.8567C175.17 30.8567 174.986 30.8567 174.742 30.8567V30.4901H175.231H175.72L175.659 31.4677C175.231 31.4677 174.803 31.4066 174.375 31.4066V31.7121C174.925 31.7121 175.414 31.7121 175.964 31.7732L176.025 30.1846C175.475 30.1846 174.925 30.1235 174.375 30.1235L174.437 31.1622Z" fill="#E9993E"/>
<path d="M184.886 52.3022C184.764 52.791 184.641 53.2798 184.458 53.7075L184.702 53.8297C184.886 53.4631 185.008 53.0354 185.069 52.6688L186.047 52.9132C185.985 53.2798 185.863 53.5853 185.741 53.9519L185.436 53.8297C185.436 53.7686 185.497 53.7075 185.497 53.6464L185.558 53.4631C185.619 53.3409 185.619 53.2187 185.68 53.1576L185.374 53.0965C185.313 53.402 185.191 53.7075 185.069 54.013L185.924 54.3796C186.169 53.8297 186.352 53.2798 186.474 52.7299L184.886 52.3022Z" fill="#E9993E"/>
<path d="M172.91 31.7731V31.4676H171.627V30.49H172.666V30.8566H171.994V31.1621H172.971V30.2456C172.421 30.2456 171.872 30.2456 171.383 30.2456V31.8342C171.872 31.7731 172.421 31.7731 172.91 31.7731Z" fill="#E9993E"/>
<path d="M136.92 60.856C136.798 60.856 136.676 60.7338 136.676 60.6116V25.2966C136.676 25.1744 136.798 25.0522 136.92 25.0522C137.042 25.0522 137.165 25.1744 137.165 25.2966V60.5505C137.165 60.7338 137.042 60.856 136.92 60.856Z" fill="#E9993E"/>
</svg>
