<svg width="527" height="317" viewBox="0 0 527 317" fill="none" xmlns="http://www.w3.org/2000/svg">
<path d="M28.3 71H9.9L0.5 0.999995H14.7L19.6 50.7L24.7 0.999995H37.7L28.3 71ZM54.7836 0.999995V71H40.7836V0.999995H54.7836ZM94.1219 71H80.5219L71.6219 32.9L71.8219 50.7L72.0219 71H59.9219V0.999995H74.2219L82.3219 35.7L82.1219 15.5L82.0219 0.999995H94.1219V71ZM113.182 0.999995V71H99.182V0.999995H113.182ZM134.82 71L129.52 24.7V71H118.32V0.999995H138.52L142.52 43.4L146.82 0.999995H167.12V71H153.32V25.2L148.02 71H134.82ZM206.929 58.6C206.929 67.3 202.629 71.6 193.929 71.6H184.929C176.229 71.6 171.929 67.3 171.929 58.6V13.4C171.929 4.7 176.229 0.399997 184.929 0.399997H193.929C202.629 0.399997 206.929 4.7 206.929 13.4V58.6ZM192.929 14.9C192.929 13.2 192.129 12.4 190.429 12.4H188.429C186.729 12.4 185.929 13.2 185.929 14.9V57.1C185.929 58.8 186.729 59.6 188.429 59.6H190.429C192.129 59.6 192.929 58.8 192.929 57.1V14.9ZM239.577 34.7C243.877 37.8 245.177 40.5 245.177 45.7V58.6C245.177 67.3 240.877 71.6 232.177 71.6H224.377C215.677 71.6 211.377 67.3 211.377 58.6V43.7H225.077V57.3C225.077 59 225.877 59.8 227.577 59.8H228.877C230.577 59.8 231.377 59 231.377 57.3V48.9C231.377 46.7 230.677 45.6 228.977 44.4L216.977 35.5C212.677 32.4 211.377 29.5 211.377 24.5V13.4C211.377 4.7 215.677 0.399997 224.377 0.399997H231.977C240.677 0.399997 244.977 4.7 244.977 13.4V26.2H231.277V14.7C231.277 13 230.477 12.2 228.777 12.2H227.677C225.977 12.2 225.177 13 225.177 14.7V21.3C225.177 23.5 225.877 24.6 227.577 25.8L239.577 34.7ZM298.449 71H284.549L283.449 60.8H274.649L273.649 71H260.949L270.149 0.999995H289.249L298.449 71ZM279.049 18.1L275.949 48.6H282.149L279.049 18.1ZM2.5 80H28V92.5H16.5V108.9H27.5V121.4H16.5V150H2.5V80ZM65.4414 150H51.5414L50.4414 139.8H41.6414L40.6414 150H27.9414L37.1414 80H56.2414L65.4414 150ZM46.0414 97.1L42.9414 127.6H49.1414L46.0414 97.1ZM88.5297 119.1H102.33V137.6C102.33 146.3 98.0297 150.6 89.3297 150.6H80.7297C72.0297 150.6 67.7297 146.3 67.7297 137.6V92.4C67.7297 83.7 72.0297 79.4 80.7297 79.4H89.1297C97.8297 79.4 102.13 83.7 102.13 92.4V108.8H88.3297V93.9C88.3297 92.2 87.5297 91.4 85.8297 91.4H84.2297C82.5297 91.4 81.7297 92.2 81.7297 93.9V136.1C81.7297 137.8 82.5297 138.6 84.2297 138.6H86.0297C87.7297 138.6 88.5297 137.8 88.5297 136.1V119.1ZM121.092 80V150H107.092V80H121.092ZM126.23 80H140.23V137.5H150.33V150H126.23V80ZM168.163 80V150H154.163V80H168.163ZM194.301 150H180.301V92.5H171.801V80H202.801V92.5H194.301V150ZM237.805 150H223.905L222.805 139.8H214.005L213.005 150H200.305L209.505 80H228.605L237.805 150ZM218.405 97.1L215.305 127.6H221.505L218.405 97.1ZM268.681 116.9C272.981 118.1 274.781 120.8 274.781 125.9V150H260.781V126C260.781 124.3 259.981 123.5 258.281 123.5H254.781V150H240.781V80H261.681C270.381 80 274.681 84.3 274.681 93V106.5C274.681 112.5 272.481 115.5 268.681 116.9ZM260.681 94.7C260.681 93 259.881 92.2 258.181 92.2H254.781V111.6H258.181C259.881 111.6 260.681 110.8 260.681 109.1V94.7ZM299.965 150H285.965V92.5H277.465V80H308.465V92.5H299.965V150ZM311.973 80H337.973V92.5H325.973V108.2H337.473V120.7H325.973V137.5H338.173V150H311.973V80ZM2.5 158H16.5V215.5H26.6V228H2.5V158ZM65.832 228H51.932L50.832 217.8H42.032L41.032 228H28.332L37.532 158H56.632L65.832 228ZM46.432 175.1L43.332 205.6H49.532L46.432 175.1ZM96.1203 191.7C100.42 194.8 101.72 197.5 101.72 202.7V215.6C101.72 224.3 97.4203 228.6 88.7203 228.6H80.9203C72.2203 228.6 67.9203 224.3 67.9203 215.6V200.7H81.6203V214.3C81.6203 216 82.4203 216.8 84.1203 216.8H85.4203C87.1203 216.8 87.9203 216 87.9203 214.3V205.9C87.9203 203.7 87.2203 202.6 85.5203 201.4L73.5203 192.5C69.2203 189.4 67.9203 186.5 67.9203 181.5V170.4C67.9203 161.7 72.2203 157.4 80.9203 157.4H88.5203C97.2203 157.4 101.52 161.7 101.52 170.4V183.2H87.8203V171.7C87.8203 170 87.0203 169.2 85.3203 169.2H84.2203C82.5203 169.2 81.7203 170 81.7203 171.7V178.3C81.7203 180.5 82.4203 181.6 84.1203 182.8L96.1203 191.7ZM140.092 197.1H153.892V215.6C153.892 224.3 149.592 228.6 140.892 228.6H132.292C123.592 228.6 119.292 224.3 119.292 215.6V170.4C119.292 161.7 123.592 157.4 132.292 157.4H140.692C149.392 157.4 153.692 161.7 153.692 170.4V186.8H139.892V171.9C139.892 170.2 139.092 169.4 137.392 169.4H135.792C134.092 169.4 133.292 170.2 133.292 171.9V214.1C133.292 215.8 134.092 216.6 135.792 216.6H137.592C139.292 216.6 140.092 215.8 140.092 214.1V197.1ZM193.355 215.6C193.355 224.3 189.055 228.6 180.355 228.6H171.355C162.655 228.6 158.355 224.3 158.355 215.6V170.4C158.355 161.7 162.655 157.4 171.355 157.4H180.355C189.055 157.4 193.355 161.7 193.355 170.4V215.6ZM179.355 171.9C179.355 170.2 178.555 169.4 176.855 169.4H174.855C173.155 169.4 172.355 170.2 172.355 171.9V214.1C172.355 215.8 173.155 216.6 174.855 216.6H176.855C178.555 216.6 179.355 215.8 179.355 214.1V171.9ZM226.003 191.7C230.303 194.8 231.603 197.5 231.603 202.7V215.6C231.603 224.3 227.303 228.6 218.603 228.6H210.803C202.103 228.6 197.803 224.3 197.803 215.6V200.7H211.503V214.3C211.503 216 212.303 216.8 214.003 216.8H215.303C217.003 216.8 217.803 216 217.803 214.3V205.9C217.803 203.7 217.103 202.6 215.403 201.4L203.403 192.5C199.103 189.4 197.803 186.5 197.803 181.5V170.4C197.803 161.7 202.103 157.4 210.803 157.4H218.403C227.103 157.4 231.403 161.7 231.403 170.4V183.2H217.703V171.7C217.703 170 216.903 169.2 215.203 169.2H214.103C212.403 169.2 211.603 170 211.603 171.7V178.3C211.603 180.5 212.303 181.6 214.003 182.8L226.003 191.7ZM270.813 228H256.913L255.813 217.8H247.013L246.012 228H233.313L242.513 158H261.613L270.813 228ZM251.413 175.1L248.313 205.6H254.513L251.413 175.1ZM301.101 191.7C305.401 194.8 306.701 197.5 306.701 202.7V215.6C306.701 224.3 302.401 228.6 293.701 228.6H285.901C277.201 228.6 272.901 224.3 272.901 215.6V200.7H286.601V214.3C286.601 216 287.401 216.8 289.101 216.8H290.401C292.101 216.8 292.901 216 292.901 214.3V205.9C292.901 203.7 292.201 202.6 290.501 201.4L278.501 192.5C274.201 189.4 272.901 186.5 272.901 181.5V170.4C272.901 161.7 277.201 157.4 285.901 157.4H293.501C302.201 157.4 306.501 161.7 306.501 170.4V183.2H292.801V171.7C292.801 170 292.001 169.2 290.301 169.2H289.201C287.501 169.2 286.701 170 286.701 171.7V178.3C286.701 180.5 287.401 181.6 289.101 182.8L301.101 191.7ZM323.198 212.6V228H310.198V212.6H323.198Z" fill="#FFF7D2"/>
<path d="M19.4 277.8L17.5 279.9C15.8 281.8 15.1 283.1 15.1 285.3V293.1C15.1 294.8 15.9 295.6 17.6 295.6H18.5C20.2 295.6 21 294.8 21 293.1V281.9H33.6V294.6C33.6 303.3 29.3 307.6 20.6 307.6H14.3C5.6 307.6 1.3 303.3 1.3 294.6V285.3C1.3 280.3 2.6 276.9 6.9 272.1L11.5 266.9C13.1 265 13.6 263.7 13.6 260.9V256H23.6V266.3C23.6 271.6 23 273.7 19.4 277.8ZM12.3 252.4V237H24.9V252.4H12.3ZM72.1633 249.4V293.6C72.1633 298.7 70.6633 301.9 67.7633 303.7L73.9633 306.3L67.3633 316.6L52.5633 307.6H50.1633C41.4633 307.6 37.1633 303.3 37.1633 294.6V249.4C37.1633 240.7 41.4633 236.4 50.1633 236.4H59.1633C67.8633 236.4 72.1633 240.7 72.1633 249.4ZM58.1633 293.1V250.9C58.1633 249.2 57.3633 248.4 55.6633 248.4H53.6633C51.9633 248.4 51.1633 249.2 51.1633 250.9V293.1C51.1633 294.8 51.9633 295.6 53.6633 295.6H55.6633C57.3633 295.6 58.1633 294.8 58.1633 293.1ZM111.412 237V294.6C111.412 303.3 107.112 307.6 98.4117 307.6H89.9117C81.2117 307.6 76.9117 303.3 76.9117 294.6V237H90.9117V293.1C90.9117 294.8 91.7117 295.6 93.4117 295.6H94.9117C96.6117 295.6 97.4117 294.8 97.4117 293.1V237H111.412ZM130.37 237V307H116.37V237H130.37ZM135.508 237H161.508V249.5H149.508V265.2H161.008V277.7H149.508V294.5H161.708V307H135.508V237ZM143.608 233.5L148.108 224H161.008L153.108 233.5H143.608ZM200.372 307H186.772L177.872 268.9L178.072 286.7L178.272 307H166.172V237H180.472L188.572 271.7L188.372 251.5L188.272 237H200.372V307ZM205.332 237H231.332V249.5H219.332V265.2H230.832V277.7H219.332V294.5H231.532V307H205.332V237ZM263.503 270.7C267.803 273.8 269.103 276.5 269.103 281.7V294.6C269.103 303.3 264.803 307.6 256.103 307.6H248.303C239.603 307.6 235.303 303.3 235.303 294.6V279.7H249.003V293.3C249.003 295 249.803 295.8 251.503 295.8H252.803C254.503 295.8 255.303 295 255.303 293.3V284.9C255.303 282.7 254.603 281.6 252.903 280.4L240.903 271.5C236.603 268.4 235.303 265.5 235.303 260.5V249.4C235.303 240.7 239.603 236.4 248.303 236.4H255.903C264.603 236.4 268.903 240.7 268.903 249.4V262.2H255.203V250.7C255.203 249 254.403 248.2 252.703 248.2H251.603C249.903 248.2 249.103 249 249.103 250.7V257.3C249.103 259.5 249.803 260.6 251.503 261.8L263.503 270.7ZM314.675 270.7C318.975 273.8 320.275 276.5 320.275 281.7V294.6C320.275 303.3 315.975 307.6 307.275 307.6H299.475C290.775 307.6 286.475 303.3 286.475 294.6V279.7H300.175V293.3C300.175 295 300.975 295.8 302.675 295.8H303.975C305.675 295.8 306.475 295 306.475 293.3V284.9C306.475 282.7 305.775 281.6 304.075 280.4L292.075 271.5C287.775 268.4 286.475 265.5 286.475 260.5V249.4C286.475 240.7 290.775 236.4 299.475 236.4H307.075C315.775 236.4 320.075 240.7 320.075 249.4V262.2H306.375V250.7C306.375 249 305.575 248.2 303.875 248.2H302.775C301.075 248.2 300.275 249 300.275 250.7V257.3C300.275 259.5 300.975 260.6 302.675 261.8L314.675 270.7ZM359.273 294.6C359.273 303.3 354.973 307.6 346.273 307.6H337.273C328.573 307.6 324.273 303.3 324.273 294.6V249.4C324.273 240.7 328.573 236.4 337.273 236.4H346.273C354.973 236.4 359.273 240.7 359.273 249.4V294.6ZM345.273 250.9C345.273 249.2 344.473 248.4 342.773 248.4H340.773C339.073 248.4 338.273 249.2 338.273 250.9V293.1C338.273 294.8 339.073 295.6 340.773 295.6H342.773C344.473 295.6 345.273 294.8 345.273 293.1V250.9ZM380.621 307L375.321 260.7V307H364.121V237H384.321L388.321 279.4L392.621 237H412.921V307H399.121V261.2L393.821 307H380.621ZM452.73 294.6C452.73 303.3 448.43 307.6 439.73 307.6H430.73C422.03 307.6 417.73 303.3 417.73 294.6V249.4C417.73 240.7 422.03 236.4 430.73 236.4H439.73C448.43 236.4 452.73 240.7 452.73 249.4V294.6ZM438.73 250.9C438.73 249.2 437.93 248.4 436.23 248.4H434.23C432.53 248.4 431.73 249.2 431.73 250.9V293.1C431.73 294.8 432.53 295.6 434.23 295.6H436.23C437.93 295.6 438.73 294.8 438.73 293.1V250.9ZM485.378 270.7C489.678 273.8 490.978 276.5 490.978 281.7V294.6C490.978 303.3 486.678 307.6 477.978 307.6H470.178C461.478 307.6 457.178 303.3 457.178 294.6V279.7H470.878V293.3C470.878 295 471.678 295.8 473.378 295.8H474.678C476.378 295.8 477.178 295 477.178 293.3V284.9C477.178 282.7 476.478 281.6 474.778 280.4L462.778 271.5C458.478 268.4 457.178 265.5 457.178 260.5V249.4C457.178 240.7 461.478 236.4 470.178 236.4H477.778C486.478 236.4 490.778 240.7 490.778 249.4V262.2H477.078V250.7C477.078 249 476.278 248.2 474.578 248.2H473.478C471.778 248.2 470.978 249 470.978 250.7V257.3C470.978 259.5 471.678 260.6 473.378 261.8L485.378 270.7ZM508.176 266.2L510.076 264.1C511.776 262.2 512.476 260.9 512.476 258.7V250.9C512.476 249.2 511.676 248.4 509.976 248.4H509.076C507.376 248.4 506.576 249.2 506.576 250.9V262.1H493.976V249.4C493.976 240.7 498.276 236.4 506.976 236.4H513.276C521.976 236.4 526.276 240.7 526.276 249.4V258.7C526.276 263.7 524.976 267.1 520.676 271.9L516.076 277.1C514.476 279 513.976 280.3 513.976 283.1V288H503.976V277.7C503.976 272.4 504.576 270.3 508.176 266.2ZM515.276 291.6V307H502.676V291.6H515.276Z" fill="#E9993E"/>
</svg>
