<svg width="611" height="72" viewBox="0 0 611 72" fill="none" xmlns="http://www.w3.org/2000/svg">
<path d="M22.5 0.999995H35.7L39.7 38.2L43.3 0.999995H55.7L47.2 71H31.8L28.1 39.1L24.6 71H9.2L0.7 0.999995H14.9L18.5 38.5L22.5 0.999995ZM58.9453 0.999995H84.9453V13.5H72.9453V29.2H84.4453V41.7H72.9453V58.5H85.1453V71H58.9453V0.999995ZM138.684 71H124.784L123.684 60.8H114.884L113.884 71H101.184L110.384 0.999995H129.484L138.684 71ZM119.284 18.1L116.184 48.6H122.384L119.284 18.1ZM169.56 37.9C173.86 39.1 175.66 41.8 175.66 46.9V71H161.66V47C161.66 45.3 160.86 44.5 159.16 44.5H155.66V71H141.66V0.999995H162.56C171.26 0.999995 175.56 5.3 175.56 14V27.5C175.56 33.5 173.36 36.5 169.56 37.9ZM161.56 15.7C161.56 14 160.76 13.2 159.06 13.2H155.66V32.6H159.06C160.76 32.6 161.56 31.8 161.56 30.1V15.7ZM180.332 0.999995H206.332V13.5H194.332V29.2H205.832V41.7H194.332V58.5H206.532V71H180.332V0.999995ZM238.57 29.2H245.57V0.999995H259.57V71H245.57V41.7H238.57V71H224.57V0.999995H238.57V29.2ZM264.609 0.999995H290.609V13.5H278.609V29.2H290.109V41.7H278.609V58.5H290.809V71H264.609V0.999995ZM323.173 37.9C327.473 39.1 329.273 41.8 329.273 46.9V71H315.273V47C315.273 45.3 314.473 44.5 312.773 44.5H309.273V71H295.273V0.999995H316.173C324.873 0.999995 329.173 5.3 329.173 14V27.5C329.173 33.5 326.973 36.5 323.173 37.9ZM315.173 15.7C315.173 14 314.373 13.2 312.673 13.2H309.273V32.6H312.673C314.373 32.6 315.173 31.8 315.173 30.1V15.7ZM333.945 0.999995H359.945V13.5H347.945V29.2H359.445V41.7H347.945V58.5H360.145V71H333.945V0.999995ZM378.184 0.999995H403.684V13.5H392.184V29.9H403.184V42.4H392.184V71H378.184V0.999995ZM442.378 58.6C442.378 67.3 438.078 71.6 429.378 71.6H420.378C411.678 71.6 407.378 67.3 407.378 58.6V13.4C407.378 4.7 411.678 0.399997 420.378 0.399997H429.378C438.078 0.399997 442.378 4.7 442.378 13.4V58.6ZM428.378 14.9C428.378 13.2 427.578 12.4 425.878 12.4H423.878C422.178 12.4 421.378 13.2 421.378 14.9V57.1C421.378 58.8 422.178 59.6 423.878 59.6H425.878C427.578 59.6 428.378 58.8 428.378 57.1V14.9ZM475.127 37.9C479.427 39.1 481.227 41.8 481.227 46.9V71H467.227V47C467.227 45.3 466.427 44.5 464.727 44.5H461.227V71H447.227V0.999995H468.127C476.827 0.999995 481.127 5.3 481.127 14V27.5C481.127 33.5 478.927 36.5 475.127 37.9ZM467.127 15.7C467.127 14 466.327 13.2 464.627 13.2H461.227V32.6H464.627C466.327 32.6 467.127 31.8 467.127 30.1V15.7ZM522.673 46.1V71H508.673V47.1L496.873 0.999995H511.473L516.173 24.8L521.173 0.999995H534.473L522.673 46.1ZM570.894 58.6C570.894 67.3 566.594 71.6 557.894 71.6H548.894C540.194 71.6 535.894 67.3 535.894 58.6V13.4C535.894 4.7 540.194 0.399997 548.894 0.399997H557.894C566.594 0.399997 570.894 4.7 570.894 13.4V58.6ZM556.894 14.9C556.894 13.2 556.094 12.4 554.394 12.4H552.394C550.694 12.4 549.894 13.2 549.894 14.9V57.1C549.894 58.8 550.694 59.6 552.394 59.6H554.394C556.094 59.6 556.894 58.8 556.894 57.1V14.9ZM610.142 0.999995V58.6C610.142 67.3 605.842 71.6 597.142 71.6H588.642C579.942 71.6 575.642 67.3 575.642 58.6V0.999995H589.642V57.1C589.642 58.8 590.442 59.6 592.142 59.6H593.642C595.342 59.6 596.142 58.8 596.142 57.1V0.999995H610.142Z" fill="#E9993E"/>
</svg>
