<svg width="569" height="192" viewBox="0 0 569 192" fill="none" xmlns="http://www.w3.org/2000/svg">
<path d="M28.575 1.09999H45.339L50.419 48.344L54.991 1.09999H70.739L59.944 90H40.386L35.687 49.487L31.242 90H11.684L0.889 1.09999H18.923L23.495 48.725L28.575 1.09999ZM75.3605 1.09999H108.381V16.975H93.1405V36.914H107.746V52.789H93.1405V74.125H108.635V90H75.3605V1.09999ZM114.804 1.09999H132.584V74.125H145.411V90H114.804V1.09999ZM176.192 50.757H193.718V74.252C193.718 85.301 188.257 90.762 177.208 90.762H166.286C155.237 90.762 149.776 85.301 149.776 74.252V16.848C149.776 5.79899 155.237 0.337996 166.286 0.337996H176.954C188.003 0.337996 193.464 5.79899 193.464 16.848V37.676H175.938V18.753C175.938 16.594 174.922 15.578 172.763 15.578H170.731C168.572 15.578 167.556 16.594 167.556 18.753V72.347C167.556 74.506 168.572 75.522 170.731 75.522H173.017C175.176 75.522 176.192 74.506 176.192 72.347V50.757ZM244.336 74.252C244.336 85.301 238.875 90.762 227.826 90.762H216.396C205.347 90.762 199.886 85.301 199.886 74.252V16.848C199.886 5.79899 205.347 0.337996 216.396 0.337996H227.826C238.875 0.337996 244.336 5.79899 244.336 16.848V74.252ZM226.556 18.753C226.556 16.594 225.54 15.578 223.381 15.578H220.841C218.682 15.578 217.666 16.594 217.666 18.753V72.347C217.666 74.506 218.682 75.522 220.841 75.522H223.381C225.54 75.522 226.556 74.506 226.556 72.347V18.753ZM271.948 90L265.217 31.199V90H250.993V1.09999H276.647L281.727 54.948L287.188 1.09999H312.969V90H295.443V31.834L288.712 90H271.948ZM319.83 1.09999H352.85V16.975H337.61V36.914H352.215V52.789H337.61V74.125H353.104V90H319.83V1.09999ZM403.683 90H385.903V16.975H375.108V1.09999H414.478V16.975H403.683V90ZM463.009 74.252C463.009 85.301 457.548 90.762 446.499 90.762H435.069C424.02 90.762 418.559 85.301 418.559 74.252V16.848C418.559 5.79899 424.02 0.337996 435.069 0.337996H446.499C457.548 0.337996 463.009 5.79899 463.009 16.848V74.252ZM445.229 18.753C445.229 16.594 444.213 15.578 442.054 15.578H439.514C437.355 15.578 436.339 16.594 436.339 18.753V72.347C436.339 74.506 437.355 75.522 439.514 75.522H442.054C444.213 75.522 445.229 74.506 445.229 72.347V18.753Z" fill="#114550"/>
<path d="M3.175 102.1H20.955V175.125H33.782V191H3.175V102.1ZM84.1067 191H66.4537L65.0567 178.046H53.8807L52.6107 191H36.4817L48.1657 102.1H72.4227L84.1067 191ZM59.4687 123.817L55.5317 162.552H63.4057L59.4687 123.817ZM132.288 151.757H149.814V175.252C149.814 186.301 144.353 191.762 133.304 191.762H122.382C111.333 191.762 105.872 186.301 105.872 175.252V117.848C105.872 106.799 111.333 101.338 122.382 101.338H133.05C144.099 101.338 149.56 106.799 149.56 117.848V138.676H132.034V119.753C132.034 117.594 131.018 116.578 128.859 116.578H126.827C124.668 116.578 123.652 117.594 123.652 119.753V173.347C123.652 175.506 124.668 176.522 126.827 176.522H129.113C131.272 176.522 132.288 175.506 132.288 173.347V151.757ZM200.7 191H183.047L181.65 178.046H170.474L169.204 191H153.075L164.759 102.1H189.016L200.7 191ZM176.062 123.817L172.125 162.552H179.999L176.062 123.817ZM248.049 102.1V175.252C248.049 186.301 242.588 191.762 231.539 191.762H220.744C209.695 191.762 204.234 186.301 204.234 175.252V102.1H222.014V173.347C222.014 175.506 223.03 176.522 225.189 176.522H227.094C229.253 176.522 230.269 175.506 230.269 173.347V102.1H248.049ZM290.024 144.899C295.485 148.836 297.136 152.265 297.136 158.869V175.252C297.136 186.301 291.675 191.762 280.626 191.762H270.72C259.671 191.762 254.21 186.301 254.21 175.252V156.329H271.609V173.601C271.609 175.76 272.625 176.776 274.784 176.776H276.435C278.594 176.776 279.61 175.76 279.61 173.601V162.933C279.61 160.139 278.721 158.742 276.562 157.218L261.322 145.915C255.861 141.978 254.21 138.295 254.21 131.945V117.848C254.21 106.799 259.671 101.338 270.72 101.338H280.372C291.421 101.338 296.882 106.799 296.882 117.848V134.104H279.483V119.499C279.483 117.34 278.467 116.324 276.308 116.324H274.911C272.752 116.324 271.736 117.34 271.736 119.499V127.881C271.736 130.675 272.625 132.072 274.784 133.596L290.024 144.899ZM347.432 191H329.779L328.382 178.046H317.206L315.936 191H299.807L311.491 102.1H335.748L347.432 191ZM322.794 123.817L318.857 162.552H326.731L322.794 123.817ZM402.217 191H378.849L366.911 102.1H384.945L391.168 165.219L397.645 102.1H414.155L402.217 191ZM436.352 102.1V191H418.572V102.1H436.352ZM478.683 144.899C484.144 148.836 485.795 152.265 485.795 158.869V175.252C485.795 186.301 480.334 191.762 469.285 191.762H459.379C448.33 191.762 442.869 186.301 442.869 175.252V156.329H460.268V173.601C460.268 175.76 461.284 176.776 463.443 176.776H465.094C467.253 176.776 468.269 175.76 468.269 173.601V162.933C468.269 160.139 467.38 158.742 465.221 157.218L449.981 145.915C444.52 141.978 442.869 138.295 442.869 131.945V117.848C442.869 106.799 448.33 101.338 459.379 101.338H469.031C480.08 101.338 485.541 106.799 485.541 117.848V134.104H468.142V119.499C468.142 117.34 467.126 116.324 464.967 116.324H463.57C461.411 116.324 460.395 117.34 460.395 119.499V127.881C460.395 130.675 461.284 132.072 463.443 133.596L478.683 144.899ZM536.091 191H518.438L517.041 178.046H505.865L504.595 191H488.466L500.15 102.1H524.407L536.091 191ZM511.453 123.817L507.516 162.552H515.39L511.453 123.817Z" fill="#E9993E"/>
<path d="M551.05 118.062H548.2L546.85 107.512V118.062H544.25V102.812H548.8L549.95 112.862L551 102.812H555.65V118.062H552.4V107.762L551.05 118.062ZM541.05 118.062H537.75V105.712H535.45V102.812H543.35V105.712H541.05V118.062Z" fill="#E9993E"/>
</svg>
